G04 #@! TF.GenerationSoftware,KiCad,Pcbnew,(5.1.0)-1*
G04 #@! TF.CreationDate,2020-05-29T16:33:31+02:00*
G04 #@! TF.ProjectId,motortreiber,6d6f746f-7274-4726-9569-6265722e6b69,rev?*
G04 #@! TF.SameCoordinates,Original*
G04 #@! TF.FileFunction,Copper,L4,Bot*
G04 #@! TF.FilePolarity,Positive*
%FSLAX46Y46*%
G04 Gerber Fmt 4.6, Leading zero omitted, Abs format (unit mm)*
G04 Created by KiCad (PCBNEW (5.1.0)-1) date 2020-05-29 16:33:31*
%MOMM*%
%LPD*%
G04 APERTURE LIST*
%ADD10O,1.800000X3.600000*%
%ADD11C,0.100000*%
%ADD12C,1.800000*%
%ADD13O,3.600000X1.800000*%
%ADD14C,0.700000*%
%ADD15C,0.300000*%
%ADD16C,0.500000*%
%ADD17C,0.254000*%
G04 APERTURE END LIST*
D10*
X165430000Y-109500000D03*
X161620000Y-109500000D03*
X157810000Y-109500000D03*
D11*
G36*
X154674504Y-107701204D02*
G01*
X154698773Y-107704804D01*
X154722571Y-107710765D01*
X154745671Y-107719030D01*
X154767849Y-107729520D01*
X154788893Y-107742133D01*
X154808598Y-107756747D01*
X154826777Y-107773223D01*
X154843253Y-107791402D01*
X154857867Y-107811107D01*
X154870480Y-107832151D01*
X154880970Y-107854329D01*
X154889235Y-107877429D01*
X154895196Y-107901227D01*
X154898796Y-107925496D01*
X154900000Y-107950000D01*
X154900000Y-111050000D01*
X154898796Y-111074504D01*
X154895196Y-111098773D01*
X154889235Y-111122571D01*
X154880970Y-111145671D01*
X154870480Y-111167849D01*
X154857867Y-111188893D01*
X154843253Y-111208598D01*
X154826777Y-111226777D01*
X154808598Y-111243253D01*
X154788893Y-111257867D01*
X154767849Y-111270480D01*
X154745671Y-111280970D01*
X154722571Y-111289235D01*
X154698773Y-111295196D01*
X154674504Y-111298796D01*
X154650000Y-111300000D01*
X153350000Y-111300000D01*
X153325496Y-111298796D01*
X153301227Y-111295196D01*
X153277429Y-111289235D01*
X153254329Y-111280970D01*
X153232151Y-111270480D01*
X153211107Y-111257867D01*
X153191402Y-111243253D01*
X153173223Y-111226777D01*
X153156747Y-111208598D01*
X153142133Y-111188893D01*
X153129520Y-111167849D01*
X153119030Y-111145671D01*
X153110765Y-111122571D01*
X153104804Y-111098773D01*
X153101204Y-111074504D01*
X153100000Y-111050000D01*
X153100000Y-107950000D01*
X153101204Y-107925496D01*
X153104804Y-107901227D01*
X153110765Y-107877429D01*
X153119030Y-107854329D01*
X153129520Y-107832151D01*
X153142133Y-107811107D01*
X153156747Y-107791402D01*
X153173223Y-107773223D01*
X153191402Y-107756747D01*
X153211107Y-107742133D01*
X153232151Y-107729520D01*
X153254329Y-107719030D01*
X153277429Y-107710765D01*
X153301227Y-107704804D01*
X153325496Y-107701204D01*
X153350000Y-107700000D01*
X154650000Y-107700000D01*
X154674504Y-107701204D01*
X154674504Y-107701204D01*
G37*
D12*
X154000000Y-109500000D03*
D10*
X147430000Y-109500000D03*
X143620000Y-109500000D03*
X139810000Y-109500000D03*
D11*
G36*
X136674504Y-107701204D02*
G01*
X136698773Y-107704804D01*
X136722571Y-107710765D01*
X136745671Y-107719030D01*
X136767849Y-107729520D01*
X136788893Y-107742133D01*
X136808598Y-107756747D01*
X136826777Y-107773223D01*
X136843253Y-107791402D01*
X136857867Y-107811107D01*
X136870480Y-107832151D01*
X136880970Y-107854329D01*
X136889235Y-107877429D01*
X136895196Y-107901227D01*
X136898796Y-107925496D01*
X136900000Y-107950000D01*
X136900000Y-111050000D01*
X136898796Y-111074504D01*
X136895196Y-111098773D01*
X136889235Y-111122571D01*
X136880970Y-111145671D01*
X136870480Y-111167849D01*
X136857867Y-111188893D01*
X136843253Y-111208598D01*
X136826777Y-111226777D01*
X136808598Y-111243253D01*
X136788893Y-111257867D01*
X136767849Y-111270480D01*
X136745671Y-111280970D01*
X136722571Y-111289235D01*
X136698773Y-111295196D01*
X136674504Y-111298796D01*
X136650000Y-111300000D01*
X135350000Y-111300000D01*
X135325496Y-111298796D01*
X135301227Y-111295196D01*
X135277429Y-111289235D01*
X135254329Y-111280970D01*
X135232151Y-111270480D01*
X135211107Y-111257867D01*
X135191402Y-111243253D01*
X135173223Y-111226777D01*
X135156747Y-111208598D01*
X135142133Y-111188893D01*
X135129520Y-111167849D01*
X135119030Y-111145671D01*
X135110765Y-111122571D01*
X135104804Y-111098773D01*
X135101204Y-111074504D01*
X135100000Y-111050000D01*
X135100000Y-107950000D01*
X135101204Y-107925496D01*
X135104804Y-107901227D01*
X135110765Y-107877429D01*
X135119030Y-107854329D01*
X135129520Y-107832151D01*
X135142133Y-107811107D01*
X135156747Y-107791402D01*
X135173223Y-107773223D01*
X135191402Y-107756747D01*
X135211107Y-107742133D01*
X135232151Y-107729520D01*
X135254329Y-107719030D01*
X135277429Y-107710765D01*
X135301227Y-107704804D01*
X135325496Y-107701204D01*
X135350000Y-107700000D01*
X136650000Y-107700000D01*
X136674504Y-107701204D01*
X136674504Y-107701204D01*
G37*
D12*
X136000000Y-109500000D03*
D13*
X126500000Y-77810000D03*
D11*
G36*
X128074504Y-73101204D02*
G01*
X128098773Y-73104804D01*
X128122571Y-73110765D01*
X128145671Y-73119030D01*
X128167849Y-73129520D01*
X128188893Y-73142133D01*
X128208598Y-73156747D01*
X128226777Y-73173223D01*
X128243253Y-73191402D01*
X128257867Y-73211107D01*
X128270480Y-73232151D01*
X128280970Y-73254329D01*
X128289235Y-73277429D01*
X128295196Y-73301227D01*
X128298796Y-73325496D01*
X128300000Y-73350000D01*
X128300000Y-74650000D01*
X128298796Y-74674504D01*
X128295196Y-74698773D01*
X128289235Y-74722571D01*
X128280970Y-74745671D01*
X128270480Y-74767849D01*
X128257867Y-74788893D01*
X128243253Y-74808598D01*
X128226777Y-74826777D01*
X128208598Y-74843253D01*
X128188893Y-74857867D01*
X128167849Y-74870480D01*
X128145671Y-74880970D01*
X128122571Y-74889235D01*
X128098773Y-74895196D01*
X128074504Y-74898796D01*
X128050000Y-74900000D01*
X124950000Y-74900000D01*
X124925496Y-74898796D01*
X124901227Y-74895196D01*
X124877429Y-74889235D01*
X124854329Y-74880970D01*
X124832151Y-74870480D01*
X124811107Y-74857867D01*
X124791402Y-74843253D01*
X124773223Y-74826777D01*
X124756747Y-74808598D01*
X124742133Y-74788893D01*
X124729520Y-74767849D01*
X124719030Y-74745671D01*
X124710765Y-74722571D01*
X124704804Y-74698773D01*
X124701204Y-74674504D01*
X124700000Y-74650000D01*
X124700000Y-73350000D01*
X124701204Y-73325496D01*
X124704804Y-73301227D01*
X124710765Y-73277429D01*
X124719030Y-73254329D01*
X124729520Y-73232151D01*
X124742133Y-73211107D01*
X124756747Y-73191402D01*
X124773223Y-73173223D01*
X124791402Y-73156747D01*
X124811107Y-73142133D01*
X124832151Y-73129520D01*
X124854329Y-73119030D01*
X124877429Y-73110765D01*
X124901227Y-73104804D01*
X124925496Y-73101204D01*
X124950000Y-73100000D01*
X128050000Y-73100000D01*
X128074504Y-73101204D01*
X128074504Y-73101204D01*
G37*
D12*
X126500000Y-74000000D03*
D13*
X126500000Y-91720000D03*
X126500000Y-87910000D03*
D11*
G36*
X128074504Y-83201204D02*
G01*
X128098773Y-83204804D01*
X128122571Y-83210765D01*
X128145671Y-83219030D01*
X128167849Y-83229520D01*
X128188893Y-83242133D01*
X128208598Y-83256747D01*
X128226777Y-83273223D01*
X128243253Y-83291402D01*
X128257867Y-83311107D01*
X128270480Y-83332151D01*
X128280970Y-83354329D01*
X128289235Y-83377429D01*
X128295196Y-83401227D01*
X128298796Y-83425496D01*
X128300000Y-83450000D01*
X128300000Y-84750000D01*
X128298796Y-84774504D01*
X128295196Y-84798773D01*
X128289235Y-84822571D01*
X128280970Y-84845671D01*
X128270480Y-84867849D01*
X128257867Y-84888893D01*
X128243253Y-84908598D01*
X128226777Y-84926777D01*
X128208598Y-84943253D01*
X128188893Y-84957867D01*
X128167849Y-84970480D01*
X128145671Y-84980970D01*
X128122571Y-84989235D01*
X128098773Y-84995196D01*
X128074504Y-84998796D01*
X128050000Y-85000000D01*
X124950000Y-85000000D01*
X124925496Y-84998796D01*
X124901227Y-84995196D01*
X124877429Y-84989235D01*
X124854329Y-84980970D01*
X124832151Y-84970480D01*
X124811107Y-84957867D01*
X124791402Y-84943253D01*
X124773223Y-84926777D01*
X124756747Y-84908598D01*
X124742133Y-84888893D01*
X124729520Y-84867849D01*
X124719030Y-84845671D01*
X124710765Y-84822571D01*
X124704804Y-84798773D01*
X124701204Y-84774504D01*
X124700000Y-84750000D01*
X124700000Y-83450000D01*
X124701204Y-83425496D01*
X124704804Y-83401227D01*
X124710765Y-83377429D01*
X124719030Y-83354329D01*
X124729520Y-83332151D01*
X124742133Y-83311107D01*
X124756747Y-83291402D01*
X124773223Y-83273223D01*
X124791402Y-83256747D01*
X124811107Y-83242133D01*
X124832151Y-83229520D01*
X124854329Y-83219030D01*
X124877429Y-83210765D01*
X124901227Y-83204804D01*
X124925496Y-83201204D01*
X124950000Y-83200000D01*
X128050000Y-83200000D01*
X128074504Y-83201204D01*
X128074504Y-83201204D01*
G37*
D12*
X126500000Y-84100000D03*
D13*
X194100000Y-84880000D03*
X194100000Y-88690000D03*
D11*
G36*
X195674504Y-91601204D02*
G01*
X195698773Y-91604804D01*
X195722571Y-91610765D01*
X195745671Y-91619030D01*
X195767849Y-91629520D01*
X195788893Y-91642133D01*
X195808598Y-91656747D01*
X195826777Y-91673223D01*
X195843253Y-91691402D01*
X195857867Y-91711107D01*
X195870480Y-91732151D01*
X195880970Y-91754329D01*
X195889235Y-91777429D01*
X195895196Y-91801227D01*
X195898796Y-91825496D01*
X195900000Y-91850000D01*
X195900000Y-93150000D01*
X195898796Y-93174504D01*
X195895196Y-93198773D01*
X195889235Y-93222571D01*
X195880970Y-93245671D01*
X195870480Y-93267849D01*
X195857867Y-93288893D01*
X195843253Y-93308598D01*
X195826777Y-93326777D01*
X195808598Y-93343253D01*
X195788893Y-93357867D01*
X195767849Y-93370480D01*
X195745671Y-93380970D01*
X195722571Y-93389235D01*
X195698773Y-93395196D01*
X195674504Y-93398796D01*
X195650000Y-93400000D01*
X192550000Y-93400000D01*
X192525496Y-93398796D01*
X192501227Y-93395196D01*
X192477429Y-93389235D01*
X192454329Y-93380970D01*
X192432151Y-93370480D01*
X192411107Y-93357867D01*
X192391402Y-93343253D01*
X192373223Y-93326777D01*
X192356747Y-93308598D01*
X192342133Y-93288893D01*
X192329520Y-93267849D01*
X192319030Y-93245671D01*
X192310765Y-93222571D01*
X192304804Y-93198773D01*
X192301204Y-93174504D01*
X192300000Y-93150000D01*
X192300000Y-91850000D01*
X192301204Y-91825496D01*
X192304804Y-91801227D01*
X192310765Y-91777429D01*
X192319030Y-91754329D01*
X192329520Y-91732151D01*
X192342133Y-91711107D01*
X192356747Y-91691402D01*
X192373223Y-91673223D01*
X192391402Y-91656747D01*
X192411107Y-91642133D01*
X192432151Y-91629520D01*
X192454329Y-91619030D01*
X192477429Y-91610765D01*
X192501227Y-91604804D01*
X192525496Y-91601204D01*
X192550000Y-91600000D01*
X195650000Y-91600000D01*
X195674504Y-91601204D01*
X195674504Y-91601204D01*
G37*
D12*
X194100000Y-92500000D03*
D14*
X137600000Y-82400000D03*
X161600000Y-73500000D03*
X164500000Y-73500000D03*
X153800000Y-73500000D03*
X156800000Y-73500000D03*
X179900000Y-107300000D03*
X173640000Y-106160000D03*
X173640000Y-104960000D03*
X175540000Y-106910000D03*
X173740000Y-81360000D03*
X173740000Y-80160000D03*
X175540000Y-82110000D03*
X175640000Y-93510000D03*
X173840000Y-92760000D03*
X173840000Y-91560000D03*
X135600000Y-74200000D03*
X135600000Y-73300000D03*
X195450000Y-108085000D03*
X195450000Y-109085000D03*
X189150000Y-106085000D03*
X189950000Y-106085000D03*
X180750000Y-92085000D03*
X181850000Y-93385000D03*
X182650000Y-93385000D03*
X180750000Y-105685000D03*
X181850000Y-106985000D03*
X182650000Y-106985000D03*
X182600000Y-82100000D03*
X180700000Y-80800000D03*
X181800000Y-82100000D03*
X192500000Y-74300000D03*
X191000000Y-105600000D03*
X120900000Y-94900000D03*
X120800000Y-107400000D03*
X134900000Y-79800000D03*
X146450000Y-81950000D03*
X197200000Y-73400000D03*
X197200000Y-81950000D03*
X199750000Y-81950000D03*
X199750000Y-105150000D03*
X197150000Y-101900000D03*
X197150000Y-96500000D03*
X188050000Y-114485000D03*
X191150000Y-114515000D03*
X195550000Y-114485000D03*
X198650000Y-114515000D03*
X164500000Y-80200000D03*
X161600000Y-80200000D03*
X153800000Y-80200000D03*
X156800000Y-80200000D03*
X129025000Y-102475000D03*
X128550000Y-103150000D03*
X149100000Y-103850000D03*
X174250000Y-109300000D03*
X174250000Y-108400000D03*
X170900000Y-115675000D03*
X170100000Y-115675000D03*
X174000000Y-73200000D03*
X180400000Y-95200000D03*
X190000000Y-92200000D03*
X132600000Y-105700000D03*
X141200000Y-105600000D03*
X149850000Y-73300000D03*
X150650000Y-73300000D03*
X184850000Y-93385000D03*
X186750000Y-92085000D03*
X185650000Y-93385000D03*
X148000000Y-98900000D03*
X136000000Y-95400000D03*
X135700000Y-84700000D03*
X160100000Y-97600000D03*
X150200000Y-94100000D03*
X156300000Y-87400000D03*
X154500000Y-91300000D03*
X184850000Y-106985000D03*
X185650000Y-106985000D03*
X185600000Y-82100000D03*
X186700000Y-80800000D03*
X167600000Y-81300000D03*
X167600000Y-80100000D03*
X167450000Y-104940000D03*
X167450000Y-106140000D03*
X167710000Y-92740000D03*
X167710000Y-91540000D03*
X174050000Y-97540000D03*
X174110000Y-84140000D03*
X184800000Y-82100000D03*
X156100000Y-100100000D03*
X161400000Y-100600000D03*
X128900000Y-85900000D03*
X126625000Y-108400000D03*
X124000000Y-107800000D03*
X132300000Y-87300000D03*
X198450000Y-81950000D03*
X198400000Y-72600000D03*
X198450000Y-105500000D03*
X198400000Y-96500000D03*
X135300000Y-92300000D03*
X187800000Y-92200000D03*
X156150000Y-104800000D03*
X128700000Y-105600000D03*
X150650000Y-79500000D03*
X149850000Y-79500000D03*
X148000000Y-90600000D03*
X148000000Y-97700000D03*
X135900000Y-98400000D03*
X138700000Y-86500000D03*
X158300000Y-86800000D03*
X120700000Y-108400000D03*
X141900000Y-92100000D03*
X127900000Y-113800000D03*
X130100000Y-95300000D03*
X130090000Y-96210000D03*
X135500000Y-75600000D03*
X135500000Y-76500000D03*
X188000000Y-85500000D03*
X189000000Y-85500000D03*
X188000000Y-86500000D03*
X189000000Y-86500000D03*
X188000000Y-87500000D03*
X189000000Y-87500000D03*
X188000000Y-88500000D03*
X189000000Y-88500000D03*
X188000000Y-89500000D03*
X189000000Y-89500000D03*
X189000000Y-99300000D03*
X188000000Y-100300000D03*
X189000000Y-103300000D03*
X189000000Y-102300000D03*
X189000000Y-100300000D03*
X188000000Y-101300000D03*
X188000000Y-103300000D03*
X189000000Y-101300000D03*
X188000000Y-99300000D03*
X188000000Y-102300000D03*
X133800000Y-99200000D03*
X122800000Y-115700000D03*
X120100000Y-110300000D03*
X136000000Y-94400000D03*
X139600000Y-94400000D03*
X140700000Y-94400000D03*
X166700000Y-91800000D03*
X147850000Y-86050000D03*
X163525000Y-103000000D03*
X141200000Y-102600000D03*
X165900000Y-92400000D03*
X144000000Y-85200000D03*
X147350000Y-85200000D03*
X166400000Y-85500000D03*
X163500000Y-101300000D03*
X143700000Y-101300000D03*
X153050000Y-81400000D03*
X165650000Y-82000000D03*
X149500000Y-97200000D03*
X157250000Y-97600000D03*
X188900000Y-74300000D03*
X187900000Y-75300000D03*
X188900000Y-78300000D03*
X188900000Y-77300000D03*
X188900000Y-75300000D03*
X187900000Y-76300000D03*
X187900000Y-78300000D03*
X188900000Y-76300000D03*
X187900000Y-74300000D03*
X187900000Y-77300000D03*
X147800000Y-83600000D03*
X166500000Y-74400000D03*
X146000000Y-102200000D03*
X164300000Y-100000000D03*
X166500000Y-75700000D03*
X142500000Y-84500000D03*
X133500000Y-76400000D03*
X199500000Y-72600000D03*
X197100000Y-94300000D03*
X162500000Y-93300000D03*
X162600000Y-96000000D03*
X177300000Y-95400000D03*
X150100000Y-104800000D03*
X139700000Y-98900000D03*
X163400000Y-96900000D03*
X177300000Y-96400000D03*
D15*
X138650000Y-96700000D02*
X138650000Y-93600000D01*
X138650000Y-93600000D02*
X140150000Y-92100000D01*
X140150000Y-92100000D02*
X141900000Y-92100000D01*
X138650000Y-96700000D02*
X138600000Y-96700000D01*
X138600000Y-96700000D02*
X127900000Y-107400000D01*
X127900000Y-113800000D02*
X127900000Y-107400000D01*
D16*
X130100000Y-87100000D02*
X130100000Y-96300000D01*
X130400000Y-87300000D02*
X130400000Y-95900000D01*
X130400000Y-95900000D02*
X130100000Y-96200000D01*
X129800000Y-87000000D02*
X129800000Y-95900000D01*
X129800000Y-95900000D02*
X130100000Y-96200000D01*
X130600000Y-80500000D02*
X135500000Y-75600000D01*
X130900000Y-80700000D02*
X135500000Y-76100000D01*
X131200000Y-80800000D02*
X135500000Y-76500000D01*
X135500000Y-75700000D02*
X135500000Y-76500000D01*
X135500000Y-76500000D02*
X134700000Y-76500000D01*
X130400000Y-87300000D02*
X130400000Y-81600000D01*
X130400000Y-81600000D02*
X131400000Y-80600000D01*
X130100000Y-87100000D02*
X130100000Y-81500000D01*
X130100000Y-81500000D02*
X130900000Y-80700000D01*
X129800000Y-87000000D02*
X129800000Y-81300000D01*
X129800000Y-81300000D02*
X130600000Y-80500000D01*
D15*
X133800000Y-99200000D02*
X125300000Y-107700000D01*
X125300000Y-107700000D02*
X123800000Y-109200000D01*
X123800000Y-109200000D02*
X123700000Y-109300000D01*
X122800000Y-115700000D02*
X122800000Y-110200000D01*
X122800000Y-110200000D02*
X123700000Y-109300000D01*
X136000000Y-94400000D02*
X124500000Y-105900000D01*
X124500000Y-105900000D02*
X120100000Y-110300000D01*
X139600000Y-94400000D02*
X139600000Y-96500000D01*
X161620000Y-109500000D02*
X161620000Y-108620000D01*
X161620000Y-109500000D02*
X161620000Y-110180000D01*
X161620000Y-110180000D02*
X159600000Y-112200000D01*
X159600000Y-112200000D02*
X138900000Y-112200000D01*
X138900000Y-112200000D02*
X137800000Y-111100000D01*
X137800000Y-111100000D02*
X137800000Y-98500000D01*
X137800000Y-98500000D02*
X139600000Y-96700000D01*
X139600000Y-96700000D02*
X139600000Y-96400000D01*
X140700000Y-94400000D02*
X140700000Y-96600000D01*
X140700000Y-96600000D02*
X139000000Y-98300000D01*
X139000000Y-98300000D02*
X139000000Y-104400000D01*
X139000000Y-104400000D02*
X139000000Y-104800000D01*
X139000000Y-104800000D02*
X141300000Y-107100000D01*
X141300000Y-107100000D02*
X156200000Y-107100000D01*
X156200000Y-107100000D02*
X157600000Y-108500000D01*
X166700000Y-91800000D02*
X166700000Y-89300000D01*
X166700000Y-89300000D02*
X163500000Y-86100000D01*
X147850000Y-86050000D02*
X163450000Y-86050000D01*
X163450000Y-86050000D02*
X163500000Y-86100000D01*
X163525000Y-103000000D02*
X141600000Y-103000000D01*
X141600000Y-103000000D02*
X141200000Y-102600000D01*
X144000000Y-85250000D02*
X145250000Y-85250000D01*
X145250000Y-85250000D02*
X147450000Y-87450000D01*
X147450000Y-87450000D02*
X148200000Y-88200000D01*
X148200000Y-88200000D02*
X163800000Y-88200000D01*
X165900000Y-92400000D02*
X165900000Y-90300000D01*
X165900000Y-90300000D02*
X163800000Y-88200000D01*
X147300000Y-85150000D02*
X164950000Y-85150000D01*
X164950000Y-85150000D02*
X166050000Y-85150000D01*
X166050000Y-85150000D02*
X166400000Y-85500000D01*
X143700000Y-101300000D02*
X163500000Y-101300000D01*
X153050000Y-81400000D02*
X163500000Y-81400000D01*
X163500000Y-81400000D02*
X164900000Y-81400000D01*
X164900000Y-81400000D02*
X165000000Y-81400000D01*
X165000000Y-81400000D02*
X165550000Y-81950000D01*
X149850000Y-97600000D02*
X149550000Y-97300000D01*
X149850000Y-97600000D02*
X157300000Y-97600000D01*
X166500000Y-74400000D02*
X156950000Y-74400000D01*
X156950000Y-74400000D02*
X147800000Y-83550000D01*
X146000000Y-102200000D02*
X162700000Y-102200000D01*
X164300000Y-100000000D02*
X164300000Y-100600000D01*
X164300000Y-100600000D02*
X164300000Y-101500000D01*
X162700000Y-102200000D02*
X163500000Y-102200000D01*
X163500000Y-102200000D02*
X163600000Y-102200000D01*
X163600000Y-102200000D02*
X164300000Y-101500000D01*
X142500000Y-84500000D02*
X148450000Y-84500000D01*
X148450000Y-84500000D02*
X157225000Y-75725000D01*
X166500000Y-75700000D02*
X157250000Y-75700000D01*
X157250000Y-75700000D02*
X157200000Y-75750000D01*
X134400000Y-71900000D02*
X174100000Y-71900000D01*
X199500000Y-72600000D02*
X198900000Y-72000000D01*
X198900000Y-72000000D02*
X198800000Y-71900000D01*
X198800000Y-71900000D02*
X174100000Y-71900000D01*
X133500000Y-76400000D02*
X133500000Y-72800000D01*
X133500000Y-72800000D02*
X134400000Y-71900000D01*
X197200000Y-94300000D02*
X163500000Y-94300000D01*
X163500000Y-94300000D02*
X162600000Y-93400000D01*
X139700000Y-98900000D02*
X139700000Y-104000000D01*
X150100000Y-104800000D02*
X140500000Y-104800000D01*
X140500000Y-104800000D02*
X139700000Y-104000000D01*
X177300000Y-95400000D02*
X163200000Y-95400000D01*
X163200000Y-95400000D02*
X162600000Y-96000000D01*
X177300000Y-96400000D02*
X163900000Y-96400000D01*
X163900000Y-96400000D02*
X163400000Y-96900000D01*
D17*
G36*
X191173000Y-84752606D02*
G01*
X191173000Y-90147394D01*
X190247394Y-91073000D01*
X185052606Y-91073000D01*
X184127000Y-90147394D01*
X184127000Y-84752606D01*
X185052606Y-83827000D01*
X190247394Y-83827000D01*
X191173000Y-84752606D01*
X191173000Y-84752606D01*
G37*
X191173000Y-84752606D02*
X191173000Y-90147394D01*
X190247394Y-91073000D01*
X185052606Y-91073000D01*
X184127000Y-90147394D01*
X184127000Y-84752606D01*
X185052606Y-83827000D01*
X190247394Y-83827000D01*
X191173000Y-84752606D01*
G36*
X191173000Y-98552606D02*
G01*
X191173000Y-103947394D01*
X190247394Y-104873000D01*
X185052606Y-104873000D01*
X184127000Y-103947394D01*
X184127000Y-98552606D01*
X185052606Y-97627000D01*
X190247394Y-97627000D01*
X191173000Y-98552606D01*
X191173000Y-98552606D01*
G37*
X191173000Y-98552606D02*
X191173000Y-103947394D01*
X190247394Y-104873000D01*
X185052606Y-104873000D01*
X184127000Y-103947394D01*
X184127000Y-98552606D01*
X185052606Y-97627000D01*
X190247394Y-97627000D01*
X191173000Y-98552606D01*
G36*
X191073000Y-73552606D02*
G01*
X191073000Y-78947394D01*
X190147394Y-79873000D01*
X187035953Y-79873000D01*
X186987314Y-79852853D01*
X186797014Y-79815000D01*
X186602986Y-79815000D01*
X186412686Y-79852853D01*
X186364047Y-79873000D01*
X184952606Y-79873000D01*
X184027000Y-78947394D01*
X184027000Y-73552606D01*
X184894606Y-72685000D01*
X190205394Y-72685000D01*
X191073000Y-73552606D01*
X191073000Y-73552606D01*
G37*
X191073000Y-73552606D02*
X191073000Y-78947394D01*
X190147394Y-79873000D01*
X187035953Y-79873000D01*
X186987314Y-79852853D01*
X186797014Y-79815000D01*
X186602986Y-79815000D01*
X186412686Y-79852853D01*
X186364047Y-79873000D01*
X184952606Y-79873000D01*
X184027000Y-78947394D01*
X184027000Y-73552606D01*
X184894606Y-72685000D01*
X190205394Y-72685000D01*
X191073000Y-73552606D01*
M02*
