G04 #@! TF.GenerationSoftware,KiCad,Pcbnew,(5.1.0)-1*
G04 #@! TF.CreationDate,2020-05-29T16:33:31+02:00*
G04 #@! TF.ProjectId,motortreiber,6d6f746f-7274-4726-9569-6265722e6b69,rev?*
G04 #@! TF.SameCoordinates,Original*
G04 #@! TF.FileFunction,Soldermask,Bot*
G04 #@! TF.FilePolarity,Negative*
%FSLAX46Y46*%
G04 Gerber Fmt 4.6, Leading zero omitted, Abs format (unit mm)*
G04 Created by KiCad (PCBNEW (5.1.0)-1) date 2020-05-29 16:33:31*
%MOMM*%
%LPD*%
G04 APERTURE LIST*
%ADD10C,0.100000*%
G04 APERTURE END LIST*
D10*
G36*
X191300000Y-98450000D02*
G01*
X191300000Y-103950000D01*
X190300000Y-104950000D01*
X185000000Y-104950000D01*
X184000000Y-103950000D01*
X184000000Y-98450000D01*
X185000000Y-97450000D01*
X190300000Y-97450000D01*
X191300000Y-98450000D01*
G37*
X191300000Y-98450000D02*
X191300000Y-103950000D01*
X190300000Y-104950000D01*
X185000000Y-104950000D01*
X184000000Y-103950000D01*
X184000000Y-98450000D01*
X185000000Y-97450000D01*
X190300000Y-97450000D01*
X191300000Y-98450000D01*
G36*
X191300000Y-84650000D02*
G01*
X191300000Y-90150000D01*
X190300000Y-91150000D01*
X185000000Y-91150000D01*
X184000000Y-90150000D01*
X184000000Y-84650000D01*
X185000000Y-83650000D01*
X190300000Y-83650000D01*
X191300000Y-84650000D01*
G37*
X191300000Y-84650000D02*
X191300000Y-90150000D01*
X190300000Y-91150000D01*
X185000000Y-91150000D01*
X184000000Y-90150000D01*
X184000000Y-84650000D01*
X185000000Y-83650000D01*
X190300000Y-83650000D01*
X191300000Y-84650000D01*
G36*
X191200000Y-73500000D02*
G01*
X191200000Y-79000000D01*
X190200000Y-80000000D01*
X184900000Y-80000000D01*
X183900000Y-79000000D01*
X183900000Y-73500000D01*
X184900000Y-72500000D01*
X190200000Y-72500000D01*
X191200000Y-73500000D01*
G37*
X191200000Y-73500000D02*
X191200000Y-79000000D01*
X190200000Y-80000000D01*
X184900000Y-80000000D01*
X183900000Y-79000000D01*
X183900000Y-73500000D01*
X184900000Y-72500000D01*
X190200000Y-72500000D01*
X191200000Y-73500000D01*
G36*
X183244595Y-110753772D02*
G01*
X183370445Y-110778805D01*
X183601571Y-110874541D01*
X183809578Y-111013527D01*
X183986473Y-111190422D01*
X184125459Y-111398429D01*
X184219344Y-111625086D01*
X184221195Y-111629556D01*
X184269111Y-111870444D01*
X184270000Y-111874916D01*
X184270000Y-112125084D01*
X184221195Y-112370445D01*
X184125459Y-112601571D01*
X183986473Y-112809578D01*
X183809578Y-112986473D01*
X183601571Y-113125459D01*
X183370445Y-113221195D01*
X183288658Y-113237463D01*
X183125086Y-113270000D01*
X182874914Y-113270000D01*
X182711342Y-113237463D01*
X182629555Y-113221195D01*
X182398429Y-113125459D01*
X182190422Y-112986473D01*
X182013527Y-112809578D01*
X181874541Y-112601571D01*
X181778805Y-112370445D01*
X181730000Y-112125084D01*
X181730000Y-111874916D01*
X181730890Y-111870444D01*
X181778805Y-111629556D01*
X181780657Y-111625086D01*
X181874541Y-111398429D01*
X182013527Y-111190422D01*
X182190422Y-111013527D01*
X182398429Y-110874541D01*
X182629555Y-110778805D01*
X182755405Y-110753772D01*
X182874914Y-110730000D01*
X183125086Y-110730000D01*
X183244595Y-110753772D01*
X183244595Y-110753772D01*
G37*
G36*
X130538658Y-110262537D02*
G01*
X130620445Y-110278805D01*
X130851571Y-110374541D01*
X131059578Y-110513527D01*
X131236473Y-110690422D01*
X131375459Y-110898429D01*
X131471195Y-111129555D01*
X131486485Y-111206424D01*
X131520000Y-111374914D01*
X131520000Y-111625086D01*
X131487463Y-111788658D01*
X131471195Y-111870445D01*
X131375459Y-112101571D01*
X131236473Y-112309578D01*
X131059578Y-112486473D01*
X130851571Y-112625459D01*
X130620445Y-112721195D01*
X130538658Y-112737463D01*
X130375086Y-112770000D01*
X130124914Y-112770000D01*
X129961342Y-112737463D01*
X129879555Y-112721195D01*
X129648429Y-112625459D01*
X129440422Y-112486473D01*
X129263527Y-112309578D01*
X129124541Y-112101571D01*
X129028805Y-111870445D01*
X129012537Y-111788658D01*
X128980000Y-111625086D01*
X128980000Y-111374914D01*
X129013515Y-111206424D01*
X129028805Y-111129555D01*
X129124541Y-110898429D01*
X129263527Y-110690422D01*
X129440422Y-110513527D01*
X129648429Y-110374541D01*
X129879555Y-110278805D01*
X129961342Y-110262537D01*
X130124914Y-110230000D01*
X130375086Y-110230000D01*
X130538658Y-110262537D01*
X130538658Y-110262537D01*
G37*
G36*
X157990350Y-107693311D02*
G01*
X158163772Y-107745919D01*
X158323596Y-107831345D01*
X158389825Y-107885699D01*
X158463686Y-107946314D01*
X158559734Y-108063350D01*
X158578655Y-108086405D01*
X158664081Y-108246227D01*
X158716689Y-108419649D01*
X158730000Y-108554804D01*
X158730000Y-110445196D01*
X158716689Y-110580351D01*
X158664081Y-110753773D01*
X158578655Y-110913595D01*
X158578653Y-110913597D01*
X158463686Y-111053686D01*
X158371238Y-111129555D01*
X158323595Y-111168655D01*
X158163773Y-111254081D01*
X157990351Y-111306689D01*
X157810000Y-111324451D01*
X157629650Y-111306689D01*
X157456228Y-111254081D01*
X157296406Y-111168655D01*
X157248763Y-111129555D01*
X157156315Y-111053686D01*
X157041348Y-110913597D01*
X157041346Y-110913595D01*
X156955920Y-110753773D01*
X156903312Y-110580351D01*
X156890001Y-110445196D01*
X156890000Y-108554805D01*
X156903311Y-108419650D01*
X156955919Y-108246228D01*
X157041345Y-108086404D01*
X157101528Y-108013072D01*
X157156314Y-107946314D01*
X157296403Y-107831347D01*
X157296405Y-107831345D01*
X157456227Y-107745919D01*
X157629649Y-107693311D01*
X157810000Y-107675549D01*
X157990350Y-107693311D01*
X157990350Y-107693311D01*
G37*
G36*
X165610350Y-107693311D02*
G01*
X165783772Y-107745919D01*
X165943596Y-107831345D01*
X166009825Y-107885699D01*
X166083686Y-107946314D01*
X166179734Y-108063350D01*
X166198655Y-108086405D01*
X166284081Y-108246227D01*
X166336689Y-108419649D01*
X166350000Y-108554804D01*
X166350000Y-110445196D01*
X166336689Y-110580351D01*
X166284081Y-110753773D01*
X166198655Y-110913595D01*
X166198653Y-110913597D01*
X166083686Y-111053686D01*
X165991238Y-111129555D01*
X165943595Y-111168655D01*
X165783773Y-111254081D01*
X165610351Y-111306689D01*
X165430000Y-111324451D01*
X165249650Y-111306689D01*
X165076228Y-111254081D01*
X164916406Y-111168655D01*
X164868763Y-111129555D01*
X164776315Y-111053686D01*
X164661348Y-110913597D01*
X164661346Y-110913595D01*
X164575920Y-110753773D01*
X164523312Y-110580351D01*
X164510001Y-110445196D01*
X164510000Y-108554805D01*
X164523311Y-108419650D01*
X164575919Y-108246228D01*
X164661345Y-108086404D01*
X164721528Y-108013072D01*
X164776314Y-107946314D01*
X164916403Y-107831347D01*
X164916405Y-107831345D01*
X165076227Y-107745919D01*
X165249649Y-107693311D01*
X165430000Y-107675549D01*
X165610350Y-107693311D01*
X165610350Y-107693311D01*
G37*
G36*
X161800350Y-107693311D02*
G01*
X161973772Y-107745919D01*
X162133596Y-107831345D01*
X162199825Y-107885699D01*
X162273686Y-107946314D01*
X162369734Y-108063350D01*
X162388655Y-108086405D01*
X162474081Y-108246227D01*
X162526689Y-108419649D01*
X162540000Y-108554804D01*
X162540000Y-110445196D01*
X162526689Y-110580351D01*
X162474081Y-110753773D01*
X162388655Y-110913595D01*
X162388653Y-110913597D01*
X162273686Y-111053686D01*
X162181238Y-111129555D01*
X162133595Y-111168655D01*
X161973773Y-111254081D01*
X161800351Y-111306689D01*
X161620000Y-111324451D01*
X161439650Y-111306689D01*
X161266228Y-111254081D01*
X161106406Y-111168655D01*
X161058763Y-111129555D01*
X160966315Y-111053686D01*
X160851348Y-110913597D01*
X160851346Y-110913595D01*
X160765920Y-110753773D01*
X160713312Y-110580351D01*
X160700001Y-110445196D01*
X160700000Y-108554805D01*
X160713311Y-108419650D01*
X160765919Y-108246228D01*
X160851345Y-108086404D01*
X160911528Y-108013072D01*
X160966314Y-107946314D01*
X161106403Y-107831347D01*
X161106405Y-107831345D01*
X161266227Y-107745919D01*
X161439649Y-107693311D01*
X161620000Y-107675549D01*
X161800350Y-107693311D01*
X161800350Y-107693311D01*
G37*
G36*
X139990350Y-107693311D02*
G01*
X140163772Y-107745919D01*
X140323596Y-107831345D01*
X140389825Y-107885699D01*
X140463686Y-107946314D01*
X140559734Y-108063350D01*
X140578655Y-108086405D01*
X140664081Y-108246227D01*
X140716689Y-108419649D01*
X140730000Y-108554804D01*
X140730000Y-110445196D01*
X140716689Y-110580351D01*
X140664081Y-110753773D01*
X140578655Y-110913595D01*
X140578653Y-110913597D01*
X140463686Y-111053686D01*
X140371238Y-111129555D01*
X140323595Y-111168655D01*
X140163773Y-111254081D01*
X139990351Y-111306689D01*
X139810000Y-111324451D01*
X139629650Y-111306689D01*
X139456228Y-111254081D01*
X139296406Y-111168655D01*
X139248763Y-111129555D01*
X139156315Y-111053686D01*
X139041348Y-110913597D01*
X139041346Y-110913595D01*
X138955920Y-110753773D01*
X138903312Y-110580351D01*
X138890001Y-110445196D01*
X138890000Y-108554805D01*
X138903311Y-108419650D01*
X138955919Y-108246228D01*
X139041345Y-108086404D01*
X139101528Y-108013072D01*
X139156314Y-107946314D01*
X139296403Y-107831347D01*
X139296405Y-107831345D01*
X139456227Y-107745919D01*
X139629649Y-107693311D01*
X139810000Y-107675549D01*
X139990350Y-107693311D01*
X139990350Y-107693311D01*
G37*
G36*
X143800350Y-107693311D02*
G01*
X143973772Y-107745919D01*
X144133596Y-107831345D01*
X144199825Y-107885699D01*
X144273686Y-107946314D01*
X144369734Y-108063350D01*
X144388655Y-108086405D01*
X144474081Y-108246227D01*
X144526689Y-108419649D01*
X144540000Y-108554804D01*
X144540000Y-110445196D01*
X144526689Y-110580351D01*
X144474081Y-110753773D01*
X144388655Y-110913595D01*
X144388653Y-110913597D01*
X144273686Y-111053686D01*
X144181238Y-111129555D01*
X144133595Y-111168655D01*
X143973773Y-111254081D01*
X143800351Y-111306689D01*
X143620000Y-111324451D01*
X143439650Y-111306689D01*
X143266228Y-111254081D01*
X143106406Y-111168655D01*
X143058763Y-111129555D01*
X142966315Y-111053686D01*
X142851348Y-110913597D01*
X142851346Y-110913595D01*
X142765920Y-110753773D01*
X142713312Y-110580351D01*
X142700001Y-110445196D01*
X142700000Y-108554805D01*
X142713311Y-108419650D01*
X142765919Y-108246228D01*
X142851345Y-108086404D01*
X142911528Y-108013072D01*
X142966314Y-107946314D01*
X143106403Y-107831347D01*
X143106405Y-107831345D01*
X143266227Y-107745919D01*
X143439649Y-107693311D01*
X143620000Y-107675549D01*
X143800350Y-107693311D01*
X143800350Y-107693311D01*
G37*
G36*
X147610350Y-107693311D02*
G01*
X147783772Y-107745919D01*
X147943596Y-107831345D01*
X148009825Y-107885699D01*
X148083686Y-107946314D01*
X148179734Y-108063350D01*
X148198655Y-108086405D01*
X148284081Y-108246227D01*
X148336689Y-108419649D01*
X148350000Y-108554804D01*
X148350000Y-110445196D01*
X148336689Y-110580351D01*
X148284081Y-110753773D01*
X148198655Y-110913595D01*
X148198653Y-110913597D01*
X148083686Y-111053686D01*
X147991238Y-111129555D01*
X147943595Y-111168655D01*
X147783773Y-111254081D01*
X147610351Y-111306689D01*
X147430000Y-111324451D01*
X147249650Y-111306689D01*
X147076228Y-111254081D01*
X146916406Y-111168655D01*
X146868763Y-111129555D01*
X146776315Y-111053686D01*
X146661348Y-110913597D01*
X146661346Y-110913595D01*
X146575920Y-110753773D01*
X146523312Y-110580351D01*
X146510001Y-110445196D01*
X146510000Y-108554805D01*
X146523311Y-108419650D01*
X146575919Y-108246228D01*
X146661345Y-108086404D01*
X146721528Y-108013072D01*
X146776314Y-107946314D01*
X146916403Y-107831347D01*
X146916405Y-107831345D01*
X147076227Y-107745919D01*
X147249649Y-107693311D01*
X147430000Y-107675549D01*
X147610350Y-107693311D01*
X147610350Y-107693311D01*
G37*
G36*
X136743318Y-107684453D02*
G01*
X136784439Y-107696927D01*
X136822340Y-107717186D01*
X136855556Y-107744444D01*
X136882814Y-107777660D01*
X136903073Y-107815561D01*
X136915547Y-107856682D01*
X136920000Y-107901898D01*
X136920000Y-111098102D01*
X136915547Y-111143318D01*
X136903073Y-111184439D01*
X136882814Y-111222340D01*
X136855556Y-111255556D01*
X136822340Y-111282814D01*
X136784439Y-111303073D01*
X136743318Y-111315547D01*
X136698102Y-111320000D01*
X135301898Y-111320000D01*
X135256682Y-111315547D01*
X135215561Y-111303073D01*
X135177660Y-111282814D01*
X135144444Y-111255556D01*
X135117186Y-111222340D01*
X135096927Y-111184439D01*
X135084453Y-111143318D01*
X135080000Y-111098102D01*
X135080000Y-107901898D01*
X135084453Y-107856682D01*
X135096927Y-107815561D01*
X135117186Y-107777660D01*
X135144444Y-107744444D01*
X135177660Y-107717186D01*
X135215561Y-107696927D01*
X135256682Y-107684453D01*
X135301898Y-107680000D01*
X136698102Y-107680000D01*
X136743318Y-107684453D01*
X136743318Y-107684453D01*
G37*
G36*
X154743318Y-107684453D02*
G01*
X154784439Y-107696927D01*
X154822340Y-107717186D01*
X154855556Y-107744444D01*
X154882814Y-107777660D01*
X154903073Y-107815561D01*
X154915547Y-107856682D01*
X154920000Y-107901898D01*
X154920000Y-111098102D01*
X154915547Y-111143318D01*
X154903073Y-111184439D01*
X154882814Y-111222340D01*
X154855556Y-111255556D01*
X154822340Y-111282814D01*
X154784439Y-111303073D01*
X154743318Y-111315547D01*
X154698102Y-111320000D01*
X153301898Y-111320000D01*
X153256682Y-111315547D01*
X153215561Y-111303073D01*
X153177660Y-111282814D01*
X153144444Y-111255556D01*
X153117186Y-111222340D01*
X153096927Y-111184439D01*
X153084453Y-111143318D01*
X153080000Y-111098102D01*
X153080000Y-107901898D01*
X153084453Y-107856682D01*
X153096927Y-107815561D01*
X153117186Y-107777660D01*
X153144444Y-107744444D01*
X153177660Y-107717186D01*
X153215561Y-107696927D01*
X153256682Y-107684453D01*
X153301898Y-107680000D01*
X154698102Y-107680000D01*
X154743318Y-107684453D01*
X154743318Y-107684453D01*
G37*
G36*
X123801447Y-102789992D02*
G01*
X123851678Y-102799983D01*
X123911355Y-102824702D01*
X123946315Y-102839183D01*
X124031476Y-102896086D01*
X124031478Y-102896088D01*
X124031481Y-102896090D01*
X124103910Y-102968519D01*
X124103912Y-102968522D01*
X124103914Y-102968524D01*
X124160817Y-103053685D01*
X124200017Y-103148323D01*
X124220000Y-103248783D01*
X124220000Y-103351217D01*
X124200017Y-103451677D01*
X124160817Y-103546315D01*
X124103914Y-103631476D01*
X124103912Y-103631478D01*
X124103910Y-103631481D01*
X124031481Y-103703910D01*
X124031478Y-103703912D01*
X124031476Y-103703914D01*
X123946315Y-103760817D01*
X123911355Y-103775298D01*
X123851678Y-103800017D01*
X123801447Y-103810009D01*
X123751217Y-103820000D01*
X123648783Y-103820000D01*
X123598553Y-103810008D01*
X123548322Y-103800017D01*
X123488645Y-103775298D01*
X123453685Y-103760817D01*
X123368524Y-103703914D01*
X123368522Y-103703912D01*
X123368519Y-103703910D01*
X123296090Y-103631481D01*
X123296088Y-103631478D01*
X123296086Y-103631476D01*
X123239183Y-103546315D01*
X123199983Y-103451677D01*
X123180000Y-103351217D01*
X123180000Y-103248783D01*
X123199983Y-103148323D01*
X123239183Y-103053685D01*
X123296086Y-102968524D01*
X123296088Y-102968522D01*
X123296090Y-102968519D01*
X123368519Y-102896090D01*
X123368522Y-102896088D01*
X123368524Y-102896086D01*
X123453685Y-102839183D01*
X123488645Y-102824702D01*
X123548322Y-102799983D01*
X123598553Y-102789992D01*
X123648783Y-102780000D01*
X123751217Y-102780000D01*
X123801447Y-102789992D01*
X123801447Y-102789992D01*
G37*
G36*
X123801447Y-98389991D02*
G01*
X123851678Y-98399983D01*
X123911355Y-98424702D01*
X123946315Y-98439183D01*
X124031476Y-98496086D01*
X124031478Y-98496088D01*
X124031481Y-98496090D01*
X124103910Y-98568519D01*
X124103912Y-98568522D01*
X124103914Y-98568524D01*
X124160817Y-98653685D01*
X124200017Y-98748323D01*
X124220000Y-98848783D01*
X124220000Y-98951217D01*
X124200017Y-99051677D01*
X124160817Y-99146315D01*
X124103914Y-99231476D01*
X124103912Y-99231478D01*
X124103910Y-99231481D01*
X124031481Y-99303910D01*
X124031478Y-99303912D01*
X124031476Y-99303914D01*
X123946315Y-99360817D01*
X123911355Y-99375298D01*
X123851678Y-99400017D01*
X123801447Y-99410008D01*
X123751217Y-99420000D01*
X123648783Y-99420000D01*
X123598553Y-99410009D01*
X123548322Y-99400017D01*
X123488645Y-99375298D01*
X123453685Y-99360817D01*
X123368524Y-99303914D01*
X123368522Y-99303912D01*
X123368519Y-99303910D01*
X123296090Y-99231481D01*
X123296088Y-99231478D01*
X123296086Y-99231476D01*
X123239183Y-99146315D01*
X123199983Y-99051677D01*
X123180000Y-98951217D01*
X123180000Y-98848783D01*
X123199983Y-98748323D01*
X123239183Y-98653685D01*
X123296086Y-98568524D01*
X123296088Y-98568522D01*
X123296090Y-98568519D01*
X123368519Y-98496090D01*
X123368522Y-98496088D01*
X123368524Y-98496086D01*
X123453685Y-98439183D01*
X123488645Y-98424702D01*
X123548322Y-98399983D01*
X123598553Y-98389991D01*
X123648783Y-98380000D01*
X123751217Y-98380000D01*
X123801447Y-98389991D01*
X123801447Y-98389991D01*
G37*
G36*
X195743318Y-91584453D02*
G01*
X195784439Y-91596927D01*
X195822340Y-91617186D01*
X195855556Y-91644444D01*
X195882814Y-91677660D01*
X195903073Y-91715561D01*
X195915547Y-91756682D01*
X195920000Y-91801898D01*
X195920000Y-93198102D01*
X195915547Y-93243318D01*
X195903073Y-93284439D01*
X195882814Y-93322340D01*
X195855556Y-93355556D01*
X195822340Y-93382814D01*
X195784439Y-93403073D01*
X195743318Y-93415547D01*
X195698102Y-93420000D01*
X192501898Y-93420000D01*
X192456682Y-93415547D01*
X192415561Y-93403073D01*
X192377660Y-93382814D01*
X192344444Y-93355556D01*
X192317186Y-93322340D01*
X192296927Y-93284439D01*
X192284453Y-93243318D01*
X192280000Y-93198102D01*
X192280000Y-91801898D01*
X192284453Y-91756682D01*
X192296927Y-91715561D01*
X192317186Y-91677660D01*
X192344444Y-91644444D01*
X192377660Y-91617186D01*
X192415561Y-91596927D01*
X192456682Y-91584453D01*
X192501898Y-91580000D01*
X195698102Y-91580000D01*
X195743318Y-91584453D01*
X195743318Y-91584453D01*
G37*
G36*
X127580351Y-90813311D02*
G01*
X127753773Y-90865919D01*
X127913595Y-90951345D01*
X127913597Y-90951347D01*
X128053686Y-91066314D01*
X128149734Y-91183350D01*
X128168655Y-91206405D01*
X128254081Y-91366227D01*
X128306689Y-91539649D01*
X128324451Y-91720000D01*
X128306689Y-91900351D01*
X128254081Y-92073773D01*
X128168655Y-92233595D01*
X128168653Y-92233597D01*
X128053686Y-92373686D01*
X127936650Y-92469734D01*
X127913595Y-92488655D01*
X127753773Y-92574081D01*
X127580351Y-92626689D01*
X127445196Y-92640000D01*
X125554804Y-92640000D01*
X125419649Y-92626689D01*
X125246227Y-92574081D01*
X125086405Y-92488655D01*
X125063350Y-92469734D01*
X124946314Y-92373686D01*
X124831347Y-92233597D01*
X124831345Y-92233595D01*
X124745919Y-92073773D01*
X124693311Y-91900351D01*
X124675549Y-91720000D01*
X124693311Y-91539649D01*
X124745919Y-91366227D01*
X124831345Y-91206405D01*
X124850266Y-91183350D01*
X124946314Y-91066314D01*
X125086403Y-90951347D01*
X125086405Y-90951345D01*
X125246227Y-90865919D01*
X125419649Y-90813311D01*
X125554804Y-90800000D01*
X127445196Y-90800000D01*
X127580351Y-90813311D01*
X127580351Y-90813311D01*
G37*
G36*
X195180351Y-87783311D02*
G01*
X195353773Y-87835919D01*
X195513595Y-87921345D01*
X195513597Y-87921347D01*
X195653686Y-88036314D01*
X195749734Y-88153350D01*
X195768655Y-88176405D01*
X195854081Y-88336227D01*
X195906689Y-88509649D01*
X195924451Y-88690000D01*
X195906689Y-88870351D01*
X195854081Y-89043773D01*
X195768655Y-89203595D01*
X195768653Y-89203597D01*
X195653686Y-89343686D01*
X195536650Y-89439734D01*
X195513595Y-89458655D01*
X195353773Y-89544081D01*
X195180351Y-89596689D01*
X195045196Y-89610000D01*
X193154804Y-89610000D01*
X193019649Y-89596689D01*
X192846227Y-89544081D01*
X192686405Y-89458655D01*
X192663350Y-89439734D01*
X192546314Y-89343686D01*
X192431347Y-89203597D01*
X192431345Y-89203595D01*
X192345919Y-89043773D01*
X192293311Y-88870351D01*
X192275549Y-88690000D01*
X192293311Y-88509649D01*
X192345919Y-88336227D01*
X192431345Y-88176405D01*
X192450266Y-88153350D01*
X192546314Y-88036314D01*
X192686403Y-87921347D01*
X192686405Y-87921345D01*
X192846227Y-87835919D01*
X193019649Y-87783311D01*
X193154804Y-87770000D01*
X195045196Y-87770000D01*
X195180351Y-87783311D01*
X195180351Y-87783311D01*
G37*
G36*
X127580351Y-87003311D02*
G01*
X127753773Y-87055919D01*
X127913595Y-87141345D01*
X127913597Y-87141347D01*
X128053686Y-87256314D01*
X128149734Y-87373350D01*
X128168655Y-87396405D01*
X128254081Y-87556227D01*
X128306689Y-87729649D01*
X128324451Y-87910000D01*
X128306689Y-88090351D01*
X128254081Y-88263773D01*
X128168655Y-88423595D01*
X128168653Y-88423597D01*
X128053686Y-88563686D01*
X127936650Y-88659734D01*
X127913595Y-88678655D01*
X127753773Y-88764081D01*
X127580351Y-88816689D01*
X127445196Y-88830000D01*
X125554804Y-88830000D01*
X125419649Y-88816689D01*
X125246227Y-88764081D01*
X125086405Y-88678655D01*
X125063350Y-88659734D01*
X124946314Y-88563686D01*
X124831347Y-88423597D01*
X124831345Y-88423595D01*
X124745919Y-88263773D01*
X124693311Y-88090351D01*
X124675549Y-87910000D01*
X124693311Y-87729649D01*
X124745919Y-87556227D01*
X124831345Y-87396405D01*
X124850266Y-87373350D01*
X124946314Y-87256314D01*
X125086403Y-87141347D01*
X125086405Y-87141345D01*
X125246227Y-87055919D01*
X125419649Y-87003311D01*
X125554804Y-86990000D01*
X127445196Y-86990000D01*
X127580351Y-87003311D01*
X127580351Y-87003311D01*
G37*
G36*
X195180351Y-83973311D02*
G01*
X195353773Y-84025919D01*
X195513595Y-84111345D01*
X195513597Y-84111347D01*
X195653686Y-84226314D01*
X195749734Y-84343350D01*
X195768655Y-84366405D01*
X195854081Y-84526227D01*
X195906689Y-84699649D01*
X195924451Y-84880000D01*
X195906689Y-85060351D01*
X195854081Y-85233773D01*
X195768655Y-85393595D01*
X195768653Y-85393597D01*
X195653686Y-85533686D01*
X195536650Y-85629734D01*
X195513595Y-85648655D01*
X195353773Y-85734081D01*
X195180351Y-85786689D01*
X195045196Y-85800000D01*
X193154804Y-85800000D01*
X193019649Y-85786689D01*
X192846227Y-85734081D01*
X192686405Y-85648655D01*
X192663350Y-85629734D01*
X192546314Y-85533686D01*
X192431347Y-85393597D01*
X192431345Y-85393595D01*
X192345919Y-85233773D01*
X192293311Y-85060351D01*
X192275549Y-84880000D01*
X192293311Y-84699649D01*
X192345919Y-84526227D01*
X192431345Y-84366405D01*
X192450266Y-84343350D01*
X192546314Y-84226314D01*
X192686403Y-84111347D01*
X192686405Y-84111345D01*
X192846227Y-84025919D01*
X193019649Y-83973311D01*
X193154804Y-83960000D01*
X195045196Y-83960000D01*
X195180351Y-83973311D01*
X195180351Y-83973311D01*
G37*
G36*
X128143318Y-83184453D02*
G01*
X128184439Y-83196927D01*
X128222340Y-83217186D01*
X128255556Y-83244444D01*
X128282814Y-83277660D01*
X128303073Y-83315561D01*
X128315547Y-83356682D01*
X128320000Y-83401898D01*
X128320000Y-84798102D01*
X128315547Y-84843318D01*
X128303073Y-84884439D01*
X128282814Y-84922340D01*
X128255556Y-84955556D01*
X128222340Y-84982814D01*
X128184439Y-85003073D01*
X128143318Y-85015547D01*
X128098102Y-85020000D01*
X124901898Y-85020000D01*
X124856682Y-85015547D01*
X124815561Y-85003073D01*
X124777660Y-84982814D01*
X124744444Y-84955556D01*
X124717186Y-84922340D01*
X124696927Y-84884439D01*
X124684453Y-84843318D01*
X124680000Y-84798102D01*
X124680000Y-83401898D01*
X124684453Y-83356682D01*
X124696927Y-83315561D01*
X124717186Y-83277660D01*
X124744444Y-83244444D01*
X124777660Y-83217186D01*
X124815561Y-83196927D01*
X124856682Y-83184453D01*
X124901898Y-83180000D01*
X128098102Y-83180000D01*
X128143318Y-83184453D01*
X128143318Y-83184453D01*
G37*
G36*
X127580351Y-76903311D02*
G01*
X127753773Y-76955919D01*
X127913595Y-77041345D01*
X127913597Y-77041347D01*
X128053686Y-77156314D01*
X128149734Y-77273350D01*
X128168655Y-77296405D01*
X128254081Y-77456227D01*
X128306689Y-77629649D01*
X128324451Y-77810000D01*
X128306689Y-77990351D01*
X128254081Y-78163773D01*
X128168655Y-78323595D01*
X128168653Y-78323597D01*
X128053686Y-78463686D01*
X127936650Y-78559734D01*
X127913595Y-78578655D01*
X127753773Y-78664081D01*
X127580351Y-78716689D01*
X127445196Y-78730000D01*
X125554804Y-78730000D01*
X125419649Y-78716689D01*
X125246227Y-78664081D01*
X125086405Y-78578655D01*
X125063350Y-78559734D01*
X124946314Y-78463686D01*
X124831347Y-78323597D01*
X124831345Y-78323595D01*
X124745919Y-78163773D01*
X124693311Y-77990351D01*
X124675549Y-77810000D01*
X124693311Y-77629649D01*
X124745919Y-77456227D01*
X124831345Y-77296405D01*
X124850266Y-77273350D01*
X124946314Y-77156314D01*
X125086403Y-77041347D01*
X125086405Y-77041345D01*
X125246227Y-76955919D01*
X125419649Y-76903311D01*
X125554804Y-76890000D01*
X127445196Y-76890000D01*
X127580351Y-76903311D01*
X127580351Y-76903311D01*
G37*
G36*
X131788658Y-72762537D02*
G01*
X131870445Y-72778805D01*
X132101571Y-72874541D01*
X132309578Y-73013527D01*
X132486473Y-73190422D01*
X132625459Y-73398429D01*
X132721195Y-73629555D01*
X132770000Y-73874916D01*
X132770000Y-74125084D01*
X132721195Y-74370445D01*
X132625459Y-74601571D01*
X132486473Y-74809578D01*
X132309578Y-74986473D01*
X132101571Y-75125459D01*
X131870445Y-75221195D01*
X131788658Y-75237463D01*
X131625086Y-75270000D01*
X131374914Y-75270000D01*
X131211342Y-75237463D01*
X131129555Y-75221195D01*
X130898429Y-75125459D01*
X130690422Y-74986473D01*
X130513527Y-74809578D01*
X130374541Y-74601571D01*
X130278805Y-74370445D01*
X130230000Y-74125084D01*
X130230000Y-73874916D01*
X130278805Y-73629555D01*
X130374541Y-73398429D01*
X130513527Y-73190422D01*
X130690422Y-73013527D01*
X130898429Y-72874541D01*
X131129555Y-72778805D01*
X131211342Y-72762537D01*
X131374914Y-72730000D01*
X131625086Y-72730000D01*
X131788658Y-72762537D01*
X131788658Y-72762537D01*
G37*
G36*
X128143318Y-73084453D02*
G01*
X128184439Y-73096927D01*
X128222340Y-73117186D01*
X128255556Y-73144444D01*
X128282814Y-73177660D01*
X128303073Y-73215561D01*
X128315547Y-73256682D01*
X128320000Y-73301898D01*
X128320000Y-74698102D01*
X128315547Y-74743318D01*
X128303073Y-74784439D01*
X128282814Y-74822340D01*
X128255556Y-74855556D01*
X128222340Y-74882814D01*
X128184439Y-74903073D01*
X128143318Y-74915547D01*
X128098102Y-74920000D01*
X124901898Y-74920000D01*
X124856682Y-74915547D01*
X124815561Y-74903073D01*
X124777660Y-74882814D01*
X124744444Y-74855556D01*
X124717186Y-74822340D01*
X124696927Y-74784439D01*
X124684453Y-74743318D01*
X124680000Y-74698102D01*
X124680000Y-73301898D01*
X124684453Y-73256682D01*
X124696927Y-73215561D01*
X124717186Y-73177660D01*
X124744444Y-73144444D01*
X124777660Y-73117186D01*
X124815561Y-73096927D01*
X124856682Y-73084453D01*
X124901898Y-73080000D01*
X128098102Y-73080000D01*
X128143318Y-73084453D01*
X128143318Y-73084453D01*
G37*
M02*
