G04 #@! TF.GenerationSoftware,KiCad,Pcbnew,(5.1.0)-1*
G04 #@! TF.CreationDate,2020-05-29T16:33:31+02:00*
G04 #@! TF.ProjectId,motortreiber,6d6f746f-7274-4726-9569-6265722e6b69,rev?*
G04 #@! TF.SameCoordinates,Original*
G04 #@! TF.FileFunction,Legend,Top*
G04 #@! TF.FilePolarity,Positive*
%FSLAX46Y46*%
G04 Gerber Fmt 4.6, Leading zero omitted, Abs format (unit mm)*
G04 Created by KiCad (PCBNEW (5.1.0)-1) date 2020-05-29 16:33:31*
%MOMM*%
%LPD*%
G04 APERTURE LIST*
%ADD10C,0.120000*%
%ADD11C,0.150000*%
G04 APERTURE END LIST*
D10*
X153700000Y-106900000D02*
X154300000Y-106900000D01*
X154000000Y-107500000D02*
X153700000Y-106900000D01*
X154300000Y-106900000D02*
X154000000Y-107500000D01*
X151290000Y-114300000D02*
X168140000Y-114300000D01*
X162670000Y-108190000D02*
X164380000Y-108190000D01*
X158860000Y-108190000D02*
X160570000Y-108190000D01*
X155050000Y-108190000D02*
X156760000Y-108190000D01*
X168140000Y-108190000D02*
X166480000Y-108190000D01*
X151290000Y-108190000D02*
X152950000Y-108190000D01*
X168140000Y-117610000D02*
X168140000Y-108190000D01*
X151290000Y-117610000D02*
X168140000Y-117610000D01*
X151290000Y-108190000D02*
X151290000Y-117610000D01*
X135700000Y-106900000D02*
X136300000Y-106900000D01*
X136000000Y-107500000D02*
X135700000Y-106900000D01*
X136300000Y-106900000D02*
X136000000Y-107500000D01*
X133290000Y-114300000D02*
X150140000Y-114300000D01*
X144670000Y-108190000D02*
X146380000Y-108190000D01*
X140860000Y-108190000D02*
X142570000Y-108190000D01*
X137050000Y-108190000D02*
X138760000Y-108190000D01*
X150140000Y-108190000D02*
X148480000Y-108190000D01*
X133290000Y-108190000D02*
X134950000Y-108190000D01*
X150140000Y-117610000D02*
X150140000Y-108190000D01*
X133290000Y-117610000D02*
X150140000Y-117610000D01*
X133290000Y-108190000D02*
X133290000Y-117610000D01*
X193397936Y-106510000D02*
X194602064Y-106510000D01*
X193397936Y-104690000D02*
X194602064Y-104690000D01*
X193397936Y-73510000D02*
X194602064Y-73510000D01*
X193397936Y-71690000D02*
X194602064Y-71690000D01*
X120925000Y-110670000D02*
X120925000Y-109210000D01*
X127275000Y-113330000D02*
X127335000Y-113330000D01*
X120865000Y-113330000D02*
X120925000Y-113330000D01*
X127335000Y-113330000D02*
X127335000Y-110670000D01*
X127275000Y-110670000D02*
X127335000Y-110670000D01*
X120865000Y-110670000D02*
X120925000Y-110670000D01*
X120865000Y-113330000D02*
X120865000Y-110670000D01*
X129100000Y-73700000D02*
X129100000Y-74300000D01*
X128500000Y-74000000D02*
X129100000Y-73700000D01*
X129100000Y-74300000D02*
X128500000Y-74000000D01*
X121700000Y-71290000D02*
X121700000Y-80520000D01*
X127810000Y-75050000D02*
X127810000Y-76760000D01*
X127810000Y-80520000D02*
X127810000Y-78860000D01*
X127810000Y-71290000D02*
X127810000Y-72950000D01*
X118390000Y-80520000D02*
X127810000Y-80520000D01*
X118390000Y-71290000D02*
X118390000Y-80520000D01*
X127810000Y-71290000D02*
X118390000Y-71290000D01*
X117790000Y-97190000D02*
X119740000Y-97190000D01*
X121960000Y-97190000D02*
X125190000Y-97190000D01*
X127110000Y-97910000D02*
X127110000Y-98990000D01*
X127110000Y-103210000D02*
X127110000Y-104290000D01*
X121960000Y-105010000D02*
X125190000Y-105010000D01*
X117790000Y-105010000D02*
X119740000Y-105010000D01*
X127110000Y-98990000D02*
X127540000Y-98990000D01*
X117790000Y-105010000D02*
X117790000Y-97190000D01*
X151160000Y-76812064D02*
X151160000Y-75607936D01*
X149340000Y-76812064D02*
X149340000Y-75607936D01*
D11*
X146935000Y-78735000D02*
X148335000Y-78735000D01*
X146935000Y-73635000D02*
X142785000Y-73635000D01*
X146935000Y-78785000D02*
X142785000Y-78785000D01*
X146935000Y-73635000D02*
X146935000Y-73780000D01*
X142785000Y-73635000D02*
X142785000Y-73780000D01*
X142785000Y-78785000D02*
X142785000Y-78640000D01*
X146935000Y-78785000D02*
X146935000Y-78735000D01*
D10*
X153814564Y-103890000D02*
X152610436Y-103890000D01*
X153814564Y-105710000D02*
X152610436Y-105710000D01*
X158510436Y-105710000D02*
X159714564Y-105710000D01*
X158510436Y-103890000D02*
X159714564Y-103890000D01*
X150497936Y-88410000D02*
X151702064Y-88410000D01*
X150497936Y-86590000D02*
X151702064Y-86590000D01*
X188000000Y-95610000D02*
X190450000Y-95610000D01*
X189800000Y-92390000D02*
X188000000Y-92390000D01*
X182810436Y-96110000D02*
X184014564Y-96110000D01*
X182810436Y-94290000D02*
X184014564Y-94290000D01*
X142097936Y-81710000D02*
X143302064Y-81710000D01*
X142097936Y-79890000D02*
X143302064Y-79890000D01*
X137097936Y-81710000D02*
X138302064Y-81710000D01*
X137097936Y-79890000D02*
X138302064Y-79890000D01*
X142097936Y-84010000D02*
X143302064Y-84010000D01*
X142097936Y-82190000D02*
X143302064Y-82190000D01*
X155550000Y-95190000D02*
X150550000Y-95190000D01*
X155550000Y-98610000D02*
X150550000Y-98610000D01*
X132802064Y-82590000D02*
X131597936Y-82590000D01*
X132802064Y-84410000D02*
X131597936Y-84410000D01*
X131610436Y-79610000D02*
X132814564Y-79610000D01*
X131610436Y-77790000D02*
X132814564Y-77790000D01*
X129100000Y-83800000D02*
X129100000Y-84400000D01*
X128500000Y-84100000D02*
X129100000Y-83800000D01*
X129100000Y-84400000D02*
X128500000Y-84100000D01*
X121700000Y-81390000D02*
X121700000Y-94430000D01*
X127810000Y-88960000D02*
X127810000Y-90670000D01*
X127810000Y-85150000D02*
X127810000Y-86860000D01*
X127810000Y-94430000D02*
X127810000Y-92770000D01*
X127810000Y-81390000D02*
X127810000Y-83050000D01*
X118390000Y-94430000D02*
X127810000Y-94430000D01*
X118390000Y-81390000D02*
X118390000Y-94430000D01*
X127810000Y-81390000D02*
X118390000Y-81390000D01*
X132802064Y-84990000D02*
X131597936Y-84990000D01*
X132802064Y-86810000D02*
X131597936Y-86810000D01*
X131585436Y-82010000D02*
X132789564Y-82010000D01*
X131585436Y-80190000D02*
X132789564Y-80190000D01*
X199341250Y-107256250D02*
X198553750Y-107256250D01*
X198947500Y-106862500D02*
X198947500Y-107650000D01*
X194754437Y-107890000D02*
X193690000Y-108954437D01*
X199445563Y-107890000D02*
X200510000Y-108954437D01*
X199445563Y-107890000D02*
X198160000Y-107890000D01*
X194754437Y-107890000D02*
X196040000Y-107890000D01*
X193690000Y-108954437D02*
X193690000Y-114710000D01*
X200510000Y-108954437D02*
X200510000Y-114710000D01*
X200510000Y-114710000D02*
X198160000Y-114710000D01*
X193690000Y-114710000D02*
X196040000Y-114710000D01*
X157541250Y-73106250D02*
X156753750Y-73106250D01*
X157147500Y-72712500D02*
X157147500Y-73500000D01*
X152954437Y-73740000D02*
X151890000Y-74804437D01*
X157645563Y-73740000D02*
X158710000Y-74804437D01*
X157645563Y-73740000D02*
X156360000Y-73740000D01*
X152954437Y-73740000D02*
X154240000Y-73740000D01*
X151890000Y-74804437D02*
X151890000Y-80560000D01*
X158710000Y-74804437D02*
X158710000Y-80560000D01*
X158710000Y-80560000D02*
X156360000Y-80560000D01*
X151890000Y-80560000D02*
X154240000Y-80560000D01*
D11*
X195275000Y-79675000D02*
X195275000Y-81075000D01*
X200375000Y-79675000D02*
X200375000Y-75525000D01*
X195225000Y-79675000D02*
X195225000Y-75525000D01*
X200375000Y-79675000D02*
X200230000Y-79675000D01*
X200375000Y-75525000D02*
X200230000Y-75525000D01*
X195225000Y-75525000D02*
X195370000Y-75525000D01*
X195225000Y-79675000D02*
X195275000Y-79675000D01*
X168625000Y-73775000D02*
X167225000Y-73775000D01*
X168625000Y-78875000D02*
X172775000Y-78875000D01*
X168625000Y-73725000D02*
X172775000Y-73725000D01*
X168625000Y-78875000D02*
X168625000Y-78730000D01*
X172775000Y-78875000D02*
X172775000Y-78730000D01*
X172775000Y-73725000D02*
X172775000Y-73870000D01*
X168625000Y-73725000D02*
X168625000Y-73775000D01*
D10*
X177602064Y-72390000D02*
X176397936Y-72390000D01*
X177602064Y-74210000D02*
X176397936Y-74210000D01*
X176497936Y-81410000D02*
X177702064Y-81410000D01*
X176497936Y-79590000D02*
X177702064Y-79590000D01*
X176410436Y-76610000D02*
X177614564Y-76610000D01*
X176410436Y-74790000D02*
X177614564Y-74790000D01*
X176497936Y-79010000D02*
X177702064Y-79010000D01*
X176497936Y-77190000D02*
X177702064Y-77190000D01*
X170497936Y-73210000D02*
X171702064Y-73210000D01*
X170497936Y-71390000D02*
X171702064Y-71390000D01*
X192890000Y-77197936D02*
X192890000Y-78402064D01*
X194710000Y-77197936D02*
X194710000Y-78402064D01*
D11*
X181525000Y-73740000D02*
X180125000Y-73740000D01*
X181525000Y-78840000D02*
X185675000Y-78840000D01*
X181525000Y-73690000D02*
X185675000Y-73690000D01*
X181525000Y-78840000D02*
X181525000Y-78695000D01*
X185675000Y-78840000D02*
X185675000Y-78695000D01*
X185675000Y-73690000D02*
X185675000Y-73835000D01*
X181525000Y-73690000D02*
X181525000Y-73740000D01*
D10*
X191500000Y-92800000D02*
X191500000Y-92200000D01*
X192100000Y-92500000D02*
X191500000Y-92800000D01*
X191500000Y-92200000D02*
X192100000Y-92500000D01*
X198900000Y-95210000D02*
X198900000Y-82170000D01*
X192790000Y-87640000D02*
X192790000Y-85930000D01*
X192790000Y-91450000D02*
X192790000Y-89740000D01*
X192790000Y-82170000D02*
X192790000Y-83830000D01*
X192790000Y-95210000D02*
X192790000Y-93550000D01*
X202210000Y-82170000D02*
X192790000Y-82170000D01*
X202210000Y-95210000D02*
X202210000Y-82170000D01*
X192790000Y-95210000D02*
X202210000Y-95210000D01*
X171402064Y-79340000D02*
X170197936Y-79340000D01*
X171402064Y-82060000D02*
X170197936Y-82060000D01*
X184302064Y-79590000D02*
X183097936Y-79590000D01*
X184302064Y-81410000D02*
X183097936Y-81410000D01*
X157785436Y-85410000D02*
X158989564Y-85410000D01*
X157785436Y-83590000D02*
X158989564Y-83590000D01*
X153790000Y-85297936D02*
X153790000Y-86502064D01*
X155610000Y-85297936D02*
X155610000Y-86502064D01*
D11*
X181575000Y-98615000D02*
X180175000Y-98615000D01*
X181575000Y-103715000D02*
X185725000Y-103715000D01*
X181575000Y-98565000D02*
X185725000Y-98565000D01*
X181575000Y-103715000D02*
X181575000Y-103570000D01*
X185725000Y-103715000D02*
X185725000Y-103570000D01*
X185725000Y-98565000D02*
X185725000Y-98710000D01*
X181575000Y-98565000D02*
X181575000Y-98615000D01*
D10*
X131696000Y-102081936D02*
X131696000Y-103286064D01*
X133516000Y-102081936D02*
X133516000Y-103286064D01*
X138808000Y-102081936D02*
X138808000Y-103286064D01*
X140628000Y-102081936D02*
X140628000Y-103286064D01*
X133982000Y-102081936D02*
X133982000Y-103286064D01*
X135802000Y-102081936D02*
X135802000Y-103286064D01*
X136474000Y-102069936D02*
X136474000Y-103274064D01*
X138294000Y-102069936D02*
X138294000Y-103274064D01*
X177652064Y-97030000D02*
X176447936Y-97030000D01*
X177652064Y-98850000D02*
X176447936Y-98850000D01*
X176447936Y-106250000D02*
X177652064Y-106250000D01*
X176447936Y-104430000D02*
X177652064Y-104430000D01*
X176447936Y-101250000D02*
X177652064Y-101250000D01*
X176447936Y-99430000D02*
X177652064Y-99430000D01*
X176447936Y-103850000D02*
X177652064Y-103850000D01*
X176447936Y-102030000D02*
X177652064Y-102030000D01*
X170397936Y-97300000D02*
X171602064Y-97300000D01*
X170397936Y-95480000D02*
X171602064Y-95480000D01*
X194610000Y-101352064D02*
X194610000Y-100147936D01*
X192790000Y-101352064D02*
X192790000Y-100147936D01*
X177712064Y-83630000D02*
X176507936Y-83630000D01*
X177712064Y-85450000D02*
X176507936Y-85450000D01*
X176507936Y-92850000D02*
X177712064Y-92850000D01*
X176507936Y-91030000D02*
X177712064Y-91030000D01*
X176507936Y-87850000D02*
X177712064Y-87850000D01*
X176507936Y-86030000D02*
X177712064Y-86030000D01*
X176507936Y-90450000D02*
X177712064Y-90450000D01*
X176507936Y-88630000D02*
X177712064Y-88630000D01*
X170507936Y-84650000D02*
X171712064Y-84650000D01*
X170507936Y-82830000D02*
X171712064Y-82830000D01*
X171252064Y-104180000D02*
X170047936Y-104180000D01*
X171252064Y-106900000D02*
X170047936Y-106900000D01*
X171512064Y-90780000D02*
X170307936Y-90780000D01*
X171512064Y-93500000D02*
X170307936Y-93500000D01*
D11*
X168625000Y-98565000D02*
X167225000Y-98565000D01*
X168625000Y-103665000D02*
X172775000Y-103665000D01*
X168625000Y-98515000D02*
X172775000Y-98515000D01*
X168625000Y-103665000D02*
X168625000Y-103520000D01*
X172775000Y-103665000D02*
X172775000Y-103520000D01*
X172775000Y-98515000D02*
X172775000Y-98660000D01*
X168625000Y-98515000D02*
X168625000Y-98565000D01*
X195275000Y-102925000D02*
X195275000Y-104325000D01*
X200375000Y-102925000D02*
X200375000Y-98775000D01*
X195225000Y-102925000D02*
X195225000Y-98775000D01*
X200375000Y-102925000D02*
X200230000Y-102925000D01*
X200375000Y-98775000D02*
X200230000Y-98775000D01*
X195225000Y-98775000D02*
X195370000Y-98775000D01*
X195225000Y-102925000D02*
X195275000Y-102925000D01*
X168735000Y-85215000D02*
X167335000Y-85215000D01*
X168735000Y-90315000D02*
X172885000Y-90315000D01*
X168735000Y-85165000D02*
X172885000Y-85165000D01*
X168735000Y-90315000D02*
X168735000Y-90170000D01*
X172885000Y-90315000D02*
X172885000Y-90170000D01*
X172885000Y-85165000D02*
X172885000Y-85310000D01*
X168735000Y-85165000D02*
X168735000Y-85215000D01*
X181555000Y-85025000D02*
X180155000Y-85025000D01*
X181555000Y-90125000D02*
X185705000Y-90125000D01*
X181555000Y-84975000D02*
X185705000Y-84975000D01*
X181555000Y-90125000D02*
X181555000Y-89980000D01*
X185705000Y-90125000D02*
X185705000Y-89980000D01*
X185705000Y-84975000D02*
X185705000Y-85120000D01*
X181555000Y-84975000D02*
X181555000Y-85025000D01*
D10*
X191841250Y-107256250D02*
X191053750Y-107256250D01*
X191447500Y-106862500D02*
X191447500Y-107650000D01*
X187254437Y-107890000D02*
X186190000Y-108954437D01*
X191945563Y-107890000D02*
X193010000Y-108954437D01*
X191945563Y-107890000D02*
X190660000Y-107890000D01*
X187254437Y-107890000D02*
X188540000Y-107890000D01*
X186190000Y-108954437D02*
X186190000Y-114710000D01*
X193010000Y-108954437D02*
X193010000Y-114710000D01*
X193010000Y-114710000D02*
X190660000Y-114710000D01*
X186190000Y-114710000D02*
X188540000Y-114710000D01*
X136352064Y-95990000D02*
X135147936Y-95990000D01*
X136352064Y-97810000D02*
X135147936Y-97810000D01*
X150463936Y-90640000D02*
X151668064Y-90640000D01*
X150463936Y-88820000D02*
X151668064Y-88820000D01*
X150497936Y-86110000D02*
X151702064Y-86110000D01*
X150497936Y-84290000D02*
X151702064Y-84290000D01*
X145532000Y-95430000D02*
X146822000Y-95430000D01*
X145532000Y-95880000D02*
X145532000Y-95430000D01*
X145082000Y-95880000D02*
X145532000Y-95880000D01*
X138312000Y-95880000D02*
X138312000Y-95430000D01*
X138762000Y-95880000D02*
X138312000Y-95880000D01*
X145532000Y-88660000D02*
X145532000Y-89110000D01*
X145082000Y-88660000D02*
X145532000Y-88660000D01*
X138312000Y-88660000D02*
X138312000Y-89110000D01*
X138762000Y-88660000D02*
X138312000Y-88660000D01*
D11*
X173807000Y-110227000D02*
X172407000Y-110227000D01*
X173807000Y-115327000D02*
X177957000Y-115327000D01*
X173807000Y-110177000D02*
X177957000Y-110177000D01*
X173807000Y-115327000D02*
X173807000Y-115182000D01*
X177957000Y-115327000D02*
X177957000Y-115182000D01*
X177957000Y-110177000D02*
X177957000Y-110322000D01*
X173807000Y-110177000D02*
X173807000Y-110227000D01*
D10*
X131210000Y-103289564D02*
X131210000Y-102085436D01*
X129390000Y-103289564D02*
X129390000Y-102085436D01*
X150497936Y-83910000D02*
X151702064Y-83910000D01*
X150497936Y-82090000D02*
X151702064Y-82090000D01*
X145399936Y-104994000D02*
X146604064Y-104994000D01*
X145399936Y-103174000D02*
X146604064Y-103174000D01*
X158990000Y-87660436D02*
X158990000Y-88864564D01*
X160810000Y-87660436D02*
X160810000Y-88864564D01*
X158610000Y-95302064D02*
X158610000Y-94097936D01*
X156790000Y-95302064D02*
X156790000Y-94097936D01*
X158610000Y-101114564D02*
X158610000Y-99910436D01*
X156790000Y-101114564D02*
X156790000Y-99910436D01*
X132814564Y-90990000D02*
X131610436Y-90990000D01*
X132814564Y-92810000D02*
X131610436Y-92810000D01*
X132802064Y-87690000D02*
X131597936Y-87690000D01*
X132802064Y-89510000D02*
X131597936Y-89510000D01*
X161235000Y-97172500D02*
X161235000Y-93112500D01*
X158965000Y-97172500D02*
X161235000Y-97172500D01*
X158965000Y-93112500D02*
X158965000Y-97172500D01*
X161235000Y-102980500D02*
X161235000Y-98920500D01*
X158965000Y-102980500D02*
X161235000Y-102980500D01*
X158965000Y-98920500D02*
X158965000Y-102980500D01*
X140947500Y-72615000D02*
X136887500Y-72615000D01*
X140947500Y-74885000D02*
X140947500Y-72615000D01*
X136887500Y-74885000D02*
X140947500Y-74885000D01*
X140947500Y-74915000D02*
X136887500Y-74915000D01*
X140947500Y-77185000D02*
X140947500Y-74915000D01*
X136887500Y-77185000D02*
X140947500Y-77185000D01*
X145590000Y-97585436D02*
X145590000Y-98789564D01*
X147410000Y-97585436D02*
X147410000Y-98789564D01*
X138210000Y-86814564D02*
X138210000Y-85610436D01*
X136390000Y-86814564D02*
X136390000Y-85610436D01*
X152485436Y-100610000D02*
X153689564Y-100610000D01*
X152485436Y-98790000D02*
X153689564Y-98790000D01*
X153714564Y-93190000D02*
X152510436Y-93190000D01*
X153714564Y-95010000D02*
X152510436Y-95010000D01*
X156614564Y-88840000D02*
X155410436Y-88840000D01*
X156614564Y-90660000D02*
X155410436Y-90660000D01*
X169590000Y-112147936D02*
X169590000Y-113352064D01*
X171410000Y-112147936D02*
X171410000Y-113352064D01*
X138302064Y-79410000D02*
X137097936Y-79410000D01*
X138302064Y-77590000D02*
X137097936Y-77590000D01*
X177752064Y-107915000D02*
X176547936Y-107915000D01*
X177752064Y-109735000D02*
X176547936Y-109735000D01*
X165291250Y-73106250D02*
X164503750Y-73106250D01*
X164897500Y-72712500D02*
X164897500Y-73500000D01*
X160704437Y-73740000D02*
X159640000Y-74804437D01*
X165395563Y-73740000D02*
X166460000Y-74804437D01*
X165395563Y-73740000D02*
X164110000Y-73740000D01*
X160704437Y-73740000D02*
X161990000Y-73740000D01*
X159640000Y-74804437D02*
X159640000Y-80560000D01*
X166460000Y-74804437D02*
X166460000Y-80560000D01*
X166460000Y-80560000D02*
X164110000Y-80560000D01*
X159640000Y-80560000D02*
X161990000Y-80560000D01*
X184352064Y-104590000D02*
X183147936Y-104590000D01*
X184352064Y-106410000D02*
X183147936Y-106410000D01*
X184312064Y-90830000D02*
X183107936Y-90830000D01*
X184312064Y-92650000D02*
X183107936Y-92650000D01*
D11*
X129202380Y-109652380D02*
X128869047Y-109176190D01*
X128630952Y-109652380D02*
X128630952Y-108652380D01*
X129011904Y-108652380D01*
X129107142Y-108700000D01*
X129154761Y-108747619D01*
X129202380Y-108842857D01*
X129202380Y-108985714D01*
X129154761Y-109080952D01*
X129107142Y-109128571D01*
X129011904Y-109176190D01*
X128630952Y-109176190D01*
X129630952Y-109128571D02*
X129964285Y-109128571D01*
X130107142Y-109652380D02*
X129630952Y-109652380D01*
X129630952Y-108652380D01*
X130107142Y-108652380D01*
X130869047Y-109128571D02*
X130535714Y-109128571D01*
X130535714Y-109652380D02*
X130535714Y-108652380D01*
X131011904Y-108652380D01*
X131345238Y-108747619D02*
X131392857Y-108700000D01*
X131488095Y-108652380D01*
X131726190Y-108652380D01*
X131821428Y-108700000D01*
X131869047Y-108747619D01*
X131916666Y-108842857D01*
X131916666Y-108938095D01*
X131869047Y-109080952D01*
X131297619Y-109652380D01*
X131916666Y-109652380D01*
X181952380Y-110052380D02*
X181619047Y-109576190D01*
X181380952Y-110052380D02*
X181380952Y-109052380D01*
X181761904Y-109052380D01*
X181857142Y-109100000D01*
X181904761Y-109147619D01*
X181952380Y-109242857D01*
X181952380Y-109385714D01*
X181904761Y-109480952D01*
X181857142Y-109528571D01*
X181761904Y-109576190D01*
X181380952Y-109576190D01*
X182380952Y-109528571D02*
X182714285Y-109528571D01*
X182857142Y-110052380D02*
X182380952Y-110052380D01*
X182380952Y-109052380D01*
X182857142Y-109052380D01*
X183619047Y-109528571D02*
X183285714Y-109528571D01*
X183285714Y-110052380D02*
X183285714Y-109052380D01*
X183761904Y-109052380D01*
X184047619Y-109052380D02*
X184666666Y-109052380D01*
X184333333Y-109433333D01*
X184476190Y-109433333D01*
X184571428Y-109480952D01*
X184619047Y-109528571D01*
X184666666Y-109623809D01*
X184666666Y-109861904D01*
X184619047Y-109957142D01*
X184571428Y-110004761D01*
X184476190Y-110052380D01*
X184190476Y-110052380D01*
X184095238Y-110004761D01*
X184047619Y-109957142D01*
X130502380Y-72252380D02*
X130169047Y-71776190D01*
X129930952Y-72252380D02*
X129930952Y-71252380D01*
X130311904Y-71252380D01*
X130407142Y-71300000D01*
X130454761Y-71347619D01*
X130502380Y-71442857D01*
X130502380Y-71585714D01*
X130454761Y-71680952D01*
X130407142Y-71728571D01*
X130311904Y-71776190D01*
X129930952Y-71776190D01*
X130930952Y-71728571D02*
X131264285Y-71728571D01*
X131407142Y-72252380D02*
X130930952Y-72252380D01*
X130930952Y-71252380D01*
X131407142Y-71252380D01*
X132169047Y-71728571D02*
X131835714Y-71728571D01*
X131835714Y-72252380D02*
X131835714Y-71252380D01*
X132311904Y-71252380D01*
X133216666Y-72252380D02*
X132645238Y-72252380D01*
X132930952Y-72252380D02*
X132930952Y-71252380D01*
X132835714Y-71395238D01*
X132740476Y-71490476D01*
X132645238Y-71538095D01*
X151866666Y-108552380D02*
X151866666Y-109266666D01*
X151819047Y-109409523D01*
X151723809Y-109504761D01*
X151580952Y-109552380D01*
X151485714Y-109552380D01*
X152247619Y-108552380D02*
X152866666Y-108552380D01*
X152533333Y-108933333D01*
X152676190Y-108933333D01*
X152771428Y-108980952D01*
X152819047Y-109028571D01*
X152866666Y-109123809D01*
X152866666Y-109361904D01*
X152819047Y-109457142D01*
X152771428Y-109504761D01*
X152676190Y-109552380D01*
X152390476Y-109552380D01*
X152295238Y-109504761D01*
X152247619Y-109457142D01*
X133866666Y-108452380D02*
X133866666Y-109166666D01*
X133819047Y-109309523D01*
X133723809Y-109404761D01*
X133580952Y-109452380D01*
X133485714Y-109452380D01*
X134771428Y-108785714D02*
X134771428Y-109452380D01*
X134533333Y-108404761D02*
X134295238Y-109119047D01*
X134914285Y-109119047D01*
X193457142Y-105957142D02*
X193409523Y-106004761D01*
X193266666Y-106052380D01*
X193171428Y-106052380D01*
X193028571Y-106004761D01*
X192933333Y-105909523D01*
X192885714Y-105814285D01*
X192838095Y-105623809D01*
X192838095Y-105480952D01*
X192885714Y-105290476D01*
X192933333Y-105195238D01*
X193028571Y-105100000D01*
X193171428Y-105052380D01*
X193266666Y-105052380D01*
X193409523Y-105100000D01*
X193457142Y-105147619D01*
X193790476Y-105052380D02*
X194409523Y-105052380D01*
X194076190Y-105433333D01*
X194219047Y-105433333D01*
X194314285Y-105480952D01*
X194361904Y-105528571D01*
X194409523Y-105623809D01*
X194409523Y-105861904D01*
X194361904Y-105957142D01*
X194314285Y-106004761D01*
X194219047Y-106052380D01*
X193933333Y-106052380D01*
X193838095Y-106004761D01*
X193790476Y-105957142D01*
X195028571Y-105052380D02*
X195123809Y-105052380D01*
X195219047Y-105100000D01*
X195266666Y-105147619D01*
X195314285Y-105242857D01*
X195361904Y-105433333D01*
X195361904Y-105671428D01*
X195314285Y-105861904D01*
X195266666Y-105957142D01*
X195219047Y-106004761D01*
X195123809Y-106052380D01*
X195028571Y-106052380D01*
X194933333Y-106004761D01*
X194885714Y-105957142D01*
X194838095Y-105861904D01*
X194790476Y-105671428D01*
X194790476Y-105433333D01*
X194838095Y-105242857D01*
X194885714Y-105147619D01*
X194933333Y-105100000D01*
X195028571Y-105052380D01*
X193457142Y-72957142D02*
X193409523Y-73004761D01*
X193266666Y-73052380D01*
X193171428Y-73052380D01*
X193028571Y-73004761D01*
X192933333Y-72909523D01*
X192885714Y-72814285D01*
X192838095Y-72623809D01*
X192838095Y-72480952D01*
X192885714Y-72290476D01*
X192933333Y-72195238D01*
X193028571Y-72100000D01*
X193171428Y-72052380D01*
X193266666Y-72052380D01*
X193409523Y-72100000D01*
X193457142Y-72147619D01*
X193838095Y-72147619D02*
X193885714Y-72100000D01*
X193980952Y-72052380D01*
X194219047Y-72052380D01*
X194314285Y-72100000D01*
X194361904Y-72147619D01*
X194409523Y-72242857D01*
X194409523Y-72338095D01*
X194361904Y-72480952D01*
X193790476Y-73052380D01*
X194409523Y-73052380D01*
X194885714Y-73052380D02*
X195076190Y-73052380D01*
X195171428Y-73004761D01*
X195219047Y-72957142D01*
X195314285Y-72814285D01*
X195361904Y-72623809D01*
X195361904Y-72242857D01*
X195314285Y-72147619D01*
X195266666Y-72100000D01*
X195171428Y-72052380D01*
X194980952Y-72052380D01*
X194885714Y-72100000D01*
X194838095Y-72147619D01*
X194790476Y-72242857D01*
X194790476Y-72480952D01*
X194838095Y-72576190D01*
X194885714Y-72623809D01*
X194980952Y-72671428D01*
X195171428Y-72671428D01*
X195266666Y-72623809D01*
X195314285Y-72576190D01*
X195361904Y-72480952D01*
X122466666Y-111452380D02*
X122466666Y-112166666D01*
X122419047Y-112309523D01*
X122323809Y-112404761D01*
X122180952Y-112452380D01*
X122085714Y-112452380D01*
X123419047Y-111452380D02*
X122942857Y-111452380D01*
X122895238Y-111928571D01*
X122942857Y-111880952D01*
X123038095Y-111833333D01*
X123276190Y-111833333D01*
X123371428Y-111880952D01*
X123419047Y-111928571D01*
X123466666Y-112023809D01*
X123466666Y-112261904D01*
X123419047Y-112357142D01*
X123371428Y-112404761D01*
X123276190Y-112452380D01*
X123038095Y-112452380D01*
X122942857Y-112404761D01*
X122895238Y-112357142D01*
X126466666Y-71552380D02*
X126466666Y-72266666D01*
X126419047Y-72409523D01*
X126323809Y-72504761D01*
X126180952Y-72552380D01*
X126085714Y-72552380D01*
X126847619Y-71552380D02*
X127514285Y-71552380D01*
X127085714Y-72552380D01*
X125766666Y-97952380D02*
X125766666Y-98666666D01*
X125719047Y-98809523D01*
X125623809Y-98904761D01*
X125480952Y-98952380D01*
X125385714Y-98952380D01*
X126671428Y-97952380D02*
X126480952Y-97952380D01*
X126385714Y-98000000D01*
X126338095Y-98047619D01*
X126242857Y-98190476D01*
X126195238Y-98380952D01*
X126195238Y-98761904D01*
X126242857Y-98857142D01*
X126290476Y-98904761D01*
X126385714Y-98952380D01*
X126576190Y-98952380D01*
X126671428Y-98904761D01*
X126719047Y-98857142D01*
X126766666Y-98761904D01*
X126766666Y-98523809D01*
X126719047Y-98428571D01*
X126671428Y-98380952D01*
X126576190Y-98333333D01*
X126385714Y-98333333D01*
X126290476Y-98380952D01*
X126242857Y-98428571D01*
X126195238Y-98523809D01*
X150657142Y-76266666D02*
X150704761Y-76314285D01*
X150752380Y-76457142D01*
X150752380Y-76552380D01*
X150704761Y-76695238D01*
X150609523Y-76790476D01*
X150514285Y-76838095D01*
X150323809Y-76885714D01*
X150180952Y-76885714D01*
X149990476Y-76838095D01*
X149895238Y-76790476D01*
X149800000Y-76695238D01*
X149752380Y-76552380D01*
X149752380Y-76457142D01*
X149800000Y-76314285D01*
X149847619Y-76266666D01*
X149752380Y-75933333D02*
X149752380Y-75266666D01*
X150752380Y-75695238D01*
X143438095Y-74052380D02*
X143438095Y-74861904D01*
X143485714Y-74957142D01*
X143533333Y-75004761D01*
X143628571Y-75052380D01*
X143819047Y-75052380D01*
X143914285Y-75004761D01*
X143961904Y-74957142D01*
X144009523Y-74861904D01*
X144009523Y-74052380D01*
X144390476Y-74052380D02*
X145009523Y-74052380D01*
X144676190Y-74433333D01*
X144819047Y-74433333D01*
X144914285Y-74480952D01*
X144961904Y-74528571D01*
X145009523Y-74623809D01*
X145009523Y-74861904D01*
X144961904Y-74957142D01*
X144914285Y-75004761D01*
X144819047Y-75052380D01*
X144533333Y-75052380D01*
X144438095Y-75004761D01*
X144390476Y-74957142D01*
X152569642Y-105352380D02*
X152236309Y-104876190D01*
X151998214Y-105352380D02*
X151998214Y-104352380D01*
X152379166Y-104352380D01*
X152474404Y-104400000D01*
X152522023Y-104447619D01*
X152569642Y-104542857D01*
X152569642Y-104685714D01*
X152522023Y-104780952D01*
X152474404Y-104828571D01*
X152379166Y-104876190D01*
X151998214Y-104876190D01*
X152902976Y-104352380D02*
X153522023Y-104352380D01*
X153188690Y-104733333D01*
X153331547Y-104733333D01*
X153426785Y-104780952D01*
X153474404Y-104828571D01*
X153522023Y-104923809D01*
X153522023Y-105161904D01*
X153474404Y-105257142D01*
X153426785Y-105304761D01*
X153331547Y-105352380D01*
X153045833Y-105352380D01*
X152950595Y-105304761D01*
X152902976Y-105257142D01*
X153855357Y-104352380D02*
X154522023Y-104352380D01*
X154093452Y-105352380D01*
X158469642Y-105252380D02*
X158136309Y-104776190D01*
X157898214Y-105252380D02*
X157898214Y-104252380D01*
X158279166Y-104252380D01*
X158374404Y-104300000D01*
X158422023Y-104347619D01*
X158469642Y-104442857D01*
X158469642Y-104585714D01*
X158422023Y-104680952D01*
X158374404Y-104728571D01*
X158279166Y-104776190D01*
X157898214Y-104776190D01*
X158802976Y-104252380D02*
X159422023Y-104252380D01*
X159088690Y-104633333D01*
X159231547Y-104633333D01*
X159326785Y-104680952D01*
X159374404Y-104728571D01*
X159422023Y-104823809D01*
X159422023Y-105061904D01*
X159374404Y-105157142D01*
X159326785Y-105204761D01*
X159231547Y-105252380D01*
X158945833Y-105252380D01*
X158850595Y-105204761D01*
X158802976Y-105157142D01*
X160279166Y-104252380D02*
X160088690Y-104252380D01*
X159993452Y-104300000D01*
X159945833Y-104347619D01*
X159850595Y-104490476D01*
X159802976Y-104680952D01*
X159802976Y-105061904D01*
X159850595Y-105157142D01*
X159898214Y-105204761D01*
X159993452Y-105252380D01*
X160183928Y-105252380D01*
X160279166Y-105204761D01*
X160326785Y-105157142D01*
X160374404Y-105061904D01*
X160374404Y-104823809D01*
X160326785Y-104728571D01*
X160279166Y-104680952D01*
X160183928Y-104633333D01*
X159993452Y-104633333D01*
X159898214Y-104680952D01*
X159850595Y-104728571D01*
X159802976Y-104823809D01*
X150457142Y-87957142D02*
X150409523Y-88004761D01*
X150266666Y-88052380D01*
X150171428Y-88052380D01*
X150028571Y-88004761D01*
X149933333Y-87909523D01*
X149885714Y-87814285D01*
X149838095Y-87623809D01*
X149838095Y-87480952D01*
X149885714Y-87290476D01*
X149933333Y-87195238D01*
X150028571Y-87100000D01*
X150171428Y-87052380D01*
X150266666Y-87052380D01*
X150409523Y-87100000D01*
X150457142Y-87147619D01*
X150838095Y-87147619D02*
X150885714Y-87100000D01*
X150980952Y-87052380D01*
X151219047Y-87052380D01*
X151314285Y-87100000D01*
X151361904Y-87147619D01*
X151409523Y-87242857D01*
X151409523Y-87338095D01*
X151361904Y-87480952D01*
X150790476Y-88052380D01*
X151409523Y-88052380D01*
X152266666Y-87052380D02*
X152076190Y-87052380D01*
X151980952Y-87100000D01*
X151933333Y-87147619D01*
X151838095Y-87290476D01*
X151790476Y-87480952D01*
X151790476Y-87861904D01*
X151838095Y-87957142D01*
X151885714Y-88004761D01*
X151980952Y-88052380D01*
X152171428Y-88052380D01*
X152266666Y-88004761D01*
X152314285Y-87957142D01*
X152361904Y-87861904D01*
X152361904Y-87623809D01*
X152314285Y-87528571D01*
X152266666Y-87480952D01*
X152171428Y-87433333D01*
X151980952Y-87433333D01*
X151885714Y-87480952D01*
X151838095Y-87528571D01*
X151790476Y-87623809D01*
X187561904Y-92852380D02*
X187561904Y-93661904D01*
X187609523Y-93757142D01*
X187657142Y-93804761D01*
X187752380Y-93852380D01*
X187942857Y-93852380D01*
X188038095Y-93804761D01*
X188085714Y-93757142D01*
X188133333Y-93661904D01*
X188133333Y-92852380D01*
X189133333Y-93852380D02*
X188561904Y-93852380D01*
X188847619Y-93852380D02*
X188847619Y-92852380D01*
X188752380Y-92995238D01*
X188657142Y-93090476D01*
X188561904Y-93138095D01*
X189752380Y-92852380D02*
X189847619Y-92852380D01*
X189942857Y-92900000D01*
X189990476Y-92947619D01*
X190038095Y-93042857D01*
X190085714Y-93233333D01*
X190085714Y-93471428D01*
X190038095Y-93661904D01*
X189990476Y-93757142D01*
X189942857Y-93804761D01*
X189847619Y-93852380D01*
X189752380Y-93852380D01*
X189657142Y-93804761D01*
X189609523Y-93757142D01*
X189561904Y-93661904D01*
X189514285Y-93471428D01*
X189514285Y-93233333D01*
X189561904Y-93042857D01*
X189609523Y-92947619D01*
X189657142Y-92900000D01*
X189752380Y-92852380D01*
X182657142Y-95557142D02*
X182609523Y-95604761D01*
X182466666Y-95652380D01*
X182371428Y-95652380D01*
X182228571Y-95604761D01*
X182133333Y-95509523D01*
X182085714Y-95414285D01*
X182038095Y-95223809D01*
X182038095Y-95080952D01*
X182085714Y-94890476D01*
X182133333Y-94795238D01*
X182228571Y-94700000D01*
X182371428Y-94652380D01*
X182466666Y-94652380D01*
X182609523Y-94700000D01*
X182657142Y-94747619D01*
X183038095Y-94747619D02*
X183085714Y-94700000D01*
X183180952Y-94652380D01*
X183419047Y-94652380D01*
X183514285Y-94700000D01*
X183561904Y-94747619D01*
X183609523Y-94842857D01*
X183609523Y-94938095D01*
X183561904Y-95080952D01*
X182990476Y-95652380D01*
X183609523Y-95652380D01*
X184180952Y-95080952D02*
X184085714Y-95033333D01*
X184038095Y-94985714D01*
X183990476Y-94890476D01*
X183990476Y-94842857D01*
X184038095Y-94747619D01*
X184085714Y-94700000D01*
X184180952Y-94652380D01*
X184371428Y-94652380D01*
X184466666Y-94700000D01*
X184514285Y-94747619D01*
X184561904Y-94842857D01*
X184561904Y-94890476D01*
X184514285Y-94985714D01*
X184466666Y-95033333D01*
X184371428Y-95080952D01*
X184180952Y-95080952D01*
X184085714Y-95128571D01*
X184038095Y-95176190D01*
X183990476Y-95271428D01*
X183990476Y-95461904D01*
X184038095Y-95557142D01*
X184085714Y-95604761D01*
X184180952Y-95652380D01*
X184371428Y-95652380D01*
X184466666Y-95604761D01*
X184514285Y-95557142D01*
X184561904Y-95461904D01*
X184561904Y-95271428D01*
X184514285Y-95176190D01*
X184466666Y-95128571D01*
X184371428Y-95080952D01*
X142057142Y-81252380D02*
X141723809Y-80776190D01*
X141485714Y-81252380D02*
X141485714Y-80252380D01*
X141866666Y-80252380D01*
X141961904Y-80300000D01*
X142009523Y-80347619D01*
X142057142Y-80442857D01*
X142057142Y-80585714D01*
X142009523Y-80680952D01*
X141961904Y-80728571D01*
X141866666Y-80776190D01*
X141485714Y-80776190D01*
X142390476Y-80252380D02*
X143009523Y-80252380D01*
X142676190Y-80633333D01*
X142819047Y-80633333D01*
X142914285Y-80680952D01*
X142961904Y-80728571D01*
X143009523Y-80823809D01*
X143009523Y-81061904D01*
X142961904Y-81157142D01*
X142914285Y-81204761D01*
X142819047Y-81252380D01*
X142533333Y-81252380D01*
X142438095Y-81204761D01*
X142390476Y-81157142D01*
X143866666Y-80585714D02*
X143866666Y-81252380D01*
X143628571Y-80204761D02*
X143390476Y-80919047D01*
X144009523Y-80919047D01*
X137157142Y-81252380D02*
X136823809Y-80776190D01*
X136585714Y-81252380D02*
X136585714Y-80252380D01*
X136966666Y-80252380D01*
X137061904Y-80300000D01*
X137109523Y-80347619D01*
X137157142Y-80442857D01*
X137157142Y-80585714D01*
X137109523Y-80680952D01*
X137061904Y-80728571D01*
X136966666Y-80776190D01*
X136585714Y-80776190D01*
X137490476Y-80252380D02*
X138109523Y-80252380D01*
X137776190Y-80633333D01*
X137919047Y-80633333D01*
X138014285Y-80680952D01*
X138061904Y-80728571D01*
X138109523Y-80823809D01*
X138109523Y-81061904D01*
X138061904Y-81157142D01*
X138014285Y-81204761D01*
X137919047Y-81252380D01*
X137633333Y-81252380D01*
X137538095Y-81204761D01*
X137490476Y-81157142D01*
X138442857Y-80252380D02*
X139061904Y-80252380D01*
X138728571Y-80633333D01*
X138871428Y-80633333D01*
X138966666Y-80680952D01*
X139014285Y-80728571D01*
X139061904Y-80823809D01*
X139061904Y-81061904D01*
X139014285Y-81157142D01*
X138966666Y-81204761D01*
X138871428Y-81252380D01*
X138585714Y-81252380D01*
X138490476Y-81204761D01*
X138442857Y-81157142D01*
X142057142Y-83457142D02*
X142009523Y-83504761D01*
X141866666Y-83552380D01*
X141771428Y-83552380D01*
X141628571Y-83504761D01*
X141533333Y-83409523D01*
X141485714Y-83314285D01*
X141438095Y-83123809D01*
X141438095Y-82980952D01*
X141485714Y-82790476D01*
X141533333Y-82695238D01*
X141628571Y-82600000D01*
X141771428Y-82552380D01*
X141866666Y-82552380D01*
X142009523Y-82600000D01*
X142057142Y-82647619D01*
X142438095Y-82647619D02*
X142485714Y-82600000D01*
X142580952Y-82552380D01*
X142819047Y-82552380D01*
X142914285Y-82600000D01*
X142961904Y-82647619D01*
X143009523Y-82742857D01*
X143009523Y-82838095D01*
X142961904Y-82980952D01*
X142390476Y-83552380D01*
X143009523Y-83552380D01*
X143342857Y-82552380D02*
X144009523Y-82552380D01*
X143580952Y-83552380D01*
X152623809Y-96876190D02*
X152623809Y-97352380D01*
X152290476Y-96352380D02*
X152623809Y-96876190D01*
X152957142Y-96352380D01*
X153814285Y-97352380D02*
X153242857Y-97352380D01*
X153528571Y-97352380D02*
X153528571Y-96352380D01*
X153433333Y-96495238D01*
X153338095Y-96590476D01*
X153242857Y-96638095D01*
X131557142Y-83952380D02*
X131223809Y-83476190D01*
X130985714Y-83952380D02*
X130985714Y-82952380D01*
X131366666Y-82952380D01*
X131461904Y-83000000D01*
X131509523Y-83047619D01*
X131557142Y-83142857D01*
X131557142Y-83285714D01*
X131509523Y-83380952D01*
X131461904Y-83428571D01*
X131366666Y-83476190D01*
X130985714Y-83476190D01*
X131890476Y-82952380D02*
X132509523Y-82952380D01*
X132176190Y-83333333D01*
X132319047Y-83333333D01*
X132414285Y-83380952D01*
X132461904Y-83428571D01*
X132509523Y-83523809D01*
X132509523Y-83761904D01*
X132461904Y-83857142D01*
X132414285Y-83904761D01*
X132319047Y-83952380D01*
X132033333Y-83952380D01*
X131938095Y-83904761D01*
X131890476Y-83857142D01*
X132890476Y-83047619D02*
X132938095Y-83000000D01*
X133033333Y-82952380D01*
X133271428Y-82952380D01*
X133366666Y-83000000D01*
X133414285Y-83047619D01*
X133461904Y-83142857D01*
X133461904Y-83238095D01*
X133414285Y-83380952D01*
X132842857Y-83952380D01*
X133461904Y-83952380D01*
X131657142Y-79152380D02*
X131323809Y-78676190D01*
X131085714Y-79152380D02*
X131085714Y-78152380D01*
X131466666Y-78152380D01*
X131561904Y-78200000D01*
X131609523Y-78247619D01*
X131657142Y-78342857D01*
X131657142Y-78485714D01*
X131609523Y-78580952D01*
X131561904Y-78628571D01*
X131466666Y-78676190D01*
X131085714Y-78676190D01*
X131990476Y-78152380D02*
X132609523Y-78152380D01*
X132276190Y-78533333D01*
X132419047Y-78533333D01*
X132514285Y-78580952D01*
X132561904Y-78628571D01*
X132609523Y-78723809D01*
X132609523Y-78961904D01*
X132561904Y-79057142D01*
X132514285Y-79104761D01*
X132419047Y-79152380D01*
X132133333Y-79152380D01*
X132038095Y-79104761D01*
X131990476Y-79057142D01*
X133561904Y-79152380D02*
X132990476Y-79152380D01*
X133276190Y-79152380D02*
X133276190Y-78152380D01*
X133180952Y-78295238D01*
X133085714Y-78390476D01*
X132990476Y-78438095D01*
X126466666Y-81752380D02*
X126466666Y-82466666D01*
X126419047Y-82609523D01*
X126323809Y-82704761D01*
X126180952Y-82752380D01*
X126085714Y-82752380D01*
X126895238Y-81847619D02*
X126942857Y-81800000D01*
X127038095Y-81752380D01*
X127276190Y-81752380D01*
X127371428Y-81800000D01*
X127419047Y-81847619D01*
X127466666Y-81942857D01*
X127466666Y-82038095D01*
X127419047Y-82180952D01*
X126847619Y-82752380D01*
X127466666Y-82752380D01*
X131457142Y-86257142D02*
X131409523Y-86304761D01*
X131266666Y-86352380D01*
X131171428Y-86352380D01*
X131028571Y-86304761D01*
X130933333Y-86209523D01*
X130885714Y-86114285D01*
X130838095Y-85923809D01*
X130838095Y-85780952D01*
X130885714Y-85590476D01*
X130933333Y-85495238D01*
X131028571Y-85400000D01*
X131171428Y-85352380D01*
X131266666Y-85352380D01*
X131409523Y-85400000D01*
X131457142Y-85447619D01*
X131838095Y-85447619D02*
X131885714Y-85400000D01*
X131980952Y-85352380D01*
X132219047Y-85352380D01*
X132314285Y-85400000D01*
X132361904Y-85447619D01*
X132409523Y-85542857D01*
X132409523Y-85638095D01*
X132361904Y-85780952D01*
X131790476Y-86352380D01*
X132409523Y-86352380D01*
X133314285Y-85352380D02*
X132838095Y-85352380D01*
X132790476Y-85828571D01*
X132838095Y-85780952D01*
X132933333Y-85733333D01*
X133171428Y-85733333D01*
X133266666Y-85780952D01*
X133314285Y-85828571D01*
X133361904Y-85923809D01*
X133361904Y-86161904D01*
X133314285Y-86257142D01*
X133266666Y-86304761D01*
X133171428Y-86352380D01*
X132933333Y-86352380D01*
X132838095Y-86304761D01*
X132790476Y-86257142D01*
X131544642Y-81457142D02*
X131497023Y-81504761D01*
X131354166Y-81552380D01*
X131258928Y-81552380D01*
X131116071Y-81504761D01*
X131020833Y-81409523D01*
X130973214Y-81314285D01*
X130925595Y-81123809D01*
X130925595Y-80980952D01*
X130973214Y-80790476D01*
X131020833Y-80695238D01*
X131116071Y-80600000D01*
X131258928Y-80552380D01*
X131354166Y-80552380D01*
X131497023Y-80600000D01*
X131544642Y-80647619D01*
X132497023Y-81552380D02*
X131925595Y-81552380D01*
X132211309Y-81552380D02*
X132211309Y-80552380D01*
X132116071Y-80695238D01*
X132020833Y-80790476D01*
X131925595Y-80838095D01*
X132830357Y-80552380D02*
X133449404Y-80552380D01*
X133116071Y-80933333D01*
X133258928Y-80933333D01*
X133354166Y-80980952D01*
X133401785Y-81028571D01*
X133449404Y-81123809D01*
X133449404Y-81361904D01*
X133401785Y-81457142D01*
X133354166Y-81504761D01*
X133258928Y-81552380D01*
X132973214Y-81552380D01*
X132877976Y-81504761D01*
X132830357Y-81457142D01*
X196457142Y-111757142D02*
X196409523Y-111804761D01*
X196266666Y-111852380D01*
X196171428Y-111852380D01*
X196028571Y-111804761D01*
X195933333Y-111709523D01*
X195885714Y-111614285D01*
X195838095Y-111423809D01*
X195838095Y-111280952D01*
X195885714Y-111090476D01*
X195933333Y-110995238D01*
X196028571Y-110900000D01*
X196171428Y-110852380D01*
X196266666Y-110852380D01*
X196409523Y-110900000D01*
X196457142Y-110947619D01*
X196838095Y-110947619D02*
X196885714Y-110900000D01*
X196980952Y-110852380D01*
X197219047Y-110852380D01*
X197314285Y-110900000D01*
X197361904Y-110947619D01*
X197409523Y-111042857D01*
X197409523Y-111138095D01*
X197361904Y-111280952D01*
X196790476Y-111852380D01*
X197409523Y-111852380D01*
X198266666Y-111185714D02*
X198266666Y-111852380D01*
X198028571Y-110804761D02*
X197790476Y-111519047D01*
X198409523Y-111519047D01*
X152757142Y-77557142D02*
X152709523Y-77604761D01*
X152566666Y-77652380D01*
X152471428Y-77652380D01*
X152328571Y-77604761D01*
X152233333Y-77509523D01*
X152185714Y-77414285D01*
X152138095Y-77223809D01*
X152138095Y-77080952D01*
X152185714Y-76890476D01*
X152233333Y-76795238D01*
X152328571Y-76700000D01*
X152471428Y-76652380D01*
X152566666Y-76652380D01*
X152709523Y-76700000D01*
X152757142Y-76747619D01*
X153138095Y-76747619D02*
X153185714Y-76700000D01*
X153280952Y-76652380D01*
X153519047Y-76652380D01*
X153614285Y-76700000D01*
X153661904Y-76747619D01*
X153709523Y-76842857D01*
X153709523Y-76938095D01*
X153661904Y-77080952D01*
X153090476Y-77652380D01*
X153709523Y-77652380D01*
X154042857Y-76652380D02*
X154661904Y-76652380D01*
X154328571Y-77033333D01*
X154471428Y-77033333D01*
X154566666Y-77080952D01*
X154614285Y-77128571D01*
X154661904Y-77223809D01*
X154661904Y-77461904D01*
X154614285Y-77557142D01*
X154566666Y-77604761D01*
X154471428Y-77652380D01*
X154185714Y-77652380D01*
X154090476Y-77604761D01*
X154042857Y-77557142D01*
X196938095Y-77152380D02*
X196938095Y-77961904D01*
X196985714Y-78057142D01*
X197033333Y-78104761D01*
X197128571Y-78152380D01*
X197319047Y-78152380D01*
X197414285Y-78104761D01*
X197461904Y-78057142D01*
X197509523Y-77961904D01*
X197509523Y-77152380D01*
X197890476Y-77152380D02*
X198557142Y-77152380D01*
X198128571Y-78152380D01*
X169838095Y-75452380D02*
X169838095Y-76261904D01*
X169885714Y-76357142D01*
X169933333Y-76404761D01*
X170028571Y-76452380D01*
X170219047Y-76452380D01*
X170314285Y-76404761D01*
X170361904Y-76357142D01*
X170409523Y-76261904D01*
X170409523Y-75452380D01*
X171028571Y-75880952D02*
X170933333Y-75833333D01*
X170885714Y-75785714D01*
X170838095Y-75690476D01*
X170838095Y-75642857D01*
X170885714Y-75547619D01*
X170933333Y-75500000D01*
X171028571Y-75452380D01*
X171219047Y-75452380D01*
X171314285Y-75500000D01*
X171361904Y-75547619D01*
X171409523Y-75642857D01*
X171409523Y-75690476D01*
X171361904Y-75785714D01*
X171314285Y-75833333D01*
X171219047Y-75880952D01*
X171028571Y-75880952D01*
X170933333Y-75928571D01*
X170885714Y-75976190D01*
X170838095Y-76071428D01*
X170838095Y-76261904D01*
X170885714Y-76357142D01*
X170933333Y-76404761D01*
X171028571Y-76452380D01*
X171219047Y-76452380D01*
X171314285Y-76404761D01*
X171361904Y-76357142D01*
X171409523Y-76261904D01*
X171409523Y-76071428D01*
X171361904Y-75976190D01*
X171314285Y-75928571D01*
X171219047Y-75880952D01*
X176357142Y-73752380D02*
X176023809Y-73276190D01*
X175785714Y-73752380D02*
X175785714Y-72752380D01*
X176166666Y-72752380D01*
X176261904Y-72800000D01*
X176309523Y-72847619D01*
X176357142Y-72942857D01*
X176357142Y-73085714D01*
X176309523Y-73180952D01*
X176261904Y-73228571D01*
X176166666Y-73276190D01*
X175785714Y-73276190D01*
X176690476Y-72752380D02*
X177309523Y-72752380D01*
X176976190Y-73133333D01*
X177119047Y-73133333D01*
X177214285Y-73180952D01*
X177261904Y-73228571D01*
X177309523Y-73323809D01*
X177309523Y-73561904D01*
X177261904Y-73657142D01*
X177214285Y-73704761D01*
X177119047Y-73752380D01*
X176833333Y-73752380D01*
X176738095Y-73704761D01*
X176690476Y-73657142D01*
X177928571Y-72752380D02*
X178023809Y-72752380D01*
X178119047Y-72800000D01*
X178166666Y-72847619D01*
X178214285Y-72942857D01*
X178261904Y-73133333D01*
X178261904Y-73371428D01*
X178214285Y-73561904D01*
X178166666Y-73657142D01*
X178119047Y-73704761D01*
X178023809Y-73752380D01*
X177928571Y-73752380D01*
X177833333Y-73704761D01*
X177785714Y-73657142D01*
X177738095Y-73561904D01*
X177690476Y-73371428D01*
X177690476Y-73133333D01*
X177738095Y-72942857D01*
X177785714Y-72847619D01*
X177833333Y-72800000D01*
X177928571Y-72752380D01*
X176457142Y-80952380D02*
X176123809Y-80476190D01*
X175885714Y-80952380D02*
X175885714Y-79952380D01*
X176266666Y-79952380D01*
X176361904Y-80000000D01*
X176409523Y-80047619D01*
X176457142Y-80142857D01*
X176457142Y-80285714D01*
X176409523Y-80380952D01*
X176361904Y-80428571D01*
X176266666Y-80476190D01*
X175885714Y-80476190D01*
X176838095Y-80047619D02*
X176885714Y-80000000D01*
X176980952Y-79952380D01*
X177219047Y-79952380D01*
X177314285Y-80000000D01*
X177361904Y-80047619D01*
X177409523Y-80142857D01*
X177409523Y-80238095D01*
X177361904Y-80380952D01*
X176790476Y-80952380D01*
X177409523Y-80952380D01*
X177885714Y-80952380D02*
X178076190Y-80952380D01*
X178171428Y-80904761D01*
X178219047Y-80857142D01*
X178314285Y-80714285D01*
X178361904Y-80523809D01*
X178361904Y-80142857D01*
X178314285Y-80047619D01*
X178266666Y-80000000D01*
X178171428Y-79952380D01*
X177980952Y-79952380D01*
X177885714Y-80000000D01*
X177838095Y-80047619D01*
X177790476Y-80142857D01*
X177790476Y-80380952D01*
X177838095Y-80476190D01*
X177885714Y-80523809D01*
X177980952Y-80571428D01*
X178171428Y-80571428D01*
X178266666Y-80523809D01*
X178314285Y-80476190D01*
X178361904Y-80380952D01*
X176457142Y-76152380D02*
X176123809Y-75676190D01*
X175885714Y-76152380D02*
X175885714Y-75152380D01*
X176266666Y-75152380D01*
X176361904Y-75200000D01*
X176409523Y-75247619D01*
X176457142Y-75342857D01*
X176457142Y-75485714D01*
X176409523Y-75580952D01*
X176361904Y-75628571D01*
X176266666Y-75676190D01*
X175885714Y-75676190D01*
X176838095Y-75247619D02*
X176885714Y-75200000D01*
X176980952Y-75152380D01*
X177219047Y-75152380D01*
X177314285Y-75200000D01*
X177361904Y-75247619D01*
X177409523Y-75342857D01*
X177409523Y-75438095D01*
X177361904Y-75580952D01*
X176790476Y-76152380D01*
X177409523Y-76152380D01*
X177980952Y-75580952D02*
X177885714Y-75533333D01*
X177838095Y-75485714D01*
X177790476Y-75390476D01*
X177790476Y-75342857D01*
X177838095Y-75247619D01*
X177885714Y-75200000D01*
X177980952Y-75152380D01*
X178171428Y-75152380D01*
X178266666Y-75200000D01*
X178314285Y-75247619D01*
X178361904Y-75342857D01*
X178361904Y-75390476D01*
X178314285Y-75485714D01*
X178266666Y-75533333D01*
X178171428Y-75580952D01*
X177980952Y-75580952D01*
X177885714Y-75628571D01*
X177838095Y-75676190D01*
X177790476Y-75771428D01*
X177790476Y-75961904D01*
X177838095Y-76057142D01*
X177885714Y-76104761D01*
X177980952Y-76152380D01*
X178171428Y-76152380D01*
X178266666Y-76104761D01*
X178314285Y-76057142D01*
X178361904Y-75961904D01*
X178361904Y-75771428D01*
X178314285Y-75676190D01*
X178266666Y-75628571D01*
X178171428Y-75580952D01*
X176457142Y-78652380D02*
X176123809Y-78176190D01*
X175885714Y-78652380D02*
X175885714Y-77652380D01*
X176266666Y-77652380D01*
X176361904Y-77700000D01*
X176409523Y-77747619D01*
X176457142Y-77842857D01*
X176457142Y-77985714D01*
X176409523Y-78080952D01*
X176361904Y-78128571D01*
X176266666Y-78176190D01*
X175885714Y-78176190D01*
X176838095Y-77747619D02*
X176885714Y-77700000D01*
X176980952Y-77652380D01*
X177219047Y-77652380D01*
X177314285Y-77700000D01*
X177361904Y-77747619D01*
X177409523Y-77842857D01*
X177409523Y-77938095D01*
X177361904Y-78080952D01*
X176790476Y-78652380D01*
X177409523Y-78652380D01*
X177742857Y-77652380D02*
X178409523Y-77652380D01*
X177980952Y-78652380D01*
X170557142Y-72752380D02*
X170223809Y-72276190D01*
X169985714Y-72752380D02*
X169985714Y-71752380D01*
X170366666Y-71752380D01*
X170461904Y-71800000D01*
X170509523Y-71847619D01*
X170557142Y-71942857D01*
X170557142Y-72085714D01*
X170509523Y-72180952D01*
X170461904Y-72228571D01*
X170366666Y-72276190D01*
X169985714Y-72276190D01*
X170938095Y-71847619D02*
X170985714Y-71800000D01*
X171080952Y-71752380D01*
X171319047Y-71752380D01*
X171414285Y-71800000D01*
X171461904Y-71847619D01*
X171509523Y-71942857D01*
X171509523Y-72038095D01*
X171461904Y-72180952D01*
X170890476Y-72752380D01*
X171509523Y-72752380D01*
X172366666Y-71752380D02*
X172176190Y-71752380D01*
X172080952Y-71800000D01*
X172033333Y-71847619D01*
X171938095Y-71990476D01*
X171890476Y-72180952D01*
X171890476Y-72561904D01*
X171938095Y-72657142D01*
X171985714Y-72704761D01*
X172080952Y-72752380D01*
X172271428Y-72752380D01*
X172366666Y-72704761D01*
X172414285Y-72657142D01*
X172461904Y-72561904D01*
X172461904Y-72323809D01*
X172414285Y-72228571D01*
X172366666Y-72180952D01*
X172271428Y-72133333D01*
X172080952Y-72133333D01*
X171985714Y-72180952D01*
X171938095Y-72228571D01*
X171890476Y-72323809D01*
X194252380Y-78442857D02*
X193776190Y-78776190D01*
X194252380Y-79014285D02*
X193252380Y-79014285D01*
X193252380Y-78633333D01*
X193300000Y-78538095D01*
X193347619Y-78490476D01*
X193442857Y-78442857D01*
X193585714Y-78442857D01*
X193680952Y-78490476D01*
X193728571Y-78538095D01*
X193776190Y-78633333D01*
X193776190Y-79014285D01*
X193347619Y-78061904D02*
X193300000Y-78014285D01*
X193252380Y-77919047D01*
X193252380Y-77680952D01*
X193300000Y-77585714D01*
X193347619Y-77538095D01*
X193442857Y-77490476D01*
X193538095Y-77490476D01*
X193680952Y-77538095D01*
X194252380Y-78109523D01*
X194252380Y-77490476D01*
X193252380Y-76585714D02*
X193252380Y-77061904D01*
X193728571Y-77109523D01*
X193680952Y-77061904D01*
X193633333Y-76966666D01*
X193633333Y-76728571D01*
X193680952Y-76633333D01*
X193728571Y-76585714D01*
X193823809Y-76538095D01*
X194061904Y-76538095D01*
X194157142Y-76585714D01*
X194204761Y-76633333D01*
X194252380Y-76728571D01*
X194252380Y-76966666D01*
X194204761Y-77061904D01*
X194157142Y-77109523D01*
X183504761Y-76747619D02*
X183409523Y-76700000D01*
X183314285Y-76604761D01*
X183171428Y-76461904D01*
X183076190Y-76414285D01*
X182980952Y-76414285D01*
X183028571Y-76652380D02*
X182933333Y-76604761D01*
X182838095Y-76509523D01*
X182790476Y-76319047D01*
X182790476Y-75985714D01*
X182838095Y-75795238D01*
X182933333Y-75700000D01*
X183028571Y-75652380D01*
X183219047Y-75652380D01*
X183314285Y-75700000D01*
X183409523Y-75795238D01*
X183457142Y-75985714D01*
X183457142Y-76319047D01*
X183409523Y-76509523D01*
X183314285Y-76604761D01*
X183219047Y-76652380D01*
X183028571Y-76652380D01*
X183790476Y-75652380D02*
X184409523Y-75652380D01*
X184076190Y-76033333D01*
X184219047Y-76033333D01*
X184314285Y-76080952D01*
X184361904Y-76128571D01*
X184409523Y-76223809D01*
X184409523Y-76461904D01*
X184361904Y-76557142D01*
X184314285Y-76604761D01*
X184219047Y-76652380D01*
X183933333Y-76652380D01*
X183838095Y-76604761D01*
X183790476Y-76557142D01*
X193566666Y-82452380D02*
X193566666Y-83166666D01*
X193519047Y-83309523D01*
X193423809Y-83404761D01*
X193280952Y-83452380D01*
X193185714Y-83452380D01*
X194566666Y-83452380D02*
X193995238Y-83452380D01*
X194280952Y-83452380D02*
X194280952Y-82452380D01*
X194185714Y-82595238D01*
X194090476Y-82690476D01*
X193995238Y-82738095D01*
X170157142Y-81057142D02*
X170109523Y-81104761D01*
X169966666Y-81152380D01*
X169871428Y-81152380D01*
X169728571Y-81104761D01*
X169633333Y-81009523D01*
X169585714Y-80914285D01*
X169538095Y-80723809D01*
X169538095Y-80580952D01*
X169585714Y-80390476D01*
X169633333Y-80295238D01*
X169728571Y-80200000D01*
X169871428Y-80152380D01*
X169966666Y-80152380D01*
X170109523Y-80200000D01*
X170157142Y-80247619D01*
X170538095Y-80247619D02*
X170585714Y-80200000D01*
X170680952Y-80152380D01*
X170919047Y-80152380D01*
X171014285Y-80200000D01*
X171061904Y-80247619D01*
X171109523Y-80342857D01*
X171109523Y-80438095D01*
X171061904Y-80580952D01*
X170490476Y-81152380D01*
X171109523Y-81152380D01*
X171490476Y-80247619D02*
X171538095Y-80200000D01*
X171633333Y-80152380D01*
X171871428Y-80152380D01*
X171966666Y-80200000D01*
X172014285Y-80247619D01*
X172061904Y-80342857D01*
X172061904Y-80438095D01*
X172014285Y-80580952D01*
X171442857Y-81152380D01*
X172061904Y-81152380D01*
X183057142Y-80857142D02*
X183009523Y-80904761D01*
X182866666Y-80952380D01*
X182771428Y-80952380D01*
X182628571Y-80904761D01*
X182533333Y-80809523D01*
X182485714Y-80714285D01*
X182438095Y-80523809D01*
X182438095Y-80380952D01*
X182485714Y-80190476D01*
X182533333Y-80095238D01*
X182628571Y-80000000D01*
X182771428Y-79952380D01*
X182866666Y-79952380D01*
X183009523Y-80000000D01*
X183057142Y-80047619D01*
X183438095Y-80047619D02*
X183485714Y-80000000D01*
X183580952Y-79952380D01*
X183819047Y-79952380D01*
X183914285Y-80000000D01*
X183961904Y-80047619D01*
X184009523Y-80142857D01*
X184009523Y-80238095D01*
X183961904Y-80380952D01*
X183390476Y-80952380D01*
X184009523Y-80952380D01*
X184961904Y-80952380D02*
X184390476Y-80952380D01*
X184676190Y-80952380D02*
X184676190Y-79952380D01*
X184580952Y-80095238D01*
X184485714Y-80190476D01*
X184390476Y-80238095D01*
X157757142Y-85052380D02*
X157423809Y-84576190D01*
X157185714Y-85052380D02*
X157185714Y-84052380D01*
X157566666Y-84052380D01*
X157661904Y-84100000D01*
X157709523Y-84147619D01*
X157757142Y-84242857D01*
X157757142Y-84385714D01*
X157709523Y-84480952D01*
X157661904Y-84528571D01*
X157566666Y-84576190D01*
X157185714Y-84576190D01*
X158138095Y-84147619D02*
X158185714Y-84100000D01*
X158280952Y-84052380D01*
X158519047Y-84052380D01*
X158614285Y-84100000D01*
X158661904Y-84147619D01*
X158709523Y-84242857D01*
X158709523Y-84338095D01*
X158661904Y-84480952D01*
X158090476Y-85052380D01*
X158709523Y-85052380D01*
X159328571Y-84052380D02*
X159423809Y-84052380D01*
X159519047Y-84100000D01*
X159566666Y-84147619D01*
X159614285Y-84242857D01*
X159661904Y-84433333D01*
X159661904Y-84671428D01*
X159614285Y-84861904D01*
X159566666Y-84957142D01*
X159519047Y-85004761D01*
X159423809Y-85052380D01*
X159328571Y-85052380D01*
X159233333Y-85004761D01*
X159185714Y-84957142D01*
X159138095Y-84861904D01*
X159090476Y-84671428D01*
X159090476Y-84433333D01*
X159138095Y-84242857D01*
X159185714Y-84147619D01*
X159233333Y-84100000D01*
X159328571Y-84052380D01*
X155057142Y-86542857D02*
X155104761Y-86590476D01*
X155152380Y-86733333D01*
X155152380Y-86828571D01*
X155104761Y-86971428D01*
X155009523Y-87066666D01*
X154914285Y-87114285D01*
X154723809Y-87161904D01*
X154580952Y-87161904D01*
X154390476Y-87114285D01*
X154295238Y-87066666D01*
X154200000Y-86971428D01*
X154152380Y-86828571D01*
X154152380Y-86733333D01*
X154200000Y-86590476D01*
X154247619Y-86542857D01*
X154247619Y-86161904D02*
X154200000Y-86114285D01*
X154152380Y-86019047D01*
X154152380Y-85780952D01*
X154200000Y-85685714D01*
X154247619Y-85638095D01*
X154342857Y-85590476D01*
X154438095Y-85590476D01*
X154580952Y-85638095D01*
X155152380Y-86209523D01*
X155152380Y-85590476D01*
X154152380Y-84971428D02*
X154152380Y-84876190D01*
X154200000Y-84780952D01*
X154247619Y-84733333D01*
X154342857Y-84685714D01*
X154533333Y-84638095D01*
X154771428Y-84638095D01*
X154961904Y-84685714D01*
X155057142Y-84733333D01*
X155104761Y-84780952D01*
X155152380Y-84876190D01*
X155152380Y-84971428D01*
X155104761Y-85066666D01*
X155057142Y-85114285D01*
X154961904Y-85161904D01*
X154771428Y-85209523D01*
X154533333Y-85209523D01*
X154342857Y-85161904D01*
X154247619Y-85114285D01*
X154200000Y-85066666D01*
X154152380Y-84971428D01*
X183504761Y-101647619D02*
X183409523Y-101600000D01*
X183314285Y-101504761D01*
X183171428Y-101361904D01*
X183076190Y-101314285D01*
X182980952Y-101314285D01*
X183028571Y-101552380D02*
X182933333Y-101504761D01*
X182838095Y-101409523D01*
X182790476Y-101219047D01*
X182790476Y-100885714D01*
X182838095Y-100695238D01*
X182933333Y-100600000D01*
X183028571Y-100552380D01*
X183219047Y-100552380D01*
X183314285Y-100600000D01*
X183409523Y-100695238D01*
X183457142Y-100885714D01*
X183457142Y-101219047D01*
X183409523Y-101409523D01*
X183314285Y-101504761D01*
X183219047Y-101552380D01*
X183028571Y-101552380D01*
X183838095Y-100647619D02*
X183885714Y-100600000D01*
X183980952Y-100552380D01*
X184219047Y-100552380D01*
X184314285Y-100600000D01*
X184361904Y-100647619D01*
X184409523Y-100742857D01*
X184409523Y-100838095D01*
X184361904Y-100980952D01*
X183790476Y-101552380D01*
X184409523Y-101552380D01*
X133152380Y-103326857D02*
X132676190Y-103660190D01*
X133152380Y-103898285D02*
X132152380Y-103898285D01*
X132152380Y-103517333D01*
X132200000Y-103422095D01*
X132247619Y-103374476D01*
X132342857Y-103326857D01*
X132485714Y-103326857D01*
X132580952Y-103374476D01*
X132628571Y-103422095D01*
X132676190Y-103517333D01*
X132676190Y-103898285D01*
X132247619Y-102945904D02*
X132200000Y-102898285D01*
X132152380Y-102803047D01*
X132152380Y-102564952D01*
X132200000Y-102469714D01*
X132247619Y-102422095D01*
X132342857Y-102374476D01*
X132438095Y-102374476D01*
X132580952Y-102422095D01*
X133152380Y-102993523D01*
X133152380Y-102374476D01*
X132485714Y-101517333D02*
X133152380Y-101517333D01*
X132104761Y-101755428D02*
X132819047Y-101993523D01*
X132819047Y-101374476D01*
X140252380Y-103442857D02*
X139776190Y-103776190D01*
X140252380Y-104014285D02*
X139252380Y-104014285D01*
X139252380Y-103633333D01*
X139300000Y-103538095D01*
X139347619Y-103490476D01*
X139442857Y-103442857D01*
X139585714Y-103442857D01*
X139680952Y-103490476D01*
X139728571Y-103538095D01*
X139776190Y-103633333D01*
X139776190Y-104014285D01*
X139347619Y-103061904D02*
X139300000Y-103014285D01*
X139252380Y-102919047D01*
X139252380Y-102680952D01*
X139300000Y-102585714D01*
X139347619Y-102538095D01*
X139442857Y-102490476D01*
X139538095Y-102490476D01*
X139680952Y-102538095D01*
X140252380Y-103109523D01*
X140252380Y-102490476D01*
X139252380Y-102157142D02*
X139252380Y-101538095D01*
X139633333Y-101871428D01*
X139633333Y-101728571D01*
X139680952Y-101633333D01*
X139728571Y-101585714D01*
X139823809Y-101538095D01*
X140061904Y-101538095D01*
X140157142Y-101585714D01*
X140204761Y-101633333D01*
X140252380Y-101728571D01*
X140252380Y-102014285D01*
X140204761Y-102109523D01*
X140157142Y-102157142D01*
X135352380Y-103342857D02*
X134876190Y-103676190D01*
X135352380Y-103914285D02*
X134352380Y-103914285D01*
X134352380Y-103533333D01*
X134400000Y-103438095D01*
X134447619Y-103390476D01*
X134542857Y-103342857D01*
X134685714Y-103342857D01*
X134780952Y-103390476D01*
X134828571Y-103438095D01*
X134876190Y-103533333D01*
X134876190Y-103914285D01*
X134447619Y-102961904D02*
X134400000Y-102914285D01*
X134352380Y-102819047D01*
X134352380Y-102580952D01*
X134400000Y-102485714D01*
X134447619Y-102438095D01*
X134542857Y-102390476D01*
X134638095Y-102390476D01*
X134780952Y-102438095D01*
X135352380Y-103009523D01*
X135352380Y-102390476D01*
X134447619Y-102009523D02*
X134400000Y-101961904D01*
X134352380Y-101866666D01*
X134352380Y-101628571D01*
X134400000Y-101533333D01*
X134447619Y-101485714D01*
X134542857Y-101438095D01*
X134638095Y-101438095D01*
X134780952Y-101485714D01*
X135352380Y-102057142D01*
X135352380Y-101438095D01*
X137952380Y-103342857D02*
X137476190Y-103676190D01*
X137952380Y-103914285D02*
X136952380Y-103914285D01*
X136952380Y-103533333D01*
X137000000Y-103438095D01*
X137047619Y-103390476D01*
X137142857Y-103342857D01*
X137285714Y-103342857D01*
X137380952Y-103390476D01*
X137428571Y-103438095D01*
X137476190Y-103533333D01*
X137476190Y-103914285D01*
X137047619Y-102961904D02*
X137000000Y-102914285D01*
X136952380Y-102819047D01*
X136952380Y-102580952D01*
X137000000Y-102485714D01*
X137047619Y-102438095D01*
X137142857Y-102390476D01*
X137238095Y-102390476D01*
X137380952Y-102438095D01*
X137952380Y-103009523D01*
X137952380Y-102390476D01*
X137952380Y-101438095D02*
X137952380Y-102009523D01*
X137952380Y-101723809D02*
X136952380Y-101723809D01*
X137095238Y-101819047D01*
X137190476Y-101914285D01*
X137238095Y-102009523D01*
X176457142Y-98452380D02*
X176123809Y-97976190D01*
X175885714Y-98452380D02*
X175885714Y-97452380D01*
X176266666Y-97452380D01*
X176361904Y-97500000D01*
X176409523Y-97547619D01*
X176457142Y-97642857D01*
X176457142Y-97785714D01*
X176409523Y-97880952D01*
X176361904Y-97928571D01*
X176266666Y-97976190D01*
X175885714Y-97976190D01*
X177409523Y-98452380D02*
X176838095Y-98452380D01*
X177123809Y-98452380D02*
X177123809Y-97452380D01*
X177028571Y-97595238D01*
X176933333Y-97690476D01*
X176838095Y-97738095D01*
X177885714Y-98452380D02*
X178076190Y-98452380D01*
X178171428Y-98404761D01*
X178219047Y-98357142D01*
X178314285Y-98214285D01*
X178361904Y-98023809D01*
X178361904Y-97642857D01*
X178314285Y-97547619D01*
X178266666Y-97500000D01*
X178171428Y-97452380D01*
X177980952Y-97452380D01*
X177885714Y-97500000D01*
X177838095Y-97547619D01*
X177790476Y-97642857D01*
X177790476Y-97880952D01*
X177838095Y-97976190D01*
X177885714Y-98023809D01*
X177980952Y-98071428D01*
X178171428Y-98071428D01*
X178266666Y-98023809D01*
X178314285Y-97976190D01*
X178361904Y-97880952D01*
X176357142Y-105852380D02*
X176023809Y-105376190D01*
X175785714Y-105852380D02*
X175785714Y-104852380D01*
X176166666Y-104852380D01*
X176261904Y-104900000D01*
X176309523Y-104947619D01*
X176357142Y-105042857D01*
X176357142Y-105185714D01*
X176309523Y-105280952D01*
X176261904Y-105328571D01*
X176166666Y-105376190D01*
X175785714Y-105376190D01*
X177309523Y-105852380D02*
X176738095Y-105852380D01*
X177023809Y-105852380D02*
X177023809Y-104852380D01*
X176928571Y-104995238D01*
X176833333Y-105090476D01*
X176738095Y-105138095D01*
X177880952Y-105280952D02*
X177785714Y-105233333D01*
X177738095Y-105185714D01*
X177690476Y-105090476D01*
X177690476Y-105042857D01*
X177738095Y-104947619D01*
X177785714Y-104900000D01*
X177880952Y-104852380D01*
X178071428Y-104852380D01*
X178166666Y-104900000D01*
X178214285Y-104947619D01*
X178261904Y-105042857D01*
X178261904Y-105090476D01*
X178214285Y-105185714D01*
X178166666Y-105233333D01*
X178071428Y-105280952D01*
X177880952Y-105280952D01*
X177785714Y-105328571D01*
X177738095Y-105376190D01*
X177690476Y-105471428D01*
X177690476Y-105661904D01*
X177738095Y-105757142D01*
X177785714Y-105804761D01*
X177880952Y-105852380D01*
X178071428Y-105852380D01*
X178166666Y-105804761D01*
X178214285Y-105757142D01*
X178261904Y-105661904D01*
X178261904Y-105471428D01*
X178214285Y-105376190D01*
X178166666Y-105328571D01*
X178071428Y-105280952D01*
X176407142Y-100852380D02*
X176073809Y-100376190D01*
X175835714Y-100852380D02*
X175835714Y-99852380D01*
X176216666Y-99852380D01*
X176311904Y-99900000D01*
X176359523Y-99947619D01*
X176407142Y-100042857D01*
X176407142Y-100185714D01*
X176359523Y-100280952D01*
X176311904Y-100328571D01*
X176216666Y-100376190D01*
X175835714Y-100376190D01*
X177359523Y-100852380D02*
X176788095Y-100852380D01*
X177073809Y-100852380D02*
X177073809Y-99852380D01*
X176978571Y-99995238D01*
X176883333Y-100090476D01*
X176788095Y-100138095D01*
X177692857Y-99852380D02*
X178359523Y-99852380D01*
X177930952Y-100852380D01*
X176407142Y-103452380D02*
X176073809Y-102976190D01*
X175835714Y-103452380D02*
X175835714Y-102452380D01*
X176216666Y-102452380D01*
X176311904Y-102500000D01*
X176359523Y-102547619D01*
X176407142Y-102642857D01*
X176407142Y-102785714D01*
X176359523Y-102880952D01*
X176311904Y-102928571D01*
X176216666Y-102976190D01*
X175835714Y-102976190D01*
X177359523Y-103452380D02*
X176788095Y-103452380D01*
X177073809Y-103452380D02*
X177073809Y-102452380D01*
X176978571Y-102595238D01*
X176883333Y-102690476D01*
X176788095Y-102738095D01*
X178216666Y-102452380D02*
X178026190Y-102452380D01*
X177930952Y-102500000D01*
X177883333Y-102547619D01*
X177788095Y-102690476D01*
X177740476Y-102880952D01*
X177740476Y-103261904D01*
X177788095Y-103357142D01*
X177835714Y-103404761D01*
X177930952Y-103452380D01*
X178121428Y-103452380D01*
X178216666Y-103404761D01*
X178264285Y-103357142D01*
X178311904Y-103261904D01*
X178311904Y-103023809D01*
X178264285Y-102928571D01*
X178216666Y-102880952D01*
X178121428Y-102833333D01*
X177930952Y-102833333D01*
X177835714Y-102880952D01*
X177788095Y-102928571D01*
X177740476Y-103023809D01*
X170457142Y-96852380D02*
X170123809Y-96376190D01*
X169885714Y-96852380D02*
X169885714Y-95852380D01*
X170266666Y-95852380D01*
X170361904Y-95900000D01*
X170409523Y-95947619D01*
X170457142Y-96042857D01*
X170457142Y-96185714D01*
X170409523Y-96280952D01*
X170361904Y-96328571D01*
X170266666Y-96376190D01*
X169885714Y-96376190D01*
X171409523Y-96852380D02*
X170838095Y-96852380D01*
X171123809Y-96852380D02*
X171123809Y-95852380D01*
X171028571Y-95995238D01*
X170933333Y-96090476D01*
X170838095Y-96138095D01*
X172314285Y-95852380D02*
X171838095Y-95852380D01*
X171790476Y-96328571D01*
X171838095Y-96280952D01*
X171933333Y-96233333D01*
X172171428Y-96233333D01*
X172266666Y-96280952D01*
X172314285Y-96328571D01*
X172361904Y-96423809D01*
X172361904Y-96661904D01*
X172314285Y-96757142D01*
X172266666Y-96804761D01*
X172171428Y-96852380D01*
X171933333Y-96852380D01*
X171838095Y-96804761D01*
X171790476Y-96757142D01*
X194152380Y-101442857D02*
X193676190Y-101776190D01*
X194152380Y-102014285D02*
X193152380Y-102014285D01*
X193152380Y-101633333D01*
X193200000Y-101538095D01*
X193247619Y-101490476D01*
X193342857Y-101442857D01*
X193485714Y-101442857D01*
X193580952Y-101490476D01*
X193628571Y-101538095D01*
X193676190Y-101633333D01*
X193676190Y-102014285D01*
X194152380Y-100490476D02*
X194152380Y-101061904D01*
X194152380Y-100776190D02*
X193152380Y-100776190D01*
X193295238Y-100871428D01*
X193390476Y-100966666D01*
X193438095Y-101061904D01*
X193485714Y-99633333D02*
X194152380Y-99633333D01*
X193104761Y-99871428D02*
X193819047Y-100109523D01*
X193819047Y-99490476D01*
X177033333Y-85052380D02*
X176700000Y-84576190D01*
X176461904Y-85052380D02*
X176461904Y-84052380D01*
X176842857Y-84052380D01*
X176938095Y-84100000D01*
X176985714Y-84147619D01*
X177033333Y-84242857D01*
X177033333Y-84385714D01*
X176985714Y-84480952D01*
X176938095Y-84528571D01*
X176842857Y-84576190D01*
X176461904Y-84576190D01*
X177890476Y-84052380D02*
X177700000Y-84052380D01*
X177604761Y-84100000D01*
X177557142Y-84147619D01*
X177461904Y-84290476D01*
X177414285Y-84480952D01*
X177414285Y-84861904D01*
X177461904Y-84957142D01*
X177509523Y-85004761D01*
X177604761Y-85052380D01*
X177795238Y-85052380D01*
X177890476Y-85004761D01*
X177938095Y-84957142D01*
X177985714Y-84861904D01*
X177985714Y-84623809D01*
X177938095Y-84528571D01*
X177890476Y-84480952D01*
X177795238Y-84433333D01*
X177604761Y-84433333D01*
X177509523Y-84480952D01*
X177461904Y-84528571D01*
X177414285Y-84623809D01*
X177033333Y-92452380D02*
X176700000Y-91976190D01*
X176461904Y-92452380D02*
X176461904Y-91452380D01*
X176842857Y-91452380D01*
X176938095Y-91500000D01*
X176985714Y-91547619D01*
X177033333Y-91642857D01*
X177033333Y-91785714D01*
X176985714Y-91880952D01*
X176938095Y-91928571D01*
X176842857Y-91976190D01*
X176461904Y-91976190D01*
X177890476Y-91785714D02*
X177890476Y-92452380D01*
X177652380Y-91404761D02*
X177414285Y-92119047D01*
X178033333Y-92119047D01*
X177033333Y-87452380D02*
X176700000Y-86976190D01*
X176461904Y-87452380D02*
X176461904Y-86452380D01*
X176842857Y-86452380D01*
X176938095Y-86500000D01*
X176985714Y-86547619D01*
X177033333Y-86642857D01*
X177033333Y-86785714D01*
X176985714Y-86880952D01*
X176938095Y-86928571D01*
X176842857Y-86976190D01*
X176461904Y-86976190D01*
X177366666Y-86452380D02*
X177985714Y-86452380D01*
X177652380Y-86833333D01*
X177795238Y-86833333D01*
X177890476Y-86880952D01*
X177938095Y-86928571D01*
X177985714Y-87023809D01*
X177985714Y-87261904D01*
X177938095Y-87357142D01*
X177890476Y-87404761D01*
X177795238Y-87452380D01*
X177509523Y-87452380D01*
X177414285Y-87404761D01*
X177366666Y-87357142D01*
X177033333Y-89952380D02*
X176700000Y-89476190D01*
X176461904Y-89952380D02*
X176461904Y-88952380D01*
X176842857Y-88952380D01*
X176938095Y-89000000D01*
X176985714Y-89047619D01*
X177033333Y-89142857D01*
X177033333Y-89285714D01*
X176985714Y-89380952D01*
X176938095Y-89428571D01*
X176842857Y-89476190D01*
X176461904Y-89476190D01*
X177414285Y-89047619D02*
X177461904Y-89000000D01*
X177557142Y-88952380D01*
X177795238Y-88952380D01*
X177890476Y-89000000D01*
X177938095Y-89047619D01*
X177985714Y-89142857D01*
X177985714Y-89238095D01*
X177938095Y-89380952D01*
X177366666Y-89952380D01*
X177985714Y-89952380D01*
X171033333Y-84252380D02*
X170700000Y-83776190D01*
X170461904Y-84252380D02*
X170461904Y-83252380D01*
X170842857Y-83252380D01*
X170938095Y-83300000D01*
X170985714Y-83347619D01*
X171033333Y-83442857D01*
X171033333Y-83585714D01*
X170985714Y-83680952D01*
X170938095Y-83728571D01*
X170842857Y-83776190D01*
X170461904Y-83776190D01*
X171985714Y-84252380D02*
X171414285Y-84252380D01*
X171700000Y-84252380D02*
X171700000Y-83252380D01*
X171604761Y-83395238D01*
X171509523Y-83490476D01*
X171414285Y-83538095D01*
X170007142Y-105957142D02*
X169959523Y-106004761D01*
X169816666Y-106052380D01*
X169721428Y-106052380D01*
X169578571Y-106004761D01*
X169483333Y-105909523D01*
X169435714Y-105814285D01*
X169388095Y-105623809D01*
X169388095Y-105480952D01*
X169435714Y-105290476D01*
X169483333Y-105195238D01*
X169578571Y-105100000D01*
X169721428Y-105052380D01*
X169816666Y-105052380D01*
X169959523Y-105100000D01*
X170007142Y-105147619D01*
X170959523Y-106052380D02*
X170388095Y-106052380D01*
X170673809Y-106052380D02*
X170673809Y-105052380D01*
X170578571Y-105195238D01*
X170483333Y-105290476D01*
X170388095Y-105338095D01*
X171435714Y-106052380D02*
X171626190Y-106052380D01*
X171721428Y-106004761D01*
X171769047Y-105957142D01*
X171864285Y-105814285D01*
X171911904Y-105623809D01*
X171911904Y-105242857D01*
X171864285Y-105147619D01*
X171816666Y-105100000D01*
X171721428Y-105052380D01*
X171530952Y-105052380D01*
X171435714Y-105100000D01*
X171388095Y-105147619D01*
X171340476Y-105242857D01*
X171340476Y-105480952D01*
X171388095Y-105576190D01*
X171435714Y-105623809D01*
X171530952Y-105671428D01*
X171721428Y-105671428D01*
X171816666Y-105623809D01*
X171864285Y-105576190D01*
X171911904Y-105480952D01*
X170267142Y-92457142D02*
X170219523Y-92504761D01*
X170076666Y-92552380D01*
X169981428Y-92552380D01*
X169838571Y-92504761D01*
X169743333Y-92409523D01*
X169695714Y-92314285D01*
X169648095Y-92123809D01*
X169648095Y-91980952D01*
X169695714Y-91790476D01*
X169743333Y-91695238D01*
X169838571Y-91600000D01*
X169981428Y-91552380D01*
X170076666Y-91552380D01*
X170219523Y-91600000D01*
X170267142Y-91647619D01*
X171219523Y-92552380D02*
X170648095Y-92552380D01*
X170933809Y-92552380D02*
X170933809Y-91552380D01*
X170838571Y-91695238D01*
X170743333Y-91790476D01*
X170648095Y-91838095D01*
X171790952Y-91980952D02*
X171695714Y-91933333D01*
X171648095Y-91885714D01*
X171600476Y-91790476D01*
X171600476Y-91742857D01*
X171648095Y-91647619D01*
X171695714Y-91600000D01*
X171790952Y-91552380D01*
X171981428Y-91552380D01*
X172076666Y-91600000D01*
X172124285Y-91647619D01*
X172171904Y-91742857D01*
X172171904Y-91790476D01*
X172124285Y-91885714D01*
X172076666Y-91933333D01*
X171981428Y-91980952D01*
X171790952Y-91980952D01*
X171695714Y-92028571D01*
X171648095Y-92076190D01*
X171600476Y-92171428D01*
X171600476Y-92361904D01*
X171648095Y-92457142D01*
X171695714Y-92504761D01*
X171790952Y-92552380D01*
X171981428Y-92552380D01*
X172076666Y-92504761D01*
X172124285Y-92457142D01*
X172171904Y-92361904D01*
X172171904Y-92171428D01*
X172124285Y-92076190D01*
X172076666Y-92028571D01*
X171981428Y-91980952D01*
X169238095Y-98952380D02*
X169238095Y-99761904D01*
X169285714Y-99857142D01*
X169333333Y-99904761D01*
X169428571Y-99952380D01*
X169619047Y-99952380D01*
X169714285Y-99904761D01*
X169761904Y-99857142D01*
X169809523Y-99761904D01*
X169809523Y-98952380D01*
X170714285Y-98952380D02*
X170523809Y-98952380D01*
X170428571Y-99000000D01*
X170380952Y-99047619D01*
X170285714Y-99190476D01*
X170238095Y-99380952D01*
X170238095Y-99761904D01*
X170285714Y-99857142D01*
X170333333Y-99904761D01*
X170428571Y-99952380D01*
X170619047Y-99952380D01*
X170714285Y-99904761D01*
X170761904Y-99857142D01*
X170809523Y-99761904D01*
X170809523Y-99523809D01*
X170761904Y-99428571D01*
X170714285Y-99380952D01*
X170619047Y-99333333D01*
X170428571Y-99333333D01*
X170333333Y-99380952D01*
X170285714Y-99428571D01*
X170238095Y-99523809D01*
X196938095Y-100352380D02*
X196938095Y-101161904D01*
X196985714Y-101257142D01*
X197033333Y-101304761D01*
X197128571Y-101352380D01*
X197319047Y-101352380D01*
X197414285Y-101304761D01*
X197461904Y-101257142D01*
X197509523Y-101161904D01*
X197509523Y-100352380D01*
X198461904Y-100352380D02*
X197985714Y-100352380D01*
X197938095Y-100828571D01*
X197985714Y-100780952D01*
X198080952Y-100733333D01*
X198319047Y-100733333D01*
X198414285Y-100780952D01*
X198461904Y-100828571D01*
X198509523Y-100923809D01*
X198509523Y-101161904D01*
X198461904Y-101257142D01*
X198414285Y-101304761D01*
X198319047Y-101352380D01*
X198080952Y-101352380D01*
X197985714Y-101304761D01*
X197938095Y-101257142D01*
X169938095Y-87252380D02*
X169938095Y-88061904D01*
X169985714Y-88157142D01*
X170033333Y-88204761D01*
X170128571Y-88252380D01*
X170319047Y-88252380D01*
X170414285Y-88204761D01*
X170461904Y-88157142D01*
X170509523Y-88061904D01*
X170509523Y-87252380D01*
X171509523Y-88252380D02*
X170938095Y-88252380D01*
X171223809Y-88252380D02*
X171223809Y-87252380D01*
X171128571Y-87395238D01*
X171033333Y-87490476D01*
X170938095Y-87538095D01*
X183604761Y-88047619D02*
X183509523Y-88000000D01*
X183414285Y-87904761D01*
X183271428Y-87761904D01*
X183176190Y-87714285D01*
X183080952Y-87714285D01*
X183128571Y-87952380D02*
X183033333Y-87904761D01*
X182938095Y-87809523D01*
X182890476Y-87619047D01*
X182890476Y-87285714D01*
X182938095Y-87095238D01*
X183033333Y-87000000D01*
X183128571Y-86952380D01*
X183319047Y-86952380D01*
X183414285Y-87000000D01*
X183509523Y-87095238D01*
X183557142Y-87285714D01*
X183557142Y-87619047D01*
X183509523Y-87809523D01*
X183414285Y-87904761D01*
X183319047Y-87952380D01*
X183128571Y-87952380D01*
X184509523Y-87952380D02*
X183938095Y-87952380D01*
X184223809Y-87952380D02*
X184223809Y-86952380D01*
X184128571Y-87095238D01*
X184033333Y-87190476D01*
X183938095Y-87238095D01*
X189533333Y-111757142D02*
X189485714Y-111804761D01*
X189342857Y-111852380D01*
X189247619Y-111852380D01*
X189104761Y-111804761D01*
X189009523Y-111709523D01*
X188961904Y-111614285D01*
X188914285Y-111423809D01*
X188914285Y-111280952D01*
X188961904Y-111090476D01*
X189009523Y-110995238D01*
X189104761Y-110900000D01*
X189247619Y-110852380D01*
X189342857Y-110852380D01*
X189485714Y-110900000D01*
X189533333Y-110947619D01*
X190390476Y-111185714D02*
X190390476Y-111852380D01*
X190152380Y-110804761D02*
X189914285Y-111519047D01*
X190533333Y-111519047D01*
X135633333Y-97257142D02*
X135585714Y-97304761D01*
X135442857Y-97352380D01*
X135347619Y-97352380D01*
X135204761Y-97304761D01*
X135109523Y-97209523D01*
X135061904Y-97114285D01*
X135014285Y-96923809D01*
X135014285Y-96780952D01*
X135061904Y-96590476D01*
X135109523Y-96495238D01*
X135204761Y-96400000D01*
X135347619Y-96352380D01*
X135442857Y-96352380D01*
X135585714Y-96400000D01*
X135633333Y-96447619D01*
X136109523Y-97352380D02*
X136300000Y-97352380D01*
X136395238Y-97304761D01*
X136442857Y-97257142D01*
X136538095Y-97114285D01*
X136585714Y-96923809D01*
X136585714Y-96542857D01*
X136538095Y-96447619D01*
X136490476Y-96400000D01*
X136395238Y-96352380D01*
X136204761Y-96352380D01*
X136109523Y-96400000D01*
X136061904Y-96447619D01*
X136014285Y-96542857D01*
X136014285Y-96780952D01*
X136061904Y-96876190D01*
X136109523Y-96923809D01*
X136204761Y-96971428D01*
X136395238Y-96971428D01*
X136490476Y-96923809D01*
X136538095Y-96876190D01*
X136585714Y-96780952D01*
X150423142Y-90057142D02*
X150375523Y-90104761D01*
X150232666Y-90152380D01*
X150137428Y-90152380D01*
X149994571Y-90104761D01*
X149899333Y-90009523D01*
X149851714Y-89914285D01*
X149804095Y-89723809D01*
X149804095Y-89580952D01*
X149851714Y-89390476D01*
X149899333Y-89295238D01*
X149994571Y-89200000D01*
X150137428Y-89152380D01*
X150232666Y-89152380D01*
X150375523Y-89200000D01*
X150423142Y-89247619D01*
X151375523Y-90152380D02*
X150804095Y-90152380D01*
X151089809Y-90152380D02*
X151089809Y-89152380D01*
X150994571Y-89295238D01*
X150899333Y-89390476D01*
X150804095Y-89438095D01*
X151708857Y-89152380D02*
X152375523Y-89152380D01*
X151946952Y-90152380D01*
X150457142Y-85557142D02*
X150409523Y-85604761D01*
X150266666Y-85652380D01*
X150171428Y-85652380D01*
X150028571Y-85604761D01*
X149933333Y-85509523D01*
X149885714Y-85414285D01*
X149838095Y-85223809D01*
X149838095Y-85080952D01*
X149885714Y-84890476D01*
X149933333Y-84795238D01*
X150028571Y-84700000D01*
X150171428Y-84652380D01*
X150266666Y-84652380D01*
X150409523Y-84700000D01*
X150457142Y-84747619D01*
X151409523Y-85652380D02*
X150838095Y-85652380D01*
X151123809Y-85652380D02*
X151123809Y-84652380D01*
X151028571Y-84795238D01*
X150933333Y-84890476D01*
X150838095Y-84938095D01*
X152314285Y-84652380D02*
X151838095Y-84652380D01*
X151790476Y-85128571D01*
X151838095Y-85080952D01*
X151933333Y-85033333D01*
X152171428Y-85033333D01*
X152266666Y-85080952D01*
X152314285Y-85128571D01*
X152361904Y-85223809D01*
X152361904Y-85461904D01*
X152314285Y-85557142D01*
X152266666Y-85604761D01*
X152171428Y-85652380D01*
X151933333Y-85652380D01*
X151838095Y-85604761D01*
X151790476Y-85557142D01*
X143238095Y-89352380D02*
X143238095Y-90161904D01*
X143285714Y-90257142D01*
X143333333Y-90304761D01*
X143428571Y-90352380D01*
X143619047Y-90352380D01*
X143714285Y-90304761D01*
X143761904Y-90257142D01*
X143809523Y-90161904D01*
X143809523Y-89352380D01*
X144714285Y-89685714D02*
X144714285Y-90352380D01*
X144476190Y-89304761D02*
X144238095Y-90019047D01*
X144857142Y-90019047D01*
X175038095Y-112152380D02*
X175038095Y-112961904D01*
X175085714Y-113057142D01*
X175133333Y-113104761D01*
X175228571Y-113152380D01*
X175419047Y-113152380D01*
X175514285Y-113104761D01*
X175561904Y-113057142D01*
X175609523Y-112961904D01*
X175609523Y-112152380D01*
X176038095Y-112247619D02*
X176085714Y-112200000D01*
X176180952Y-112152380D01*
X176419047Y-112152380D01*
X176514285Y-112200000D01*
X176561904Y-112247619D01*
X176609523Y-112342857D01*
X176609523Y-112438095D01*
X176561904Y-112580952D01*
X175990476Y-113152380D01*
X176609523Y-113152380D01*
X130752380Y-103342857D02*
X130276190Y-103676190D01*
X130752380Y-103914285D02*
X129752380Y-103914285D01*
X129752380Y-103533333D01*
X129800000Y-103438095D01*
X129847619Y-103390476D01*
X129942857Y-103342857D01*
X130085714Y-103342857D01*
X130180952Y-103390476D01*
X130228571Y-103438095D01*
X130276190Y-103533333D01*
X130276190Y-103914285D01*
X130752380Y-102390476D02*
X130752380Y-102961904D01*
X130752380Y-102676190D02*
X129752380Y-102676190D01*
X129895238Y-102771428D01*
X129990476Y-102866666D01*
X130038095Y-102961904D01*
X129752380Y-102057142D02*
X129752380Y-101438095D01*
X130133333Y-101771428D01*
X130133333Y-101628571D01*
X130180952Y-101533333D01*
X130228571Y-101485714D01*
X130323809Y-101438095D01*
X130561904Y-101438095D01*
X130657142Y-101485714D01*
X130704761Y-101533333D01*
X130752380Y-101628571D01*
X130752380Y-101914285D01*
X130704761Y-102009523D01*
X130657142Y-102057142D01*
X150457142Y-83552380D02*
X150123809Y-83076190D01*
X149885714Y-83552380D02*
X149885714Y-82552380D01*
X150266666Y-82552380D01*
X150361904Y-82600000D01*
X150409523Y-82647619D01*
X150457142Y-82742857D01*
X150457142Y-82885714D01*
X150409523Y-82980952D01*
X150361904Y-83028571D01*
X150266666Y-83076190D01*
X149885714Y-83076190D01*
X151409523Y-83552380D02*
X150838095Y-83552380D01*
X151123809Y-83552380D02*
X151123809Y-82552380D01*
X151028571Y-82695238D01*
X150933333Y-82790476D01*
X150838095Y-82838095D01*
X151790476Y-82647619D02*
X151838095Y-82600000D01*
X151933333Y-82552380D01*
X152171428Y-82552380D01*
X152266666Y-82600000D01*
X152314285Y-82647619D01*
X152361904Y-82742857D01*
X152361904Y-82838095D01*
X152314285Y-82980952D01*
X151742857Y-83552380D01*
X152361904Y-83552380D01*
X145357142Y-104552380D02*
X145023809Y-104076190D01*
X144785714Y-104552380D02*
X144785714Y-103552380D01*
X145166666Y-103552380D01*
X145261904Y-103600000D01*
X145309523Y-103647619D01*
X145357142Y-103742857D01*
X145357142Y-103885714D01*
X145309523Y-103980952D01*
X145261904Y-104028571D01*
X145166666Y-104076190D01*
X144785714Y-104076190D01*
X146309523Y-104552380D02*
X145738095Y-104552380D01*
X146023809Y-104552380D02*
X146023809Y-103552380D01*
X145928571Y-103695238D01*
X145833333Y-103790476D01*
X145738095Y-103838095D01*
X147261904Y-104552380D02*
X146690476Y-104552380D01*
X146976190Y-104552380D02*
X146976190Y-103552380D01*
X146880952Y-103695238D01*
X146785714Y-103790476D01*
X146690476Y-103838095D01*
X160352380Y-88942857D02*
X159876190Y-89276190D01*
X160352380Y-89514285D02*
X159352380Y-89514285D01*
X159352380Y-89133333D01*
X159400000Y-89038095D01*
X159447619Y-88990476D01*
X159542857Y-88942857D01*
X159685714Y-88942857D01*
X159780952Y-88990476D01*
X159828571Y-89038095D01*
X159876190Y-89133333D01*
X159876190Y-89514285D01*
X160352380Y-87990476D02*
X160352380Y-88561904D01*
X160352380Y-88276190D02*
X159352380Y-88276190D01*
X159495238Y-88371428D01*
X159590476Y-88466666D01*
X159638095Y-88561904D01*
X159352380Y-87371428D02*
X159352380Y-87276190D01*
X159400000Y-87180952D01*
X159447619Y-87133333D01*
X159542857Y-87085714D01*
X159733333Y-87038095D01*
X159971428Y-87038095D01*
X160161904Y-87085714D01*
X160257142Y-87133333D01*
X160304761Y-87180952D01*
X160352380Y-87276190D01*
X160352380Y-87371428D01*
X160304761Y-87466666D01*
X160257142Y-87514285D01*
X160161904Y-87561904D01*
X159971428Y-87609523D01*
X159733333Y-87609523D01*
X159542857Y-87561904D01*
X159447619Y-87514285D01*
X159400000Y-87466666D01*
X159352380Y-87371428D01*
X158152380Y-94966666D02*
X157676190Y-95300000D01*
X158152380Y-95538095D02*
X157152380Y-95538095D01*
X157152380Y-95157142D01*
X157200000Y-95061904D01*
X157247619Y-95014285D01*
X157342857Y-94966666D01*
X157485714Y-94966666D01*
X157580952Y-95014285D01*
X157628571Y-95061904D01*
X157676190Y-95157142D01*
X157676190Y-95538095D01*
X158152380Y-94490476D02*
X158152380Y-94300000D01*
X158104761Y-94204761D01*
X158057142Y-94157142D01*
X157914285Y-94061904D01*
X157723809Y-94014285D01*
X157342857Y-94014285D01*
X157247619Y-94061904D01*
X157200000Y-94109523D01*
X157152380Y-94204761D01*
X157152380Y-94395238D01*
X157200000Y-94490476D01*
X157247619Y-94538095D01*
X157342857Y-94585714D01*
X157580952Y-94585714D01*
X157676190Y-94538095D01*
X157723809Y-94490476D01*
X157771428Y-94395238D01*
X157771428Y-94204761D01*
X157723809Y-94109523D01*
X157676190Y-94061904D01*
X157580952Y-94014285D01*
X158252380Y-100766666D02*
X157776190Y-101100000D01*
X158252380Y-101338095D02*
X157252380Y-101338095D01*
X157252380Y-100957142D01*
X157300000Y-100861904D01*
X157347619Y-100814285D01*
X157442857Y-100766666D01*
X157585714Y-100766666D01*
X157680952Y-100814285D01*
X157728571Y-100861904D01*
X157776190Y-100957142D01*
X157776190Y-101338095D01*
X157680952Y-100195238D02*
X157633333Y-100290476D01*
X157585714Y-100338095D01*
X157490476Y-100385714D01*
X157442857Y-100385714D01*
X157347619Y-100338095D01*
X157300000Y-100290476D01*
X157252380Y-100195238D01*
X157252380Y-100004761D01*
X157300000Y-99909523D01*
X157347619Y-99861904D01*
X157442857Y-99814285D01*
X157490476Y-99814285D01*
X157585714Y-99861904D01*
X157633333Y-99909523D01*
X157680952Y-100004761D01*
X157680952Y-100195238D01*
X157728571Y-100290476D01*
X157776190Y-100338095D01*
X157871428Y-100385714D01*
X158061904Y-100385714D01*
X158157142Y-100338095D01*
X158204761Y-100290476D01*
X158252380Y-100195238D01*
X158252380Y-100004761D01*
X158204761Y-99909523D01*
X158157142Y-99861904D01*
X158061904Y-99814285D01*
X157871428Y-99814285D01*
X157776190Y-99861904D01*
X157728571Y-99909523D01*
X157680952Y-100004761D01*
X132045833Y-92352380D02*
X131712500Y-91876190D01*
X131474404Y-92352380D02*
X131474404Y-91352380D01*
X131855357Y-91352380D01*
X131950595Y-91400000D01*
X131998214Y-91447619D01*
X132045833Y-91542857D01*
X132045833Y-91685714D01*
X131998214Y-91780952D01*
X131950595Y-91828571D01*
X131855357Y-91876190D01*
X131474404Y-91876190D01*
X132379166Y-91352380D02*
X133045833Y-91352380D01*
X132617261Y-92352380D01*
X132033333Y-89052380D02*
X131700000Y-88576190D01*
X131461904Y-89052380D02*
X131461904Y-88052380D01*
X131842857Y-88052380D01*
X131938095Y-88100000D01*
X131985714Y-88147619D01*
X132033333Y-88242857D01*
X132033333Y-88385714D01*
X131985714Y-88480952D01*
X131938095Y-88528571D01*
X131842857Y-88576190D01*
X131461904Y-88576190D01*
X132938095Y-88052380D02*
X132461904Y-88052380D01*
X132414285Y-88528571D01*
X132461904Y-88480952D01*
X132557142Y-88433333D01*
X132795238Y-88433333D01*
X132890476Y-88480952D01*
X132938095Y-88528571D01*
X132985714Y-88623809D01*
X132985714Y-88861904D01*
X132938095Y-88957142D01*
X132890476Y-89004761D01*
X132795238Y-89052380D01*
X132557142Y-89052380D01*
X132461904Y-89004761D01*
X132414285Y-88957142D01*
X160552380Y-95538095D02*
X159552380Y-95538095D01*
X159552380Y-95300000D01*
X159600000Y-95157142D01*
X159695238Y-95061904D01*
X159790476Y-95014285D01*
X159980952Y-94966666D01*
X160123809Y-94966666D01*
X160314285Y-95014285D01*
X160409523Y-95061904D01*
X160504761Y-95157142D01*
X160552380Y-95300000D01*
X160552380Y-95538095D01*
X159885714Y-94109523D02*
X160552380Y-94109523D01*
X159504761Y-94347619D02*
X160219047Y-94585714D01*
X160219047Y-93966666D01*
X160552380Y-101338095D02*
X159552380Y-101338095D01*
X159552380Y-101100000D01*
X159600000Y-100957142D01*
X159695238Y-100861904D01*
X159790476Y-100814285D01*
X159980952Y-100766666D01*
X160123809Y-100766666D01*
X160314285Y-100814285D01*
X160409523Y-100861904D01*
X160504761Y-100957142D01*
X160552380Y-101100000D01*
X160552380Y-101338095D01*
X159552380Y-100433333D02*
X159552380Y-99814285D01*
X159933333Y-100147619D01*
X159933333Y-100004761D01*
X159980952Y-99909523D01*
X160028571Y-99861904D01*
X160123809Y-99814285D01*
X160361904Y-99814285D01*
X160457142Y-99861904D01*
X160504761Y-99909523D01*
X160552380Y-100004761D01*
X160552380Y-100290476D01*
X160504761Y-100385714D01*
X160457142Y-100433333D01*
X137761904Y-74252380D02*
X137761904Y-73252380D01*
X138000000Y-73252380D01*
X138142857Y-73300000D01*
X138238095Y-73395238D01*
X138285714Y-73490476D01*
X138333333Y-73680952D01*
X138333333Y-73823809D01*
X138285714Y-74014285D01*
X138238095Y-74109523D01*
X138142857Y-74204761D01*
X138000000Y-74252380D01*
X137761904Y-74252380D01*
X138714285Y-73347619D02*
X138761904Y-73300000D01*
X138857142Y-73252380D01*
X139095238Y-73252380D01*
X139190476Y-73300000D01*
X139238095Y-73347619D01*
X139285714Y-73442857D01*
X139285714Y-73538095D01*
X139238095Y-73680952D01*
X138666666Y-74252380D01*
X139285714Y-74252380D01*
X137761904Y-76552380D02*
X137761904Y-75552380D01*
X138000000Y-75552380D01*
X138142857Y-75600000D01*
X138238095Y-75695238D01*
X138285714Y-75790476D01*
X138333333Y-75980952D01*
X138333333Y-76123809D01*
X138285714Y-76314285D01*
X138238095Y-76409523D01*
X138142857Y-76504761D01*
X138000000Y-76552380D01*
X137761904Y-76552380D01*
X139285714Y-76552380D02*
X138714285Y-76552380D01*
X139000000Y-76552380D02*
X139000000Y-75552380D01*
X138904761Y-75695238D01*
X138809523Y-75790476D01*
X138714285Y-75838095D01*
X146857142Y-98830357D02*
X146904761Y-98877976D01*
X146952380Y-99020833D01*
X146952380Y-99116071D01*
X146904761Y-99258928D01*
X146809523Y-99354166D01*
X146714285Y-99401785D01*
X146523809Y-99449404D01*
X146380952Y-99449404D01*
X146190476Y-99401785D01*
X146095238Y-99354166D01*
X146000000Y-99258928D01*
X145952380Y-99116071D01*
X145952380Y-99020833D01*
X146000000Y-98877976D01*
X146047619Y-98830357D01*
X146952380Y-97877976D02*
X146952380Y-98449404D01*
X146952380Y-98163690D02*
X145952380Y-98163690D01*
X146095238Y-98258928D01*
X146190476Y-98354166D01*
X146238095Y-98449404D01*
X145952380Y-97020833D02*
X145952380Y-97211309D01*
X146000000Y-97306547D01*
X146047619Y-97354166D01*
X146190476Y-97449404D01*
X146380952Y-97497023D01*
X146761904Y-97497023D01*
X146857142Y-97449404D01*
X146904761Y-97401785D01*
X146952380Y-97306547D01*
X146952380Y-97116071D01*
X146904761Y-97020833D01*
X146857142Y-96973214D01*
X146761904Y-96925595D01*
X146523809Y-96925595D01*
X146428571Y-96973214D01*
X146380952Y-97020833D01*
X146333333Y-97116071D01*
X146333333Y-97306547D01*
X146380952Y-97401785D01*
X146428571Y-97449404D01*
X146523809Y-97497023D01*
X137657142Y-87042857D02*
X137704761Y-87090476D01*
X137752380Y-87233333D01*
X137752380Y-87328571D01*
X137704761Y-87471428D01*
X137609523Y-87566666D01*
X137514285Y-87614285D01*
X137323809Y-87661904D01*
X137180952Y-87661904D01*
X136990476Y-87614285D01*
X136895238Y-87566666D01*
X136800000Y-87471428D01*
X136752380Y-87328571D01*
X136752380Y-87233333D01*
X136800000Y-87090476D01*
X136847619Y-87042857D01*
X137752380Y-86090476D02*
X137752380Y-86661904D01*
X137752380Y-86376190D02*
X136752380Y-86376190D01*
X136895238Y-86471428D01*
X136990476Y-86566666D01*
X137038095Y-86661904D01*
X137085714Y-85233333D02*
X137752380Y-85233333D01*
X136704761Y-85471428D02*
X137419047Y-85709523D01*
X137419047Y-85090476D01*
X152444642Y-100057142D02*
X152397023Y-100104761D01*
X152254166Y-100152380D01*
X152158928Y-100152380D01*
X152016071Y-100104761D01*
X151920833Y-100009523D01*
X151873214Y-99914285D01*
X151825595Y-99723809D01*
X151825595Y-99580952D01*
X151873214Y-99390476D01*
X151920833Y-99295238D01*
X152016071Y-99200000D01*
X152158928Y-99152380D01*
X152254166Y-99152380D01*
X152397023Y-99200000D01*
X152444642Y-99247619D01*
X153397023Y-100152380D02*
X152825595Y-100152380D01*
X153111309Y-100152380D02*
X153111309Y-99152380D01*
X153016071Y-99295238D01*
X152920833Y-99390476D01*
X152825595Y-99438095D01*
X153777976Y-99247619D02*
X153825595Y-99200000D01*
X153920833Y-99152380D01*
X154158928Y-99152380D01*
X154254166Y-99200000D01*
X154301785Y-99247619D01*
X154349404Y-99342857D01*
X154349404Y-99438095D01*
X154301785Y-99580952D01*
X153730357Y-100152380D01*
X154349404Y-100152380D01*
X152469642Y-94457142D02*
X152422023Y-94504761D01*
X152279166Y-94552380D01*
X152183928Y-94552380D01*
X152041071Y-94504761D01*
X151945833Y-94409523D01*
X151898214Y-94314285D01*
X151850595Y-94123809D01*
X151850595Y-93980952D01*
X151898214Y-93790476D01*
X151945833Y-93695238D01*
X152041071Y-93600000D01*
X152183928Y-93552380D01*
X152279166Y-93552380D01*
X152422023Y-93600000D01*
X152469642Y-93647619D01*
X153422023Y-94552380D02*
X152850595Y-94552380D01*
X153136309Y-94552380D02*
X153136309Y-93552380D01*
X153041071Y-93695238D01*
X152945833Y-93790476D01*
X152850595Y-93838095D01*
X154374404Y-94552380D02*
X153802976Y-94552380D01*
X154088690Y-94552380D02*
X154088690Y-93552380D01*
X153993452Y-93695238D01*
X153898214Y-93790476D01*
X153802976Y-93838095D01*
X155357142Y-90157142D02*
X155309523Y-90204761D01*
X155166666Y-90252380D01*
X155071428Y-90252380D01*
X154928571Y-90204761D01*
X154833333Y-90109523D01*
X154785714Y-90014285D01*
X154738095Y-89823809D01*
X154738095Y-89680952D01*
X154785714Y-89490476D01*
X154833333Y-89395238D01*
X154928571Y-89300000D01*
X155071428Y-89252380D01*
X155166666Y-89252380D01*
X155309523Y-89300000D01*
X155357142Y-89347619D01*
X156309523Y-90252380D02*
X155738095Y-90252380D01*
X156023809Y-90252380D02*
X156023809Y-89252380D01*
X155928571Y-89395238D01*
X155833333Y-89490476D01*
X155738095Y-89538095D01*
X156928571Y-89252380D02*
X157023809Y-89252380D01*
X157119047Y-89300000D01*
X157166666Y-89347619D01*
X157214285Y-89442857D01*
X157261904Y-89633333D01*
X157261904Y-89871428D01*
X157214285Y-90061904D01*
X157166666Y-90157142D01*
X157119047Y-90204761D01*
X157023809Y-90252380D01*
X156928571Y-90252380D01*
X156833333Y-90204761D01*
X156785714Y-90157142D01*
X156738095Y-90061904D01*
X156690476Y-89871428D01*
X156690476Y-89633333D01*
X156738095Y-89442857D01*
X156785714Y-89347619D01*
X156833333Y-89300000D01*
X156928571Y-89252380D01*
X170957142Y-112966666D02*
X171004761Y-113014285D01*
X171052380Y-113157142D01*
X171052380Y-113252380D01*
X171004761Y-113395238D01*
X170909523Y-113490476D01*
X170814285Y-113538095D01*
X170623809Y-113585714D01*
X170480952Y-113585714D01*
X170290476Y-113538095D01*
X170195238Y-113490476D01*
X170100000Y-113395238D01*
X170052380Y-113252380D01*
X170052380Y-113157142D01*
X170100000Y-113014285D01*
X170147619Y-112966666D01*
X170480952Y-112395238D02*
X170433333Y-112490476D01*
X170385714Y-112538095D01*
X170290476Y-112585714D01*
X170242857Y-112585714D01*
X170147619Y-112538095D01*
X170100000Y-112490476D01*
X170052380Y-112395238D01*
X170052380Y-112204761D01*
X170100000Y-112109523D01*
X170147619Y-112061904D01*
X170242857Y-112014285D01*
X170290476Y-112014285D01*
X170385714Y-112061904D01*
X170433333Y-112109523D01*
X170480952Y-112204761D01*
X170480952Y-112395238D01*
X170528571Y-112490476D01*
X170576190Y-112538095D01*
X170671428Y-112585714D01*
X170861904Y-112585714D01*
X170957142Y-112538095D01*
X171004761Y-112490476D01*
X171052380Y-112395238D01*
X171052380Y-112204761D01*
X171004761Y-112109523D01*
X170957142Y-112061904D01*
X170861904Y-112014285D01*
X170671428Y-112014285D01*
X170576190Y-112061904D01*
X170528571Y-112109523D01*
X170480952Y-112204761D01*
X137533333Y-78857142D02*
X137485714Y-78904761D01*
X137342857Y-78952380D01*
X137247619Y-78952380D01*
X137104761Y-78904761D01*
X137009523Y-78809523D01*
X136961904Y-78714285D01*
X136914285Y-78523809D01*
X136914285Y-78380952D01*
X136961904Y-78190476D01*
X137009523Y-78095238D01*
X137104761Y-78000000D01*
X137247619Y-77952380D01*
X137342857Y-77952380D01*
X137485714Y-78000000D01*
X137533333Y-78047619D01*
X138390476Y-77952380D02*
X138200000Y-77952380D01*
X138104761Y-78000000D01*
X138057142Y-78047619D01*
X137961904Y-78190476D01*
X137914285Y-78380952D01*
X137914285Y-78761904D01*
X137961904Y-78857142D01*
X138009523Y-78904761D01*
X138104761Y-78952380D01*
X138295238Y-78952380D01*
X138390476Y-78904761D01*
X138438095Y-78857142D01*
X138485714Y-78761904D01*
X138485714Y-78523809D01*
X138438095Y-78428571D01*
X138390476Y-78380952D01*
X138295238Y-78333333D01*
X138104761Y-78333333D01*
X138009523Y-78380952D01*
X137961904Y-78428571D01*
X137914285Y-78523809D01*
X176933333Y-109257142D02*
X176885714Y-109304761D01*
X176742857Y-109352380D01*
X176647619Y-109352380D01*
X176504761Y-109304761D01*
X176409523Y-109209523D01*
X176361904Y-109114285D01*
X176314285Y-108923809D01*
X176314285Y-108780952D01*
X176361904Y-108590476D01*
X176409523Y-108495238D01*
X176504761Y-108400000D01*
X176647619Y-108352380D01*
X176742857Y-108352380D01*
X176885714Y-108400000D01*
X176933333Y-108447619D01*
X177838095Y-108352380D02*
X177361904Y-108352380D01*
X177314285Y-108828571D01*
X177361904Y-108780952D01*
X177457142Y-108733333D01*
X177695238Y-108733333D01*
X177790476Y-108780952D01*
X177838095Y-108828571D01*
X177885714Y-108923809D01*
X177885714Y-109161904D01*
X177838095Y-109257142D01*
X177790476Y-109304761D01*
X177695238Y-109352380D01*
X177457142Y-109352380D01*
X177361904Y-109304761D01*
X177314285Y-109257142D01*
X160533333Y-77507142D02*
X160485714Y-77554761D01*
X160342857Y-77602380D01*
X160247619Y-77602380D01*
X160104761Y-77554761D01*
X160009523Y-77459523D01*
X159961904Y-77364285D01*
X159914285Y-77173809D01*
X159914285Y-77030952D01*
X159961904Y-76840476D01*
X160009523Y-76745238D01*
X160104761Y-76650000D01*
X160247619Y-76602380D01*
X160342857Y-76602380D01*
X160485714Y-76650000D01*
X160533333Y-76697619D01*
X160866666Y-76602380D02*
X161485714Y-76602380D01*
X161152380Y-76983333D01*
X161295238Y-76983333D01*
X161390476Y-77030952D01*
X161438095Y-77078571D01*
X161485714Y-77173809D01*
X161485714Y-77411904D01*
X161438095Y-77507142D01*
X161390476Y-77554761D01*
X161295238Y-77602380D01*
X161009523Y-77602380D01*
X160914285Y-77554761D01*
X160866666Y-77507142D01*
X183533333Y-105857142D02*
X183485714Y-105904761D01*
X183342857Y-105952380D01*
X183247619Y-105952380D01*
X183104761Y-105904761D01*
X183009523Y-105809523D01*
X182961904Y-105714285D01*
X182914285Y-105523809D01*
X182914285Y-105380952D01*
X182961904Y-105190476D01*
X183009523Y-105095238D01*
X183104761Y-105000000D01*
X183247619Y-104952380D01*
X183342857Y-104952380D01*
X183485714Y-105000000D01*
X183533333Y-105047619D01*
X183914285Y-105047619D02*
X183961904Y-105000000D01*
X184057142Y-104952380D01*
X184295238Y-104952380D01*
X184390476Y-105000000D01*
X184438095Y-105047619D01*
X184485714Y-105142857D01*
X184485714Y-105238095D01*
X184438095Y-105380952D01*
X183866666Y-105952380D01*
X184485714Y-105952380D01*
X183543333Y-92057142D02*
X183495714Y-92104761D01*
X183352857Y-92152380D01*
X183257619Y-92152380D01*
X183114761Y-92104761D01*
X183019523Y-92009523D01*
X182971904Y-91914285D01*
X182924285Y-91723809D01*
X182924285Y-91580952D01*
X182971904Y-91390476D01*
X183019523Y-91295238D01*
X183114761Y-91200000D01*
X183257619Y-91152380D01*
X183352857Y-91152380D01*
X183495714Y-91200000D01*
X183543333Y-91247619D01*
X184495714Y-92152380D02*
X183924285Y-92152380D01*
X184210000Y-92152380D02*
X184210000Y-91152380D01*
X184114761Y-91295238D01*
X184019523Y-91390476D01*
X183924285Y-91438095D01*
M02*
