G04 #@! TF.GenerationSoftware,KiCad,Pcbnew,(5.1.0)-1*
G04 #@! TF.CreationDate,2020-05-29T16:33:31+02:00*
G04 #@! TF.ProjectId,motortreiber,6d6f746f-7274-4726-9569-6265722e6b69,rev?*
G04 #@! TF.SameCoordinates,Original*
G04 #@! TF.FileFunction,Copper,L2,Inr*
G04 #@! TF.FilePolarity,Positive*
%FSLAX46Y46*%
G04 Gerber Fmt 4.6, Leading zero omitted, Abs format (unit mm)*
G04 Created by KiCad (PCBNEW (5.1.0)-1) date 2020-05-29 16:33:31*
%MOMM*%
%LPD*%
G04 APERTURE LIST*
%ADD10O,1.800000X3.600000*%
%ADD11C,0.100000*%
%ADD12C,1.800000*%
%ADD13O,3.600000X1.800000*%
%ADD14C,0.700000*%
%ADD15C,1.000000*%
%ADD16C,0.254000*%
G04 APERTURE END LIST*
D10*
X165430000Y-109500000D03*
X161620000Y-109500000D03*
X157810000Y-109500000D03*
D11*
G36*
X154674504Y-107701204D02*
G01*
X154698773Y-107704804D01*
X154722571Y-107710765D01*
X154745671Y-107719030D01*
X154767849Y-107729520D01*
X154788893Y-107742133D01*
X154808598Y-107756747D01*
X154826777Y-107773223D01*
X154843253Y-107791402D01*
X154857867Y-107811107D01*
X154870480Y-107832151D01*
X154880970Y-107854329D01*
X154889235Y-107877429D01*
X154895196Y-107901227D01*
X154898796Y-107925496D01*
X154900000Y-107950000D01*
X154900000Y-111050000D01*
X154898796Y-111074504D01*
X154895196Y-111098773D01*
X154889235Y-111122571D01*
X154880970Y-111145671D01*
X154870480Y-111167849D01*
X154857867Y-111188893D01*
X154843253Y-111208598D01*
X154826777Y-111226777D01*
X154808598Y-111243253D01*
X154788893Y-111257867D01*
X154767849Y-111270480D01*
X154745671Y-111280970D01*
X154722571Y-111289235D01*
X154698773Y-111295196D01*
X154674504Y-111298796D01*
X154650000Y-111300000D01*
X153350000Y-111300000D01*
X153325496Y-111298796D01*
X153301227Y-111295196D01*
X153277429Y-111289235D01*
X153254329Y-111280970D01*
X153232151Y-111270480D01*
X153211107Y-111257867D01*
X153191402Y-111243253D01*
X153173223Y-111226777D01*
X153156747Y-111208598D01*
X153142133Y-111188893D01*
X153129520Y-111167849D01*
X153119030Y-111145671D01*
X153110765Y-111122571D01*
X153104804Y-111098773D01*
X153101204Y-111074504D01*
X153100000Y-111050000D01*
X153100000Y-107950000D01*
X153101204Y-107925496D01*
X153104804Y-107901227D01*
X153110765Y-107877429D01*
X153119030Y-107854329D01*
X153129520Y-107832151D01*
X153142133Y-107811107D01*
X153156747Y-107791402D01*
X153173223Y-107773223D01*
X153191402Y-107756747D01*
X153211107Y-107742133D01*
X153232151Y-107729520D01*
X153254329Y-107719030D01*
X153277429Y-107710765D01*
X153301227Y-107704804D01*
X153325496Y-107701204D01*
X153350000Y-107700000D01*
X154650000Y-107700000D01*
X154674504Y-107701204D01*
X154674504Y-107701204D01*
G37*
D12*
X154000000Y-109500000D03*
D10*
X147430000Y-109500000D03*
X143620000Y-109500000D03*
X139810000Y-109500000D03*
D11*
G36*
X136674504Y-107701204D02*
G01*
X136698773Y-107704804D01*
X136722571Y-107710765D01*
X136745671Y-107719030D01*
X136767849Y-107729520D01*
X136788893Y-107742133D01*
X136808598Y-107756747D01*
X136826777Y-107773223D01*
X136843253Y-107791402D01*
X136857867Y-107811107D01*
X136870480Y-107832151D01*
X136880970Y-107854329D01*
X136889235Y-107877429D01*
X136895196Y-107901227D01*
X136898796Y-107925496D01*
X136900000Y-107950000D01*
X136900000Y-111050000D01*
X136898796Y-111074504D01*
X136895196Y-111098773D01*
X136889235Y-111122571D01*
X136880970Y-111145671D01*
X136870480Y-111167849D01*
X136857867Y-111188893D01*
X136843253Y-111208598D01*
X136826777Y-111226777D01*
X136808598Y-111243253D01*
X136788893Y-111257867D01*
X136767849Y-111270480D01*
X136745671Y-111280970D01*
X136722571Y-111289235D01*
X136698773Y-111295196D01*
X136674504Y-111298796D01*
X136650000Y-111300000D01*
X135350000Y-111300000D01*
X135325496Y-111298796D01*
X135301227Y-111295196D01*
X135277429Y-111289235D01*
X135254329Y-111280970D01*
X135232151Y-111270480D01*
X135211107Y-111257867D01*
X135191402Y-111243253D01*
X135173223Y-111226777D01*
X135156747Y-111208598D01*
X135142133Y-111188893D01*
X135129520Y-111167849D01*
X135119030Y-111145671D01*
X135110765Y-111122571D01*
X135104804Y-111098773D01*
X135101204Y-111074504D01*
X135100000Y-111050000D01*
X135100000Y-107950000D01*
X135101204Y-107925496D01*
X135104804Y-107901227D01*
X135110765Y-107877429D01*
X135119030Y-107854329D01*
X135129520Y-107832151D01*
X135142133Y-107811107D01*
X135156747Y-107791402D01*
X135173223Y-107773223D01*
X135191402Y-107756747D01*
X135211107Y-107742133D01*
X135232151Y-107729520D01*
X135254329Y-107719030D01*
X135277429Y-107710765D01*
X135301227Y-107704804D01*
X135325496Y-107701204D01*
X135350000Y-107700000D01*
X136650000Y-107700000D01*
X136674504Y-107701204D01*
X136674504Y-107701204D01*
G37*
D12*
X136000000Y-109500000D03*
D13*
X126500000Y-77810000D03*
D11*
G36*
X128074504Y-73101204D02*
G01*
X128098773Y-73104804D01*
X128122571Y-73110765D01*
X128145671Y-73119030D01*
X128167849Y-73129520D01*
X128188893Y-73142133D01*
X128208598Y-73156747D01*
X128226777Y-73173223D01*
X128243253Y-73191402D01*
X128257867Y-73211107D01*
X128270480Y-73232151D01*
X128280970Y-73254329D01*
X128289235Y-73277429D01*
X128295196Y-73301227D01*
X128298796Y-73325496D01*
X128300000Y-73350000D01*
X128300000Y-74650000D01*
X128298796Y-74674504D01*
X128295196Y-74698773D01*
X128289235Y-74722571D01*
X128280970Y-74745671D01*
X128270480Y-74767849D01*
X128257867Y-74788893D01*
X128243253Y-74808598D01*
X128226777Y-74826777D01*
X128208598Y-74843253D01*
X128188893Y-74857867D01*
X128167849Y-74870480D01*
X128145671Y-74880970D01*
X128122571Y-74889235D01*
X128098773Y-74895196D01*
X128074504Y-74898796D01*
X128050000Y-74900000D01*
X124950000Y-74900000D01*
X124925496Y-74898796D01*
X124901227Y-74895196D01*
X124877429Y-74889235D01*
X124854329Y-74880970D01*
X124832151Y-74870480D01*
X124811107Y-74857867D01*
X124791402Y-74843253D01*
X124773223Y-74826777D01*
X124756747Y-74808598D01*
X124742133Y-74788893D01*
X124729520Y-74767849D01*
X124719030Y-74745671D01*
X124710765Y-74722571D01*
X124704804Y-74698773D01*
X124701204Y-74674504D01*
X124700000Y-74650000D01*
X124700000Y-73350000D01*
X124701204Y-73325496D01*
X124704804Y-73301227D01*
X124710765Y-73277429D01*
X124719030Y-73254329D01*
X124729520Y-73232151D01*
X124742133Y-73211107D01*
X124756747Y-73191402D01*
X124773223Y-73173223D01*
X124791402Y-73156747D01*
X124811107Y-73142133D01*
X124832151Y-73129520D01*
X124854329Y-73119030D01*
X124877429Y-73110765D01*
X124901227Y-73104804D01*
X124925496Y-73101204D01*
X124950000Y-73100000D01*
X128050000Y-73100000D01*
X128074504Y-73101204D01*
X128074504Y-73101204D01*
G37*
D12*
X126500000Y-74000000D03*
D13*
X126500000Y-91720000D03*
X126500000Y-87910000D03*
D11*
G36*
X128074504Y-83201204D02*
G01*
X128098773Y-83204804D01*
X128122571Y-83210765D01*
X128145671Y-83219030D01*
X128167849Y-83229520D01*
X128188893Y-83242133D01*
X128208598Y-83256747D01*
X128226777Y-83273223D01*
X128243253Y-83291402D01*
X128257867Y-83311107D01*
X128270480Y-83332151D01*
X128280970Y-83354329D01*
X128289235Y-83377429D01*
X128295196Y-83401227D01*
X128298796Y-83425496D01*
X128300000Y-83450000D01*
X128300000Y-84750000D01*
X128298796Y-84774504D01*
X128295196Y-84798773D01*
X128289235Y-84822571D01*
X128280970Y-84845671D01*
X128270480Y-84867849D01*
X128257867Y-84888893D01*
X128243253Y-84908598D01*
X128226777Y-84926777D01*
X128208598Y-84943253D01*
X128188893Y-84957867D01*
X128167849Y-84970480D01*
X128145671Y-84980970D01*
X128122571Y-84989235D01*
X128098773Y-84995196D01*
X128074504Y-84998796D01*
X128050000Y-85000000D01*
X124950000Y-85000000D01*
X124925496Y-84998796D01*
X124901227Y-84995196D01*
X124877429Y-84989235D01*
X124854329Y-84980970D01*
X124832151Y-84970480D01*
X124811107Y-84957867D01*
X124791402Y-84943253D01*
X124773223Y-84926777D01*
X124756747Y-84908598D01*
X124742133Y-84888893D01*
X124729520Y-84867849D01*
X124719030Y-84845671D01*
X124710765Y-84822571D01*
X124704804Y-84798773D01*
X124701204Y-84774504D01*
X124700000Y-84750000D01*
X124700000Y-83450000D01*
X124701204Y-83425496D01*
X124704804Y-83401227D01*
X124710765Y-83377429D01*
X124719030Y-83354329D01*
X124729520Y-83332151D01*
X124742133Y-83311107D01*
X124756747Y-83291402D01*
X124773223Y-83273223D01*
X124791402Y-83256747D01*
X124811107Y-83242133D01*
X124832151Y-83229520D01*
X124854329Y-83219030D01*
X124877429Y-83210765D01*
X124901227Y-83204804D01*
X124925496Y-83201204D01*
X124950000Y-83200000D01*
X128050000Y-83200000D01*
X128074504Y-83201204D01*
X128074504Y-83201204D01*
G37*
D12*
X126500000Y-84100000D03*
D13*
X194100000Y-84880000D03*
X194100000Y-88690000D03*
D11*
G36*
X195674504Y-91601204D02*
G01*
X195698773Y-91604804D01*
X195722571Y-91610765D01*
X195745671Y-91619030D01*
X195767849Y-91629520D01*
X195788893Y-91642133D01*
X195808598Y-91656747D01*
X195826777Y-91673223D01*
X195843253Y-91691402D01*
X195857867Y-91711107D01*
X195870480Y-91732151D01*
X195880970Y-91754329D01*
X195889235Y-91777429D01*
X195895196Y-91801227D01*
X195898796Y-91825496D01*
X195900000Y-91850000D01*
X195900000Y-93150000D01*
X195898796Y-93174504D01*
X195895196Y-93198773D01*
X195889235Y-93222571D01*
X195880970Y-93245671D01*
X195870480Y-93267849D01*
X195857867Y-93288893D01*
X195843253Y-93308598D01*
X195826777Y-93326777D01*
X195808598Y-93343253D01*
X195788893Y-93357867D01*
X195767849Y-93370480D01*
X195745671Y-93380970D01*
X195722571Y-93389235D01*
X195698773Y-93395196D01*
X195674504Y-93398796D01*
X195650000Y-93400000D01*
X192550000Y-93400000D01*
X192525496Y-93398796D01*
X192501227Y-93395196D01*
X192477429Y-93389235D01*
X192454329Y-93380970D01*
X192432151Y-93370480D01*
X192411107Y-93357867D01*
X192391402Y-93343253D01*
X192373223Y-93326777D01*
X192356747Y-93308598D01*
X192342133Y-93288893D01*
X192329520Y-93267849D01*
X192319030Y-93245671D01*
X192310765Y-93222571D01*
X192304804Y-93198773D01*
X192301204Y-93174504D01*
X192300000Y-93150000D01*
X192300000Y-91850000D01*
X192301204Y-91825496D01*
X192304804Y-91801227D01*
X192310765Y-91777429D01*
X192319030Y-91754329D01*
X192329520Y-91732151D01*
X192342133Y-91711107D01*
X192356747Y-91691402D01*
X192373223Y-91673223D01*
X192391402Y-91656747D01*
X192411107Y-91642133D01*
X192432151Y-91629520D01*
X192454329Y-91619030D01*
X192477429Y-91610765D01*
X192501227Y-91604804D01*
X192525496Y-91601204D01*
X192550000Y-91600000D01*
X195650000Y-91600000D01*
X195674504Y-91601204D01*
X195674504Y-91601204D01*
G37*
D12*
X194100000Y-92500000D03*
D14*
X137600000Y-82400000D03*
X161600000Y-73500000D03*
X164500000Y-73500000D03*
X153800000Y-73500000D03*
X156800000Y-73500000D03*
X179900000Y-107300000D03*
X173640000Y-106160000D03*
X173640000Y-104960000D03*
X175540000Y-106910000D03*
X173740000Y-81360000D03*
X173740000Y-80160000D03*
X175540000Y-82110000D03*
X175640000Y-93510000D03*
X173840000Y-92760000D03*
X173840000Y-91560000D03*
X135600000Y-74200000D03*
X135600000Y-73300000D03*
X195450000Y-108085000D03*
X195450000Y-109085000D03*
X189150000Y-106085000D03*
X189950000Y-106085000D03*
X180750000Y-92085000D03*
X181850000Y-93385000D03*
X182650000Y-93385000D03*
X180750000Y-105685000D03*
X181850000Y-106985000D03*
X182650000Y-106985000D03*
X182600000Y-82100000D03*
X180700000Y-80800000D03*
X181800000Y-82100000D03*
X192500000Y-74300000D03*
X191000000Y-105600000D03*
X120900000Y-94900000D03*
X120800000Y-107400000D03*
X134900000Y-79800000D03*
X146450000Y-81950000D03*
X197200000Y-73400000D03*
X197200000Y-81950000D03*
X199750000Y-81950000D03*
X199750000Y-105150000D03*
X197150000Y-101900000D03*
X197150000Y-96500000D03*
X188050000Y-114485000D03*
X191150000Y-114515000D03*
X195550000Y-114485000D03*
X198650000Y-114515000D03*
X164500000Y-80200000D03*
X161600000Y-80200000D03*
X153800000Y-80200000D03*
X156800000Y-80200000D03*
X129025000Y-102475000D03*
X128550000Y-103150000D03*
X149100000Y-103850000D03*
X174250000Y-109300000D03*
X174250000Y-108400000D03*
X170900000Y-115675000D03*
X170100000Y-115675000D03*
X174000000Y-73200000D03*
X180400000Y-95200000D03*
X190000000Y-92200000D03*
X132600000Y-105700000D03*
X141200000Y-105600000D03*
X149850000Y-73300000D03*
X150650000Y-73300000D03*
X184850000Y-93385000D03*
X186750000Y-92085000D03*
X185650000Y-93385000D03*
X148000000Y-98900000D03*
X136000000Y-95400000D03*
X135700000Y-84700000D03*
X160100000Y-97600000D03*
X150200000Y-94100000D03*
X156300000Y-87400000D03*
X154500000Y-91300000D03*
X184850000Y-106985000D03*
X185650000Y-106985000D03*
X185600000Y-82100000D03*
X186700000Y-80800000D03*
X167600000Y-81300000D03*
X167600000Y-80100000D03*
X167450000Y-104940000D03*
X167450000Y-106140000D03*
X167710000Y-92740000D03*
X167710000Y-91540000D03*
X174050000Y-97540000D03*
X174110000Y-84140000D03*
X184800000Y-82100000D03*
X156100000Y-100100000D03*
X161400000Y-100600000D03*
X128900000Y-85900000D03*
X126625000Y-108400000D03*
X124000000Y-107800000D03*
X132300000Y-87300000D03*
X198450000Y-81950000D03*
X198400000Y-72600000D03*
X198450000Y-105500000D03*
X198400000Y-96500000D03*
X135300000Y-92300000D03*
X187800000Y-92200000D03*
X156150000Y-104800000D03*
X128700000Y-105600000D03*
X150650000Y-79500000D03*
X149850000Y-79500000D03*
X148000000Y-90600000D03*
X148000000Y-97700000D03*
X135900000Y-98400000D03*
X138700000Y-86500000D03*
X158300000Y-86800000D03*
X120700000Y-108400000D03*
X141900000Y-92100000D03*
X127900000Y-113800000D03*
X130100000Y-95300000D03*
X130090000Y-96210000D03*
X135500000Y-75600000D03*
X135500000Y-76500000D03*
X188000000Y-85500000D03*
X189000000Y-85500000D03*
X188000000Y-86500000D03*
X189000000Y-86500000D03*
X188000000Y-87500000D03*
X189000000Y-87500000D03*
X188000000Y-88500000D03*
X189000000Y-88500000D03*
X188000000Y-89500000D03*
X189000000Y-89500000D03*
X189000000Y-99300000D03*
X188000000Y-100300000D03*
X189000000Y-103300000D03*
X189000000Y-102300000D03*
X189000000Y-100300000D03*
X188000000Y-101300000D03*
X188000000Y-103300000D03*
X189000000Y-101300000D03*
X188000000Y-99300000D03*
X188000000Y-102300000D03*
X133800000Y-99200000D03*
X122800000Y-115700000D03*
X120100000Y-110300000D03*
X136000000Y-94400000D03*
X139600000Y-94400000D03*
X140700000Y-94400000D03*
X166700000Y-91800000D03*
X147850000Y-86050000D03*
X163525000Y-103000000D03*
X141200000Y-102600000D03*
X165900000Y-92400000D03*
X144000000Y-85200000D03*
X147350000Y-85200000D03*
X166400000Y-85500000D03*
X163500000Y-101300000D03*
X143700000Y-101300000D03*
X153050000Y-81400000D03*
X165650000Y-82000000D03*
X149500000Y-97200000D03*
X157250000Y-97600000D03*
X188900000Y-74300000D03*
X187900000Y-75300000D03*
X188900000Y-78300000D03*
X188900000Y-77300000D03*
X188900000Y-75300000D03*
X187900000Y-76300000D03*
X187900000Y-78300000D03*
X188900000Y-76300000D03*
X187900000Y-74300000D03*
X187900000Y-77300000D03*
X147800000Y-83600000D03*
X166500000Y-74400000D03*
X146000000Y-102200000D03*
X164300000Y-100000000D03*
X166500000Y-75700000D03*
X142500000Y-84500000D03*
X133500000Y-76400000D03*
X199500000Y-72600000D03*
X197100000Y-94300000D03*
X162500000Y-93300000D03*
X162600000Y-96000000D03*
X177300000Y-95400000D03*
X150100000Y-104800000D03*
X139700000Y-98900000D03*
X163400000Y-96900000D03*
X177300000Y-96400000D03*
D15*
X124200000Y-77800000D02*
X128700000Y-77800000D01*
D16*
G36*
X197933428Y-71727104D02*
G01*
X197772099Y-71834901D01*
X197634901Y-71972099D01*
X197527104Y-72133428D01*
X197452853Y-72312686D01*
X197415000Y-72502986D01*
X197415000Y-72697014D01*
X197452853Y-72887314D01*
X197527104Y-73066572D01*
X197634901Y-73227901D01*
X197772099Y-73365099D01*
X197933428Y-73472896D01*
X198112686Y-73547147D01*
X198302986Y-73585000D01*
X198497014Y-73585000D01*
X198687314Y-73547147D01*
X198866572Y-73472896D01*
X198950000Y-73417151D01*
X199033428Y-73472896D01*
X199212686Y-73547147D01*
X199402986Y-73585000D01*
X199597014Y-73585000D01*
X199787314Y-73547147D01*
X199840001Y-73525323D01*
X199840000Y-114980394D01*
X198980394Y-115840000D01*
X123776450Y-115840000D01*
X123785000Y-115797014D01*
X123785000Y-115602986D01*
X123747147Y-115412686D01*
X123672896Y-115233428D01*
X123565099Y-115072099D01*
X123427901Y-114934901D01*
X123266572Y-114827104D01*
X123087314Y-114752853D01*
X122897014Y-114715000D01*
X122702986Y-114715000D01*
X122512686Y-114752853D01*
X122333428Y-114827104D01*
X122172099Y-114934901D01*
X122034901Y-115072099D01*
X121927104Y-115233428D01*
X121852853Y-115412686D01*
X121815000Y-115602986D01*
X121815000Y-115797014D01*
X121823550Y-115840000D01*
X120519606Y-115840000D01*
X119660000Y-114980394D01*
X119660000Y-113702986D01*
X126915000Y-113702986D01*
X126915000Y-113897014D01*
X126952853Y-114087314D01*
X127027104Y-114266572D01*
X127134901Y-114427901D01*
X127272099Y-114565099D01*
X127433428Y-114672896D01*
X127612686Y-114747147D01*
X127802986Y-114785000D01*
X127997014Y-114785000D01*
X128187314Y-114747147D01*
X128366572Y-114672896D01*
X128527901Y-114565099D01*
X128665099Y-114427901D01*
X128772896Y-114266572D01*
X128847147Y-114087314D01*
X128885000Y-113897014D01*
X128885000Y-113702986D01*
X128847147Y-113512686D01*
X128772896Y-113333428D01*
X128665099Y-113172099D01*
X128527901Y-113034901D01*
X128366572Y-112927104D01*
X128187314Y-112852853D01*
X127997014Y-112815000D01*
X127802986Y-112815000D01*
X127612686Y-112852853D01*
X127433428Y-112927104D01*
X127272099Y-113034901D01*
X127134901Y-113172099D01*
X127027104Y-113333428D01*
X126952853Y-113512686D01*
X126915000Y-113702986D01*
X119660000Y-113702986D01*
X119660000Y-111314344D01*
X128365000Y-111314344D01*
X128365000Y-111685656D01*
X128437439Y-112049834D01*
X128579534Y-112392882D01*
X128785825Y-112701618D01*
X129048382Y-112964175D01*
X129357118Y-113170466D01*
X129700166Y-113312561D01*
X130064344Y-113385000D01*
X130435656Y-113385000D01*
X130799834Y-113312561D01*
X131142882Y-113170466D01*
X131451618Y-112964175D01*
X131714175Y-112701618D01*
X131920466Y-112392882D01*
X132062561Y-112049834D01*
X132135000Y-111685656D01*
X132135000Y-111314344D01*
X132062561Y-110950166D01*
X131920466Y-110607118D01*
X131714175Y-110298382D01*
X131451618Y-110035825D01*
X131142882Y-109829534D01*
X130799834Y-109687439D01*
X130435656Y-109615000D01*
X130064344Y-109615000D01*
X129700166Y-109687439D01*
X129357118Y-109829534D01*
X129048382Y-110035825D01*
X128785825Y-110298382D01*
X128579534Y-110607118D01*
X128437439Y-110950166D01*
X128365000Y-111314344D01*
X119660000Y-111314344D01*
X119660000Y-111183902D01*
X119812686Y-111247147D01*
X120002986Y-111285000D01*
X120197014Y-111285000D01*
X120387314Y-111247147D01*
X120566572Y-111172896D01*
X120727901Y-111065099D01*
X120865099Y-110927901D01*
X120972896Y-110766572D01*
X121047147Y-110587314D01*
X121085000Y-110397014D01*
X121085000Y-110202986D01*
X121047147Y-110012686D01*
X120972896Y-109833428D01*
X120865099Y-109672099D01*
X120727901Y-109534901D01*
X120566572Y-109427104D01*
X120387314Y-109352853D01*
X120197014Y-109315000D01*
X120002986Y-109315000D01*
X119812686Y-109352853D01*
X119660000Y-109416098D01*
X119660000Y-108302986D01*
X119715000Y-108302986D01*
X119715000Y-108497014D01*
X119752853Y-108687314D01*
X119827104Y-108866572D01*
X119934901Y-109027901D01*
X120072099Y-109165099D01*
X120233428Y-109272896D01*
X120412686Y-109347147D01*
X120602986Y-109385000D01*
X120797014Y-109385000D01*
X120987314Y-109347147D01*
X121166572Y-109272896D01*
X121327901Y-109165099D01*
X121465099Y-109027901D01*
X121572896Y-108866572D01*
X121647147Y-108687314D01*
X121685000Y-108497014D01*
X121685000Y-108302986D01*
X121647147Y-108112686D01*
X121579761Y-107950000D01*
X134461928Y-107950000D01*
X134461928Y-111050000D01*
X134478992Y-111223254D01*
X134529528Y-111389850D01*
X134611595Y-111543386D01*
X134722038Y-111677962D01*
X134856614Y-111788405D01*
X135010150Y-111870472D01*
X135176746Y-111921008D01*
X135350000Y-111938072D01*
X136650000Y-111938072D01*
X136823254Y-111921008D01*
X136989850Y-111870472D01*
X137143386Y-111788405D01*
X137277962Y-111677962D01*
X137388405Y-111543386D01*
X137470472Y-111389850D01*
X137521008Y-111223254D01*
X137538072Y-111050000D01*
X137538072Y-108524593D01*
X138275000Y-108524593D01*
X138275000Y-110475408D01*
X138297211Y-110700913D01*
X138384984Y-110990261D01*
X138527520Y-111256927D01*
X138719340Y-111490661D01*
X138953074Y-111682481D01*
X139219740Y-111825017D01*
X139509088Y-111912790D01*
X139810000Y-111942427D01*
X140110913Y-111912790D01*
X140400261Y-111825017D01*
X140666927Y-111682481D01*
X140900661Y-111490661D01*
X141092481Y-111256927D01*
X141235017Y-110990261D01*
X141322790Y-110700913D01*
X141345000Y-110475408D01*
X141345000Y-108524593D01*
X142085000Y-108524593D01*
X142085000Y-110475408D01*
X142107211Y-110700913D01*
X142194984Y-110990261D01*
X142337520Y-111256927D01*
X142529340Y-111490661D01*
X142763074Y-111682481D01*
X143029740Y-111825017D01*
X143319088Y-111912790D01*
X143620000Y-111942427D01*
X143920913Y-111912790D01*
X144210261Y-111825017D01*
X144476927Y-111682481D01*
X144710661Y-111490661D01*
X144902481Y-111256927D01*
X145045017Y-110990261D01*
X145132790Y-110700913D01*
X145155000Y-110475408D01*
X145155000Y-109627000D01*
X145895000Y-109627000D01*
X145895000Y-110527000D01*
X145949271Y-110824023D01*
X146060446Y-111104751D01*
X146224252Y-111358396D01*
X146434394Y-111575210D01*
X146682796Y-111746862D01*
X146959913Y-111866755D01*
X147065260Y-111891036D01*
X147303000Y-111770378D01*
X147303000Y-109627000D01*
X147557000Y-109627000D01*
X147557000Y-111770378D01*
X147794740Y-111891036D01*
X147900087Y-111866755D01*
X148177204Y-111746862D01*
X148425606Y-111575210D01*
X148635748Y-111358396D01*
X148799554Y-111104751D01*
X148910729Y-110824023D01*
X148965000Y-110527000D01*
X148965000Y-109627000D01*
X147557000Y-109627000D01*
X147303000Y-109627000D01*
X145895000Y-109627000D01*
X145155000Y-109627000D01*
X145155000Y-108524592D01*
X145149919Y-108473000D01*
X145895000Y-108473000D01*
X145895000Y-109373000D01*
X147303000Y-109373000D01*
X147303000Y-107229622D01*
X147557000Y-107229622D01*
X147557000Y-109373000D01*
X148965000Y-109373000D01*
X148965000Y-108473000D01*
X148910729Y-108175977D01*
X148821237Y-107950000D01*
X152461928Y-107950000D01*
X152461928Y-111050000D01*
X152478992Y-111223254D01*
X152529528Y-111389850D01*
X152611595Y-111543386D01*
X152722038Y-111677962D01*
X152856614Y-111788405D01*
X153010150Y-111870472D01*
X153176746Y-111921008D01*
X153350000Y-111938072D01*
X154650000Y-111938072D01*
X154823254Y-111921008D01*
X154989850Y-111870472D01*
X155143386Y-111788405D01*
X155277962Y-111677962D01*
X155388405Y-111543386D01*
X155470472Y-111389850D01*
X155521008Y-111223254D01*
X155538072Y-111050000D01*
X155538072Y-108524593D01*
X156275000Y-108524593D01*
X156275000Y-110475408D01*
X156297211Y-110700913D01*
X156384984Y-110990261D01*
X156527520Y-111256927D01*
X156719340Y-111490661D01*
X156953074Y-111682481D01*
X157219740Y-111825017D01*
X157509088Y-111912790D01*
X157810000Y-111942427D01*
X158110913Y-111912790D01*
X158400261Y-111825017D01*
X158666927Y-111682481D01*
X158900661Y-111490661D01*
X159092481Y-111256927D01*
X159235017Y-110990261D01*
X159322790Y-110700913D01*
X159345000Y-110475408D01*
X159345000Y-108524593D01*
X160085000Y-108524593D01*
X160085000Y-110475408D01*
X160107211Y-110700913D01*
X160194984Y-110990261D01*
X160337520Y-111256927D01*
X160529340Y-111490661D01*
X160763074Y-111682481D01*
X161029740Y-111825017D01*
X161319088Y-111912790D01*
X161620000Y-111942427D01*
X161920913Y-111912790D01*
X162210261Y-111825017D01*
X162476927Y-111682481D01*
X162710661Y-111490661D01*
X162902481Y-111256927D01*
X163045017Y-110990261D01*
X163132790Y-110700913D01*
X163155000Y-110475408D01*
X163155000Y-109627000D01*
X163895000Y-109627000D01*
X163895000Y-110527000D01*
X163949271Y-110824023D01*
X164060446Y-111104751D01*
X164224252Y-111358396D01*
X164434394Y-111575210D01*
X164682796Y-111746862D01*
X164959913Y-111866755D01*
X165065260Y-111891036D01*
X165303000Y-111770378D01*
X165303000Y-109627000D01*
X165557000Y-109627000D01*
X165557000Y-111770378D01*
X165794740Y-111891036D01*
X165900087Y-111866755D01*
X166021228Y-111814344D01*
X181115000Y-111814344D01*
X181115000Y-112185656D01*
X181187439Y-112549834D01*
X181329534Y-112892882D01*
X181535825Y-113201618D01*
X181798382Y-113464175D01*
X182107118Y-113670466D01*
X182450166Y-113812561D01*
X182814344Y-113885000D01*
X183185656Y-113885000D01*
X183549834Y-113812561D01*
X183892882Y-113670466D01*
X184201618Y-113464175D01*
X184464175Y-113201618D01*
X184670466Y-112892882D01*
X184812561Y-112549834D01*
X184885000Y-112185656D01*
X184885000Y-111814344D01*
X184812561Y-111450166D01*
X184670466Y-111107118D01*
X184464175Y-110798382D01*
X184201618Y-110535825D01*
X183892882Y-110329534D01*
X183549834Y-110187439D01*
X183185656Y-110115000D01*
X182814344Y-110115000D01*
X182450166Y-110187439D01*
X182107118Y-110329534D01*
X181798382Y-110535825D01*
X181535825Y-110798382D01*
X181329534Y-111107118D01*
X181187439Y-111450166D01*
X181115000Y-111814344D01*
X166021228Y-111814344D01*
X166177204Y-111746862D01*
X166425606Y-111575210D01*
X166635748Y-111358396D01*
X166799554Y-111104751D01*
X166910729Y-110824023D01*
X166965000Y-110527000D01*
X166965000Y-109627000D01*
X165557000Y-109627000D01*
X165303000Y-109627000D01*
X163895000Y-109627000D01*
X163155000Y-109627000D01*
X163155000Y-108524592D01*
X163149919Y-108473000D01*
X163895000Y-108473000D01*
X163895000Y-109373000D01*
X165303000Y-109373000D01*
X165303000Y-107229622D01*
X165557000Y-107229622D01*
X165557000Y-109373000D01*
X166965000Y-109373000D01*
X166965000Y-108473000D01*
X166910729Y-108175977D01*
X166799554Y-107895249D01*
X166635748Y-107641604D01*
X166425606Y-107424790D01*
X166177204Y-107253138D01*
X165900087Y-107133245D01*
X165794740Y-107108964D01*
X165557000Y-107229622D01*
X165303000Y-107229622D01*
X165065260Y-107108964D01*
X164959913Y-107133245D01*
X164682796Y-107253138D01*
X164434394Y-107424790D01*
X164224252Y-107641604D01*
X164060446Y-107895249D01*
X163949271Y-108175977D01*
X163895000Y-108473000D01*
X163149919Y-108473000D01*
X163132790Y-108299087D01*
X163045017Y-108009739D01*
X162902481Y-107743073D01*
X162710661Y-107509339D01*
X162476926Y-107317519D01*
X162210260Y-107174983D01*
X161920912Y-107087210D01*
X161620000Y-107057573D01*
X161319087Y-107087210D01*
X161029739Y-107174983D01*
X160763073Y-107317519D01*
X160529339Y-107509339D01*
X160337519Y-107743074D01*
X160194983Y-108009740D01*
X160107210Y-108299088D01*
X160085000Y-108524593D01*
X159345000Y-108524593D01*
X159345000Y-108524592D01*
X159322790Y-108299087D01*
X159235017Y-108009739D01*
X159092481Y-107743073D01*
X158900661Y-107509339D01*
X158666926Y-107317519D01*
X158400260Y-107174983D01*
X158110912Y-107087210D01*
X157810000Y-107057573D01*
X157509087Y-107087210D01*
X157219739Y-107174983D01*
X156953073Y-107317519D01*
X156719339Y-107509339D01*
X156527519Y-107743074D01*
X156384983Y-108009740D01*
X156297210Y-108299088D01*
X156275000Y-108524593D01*
X155538072Y-108524593D01*
X155538072Y-107950000D01*
X155521008Y-107776746D01*
X155470472Y-107610150D01*
X155388405Y-107456614D01*
X155277962Y-107322038D01*
X155143386Y-107211595D01*
X154989850Y-107129528D01*
X154823254Y-107078992D01*
X154650000Y-107061928D01*
X153350000Y-107061928D01*
X153176746Y-107078992D01*
X153010150Y-107129528D01*
X152856614Y-107211595D01*
X152722038Y-107322038D01*
X152611595Y-107456614D01*
X152529528Y-107610150D01*
X152478992Y-107776746D01*
X152461928Y-107950000D01*
X148821237Y-107950000D01*
X148799554Y-107895249D01*
X148635748Y-107641604D01*
X148425606Y-107424790D01*
X148177204Y-107253138D01*
X147900087Y-107133245D01*
X147794740Y-107108964D01*
X147557000Y-107229622D01*
X147303000Y-107229622D01*
X147065260Y-107108964D01*
X146959913Y-107133245D01*
X146682796Y-107253138D01*
X146434394Y-107424790D01*
X146224252Y-107641604D01*
X146060446Y-107895249D01*
X145949271Y-108175977D01*
X145895000Y-108473000D01*
X145149919Y-108473000D01*
X145132790Y-108299087D01*
X145045017Y-108009739D01*
X144902481Y-107743073D01*
X144710661Y-107509339D01*
X144476926Y-107317519D01*
X144210260Y-107174983D01*
X143920912Y-107087210D01*
X143620000Y-107057573D01*
X143319087Y-107087210D01*
X143029739Y-107174983D01*
X142763073Y-107317519D01*
X142529339Y-107509339D01*
X142337519Y-107743074D01*
X142194983Y-108009740D01*
X142107210Y-108299088D01*
X142085000Y-108524593D01*
X141345000Y-108524593D01*
X141345000Y-108524592D01*
X141322790Y-108299087D01*
X141235017Y-108009739D01*
X141092481Y-107743073D01*
X140900661Y-107509339D01*
X140666926Y-107317519D01*
X140400260Y-107174983D01*
X140110912Y-107087210D01*
X139810000Y-107057573D01*
X139509087Y-107087210D01*
X139219739Y-107174983D01*
X138953073Y-107317519D01*
X138719339Y-107509339D01*
X138527519Y-107743074D01*
X138384983Y-108009740D01*
X138297210Y-108299088D01*
X138275000Y-108524593D01*
X137538072Y-108524593D01*
X137538072Y-107950000D01*
X137521008Y-107776746D01*
X137470472Y-107610150D01*
X137388405Y-107456614D01*
X137277962Y-107322038D01*
X137143386Y-107211595D01*
X136989850Y-107129528D01*
X136823254Y-107078992D01*
X136650000Y-107061928D01*
X135350000Y-107061928D01*
X135176746Y-107078992D01*
X135010150Y-107129528D01*
X134856614Y-107211595D01*
X134722038Y-107322038D01*
X134611595Y-107456614D01*
X134529528Y-107610150D01*
X134478992Y-107776746D01*
X134461928Y-107950000D01*
X121579761Y-107950000D01*
X121572896Y-107933428D01*
X121465099Y-107772099D01*
X121327901Y-107634901D01*
X121166572Y-107527104D01*
X120987314Y-107452853D01*
X120797014Y-107415000D01*
X120602986Y-107415000D01*
X120412686Y-107452853D01*
X120233428Y-107527104D01*
X120072099Y-107634901D01*
X119934901Y-107772099D01*
X119827104Y-107933428D01*
X119752853Y-108112686D01*
X119715000Y-108302986D01*
X119660000Y-108302986D01*
X119660000Y-105502986D01*
X127715000Y-105502986D01*
X127715000Y-105697014D01*
X127752853Y-105887314D01*
X127827104Y-106066572D01*
X127934901Y-106227901D01*
X128072099Y-106365099D01*
X128233428Y-106472896D01*
X128412686Y-106547147D01*
X128602986Y-106585000D01*
X128797014Y-106585000D01*
X128987314Y-106547147D01*
X129166572Y-106472896D01*
X129327901Y-106365099D01*
X129465099Y-106227901D01*
X129572896Y-106066572D01*
X129647147Y-105887314D01*
X129685000Y-105697014D01*
X129685000Y-105502986D01*
X129647147Y-105312686D01*
X129572896Y-105133428D01*
X129465099Y-104972099D01*
X129327901Y-104834901D01*
X129166572Y-104727104D01*
X129108346Y-104702986D01*
X149115000Y-104702986D01*
X149115000Y-104897014D01*
X149152853Y-105087314D01*
X149227104Y-105266572D01*
X149334901Y-105427901D01*
X149472099Y-105565099D01*
X149633428Y-105672896D01*
X149812686Y-105747147D01*
X150002986Y-105785000D01*
X150197014Y-105785000D01*
X150387314Y-105747147D01*
X150566572Y-105672896D01*
X150727901Y-105565099D01*
X150865099Y-105427901D01*
X150972896Y-105266572D01*
X151047147Y-105087314D01*
X151085000Y-104897014D01*
X151085000Y-104702986D01*
X155165000Y-104702986D01*
X155165000Y-104897014D01*
X155202853Y-105087314D01*
X155277104Y-105266572D01*
X155384901Y-105427901D01*
X155522099Y-105565099D01*
X155683428Y-105672896D01*
X155862686Y-105747147D01*
X156052986Y-105785000D01*
X156247014Y-105785000D01*
X156437314Y-105747147D01*
X156616572Y-105672896D01*
X156777901Y-105565099D01*
X156915099Y-105427901D01*
X157022896Y-105266572D01*
X157097147Y-105087314D01*
X157135000Y-104897014D01*
X157135000Y-104862986D01*
X172655000Y-104862986D01*
X172655000Y-105057014D01*
X172692853Y-105247314D01*
X172767104Y-105426572D01*
X172856258Y-105560000D01*
X172767104Y-105693428D01*
X172692853Y-105872686D01*
X172655000Y-106062986D01*
X172655000Y-106257014D01*
X172692853Y-106447314D01*
X172767104Y-106626572D01*
X172874901Y-106787901D01*
X173012099Y-106925099D01*
X173173428Y-107032896D01*
X173352686Y-107107147D01*
X173542986Y-107145000D01*
X173737014Y-107145000D01*
X173927314Y-107107147D01*
X174106572Y-107032896D01*
X174267901Y-106925099D01*
X174380014Y-106812986D01*
X174555000Y-106812986D01*
X174555000Y-107007014D01*
X174592853Y-107197314D01*
X174667104Y-107376572D01*
X174774901Y-107537901D01*
X174912099Y-107675099D01*
X175073428Y-107782896D01*
X175252686Y-107857147D01*
X175442986Y-107895000D01*
X175637014Y-107895000D01*
X175827314Y-107857147D01*
X176006572Y-107782896D01*
X176167901Y-107675099D01*
X176305099Y-107537901D01*
X176412896Y-107376572D01*
X176484797Y-107202986D01*
X178915000Y-107202986D01*
X178915000Y-107397014D01*
X178952853Y-107587314D01*
X179027104Y-107766572D01*
X179134901Y-107927901D01*
X179272099Y-108065099D01*
X179433428Y-108172896D01*
X179612686Y-108247147D01*
X179802986Y-108285000D01*
X179997014Y-108285000D01*
X180187314Y-108247147D01*
X180366572Y-108172896D01*
X180527901Y-108065099D01*
X180605014Y-107987986D01*
X194465000Y-107987986D01*
X194465000Y-108182014D01*
X194502853Y-108372314D01*
X194577104Y-108551572D01*
X194599440Y-108585000D01*
X194577104Y-108618428D01*
X194502853Y-108797686D01*
X194465000Y-108987986D01*
X194465000Y-109182014D01*
X194502853Y-109372314D01*
X194577104Y-109551572D01*
X194684901Y-109712901D01*
X194822099Y-109850099D01*
X194983428Y-109957896D01*
X195162686Y-110032147D01*
X195352986Y-110070000D01*
X195547014Y-110070000D01*
X195737314Y-110032147D01*
X195916572Y-109957896D01*
X196077901Y-109850099D01*
X196215099Y-109712901D01*
X196322896Y-109551572D01*
X196397147Y-109372314D01*
X196435000Y-109182014D01*
X196435000Y-108987986D01*
X196397147Y-108797686D01*
X196322896Y-108618428D01*
X196300560Y-108585000D01*
X196322896Y-108551572D01*
X196397147Y-108372314D01*
X196435000Y-108182014D01*
X196435000Y-107987986D01*
X196397147Y-107797686D01*
X196322896Y-107618428D01*
X196215099Y-107457099D01*
X196077901Y-107319901D01*
X195916572Y-107212104D01*
X195737314Y-107137853D01*
X195547014Y-107100000D01*
X195352986Y-107100000D01*
X195162686Y-107137853D01*
X194983428Y-107212104D01*
X194822099Y-107319901D01*
X194684901Y-107457099D01*
X194577104Y-107618428D01*
X194502853Y-107797686D01*
X194465000Y-107987986D01*
X180605014Y-107987986D01*
X180665099Y-107927901D01*
X180772896Y-107766572D01*
X180847147Y-107587314D01*
X180885000Y-107397014D01*
X180885000Y-107202986D01*
X180847147Y-107012686D01*
X180772896Y-106833428D01*
X180665099Y-106672099D01*
X180663000Y-106670000D01*
X180847014Y-106670000D01*
X180920364Y-106655410D01*
X180902853Y-106697686D01*
X180865000Y-106887986D01*
X180865000Y-107082014D01*
X180902853Y-107272314D01*
X180977104Y-107451572D01*
X181084901Y-107612901D01*
X181222099Y-107750099D01*
X181383428Y-107857896D01*
X181562686Y-107932147D01*
X181752986Y-107970000D01*
X181947014Y-107970000D01*
X182137314Y-107932147D01*
X182250000Y-107885471D01*
X182362686Y-107932147D01*
X182552986Y-107970000D01*
X182747014Y-107970000D01*
X182937314Y-107932147D01*
X183116572Y-107857896D01*
X183277901Y-107750099D01*
X183415099Y-107612901D01*
X183522896Y-107451572D01*
X183597147Y-107272314D01*
X183635000Y-107082014D01*
X183635000Y-106887986D01*
X183597147Y-106697686D01*
X183522896Y-106518428D01*
X183415099Y-106357099D01*
X183277901Y-106219901D01*
X183116572Y-106112104D01*
X182937314Y-106037853D01*
X182747014Y-106000000D01*
X182552986Y-106000000D01*
X182362686Y-106037853D01*
X182250000Y-106084529D01*
X182137314Y-106037853D01*
X181947014Y-106000000D01*
X181752986Y-106000000D01*
X181679636Y-106014590D01*
X181690655Y-105987986D01*
X188165000Y-105987986D01*
X188165000Y-106182014D01*
X188202853Y-106372314D01*
X188277104Y-106551572D01*
X188384901Y-106712901D01*
X188522099Y-106850099D01*
X188683428Y-106957896D01*
X188862686Y-107032147D01*
X189052986Y-107070000D01*
X189247014Y-107070000D01*
X189437314Y-107032147D01*
X189550000Y-106985471D01*
X189662686Y-107032147D01*
X189852986Y-107070000D01*
X190047014Y-107070000D01*
X190237314Y-107032147D01*
X190416572Y-106957896D01*
X190577901Y-106850099D01*
X190715099Y-106712901D01*
X190822896Y-106551572D01*
X190897147Y-106372314D01*
X190935000Y-106182014D01*
X190935000Y-105987986D01*
X190897147Y-105797686D01*
X190822896Y-105618428D01*
X190715099Y-105457099D01*
X190660986Y-105402986D01*
X197465000Y-105402986D01*
X197465000Y-105597014D01*
X197502853Y-105787314D01*
X197577104Y-105966572D01*
X197684901Y-106127901D01*
X197822099Y-106265099D01*
X197983428Y-106372896D01*
X198162686Y-106447147D01*
X198352986Y-106485000D01*
X198547014Y-106485000D01*
X198737314Y-106447147D01*
X198916572Y-106372896D01*
X199077901Y-106265099D01*
X199215099Y-106127901D01*
X199322896Y-105966572D01*
X199397147Y-105787314D01*
X199435000Y-105597014D01*
X199435000Y-105402986D01*
X199397147Y-105212686D01*
X199322896Y-105033428D01*
X199215099Y-104872099D01*
X199077901Y-104734901D01*
X198916572Y-104627104D01*
X198737314Y-104552853D01*
X198547014Y-104515000D01*
X198352986Y-104515000D01*
X198162686Y-104552853D01*
X197983428Y-104627104D01*
X197822099Y-104734901D01*
X197684901Y-104872099D01*
X197577104Y-105033428D01*
X197502853Y-105212686D01*
X197465000Y-105402986D01*
X190660986Y-105402986D01*
X190577901Y-105319901D01*
X190416572Y-105212104D01*
X190237314Y-105137853D01*
X190047014Y-105100000D01*
X189852986Y-105100000D01*
X189662686Y-105137853D01*
X189550000Y-105184529D01*
X189437314Y-105137853D01*
X189247014Y-105100000D01*
X189052986Y-105100000D01*
X188862686Y-105137853D01*
X188683428Y-105212104D01*
X188522099Y-105319901D01*
X188384901Y-105457099D01*
X188277104Y-105618428D01*
X188202853Y-105797686D01*
X188165000Y-105987986D01*
X181690655Y-105987986D01*
X181697147Y-105972314D01*
X181735000Y-105782014D01*
X181735000Y-105587986D01*
X181697147Y-105397686D01*
X181622896Y-105218428D01*
X181515099Y-105057099D01*
X181377901Y-104919901D01*
X181216572Y-104812104D01*
X181037314Y-104737853D01*
X180847014Y-104700000D01*
X180652986Y-104700000D01*
X180462686Y-104737853D01*
X180283428Y-104812104D01*
X180122099Y-104919901D01*
X179984901Y-105057099D01*
X179877104Y-105218428D01*
X179802853Y-105397686D01*
X179765000Y-105587986D01*
X179765000Y-105782014D01*
X179802853Y-105972314D01*
X179877104Y-106151572D01*
X179984901Y-106312901D01*
X179987000Y-106315000D01*
X179802986Y-106315000D01*
X179612686Y-106352853D01*
X179433428Y-106427104D01*
X179272099Y-106534901D01*
X179134901Y-106672099D01*
X179027104Y-106833428D01*
X178952853Y-107012686D01*
X178915000Y-107202986D01*
X176484797Y-107202986D01*
X176487147Y-107197314D01*
X176525000Y-107007014D01*
X176525000Y-106812986D01*
X176487147Y-106622686D01*
X176412896Y-106443428D01*
X176305099Y-106282099D01*
X176167901Y-106144901D01*
X176006572Y-106037104D01*
X175827314Y-105962853D01*
X175637014Y-105925000D01*
X175442986Y-105925000D01*
X175252686Y-105962853D01*
X175073428Y-106037104D01*
X174912099Y-106144901D01*
X174774901Y-106282099D01*
X174667104Y-106443428D01*
X174592853Y-106622686D01*
X174555000Y-106812986D01*
X174380014Y-106812986D01*
X174405099Y-106787901D01*
X174512896Y-106626572D01*
X174587147Y-106447314D01*
X174625000Y-106257014D01*
X174625000Y-106062986D01*
X174587147Y-105872686D01*
X174512896Y-105693428D01*
X174423742Y-105560000D01*
X174512896Y-105426572D01*
X174587147Y-105247314D01*
X174625000Y-105057014D01*
X174625000Y-104862986D01*
X174587147Y-104672686D01*
X174512896Y-104493428D01*
X174405099Y-104332099D01*
X174267901Y-104194901D01*
X174106572Y-104087104D01*
X173927314Y-104012853D01*
X173737014Y-103975000D01*
X173542986Y-103975000D01*
X173352686Y-104012853D01*
X173173428Y-104087104D01*
X173012099Y-104194901D01*
X172874901Y-104332099D01*
X172767104Y-104493428D01*
X172692853Y-104672686D01*
X172655000Y-104862986D01*
X157135000Y-104862986D01*
X157135000Y-104702986D01*
X157097147Y-104512686D01*
X157022896Y-104333428D01*
X156915099Y-104172099D01*
X156777901Y-104034901D01*
X156616572Y-103927104D01*
X156437314Y-103852853D01*
X156247014Y-103815000D01*
X156052986Y-103815000D01*
X155862686Y-103852853D01*
X155683428Y-103927104D01*
X155522099Y-104034901D01*
X155384901Y-104172099D01*
X155277104Y-104333428D01*
X155202853Y-104512686D01*
X155165000Y-104702986D01*
X151085000Y-104702986D01*
X151047147Y-104512686D01*
X150972896Y-104333428D01*
X150865099Y-104172099D01*
X150727901Y-104034901D01*
X150566572Y-103927104D01*
X150387314Y-103852853D01*
X150197014Y-103815000D01*
X150002986Y-103815000D01*
X149812686Y-103852853D01*
X149633428Y-103927104D01*
X149472099Y-104034901D01*
X149334901Y-104172099D01*
X149227104Y-104333428D01*
X149152853Y-104512686D01*
X149115000Y-104702986D01*
X129108346Y-104702986D01*
X128987314Y-104652853D01*
X128797014Y-104615000D01*
X128602986Y-104615000D01*
X128412686Y-104652853D01*
X128233428Y-104727104D01*
X128072099Y-104834901D01*
X127934901Y-104972099D01*
X127827104Y-105133428D01*
X127752853Y-105312686D01*
X127715000Y-105502986D01*
X119660000Y-105502986D01*
X119660000Y-103188212D01*
X122565000Y-103188212D01*
X122565000Y-103411788D01*
X122608617Y-103631067D01*
X122694176Y-103837624D01*
X122818388Y-104023520D01*
X122976480Y-104181612D01*
X123162376Y-104305824D01*
X123368933Y-104391383D01*
X123588212Y-104435000D01*
X123811788Y-104435000D01*
X124031067Y-104391383D01*
X124237624Y-104305824D01*
X124423520Y-104181612D01*
X124581612Y-104023520D01*
X124705824Y-103837624D01*
X124791383Y-103631067D01*
X124835000Y-103411788D01*
X124835000Y-103188212D01*
X124791383Y-102968933D01*
X124705824Y-102762376D01*
X124581612Y-102576480D01*
X124508118Y-102502986D01*
X140215000Y-102502986D01*
X140215000Y-102697014D01*
X140252853Y-102887314D01*
X140327104Y-103066572D01*
X140434901Y-103227901D01*
X140572099Y-103365099D01*
X140733428Y-103472896D01*
X140912686Y-103547147D01*
X141102986Y-103585000D01*
X141297014Y-103585000D01*
X141487314Y-103547147D01*
X141666572Y-103472896D01*
X141827901Y-103365099D01*
X141965099Y-103227901D01*
X142072896Y-103066572D01*
X142147147Y-102887314D01*
X142185000Y-102697014D01*
X142185000Y-102502986D01*
X142147147Y-102312686D01*
X142072896Y-102133428D01*
X141965099Y-101972099D01*
X141827901Y-101834901D01*
X141666572Y-101727104D01*
X141487314Y-101652853D01*
X141297014Y-101615000D01*
X141102986Y-101615000D01*
X140912686Y-101652853D01*
X140733428Y-101727104D01*
X140572099Y-101834901D01*
X140434901Y-101972099D01*
X140327104Y-102133428D01*
X140252853Y-102312686D01*
X140215000Y-102502986D01*
X124508118Y-102502986D01*
X124423520Y-102418388D01*
X124237624Y-102294176D01*
X124031067Y-102208617D01*
X123811788Y-102165000D01*
X123588212Y-102165000D01*
X123368933Y-102208617D01*
X123162376Y-102294176D01*
X122976480Y-102418388D01*
X122818388Y-102576480D01*
X122694176Y-102762376D01*
X122608617Y-102968933D01*
X122565000Y-103188212D01*
X119660000Y-103188212D01*
X119660000Y-101202986D01*
X142715000Y-101202986D01*
X142715000Y-101397014D01*
X142752853Y-101587314D01*
X142827104Y-101766572D01*
X142934901Y-101927901D01*
X143072099Y-102065099D01*
X143233428Y-102172896D01*
X143412686Y-102247147D01*
X143602986Y-102285000D01*
X143797014Y-102285000D01*
X143987314Y-102247147D01*
X144166572Y-102172896D01*
X144271199Y-102102986D01*
X145015000Y-102102986D01*
X145015000Y-102297014D01*
X145052853Y-102487314D01*
X145127104Y-102666572D01*
X145234901Y-102827901D01*
X145372099Y-102965099D01*
X145533428Y-103072896D01*
X145712686Y-103147147D01*
X145902986Y-103185000D01*
X146097014Y-103185000D01*
X146287314Y-103147147D01*
X146466572Y-103072896D01*
X146627901Y-102965099D01*
X146765099Y-102827901D01*
X146872896Y-102666572D01*
X146947147Y-102487314D01*
X146985000Y-102297014D01*
X146985000Y-102102986D01*
X146947147Y-101912686D01*
X146872896Y-101733428D01*
X146765099Y-101572099D01*
X146627901Y-101434901D01*
X146466572Y-101327104D01*
X146287314Y-101252853D01*
X146097014Y-101215000D01*
X145902986Y-101215000D01*
X145712686Y-101252853D01*
X145533428Y-101327104D01*
X145372099Y-101434901D01*
X145234901Y-101572099D01*
X145127104Y-101733428D01*
X145052853Y-101912686D01*
X145015000Y-102102986D01*
X144271199Y-102102986D01*
X144327901Y-102065099D01*
X144465099Y-101927901D01*
X144572896Y-101766572D01*
X144647147Y-101587314D01*
X144685000Y-101397014D01*
X144685000Y-101202986D01*
X162515000Y-101202986D01*
X162515000Y-101397014D01*
X162552853Y-101587314D01*
X162627104Y-101766572D01*
X162734901Y-101927901D01*
X162872099Y-102065099D01*
X163011662Y-102158352D01*
X162897099Y-102234901D01*
X162759901Y-102372099D01*
X162652104Y-102533428D01*
X162577853Y-102712686D01*
X162540000Y-102902986D01*
X162540000Y-103097014D01*
X162577853Y-103287314D01*
X162652104Y-103466572D01*
X162759901Y-103627901D01*
X162897099Y-103765099D01*
X163058428Y-103872896D01*
X163237686Y-103947147D01*
X163427986Y-103985000D01*
X163622014Y-103985000D01*
X163812314Y-103947147D01*
X163991572Y-103872896D01*
X164152901Y-103765099D01*
X164290099Y-103627901D01*
X164397896Y-103466572D01*
X164472147Y-103287314D01*
X164510000Y-103097014D01*
X164510000Y-102902986D01*
X164472147Y-102712686D01*
X164397896Y-102533428D01*
X164290099Y-102372099D01*
X164152901Y-102234901D01*
X164013338Y-102141648D01*
X164127901Y-102065099D01*
X164265099Y-101927901D01*
X164372896Y-101766572D01*
X164447147Y-101587314D01*
X164485000Y-101397014D01*
X164485000Y-101202986D01*
X164447147Y-101012686D01*
X164432736Y-100977894D01*
X164587314Y-100947147D01*
X164766572Y-100872896D01*
X164927901Y-100765099D01*
X165065099Y-100627901D01*
X165172896Y-100466572D01*
X165247147Y-100287314D01*
X165285000Y-100097014D01*
X165285000Y-99902986D01*
X165247147Y-99712686D01*
X165172896Y-99533428D01*
X165065099Y-99372099D01*
X164927901Y-99234901D01*
X164880138Y-99202986D01*
X187015000Y-99202986D01*
X187015000Y-99397014D01*
X187052853Y-99587314D01*
X187127104Y-99766572D01*
X187149440Y-99800000D01*
X187127104Y-99833428D01*
X187052853Y-100012686D01*
X187015000Y-100202986D01*
X187015000Y-100397014D01*
X187052853Y-100587314D01*
X187127104Y-100766572D01*
X187149440Y-100800000D01*
X187127104Y-100833428D01*
X187052853Y-101012686D01*
X187015000Y-101202986D01*
X187015000Y-101397014D01*
X187052853Y-101587314D01*
X187127104Y-101766572D01*
X187149440Y-101800000D01*
X187127104Y-101833428D01*
X187052853Y-102012686D01*
X187015000Y-102202986D01*
X187015000Y-102397014D01*
X187052853Y-102587314D01*
X187127104Y-102766572D01*
X187149440Y-102800000D01*
X187127104Y-102833428D01*
X187052853Y-103012686D01*
X187015000Y-103202986D01*
X187015000Y-103397014D01*
X187052853Y-103587314D01*
X187127104Y-103766572D01*
X187234901Y-103927901D01*
X187372099Y-104065099D01*
X187533428Y-104172896D01*
X187712686Y-104247147D01*
X187902986Y-104285000D01*
X188097014Y-104285000D01*
X188287314Y-104247147D01*
X188466572Y-104172896D01*
X188500000Y-104150560D01*
X188533428Y-104172896D01*
X188712686Y-104247147D01*
X188902986Y-104285000D01*
X189097014Y-104285000D01*
X189287314Y-104247147D01*
X189466572Y-104172896D01*
X189627901Y-104065099D01*
X189765099Y-103927901D01*
X189872896Y-103766572D01*
X189947147Y-103587314D01*
X189985000Y-103397014D01*
X189985000Y-103202986D01*
X189947147Y-103012686D01*
X189872896Y-102833428D01*
X189850560Y-102800000D01*
X189872896Y-102766572D01*
X189947147Y-102587314D01*
X189985000Y-102397014D01*
X189985000Y-102202986D01*
X189947147Y-102012686D01*
X189872896Y-101833428D01*
X189850560Y-101800000D01*
X189872896Y-101766572D01*
X189947147Y-101587314D01*
X189985000Y-101397014D01*
X189985000Y-101202986D01*
X189947147Y-101012686D01*
X189872896Y-100833428D01*
X189850560Y-100800000D01*
X189872896Y-100766572D01*
X189947147Y-100587314D01*
X189985000Y-100397014D01*
X189985000Y-100202986D01*
X189947147Y-100012686D01*
X189872896Y-99833428D01*
X189850560Y-99800000D01*
X189872896Y-99766572D01*
X189947147Y-99587314D01*
X189985000Y-99397014D01*
X189985000Y-99202986D01*
X189947147Y-99012686D01*
X189872896Y-98833428D01*
X189765099Y-98672099D01*
X189627901Y-98534901D01*
X189466572Y-98427104D01*
X189287314Y-98352853D01*
X189097014Y-98315000D01*
X188902986Y-98315000D01*
X188712686Y-98352853D01*
X188533428Y-98427104D01*
X188500000Y-98449440D01*
X188466572Y-98427104D01*
X188287314Y-98352853D01*
X188097014Y-98315000D01*
X187902986Y-98315000D01*
X187712686Y-98352853D01*
X187533428Y-98427104D01*
X187372099Y-98534901D01*
X187234901Y-98672099D01*
X187127104Y-98833428D01*
X187052853Y-99012686D01*
X187015000Y-99202986D01*
X164880138Y-99202986D01*
X164766572Y-99127104D01*
X164587314Y-99052853D01*
X164397014Y-99015000D01*
X164202986Y-99015000D01*
X164012686Y-99052853D01*
X163833428Y-99127104D01*
X163672099Y-99234901D01*
X163534901Y-99372099D01*
X163427104Y-99533428D01*
X163352853Y-99712686D01*
X163315000Y-99902986D01*
X163315000Y-100097014D01*
X163352853Y-100287314D01*
X163367264Y-100322106D01*
X163212686Y-100352853D01*
X163033428Y-100427104D01*
X162872099Y-100534901D01*
X162734901Y-100672099D01*
X162627104Y-100833428D01*
X162552853Y-101012686D01*
X162515000Y-101202986D01*
X144685000Y-101202986D01*
X144647147Y-101012686D01*
X144572896Y-100833428D01*
X144465099Y-100672099D01*
X144327901Y-100534901D01*
X144166572Y-100427104D01*
X143987314Y-100352853D01*
X143797014Y-100315000D01*
X143602986Y-100315000D01*
X143412686Y-100352853D01*
X143233428Y-100427104D01*
X143072099Y-100534901D01*
X142934901Y-100672099D01*
X142827104Y-100833428D01*
X142752853Y-101012686D01*
X142715000Y-101202986D01*
X119660000Y-101202986D01*
X119660000Y-98788212D01*
X122565000Y-98788212D01*
X122565000Y-99011788D01*
X122608617Y-99231067D01*
X122694176Y-99437624D01*
X122818388Y-99623520D01*
X122976480Y-99781612D01*
X123162376Y-99905824D01*
X123368933Y-99991383D01*
X123588212Y-100035000D01*
X123811788Y-100035000D01*
X124031067Y-99991383D01*
X124237624Y-99905824D01*
X124423520Y-99781612D01*
X124581612Y-99623520D01*
X124705824Y-99437624D01*
X124791383Y-99231067D01*
X124816859Y-99102986D01*
X132815000Y-99102986D01*
X132815000Y-99297014D01*
X132852853Y-99487314D01*
X132927104Y-99666572D01*
X133034901Y-99827901D01*
X133172099Y-99965099D01*
X133333428Y-100072896D01*
X133512686Y-100147147D01*
X133702986Y-100185000D01*
X133897014Y-100185000D01*
X134087314Y-100147147D01*
X134266572Y-100072896D01*
X134427901Y-99965099D01*
X134565099Y-99827901D01*
X134672896Y-99666572D01*
X134747147Y-99487314D01*
X134785000Y-99297014D01*
X134785000Y-99102986D01*
X134747147Y-98912686D01*
X134672896Y-98733428D01*
X134565099Y-98572099D01*
X134427901Y-98434901D01*
X134266572Y-98327104D01*
X134208346Y-98302986D01*
X134915000Y-98302986D01*
X134915000Y-98497014D01*
X134952853Y-98687314D01*
X135027104Y-98866572D01*
X135134901Y-99027901D01*
X135272099Y-99165099D01*
X135433428Y-99272896D01*
X135612686Y-99347147D01*
X135802986Y-99385000D01*
X135997014Y-99385000D01*
X136187314Y-99347147D01*
X136366572Y-99272896D01*
X136527901Y-99165099D01*
X136665099Y-99027901D01*
X136772896Y-98866572D01*
X136799234Y-98802986D01*
X138715000Y-98802986D01*
X138715000Y-98997014D01*
X138752853Y-99187314D01*
X138827104Y-99366572D01*
X138934901Y-99527901D01*
X139072099Y-99665099D01*
X139233428Y-99772896D01*
X139412686Y-99847147D01*
X139602986Y-99885000D01*
X139797014Y-99885000D01*
X139987314Y-99847147D01*
X140166572Y-99772896D01*
X140327901Y-99665099D01*
X140465099Y-99527901D01*
X140572896Y-99366572D01*
X140647147Y-99187314D01*
X140685000Y-98997014D01*
X140685000Y-98802986D01*
X140647147Y-98612686D01*
X140572896Y-98433428D01*
X140465099Y-98272099D01*
X140327901Y-98134901D01*
X140166572Y-98027104D01*
X139987314Y-97952853D01*
X139797014Y-97915000D01*
X139602986Y-97915000D01*
X139412686Y-97952853D01*
X139233428Y-98027104D01*
X139072099Y-98134901D01*
X138934901Y-98272099D01*
X138827104Y-98433428D01*
X138752853Y-98612686D01*
X138715000Y-98802986D01*
X136799234Y-98802986D01*
X136847147Y-98687314D01*
X136885000Y-98497014D01*
X136885000Y-98302986D01*
X136847147Y-98112686D01*
X136772896Y-97933428D01*
X136665099Y-97772099D01*
X136527901Y-97634901D01*
X136480138Y-97602986D01*
X147015000Y-97602986D01*
X147015000Y-97797014D01*
X147052853Y-97987314D01*
X147127104Y-98166572D01*
X147234901Y-98327901D01*
X147372099Y-98465099D01*
X147533428Y-98572896D01*
X147712686Y-98647147D01*
X147902986Y-98685000D01*
X148097014Y-98685000D01*
X148287314Y-98647147D01*
X148466572Y-98572896D01*
X148627901Y-98465099D01*
X148765099Y-98327901D01*
X148872896Y-98166572D01*
X148938086Y-98009190D01*
X149033428Y-98072896D01*
X149212686Y-98147147D01*
X149402986Y-98185000D01*
X149597014Y-98185000D01*
X149787314Y-98147147D01*
X149966572Y-98072896D01*
X150127901Y-97965099D01*
X150265099Y-97827901D01*
X150372896Y-97666572D01*
X150440655Y-97502986D01*
X156265000Y-97502986D01*
X156265000Y-97697014D01*
X156302853Y-97887314D01*
X156377104Y-98066572D01*
X156484901Y-98227901D01*
X156622099Y-98365099D01*
X156783428Y-98472896D01*
X156962686Y-98547147D01*
X157152986Y-98585000D01*
X157347014Y-98585000D01*
X157537314Y-98547147D01*
X157716572Y-98472896D01*
X157877901Y-98365099D01*
X158015099Y-98227901D01*
X158122896Y-98066572D01*
X158197147Y-97887314D01*
X158235000Y-97697014D01*
X158235000Y-97502986D01*
X158197147Y-97312686D01*
X158122896Y-97133428D01*
X158015099Y-96972099D01*
X157877901Y-96834901D01*
X157716572Y-96727104D01*
X157537314Y-96652853D01*
X157347014Y-96615000D01*
X157152986Y-96615000D01*
X156962686Y-96652853D01*
X156783428Y-96727104D01*
X156622099Y-96834901D01*
X156484901Y-96972099D01*
X156377104Y-97133428D01*
X156302853Y-97312686D01*
X156265000Y-97502986D01*
X150440655Y-97502986D01*
X150447147Y-97487314D01*
X150485000Y-97297014D01*
X150485000Y-97102986D01*
X150447147Y-96912686D01*
X150372896Y-96733428D01*
X150265099Y-96572099D01*
X150127901Y-96434901D01*
X149966572Y-96327104D01*
X149787314Y-96252853D01*
X149597014Y-96215000D01*
X149402986Y-96215000D01*
X149212686Y-96252853D01*
X149033428Y-96327104D01*
X148872099Y-96434901D01*
X148734901Y-96572099D01*
X148627104Y-96733428D01*
X148561914Y-96890810D01*
X148466572Y-96827104D01*
X148287314Y-96752853D01*
X148097014Y-96715000D01*
X147902986Y-96715000D01*
X147712686Y-96752853D01*
X147533428Y-96827104D01*
X147372099Y-96934901D01*
X147234901Y-97072099D01*
X147127104Y-97233428D01*
X147052853Y-97412686D01*
X147015000Y-97602986D01*
X136480138Y-97602986D01*
X136366572Y-97527104D01*
X136187314Y-97452853D01*
X135997014Y-97415000D01*
X135802986Y-97415000D01*
X135612686Y-97452853D01*
X135433428Y-97527104D01*
X135272099Y-97634901D01*
X135134901Y-97772099D01*
X135027104Y-97933428D01*
X134952853Y-98112686D01*
X134915000Y-98302986D01*
X134208346Y-98302986D01*
X134087314Y-98252853D01*
X133897014Y-98215000D01*
X133702986Y-98215000D01*
X133512686Y-98252853D01*
X133333428Y-98327104D01*
X133172099Y-98434901D01*
X133034901Y-98572099D01*
X132927104Y-98733428D01*
X132852853Y-98912686D01*
X132815000Y-99102986D01*
X124816859Y-99102986D01*
X124835000Y-99011788D01*
X124835000Y-98788212D01*
X124791383Y-98568933D01*
X124705824Y-98362376D01*
X124581612Y-98176480D01*
X124423520Y-98018388D01*
X124237624Y-97894176D01*
X124031067Y-97808617D01*
X123811788Y-97765000D01*
X123588212Y-97765000D01*
X123368933Y-97808617D01*
X123162376Y-97894176D01*
X122976480Y-98018388D01*
X122818388Y-98176480D01*
X122694176Y-98362376D01*
X122608617Y-98568933D01*
X122565000Y-98788212D01*
X119660000Y-98788212D01*
X119660000Y-96112986D01*
X129105000Y-96112986D01*
X129105000Y-96307014D01*
X129142853Y-96497314D01*
X129217104Y-96676572D01*
X129324901Y-96837901D01*
X129462099Y-96975099D01*
X129623428Y-97082896D01*
X129802686Y-97157147D01*
X129992986Y-97195000D01*
X130187014Y-97195000D01*
X130377314Y-97157147D01*
X130556572Y-97082896D01*
X130717901Y-96975099D01*
X130855099Y-96837901D01*
X130962896Y-96676572D01*
X131037147Y-96497314D01*
X131075000Y-96307014D01*
X131075000Y-96112986D01*
X131037147Y-95922686D01*
X131028988Y-95902986D01*
X161615000Y-95902986D01*
X161615000Y-96097014D01*
X161652853Y-96287314D01*
X161727104Y-96466572D01*
X161834901Y-96627901D01*
X161972099Y-96765099D01*
X162133428Y-96872896D01*
X162312686Y-96947147D01*
X162415000Y-96967499D01*
X162415000Y-96997014D01*
X162452853Y-97187314D01*
X162527104Y-97366572D01*
X162634901Y-97527901D01*
X162772099Y-97665099D01*
X162933428Y-97772896D01*
X163112686Y-97847147D01*
X163302986Y-97885000D01*
X163497014Y-97885000D01*
X163687314Y-97847147D01*
X163866572Y-97772896D01*
X164027901Y-97665099D01*
X164165099Y-97527901D01*
X164272896Y-97366572D01*
X164347147Y-97187314D01*
X164385000Y-96997014D01*
X164385000Y-96802986D01*
X164347147Y-96612686D01*
X164272896Y-96433428D01*
X164165099Y-96272099D01*
X164027901Y-96134901D01*
X163866572Y-96027104D01*
X163687314Y-95952853D01*
X163585000Y-95932501D01*
X163585000Y-95902986D01*
X163547147Y-95712686D01*
X163472896Y-95533428D01*
X163365099Y-95372099D01*
X163295986Y-95302986D01*
X176315000Y-95302986D01*
X176315000Y-95497014D01*
X176352853Y-95687314D01*
X176427104Y-95866572D01*
X176449440Y-95900000D01*
X176427104Y-95933428D01*
X176352853Y-96112686D01*
X176315000Y-96302986D01*
X176315000Y-96497014D01*
X176352853Y-96687314D01*
X176427104Y-96866572D01*
X176534901Y-97027901D01*
X176672099Y-97165099D01*
X176833428Y-97272896D01*
X177012686Y-97347147D01*
X177202986Y-97385000D01*
X177397014Y-97385000D01*
X177587314Y-97347147D01*
X177766572Y-97272896D01*
X177927901Y-97165099D01*
X178065099Y-97027901D01*
X178172896Y-96866572D01*
X178247147Y-96687314D01*
X178285000Y-96497014D01*
X178285000Y-96402986D01*
X197415000Y-96402986D01*
X197415000Y-96597014D01*
X197452853Y-96787314D01*
X197527104Y-96966572D01*
X197634901Y-97127901D01*
X197772099Y-97265099D01*
X197933428Y-97372896D01*
X198112686Y-97447147D01*
X198302986Y-97485000D01*
X198497014Y-97485000D01*
X198687314Y-97447147D01*
X198866572Y-97372896D01*
X199027901Y-97265099D01*
X199165099Y-97127901D01*
X199272896Y-96966572D01*
X199347147Y-96787314D01*
X199385000Y-96597014D01*
X199385000Y-96402986D01*
X199347147Y-96212686D01*
X199272896Y-96033428D01*
X199165099Y-95872099D01*
X199027901Y-95734901D01*
X198866572Y-95627104D01*
X198687314Y-95552853D01*
X198497014Y-95515000D01*
X198302986Y-95515000D01*
X198112686Y-95552853D01*
X197933428Y-95627104D01*
X197772099Y-95734901D01*
X197634901Y-95872099D01*
X197527104Y-96033428D01*
X197452853Y-96212686D01*
X197415000Y-96402986D01*
X178285000Y-96402986D01*
X178285000Y-96302986D01*
X178247147Y-96112686D01*
X178172896Y-95933428D01*
X178150560Y-95900000D01*
X178172896Y-95866572D01*
X178247147Y-95687314D01*
X178285000Y-95497014D01*
X178285000Y-95302986D01*
X178247147Y-95112686D01*
X178172896Y-94933428D01*
X178065099Y-94772099D01*
X177927901Y-94634901D01*
X177766572Y-94527104D01*
X177587314Y-94452853D01*
X177397014Y-94415000D01*
X177202986Y-94415000D01*
X177012686Y-94452853D01*
X176833428Y-94527104D01*
X176672099Y-94634901D01*
X176534901Y-94772099D01*
X176427104Y-94933428D01*
X176352853Y-95112686D01*
X176315000Y-95302986D01*
X163295986Y-95302986D01*
X163227901Y-95234901D01*
X163066572Y-95127104D01*
X162887314Y-95052853D01*
X162697014Y-95015000D01*
X162502986Y-95015000D01*
X162312686Y-95052853D01*
X162133428Y-95127104D01*
X161972099Y-95234901D01*
X161834901Y-95372099D01*
X161727104Y-95533428D01*
X161652853Y-95712686D01*
X161615000Y-95902986D01*
X131028988Y-95902986D01*
X130972641Y-95766954D01*
X130972896Y-95766572D01*
X131047147Y-95587314D01*
X131085000Y-95397014D01*
X131085000Y-95202986D01*
X131047147Y-95012686D01*
X130972896Y-94833428D01*
X130865099Y-94672099D01*
X130727901Y-94534901D01*
X130566572Y-94427104D01*
X130387314Y-94352853D01*
X130197014Y-94315000D01*
X130002986Y-94315000D01*
X129812686Y-94352853D01*
X129633428Y-94427104D01*
X129472099Y-94534901D01*
X129334901Y-94672099D01*
X129227104Y-94833428D01*
X129152853Y-95012686D01*
X129115000Y-95202986D01*
X129115000Y-95397014D01*
X129152853Y-95587314D01*
X129217359Y-95743046D01*
X129217104Y-95743428D01*
X129142853Y-95922686D01*
X129105000Y-96112986D01*
X119660000Y-96112986D01*
X119660000Y-94302986D01*
X135015000Y-94302986D01*
X135015000Y-94497014D01*
X135052853Y-94687314D01*
X135127104Y-94866572D01*
X135234901Y-95027901D01*
X135372099Y-95165099D01*
X135533428Y-95272896D01*
X135712686Y-95347147D01*
X135902986Y-95385000D01*
X136097014Y-95385000D01*
X136287314Y-95347147D01*
X136466572Y-95272896D01*
X136627901Y-95165099D01*
X136765099Y-95027901D01*
X136872896Y-94866572D01*
X136947147Y-94687314D01*
X136985000Y-94497014D01*
X136985000Y-94302986D01*
X138615000Y-94302986D01*
X138615000Y-94497014D01*
X138652853Y-94687314D01*
X138727104Y-94866572D01*
X138834901Y-95027901D01*
X138972099Y-95165099D01*
X139133428Y-95272896D01*
X139312686Y-95347147D01*
X139502986Y-95385000D01*
X139697014Y-95385000D01*
X139887314Y-95347147D01*
X140066572Y-95272896D01*
X140150000Y-95217151D01*
X140233428Y-95272896D01*
X140412686Y-95347147D01*
X140602986Y-95385000D01*
X140797014Y-95385000D01*
X140987314Y-95347147D01*
X141166572Y-95272896D01*
X141327901Y-95165099D01*
X141465099Y-95027901D01*
X141572896Y-94866572D01*
X141647147Y-94687314D01*
X141685000Y-94497014D01*
X141685000Y-94302986D01*
X141647147Y-94112686D01*
X141572896Y-93933428D01*
X141465099Y-93772099D01*
X141327901Y-93634901D01*
X141166572Y-93527104D01*
X140987314Y-93452853D01*
X140797014Y-93415000D01*
X140602986Y-93415000D01*
X140412686Y-93452853D01*
X140233428Y-93527104D01*
X140150000Y-93582849D01*
X140066572Y-93527104D01*
X139887314Y-93452853D01*
X139697014Y-93415000D01*
X139502986Y-93415000D01*
X139312686Y-93452853D01*
X139133428Y-93527104D01*
X138972099Y-93634901D01*
X138834901Y-93772099D01*
X138727104Y-93933428D01*
X138652853Y-94112686D01*
X138615000Y-94302986D01*
X136985000Y-94302986D01*
X136947147Y-94112686D01*
X136872896Y-93933428D01*
X136765099Y-93772099D01*
X136627901Y-93634901D01*
X136466572Y-93527104D01*
X136287314Y-93452853D01*
X136097014Y-93415000D01*
X135902986Y-93415000D01*
X135712686Y-93452853D01*
X135533428Y-93527104D01*
X135372099Y-93634901D01*
X135234901Y-93772099D01*
X135127104Y-93933428D01*
X135052853Y-94112686D01*
X135015000Y-94302986D01*
X119660000Y-94302986D01*
X119660000Y-92084740D01*
X124108964Y-92084740D01*
X124133245Y-92190087D01*
X124253138Y-92467204D01*
X124424790Y-92715606D01*
X124641604Y-92925748D01*
X124895249Y-93089554D01*
X125175977Y-93200729D01*
X125473000Y-93255000D01*
X126373000Y-93255000D01*
X126373000Y-91847000D01*
X126627000Y-91847000D01*
X126627000Y-93255000D01*
X127527000Y-93255000D01*
X127824023Y-93200729D01*
X128104751Y-93089554D01*
X128358396Y-92925748D01*
X128575210Y-92715606D01*
X128746862Y-92467204D01*
X128861174Y-92202986D01*
X134315000Y-92202986D01*
X134315000Y-92397014D01*
X134352853Y-92587314D01*
X134427104Y-92766572D01*
X134534901Y-92927901D01*
X134672099Y-93065099D01*
X134833428Y-93172896D01*
X135012686Y-93247147D01*
X135202986Y-93285000D01*
X135397014Y-93285000D01*
X135587314Y-93247147D01*
X135693928Y-93202986D01*
X161515000Y-93202986D01*
X161515000Y-93397014D01*
X161552853Y-93587314D01*
X161627104Y-93766572D01*
X161734901Y-93927901D01*
X161872099Y-94065099D01*
X162033428Y-94172896D01*
X162212686Y-94247147D01*
X162402986Y-94285000D01*
X162597014Y-94285000D01*
X162787314Y-94247147D01*
X162966572Y-94172896D01*
X163127901Y-94065099D01*
X163265099Y-93927901D01*
X163372896Y-93766572D01*
X163447147Y-93587314D01*
X163485000Y-93397014D01*
X163485000Y-93202986D01*
X163447147Y-93012686D01*
X163372896Y-92833428D01*
X163265099Y-92672099D01*
X163127901Y-92534901D01*
X162966572Y-92427104D01*
X162787314Y-92352853D01*
X162597014Y-92315000D01*
X162402986Y-92315000D01*
X162212686Y-92352853D01*
X162033428Y-92427104D01*
X161872099Y-92534901D01*
X161734901Y-92672099D01*
X161627104Y-92833428D01*
X161552853Y-93012686D01*
X161515000Y-93202986D01*
X135693928Y-93202986D01*
X135766572Y-93172896D01*
X135927901Y-93065099D01*
X136065099Y-92927901D01*
X136172896Y-92766572D01*
X136247147Y-92587314D01*
X136285000Y-92397014D01*
X136285000Y-92202986D01*
X136247147Y-92012686D01*
X136243130Y-92002986D01*
X140915000Y-92002986D01*
X140915000Y-92197014D01*
X140952853Y-92387314D01*
X141027104Y-92566572D01*
X141134901Y-92727901D01*
X141272099Y-92865099D01*
X141433428Y-92972896D01*
X141612686Y-93047147D01*
X141802986Y-93085000D01*
X141997014Y-93085000D01*
X142187314Y-93047147D01*
X142366572Y-92972896D01*
X142527901Y-92865099D01*
X142665099Y-92727901D01*
X142772896Y-92566572D01*
X142847147Y-92387314D01*
X142863920Y-92302986D01*
X164915000Y-92302986D01*
X164915000Y-92497014D01*
X164952853Y-92687314D01*
X165027104Y-92866572D01*
X165134901Y-93027901D01*
X165272099Y-93165099D01*
X165433428Y-93272896D01*
X165612686Y-93347147D01*
X165802986Y-93385000D01*
X165997014Y-93385000D01*
X166187314Y-93347147D01*
X166366572Y-93272896D01*
X166527901Y-93165099D01*
X166665099Y-93027901D01*
X166772896Y-92866572D01*
X166807552Y-92782904D01*
X166987314Y-92747147D01*
X167166572Y-92672896D01*
X167327901Y-92565099D01*
X167465099Y-92427901D01*
X167572896Y-92266572D01*
X167647147Y-92087314D01*
X167685000Y-91897014D01*
X167685000Y-91702986D01*
X167647147Y-91512686D01*
X167626561Y-91462986D01*
X172855000Y-91462986D01*
X172855000Y-91657014D01*
X172892853Y-91847314D01*
X172967104Y-92026572D01*
X173056258Y-92160000D01*
X172967104Y-92293428D01*
X172892853Y-92472686D01*
X172855000Y-92662986D01*
X172855000Y-92857014D01*
X172892853Y-93047314D01*
X172967104Y-93226572D01*
X173074901Y-93387901D01*
X173212099Y-93525099D01*
X173373428Y-93632896D01*
X173552686Y-93707147D01*
X173742986Y-93745000D01*
X173937014Y-93745000D01*
X174127314Y-93707147D01*
X174306572Y-93632896D01*
X174467901Y-93525099D01*
X174605099Y-93387901D01*
X174683257Y-93270930D01*
X174655000Y-93412986D01*
X174655000Y-93607014D01*
X174692853Y-93797314D01*
X174767104Y-93976572D01*
X174874901Y-94137901D01*
X175012099Y-94275099D01*
X175173428Y-94382896D01*
X175352686Y-94457147D01*
X175542986Y-94495000D01*
X175737014Y-94495000D01*
X175927314Y-94457147D01*
X176106572Y-94382896D01*
X176267901Y-94275099D01*
X176405099Y-94137901D01*
X176512896Y-93976572D01*
X176587147Y-93797314D01*
X176625000Y-93607014D01*
X176625000Y-93412986D01*
X176587147Y-93222686D01*
X176512896Y-93043428D01*
X176405099Y-92882099D01*
X176267901Y-92744901D01*
X176106572Y-92637104D01*
X175927314Y-92562853D01*
X175737014Y-92525000D01*
X175542986Y-92525000D01*
X175352686Y-92562853D01*
X175173428Y-92637104D01*
X175012099Y-92744901D01*
X174874901Y-92882099D01*
X174796743Y-92999070D01*
X174825000Y-92857014D01*
X174825000Y-92662986D01*
X174787147Y-92472686D01*
X174712896Y-92293428D01*
X174623742Y-92160000D01*
X174712896Y-92026572D01*
X174728878Y-91987986D01*
X179765000Y-91987986D01*
X179765000Y-92182014D01*
X179802853Y-92372314D01*
X179877104Y-92551572D01*
X179984901Y-92712901D01*
X180122099Y-92850099D01*
X180283428Y-92957896D01*
X180462686Y-93032147D01*
X180652986Y-93070000D01*
X180847014Y-93070000D01*
X180920364Y-93055410D01*
X180902853Y-93097686D01*
X180865000Y-93287986D01*
X180865000Y-93482014D01*
X180902853Y-93672314D01*
X180977104Y-93851572D01*
X181084901Y-94012901D01*
X181222099Y-94150099D01*
X181383428Y-94257896D01*
X181562686Y-94332147D01*
X181752986Y-94370000D01*
X181947014Y-94370000D01*
X182137314Y-94332147D01*
X182250000Y-94285471D01*
X182362686Y-94332147D01*
X182552986Y-94370000D01*
X182747014Y-94370000D01*
X182937314Y-94332147D01*
X183116572Y-94257896D01*
X183277901Y-94150099D01*
X183415099Y-94012901D01*
X183522896Y-93851572D01*
X183597147Y-93672314D01*
X183635000Y-93482014D01*
X183635000Y-93287986D01*
X183597147Y-93097686D01*
X183522896Y-92918428D01*
X183415099Y-92757099D01*
X183277901Y-92619901D01*
X183116572Y-92512104D01*
X182937314Y-92437853D01*
X182747014Y-92400000D01*
X182552986Y-92400000D01*
X182362686Y-92437853D01*
X182250000Y-92484529D01*
X182137314Y-92437853D01*
X181947014Y-92400000D01*
X181752986Y-92400000D01*
X181679636Y-92414590D01*
X181697147Y-92372314D01*
X181735000Y-92182014D01*
X181735000Y-92102986D01*
X186815000Y-92102986D01*
X186815000Y-92297014D01*
X186852853Y-92487314D01*
X186927104Y-92666572D01*
X187034901Y-92827901D01*
X187172099Y-92965099D01*
X187333428Y-93072896D01*
X187512686Y-93147147D01*
X187702986Y-93185000D01*
X187897014Y-93185000D01*
X188087314Y-93147147D01*
X188266572Y-93072896D01*
X188427901Y-92965099D01*
X188565099Y-92827901D01*
X188672896Y-92666572D01*
X188747147Y-92487314D01*
X188785000Y-92297014D01*
X188785000Y-92102986D01*
X188747147Y-91912686D01*
X188721182Y-91850000D01*
X191661928Y-91850000D01*
X191661928Y-93150000D01*
X191678992Y-93323254D01*
X191729528Y-93489850D01*
X191811595Y-93643386D01*
X191922038Y-93777962D01*
X192056614Y-93888405D01*
X192210150Y-93970472D01*
X192376746Y-94021008D01*
X192550000Y-94038072D01*
X195650000Y-94038072D01*
X195823254Y-94021008D01*
X195989850Y-93970472D01*
X196143386Y-93888405D01*
X196247414Y-93803032D01*
X196227104Y-93833428D01*
X196152853Y-94012686D01*
X196115000Y-94202986D01*
X196115000Y-94397014D01*
X196152853Y-94587314D01*
X196227104Y-94766572D01*
X196334901Y-94927901D01*
X196472099Y-95065099D01*
X196633428Y-95172896D01*
X196812686Y-95247147D01*
X197002986Y-95285000D01*
X197197014Y-95285000D01*
X197387314Y-95247147D01*
X197566572Y-95172896D01*
X197727901Y-95065099D01*
X197865099Y-94927901D01*
X197972896Y-94766572D01*
X198047147Y-94587314D01*
X198085000Y-94397014D01*
X198085000Y-94202986D01*
X198047147Y-94012686D01*
X197972896Y-93833428D01*
X197865099Y-93672099D01*
X197727901Y-93534901D01*
X197566572Y-93427104D01*
X197387314Y-93352853D01*
X197197014Y-93315000D01*
X197002986Y-93315000D01*
X196812686Y-93352853D01*
X196633428Y-93427104D01*
X196472099Y-93534901D01*
X196416872Y-93590128D01*
X196470472Y-93489850D01*
X196521008Y-93323254D01*
X196538072Y-93150000D01*
X196538072Y-91850000D01*
X196521008Y-91676746D01*
X196470472Y-91510150D01*
X196388405Y-91356614D01*
X196277962Y-91222038D01*
X196143386Y-91111595D01*
X195989850Y-91029528D01*
X195823254Y-90978992D01*
X195650000Y-90961928D01*
X192550000Y-90961928D01*
X192376746Y-90978992D01*
X192210150Y-91029528D01*
X192056614Y-91111595D01*
X191922038Y-91222038D01*
X191811595Y-91356614D01*
X191729528Y-91510150D01*
X191678992Y-91676746D01*
X191661928Y-91850000D01*
X188721182Y-91850000D01*
X188672896Y-91733428D01*
X188565099Y-91572099D01*
X188427901Y-91434901D01*
X188266572Y-91327104D01*
X188087314Y-91252853D01*
X187897014Y-91215000D01*
X187702986Y-91215000D01*
X187512686Y-91252853D01*
X187333428Y-91327104D01*
X187172099Y-91434901D01*
X187034901Y-91572099D01*
X186927104Y-91733428D01*
X186852853Y-91912686D01*
X186815000Y-92102986D01*
X181735000Y-92102986D01*
X181735000Y-91987986D01*
X181697147Y-91797686D01*
X181622896Y-91618428D01*
X181515099Y-91457099D01*
X181377901Y-91319901D01*
X181216572Y-91212104D01*
X181037314Y-91137853D01*
X180847014Y-91100000D01*
X180652986Y-91100000D01*
X180462686Y-91137853D01*
X180283428Y-91212104D01*
X180122099Y-91319901D01*
X179984901Y-91457099D01*
X179877104Y-91618428D01*
X179802853Y-91797686D01*
X179765000Y-91987986D01*
X174728878Y-91987986D01*
X174787147Y-91847314D01*
X174825000Y-91657014D01*
X174825000Y-91462986D01*
X174787147Y-91272686D01*
X174712896Y-91093428D01*
X174605099Y-90932099D01*
X174467901Y-90794901D01*
X174306572Y-90687104D01*
X174127314Y-90612853D01*
X173937014Y-90575000D01*
X173742986Y-90575000D01*
X173552686Y-90612853D01*
X173373428Y-90687104D01*
X173212099Y-90794901D01*
X173074901Y-90932099D01*
X172967104Y-91093428D01*
X172892853Y-91272686D01*
X172855000Y-91462986D01*
X167626561Y-91462986D01*
X167572896Y-91333428D01*
X167465099Y-91172099D01*
X167327901Y-91034901D01*
X167166572Y-90927104D01*
X166987314Y-90852853D01*
X166797014Y-90815000D01*
X166602986Y-90815000D01*
X166412686Y-90852853D01*
X166233428Y-90927104D01*
X166072099Y-91034901D01*
X165934901Y-91172099D01*
X165827104Y-91333428D01*
X165792448Y-91417096D01*
X165612686Y-91452853D01*
X165433428Y-91527104D01*
X165272099Y-91634901D01*
X165134901Y-91772099D01*
X165027104Y-91933428D01*
X164952853Y-92112686D01*
X164915000Y-92302986D01*
X142863920Y-92302986D01*
X142885000Y-92197014D01*
X142885000Y-92002986D01*
X142847147Y-91812686D01*
X142772896Y-91633428D01*
X142665099Y-91472099D01*
X142527901Y-91334901D01*
X142366572Y-91227104D01*
X142187314Y-91152853D01*
X141997014Y-91115000D01*
X141802986Y-91115000D01*
X141612686Y-91152853D01*
X141433428Y-91227104D01*
X141272099Y-91334901D01*
X141134901Y-91472099D01*
X141027104Y-91633428D01*
X140952853Y-91812686D01*
X140915000Y-92002986D01*
X136243130Y-92002986D01*
X136172896Y-91833428D01*
X136065099Y-91672099D01*
X135927901Y-91534901D01*
X135766572Y-91427104D01*
X135587314Y-91352853D01*
X135397014Y-91315000D01*
X135202986Y-91315000D01*
X135012686Y-91352853D01*
X134833428Y-91427104D01*
X134672099Y-91534901D01*
X134534901Y-91672099D01*
X134427104Y-91833428D01*
X134352853Y-92012686D01*
X134315000Y-92202986D01*
X128861174Y-92202986D01*
X128866755Y-92190087D01*
X128891036Y-92084740D01*
X128770378Y-91847000D01*
X126627000Y-91847000D01*
X126373000Y-91847000D01*
X124229622Y-91847000D01*
X124108964Y-92084740D01*
X119660000Y-92084740D01*
X119660000Y-91355260D01*
X124108964Y-91355260D01*
X124229622Y-91593000D01*
X126373000Y-91593000D01*
X126373000Y-91573000D01*
X126627000Y-91573000D01*
X126627000Y-91593000D01*
X128770378Y-91593000D01*
X128891036Y-91355260D01*
X128866755Y-91249913D01*
X128746862Y-90972796D01*
X128575210Y-90724394D01*
X128358396Y-90514252D01*
X128340952Y-90502986D01*
X147015000Y-90502986D01*
X147015000Y-90697014D01*
X147052853Y-90887314D01*
X147127104Y-91066572D01*
X147234901Y-91227901D01*
X147372099Y-91365099D01*
X147533428Y-91472896D01*
X147712686Y-91547147D01*
X147902986Y-91585000D01*
X148097014Y-91585000D01*
X148287314Y-91547147D01*
X148466572Y-91472896D01*
X148627901Y-91365099D01*
X148765099Y-91227901D01*
X148872896Y-91066572D01*
X148947147Y-90887314D01*
X148985000Y-90697014D01*
X148985000Y-90502986D01*
X148947147Y-90312686D01*
X148872896Y-90133428D01*
X148765099Y-89972099D01*
X148627901Y-89834901D01*
X148466572Y-89727104D01*
X148287314Y-89652853D01*
X148097014Y-89615000D01*
X147902986Y-89615000D01*
X147712686Y-89652853D01*
X147533428Y-89727104D01*
X147372099Y-89834901D01*
X147234901Y-89972099D01*
X147127104Y-90133428D01*
X147052853Y-90312686D01*
X147015000Y-90502986D01*
X128340952Y-90502986D01*
X128104751Y-90350446D01*
X127824023Y-90239271D01*
X127527000Y-90185000D01*
X125473000Y-90185000D01*
X125175977Y-90239271D01*
X124895249Y-90350446D01*
X124641604Y-90514252D01*
X124424790Y-90724394D01*
X124253138Y-90972796D01*
X124133245Y-91249913D01*
X124108964Y-91355260D01*
X119660000Y-91355260D01*
X119660000Y-87910000D01*
X124057573Y-87910000D01*
X124087210Y-88210913D01*
X124174983Y-88500261D01*
X124317519Y-88766927D01*
X124509339Y-89000661D01*
X124743073Y-89192481D01*
X125009739Y-89335017D01*
X125299087Y-89422790D01*
X125524592Y-89445000D01*
X127475408Y-89445000D01*
X127700913Y-89422790D01*
X127990261Y-89335017D01*
X128256927Y-89192481D01*
X128490661Y-89000661D01*
X128682481Y-88766927D01*
X128825017Y-88500261D01*
X128912790Y-88210913D01*
X128942427Y-87910000D01*
X128912790Y-87609087D01*
X128825017Y-87319739D01*
X128762612Y-87202986D01*
X131315000Y-87202986D01*
X131315000Y-87397014D01*
X131352853Y-87587314D01*
X131427104Y-87766572D01*
X131534901Y-87927901D01*
X131672099Y-88065099D01*
X131833428Y-88172896D01*
X132012686Y-88247147D01*
X132202986Y-88285000D01*
X132397014Y-88285000D01*
X132587314Y-88247147D01*
X132766572Y-88172896D01*
X132927901Y-88065099D01*
X133065099Y-87927901D01*
X133172896Y-87766572D01*
X133247147Y-87587314D01*
X133285000Y-87397014D01*
X133285000Y-87202986D01*
X133247147Y-87012686D01*
X133172896Y-86833428D01*
X133065099Y-86672099D01*
X132927901Y-86534901D01*
X132766572Y-86427104D01*
X132708346Y-86402986D01*
X137715000Y-86402986D01*
X137715000Y-86597014D01*
X137752853Y-86787314D01*
X137827104Y-86966572D01*
X137934901Y-87127901D01*
X138072099Y-87265099D01*
X138233428Y-87372896D01*
X138412686Y-87447147D01*
X138602986Y-87485000D01*
X138797014Y-87485000D01*
X138987314Y-87447147D01*
X139166572Y-87372896D01*
X139327901Y-87265099D01*
X139465099Y-87127901D01*
X139572896Y-86966572D01*
X139647147Y-86787314D01*
X139685000Y-86597014D01*
X139685000Y-86402986D01*
X139647147Y-86212686D01*
X139572896Y-86033428D01*
X139465099Y-85872099D01*
X139327901Y-85734901D01*
X139166572Y-85627104D01*
X138987314Y-85552853D01*
X138797014Y-85515000D01*
X138602986Y-85515000D01*
X138412686Y-85552853D01*
X138233428Y-85627104D01*
X138072099Y-85734901D01*
X137934901Y-85872099D01*
X137827104Y-86033428D01*
X137752853Y-86212686D01*
X137715000Y-86402986D01*
X132708346Y-86402986D01*
X132587314Y-86352853D01*
X132397014Y-86315000D01*
X132202986Y-86315000D01*
X132012686Y-86352853D01*
X131833428Y-86427104D01*
X131672099Y-86534901D01*
X131534901Y-86672099D01*
X131427104Y-86833428D01*
X131352853Y-87012686D01*
X131315000Y-87202986D01*
X128762612Y-87202986D01*
X128682481Y-87053073D01*
X128490661Y-86819339D01*
X128256927Y-86627519D01*
X127990261Y-86484983D01*
X127700913Y-86397210D01*
X127475408Y-86375000D01*
X125524592Y-86375000D01*
X125299087Y-86397210D01*
X125009739Y-86484983D01*
X124743073Y-86627519D01*
X124509339Y-86819339D01*
X124317519Y-87053073D01*
X124174983Y-87319739D01*
X124087210Y-87609087D01*
X124057573Y-87910000D01*
X119660000Y-87910000D01*
X119660000Y-83450000D01*
X124061928Y-83450000D01*
X124061928Y-84750000D01*
X124078992Y-84923254D01*
X124129528Y-85089850D01*
X124211595Y-85243386D01*
X124322038Y-85377962D01*
X124456614Y-85488405D01*
X124610150Y-85570472D01*
X124776746Y-85621008D01*
X124950000Y-85638072D01*
X128050000Y-85638072D01*
X128223254Y-85621008D01*
X128389850Y-85570472D01*
X128543386Y-85488405D01*
X128677962Y-85377962D01*
X128788405Y-85243386D01*
X128870472Y-85089850D01*
X128921008Y-84923254D01*
X128938072Y-84750000D01*
X128938072Y-84402986D01*
X141515000Y-84402986D01*
X141515000Y-84597014D01*
X141552853Y-84787314D01*
X141627104Y-84966572D01*
X141734901Y-85127901D01*
X141872099Y-85265099D01*
X142033428Y-85372896D01*
X142212686Y-85447147D01*
X142402986Y-85485000D01*
X142597014Y-85485000D01*
X142787314Y-85447147D01*
X142966572Y-85372896D01*
X143022642Y-85335431D01*
X143052853Y-85487314D01*
X143127104Y-85666572D01*
X143234901Y-85827901D01*
X143372099Y-85965099D01*
X143533428Y-86072896D01*
X143712686Y-86147147D01*
X143902986Y-86185000D01*
X144097014Y-86185000D01*
X144287314Y-86147147D01*
X144466572Y-86072896D01*
X144627901Y-85965099D01*
X144765099Y-85827901D01*
X144872896Y-85666572D01*
X144947147Y-85487314D01*
X144985000Y-85297014D01*
X144985000Y-85102986D01*
X146365000Y-85102986D01*
X146365000Y-85297014D01*
X146402853Y-85487314D01*
X146477104Y-85666572D01*
X146584901Y-85827901D01*
X146722099Y-85965099D01*
X146865000Y-86060583D01*
X146865000Y-86147014D01*
X146902853Y-86337314D01*
X146977104Y-86516572D01*
X147084901Y-86677901D01*
X147222099Y-86815099D01*
X147383428Y-86922896D01*
X147562686Y-86997147D01*
X147752986Y-87035000D01*
X147947014Y-87035000D01*
X148137314Y-86997147D01*
X148316572Y-86922896D01*
X148477901Y-86815099D01*
X148590014Y-86702986D01*
X157315000Y-86702986D01*
X157315000Y-86897014D01*
X157352853Y-87087314D01*
X157427104Y-87266572D01*
X157534901Y-87427901D01*
X157672099Y-87565099D01*
X157833428Y-87672896D01*
X158012686Y-87747147D01*
X158202986Y-87785000D01*
X158397014Y-87785000D01*
X158587314Y-87747147D01*
X158766572Y-87672896D01*
X158927901Y-87565099D01*
X159065099Y-87427901D01*
X159172896Y-87266572D01*
X159247147Y-87087314D01*
X159285000Y-86897014D01*
X159285000Y-86702986D01*
X159247147Y-86512686D01*
X159172896Y-86333428D01*
X159065099Y-86172099D01*
X158927901Y-86034901D01*
X158766572Y-85927104D01*
X158587314Y-85852853D01*
X158397014Y-85815000D01*
X158202986Y-85815000D01*
X158012686Y-85852853D01*
X157833428Y-85927104D01*
X157672099Y-86034901D01*
X157534901Y-86172099D01*
X157427104Y-86333428D01*
X157352853Y-86512686D01*
X157315000Y-86702986D01*
X148590014Y-86702986D01*
X148615099Y-86677901D01*
X148722896Y-86516572D01*
X148797147Y-86337314D01*
X148835000Y-86147014D01*
X148835000Y-85952986D01*
X148797147Y-85762686D01*
X148722896Y-85583428D01*
X148615099Y-85422099D01*
X148595986Y-85402986D01*
X165415000Y-85402986D01*
X165415000Y-85597014D01*
X165452853Y-85787314D01*
X165527104Y-85966572D01*
X165634901Y-86127901D01*
X165772099Y-86265099D01*
X165933428Y-86372896D01*
X166112686Y-86447147D01*
X166302986Y-86485000D01*
X166497014Y-86485000D01*
X166687314Y-86447147D01*
X166866572Y-86372896D01*
X167027901Y-86265099D01*
X167165099Y-86127901D01*
X167272896Y-85966572D01*
X167347147Y-85787314D01*
X167385000Y-85597014D01*
X167385000Y-85402986D01*
X187015000Y-85402986D01*
X187015000Y-85597014D01*
X187052853Y-85787314D01*
X187127104Y-85966572D01*
X187149440Y-86000000D01*
X187127104Y-86033428D01*
X187052853Y-86212686D01*
X187015000Y-86402986D01*
X187015000Y-86597014D01*
X187052853Y-86787314D01*
X187127104Y-86966572D01*
X187149440Y-87000000D01*
X187127104Y-87033428D01*
X187052853Y-87212686D01*
X187015000Y-87402986D01*
X187015000Y-87597014D01*
X187052853Y-87787314D01*
X187127104Y-87966572D01*
X187149440Y-88000000D01*
X187127104Y-88033428D01*
X187052853Y-88212686D01*
X187015000Y-88402986D01*
X187015000Y-88597014D01*
X187052853Y-88787314D01*
X187127104Y-88966572D01*
X187149440Y-89000000D01*
X187127104Y-89033428D01*
X187052853Y-89212686D01*
X187015000Y-89402986D01*
X187015000Y-89597014D01*
X187052853Y-89787314D01*
X187127104Y-89966572D01*
X187234901Y-90127901D01*
X187372099Y-90265099D01*
X187533428Y-90372896D01*
X187712686Y-90447147D01*
X187902986Y-90485000D01*
X188097014Y-90485000D01*
X188287314Y-90447147D01*
X188466572Y-90372896D01*
X188500000Y-90350560D01*
X188533428Y-90372896D01*
X188712686Y-90447147D01*
X188902986Y-90485000D01*
X189097014Y-90485000D01*
X189287314Y-90447147D01*
X189466572Y-90372896D01*
X189627901Y-90265099D01*
X189765099Y-90127901D01*
X189872896Y-89966572D01*
X189947147Y-89787314D01*
X189985000Y-89597014D01*
X189985000Y-89402986D01*
X189947147Y-89212686D01*
X189872896Y-89033428D01*
X189850560Y-89000000D01*
X189872896Y-88966572D01*
X189947147Y-88787314D01*
X189966503Y-88690000D01*
X191657573Y-88690000D01*
X191687210Y-88990913D01*
X191774983Y-89280261D01*
X191917519Y-89546927D01*
X192109339Y-89780661D01*
X192343073Y-89972481D01*
X192609739Y-90115017D01*
X192899087Y-90202790D01*
X193124592Y-90225000D01*
X195075408Y-90225000D01*
X195300913Y-90202790D01*
X195590261Y-90115017D01*
X195856927Y-89972481D01*
X196090661Y-89780661D01*
X196282481Y-89546927D01*
X196425017Y-89280261D01*
X196512790Y-88990913D01*
X196542427Y-88690000D01*
X196512790Y-88389087D01*
X196425017Y-88099739D01*
X196282481Y-87833073D01*
X196090661Y-87599339D01*
X195856927Y-87407519D01*
X195590261Y-87264983D01*
X195300913Y-87177210D01*
X195075408Y-87155000D01*
X193124592Y-87155000D01*
X192899087Y-87177210D01*
X192609739Y-87264983D01*
X192343073Y-87407519D01*
X192109339Y-87599339D01*
X191917519Y-87833073D01*
X191774983Y-88099739D01*
X191687210Y-88389087D01*
X191657573Y-88690000D01*
X189966503Y-88690000D01*
X189985000Y-88597014D01*
X189985000Y-88402986D01*
X189947147Y-88212686D01*
X189872896Y-88033428D01*
X189850560Y-88000000D01*
X189872896Y-87966572D01*
X189947147Y-87787314D01*
X189985000Y-87597014D01*
X189985000Y-87402986D01*
X189947147Y-87212686D01*
X189872896Y-87033428D01*
X189850560Y-87000000D01*
X189872896Y-86966572D01*
X189947147Y-86787314D01*
X189985000Y-86597014D01*
X189985000Y-86402986D01*
X189947147Y-86212686D01*
X189872896Y-86033428D01*
X189850560Y-86000000D01*
X189872896Y-85966572D01*
X189947147Y-85787314D01*
X189985000Y-85597014D01*
X189985000Y-85402986D01*
X189947147Y-85212686D01*
X189872896Y-85033428D01*
X189770379Y-84880000D01*
X191657573Y-84880000D01*
X191687210Y-85180913D01*
X191774983Y-85470261D01*
X191917519Y-85736927D01*
X192109339Y-85970661D01*
X192343073Y-86162481D01*
X192609739Y-86305017D01*
X192899087Y-86392790D01*
X193124592Y-86415000D01*
X195075408Y-86415000D01*
X195300913Y-86392790D01*
X195590261Y-86305017D01*
X195856927Y-86162481D01*
X196090661Y-85970661D01*
X196282481Y-85736927D01*
X196425017Y-85470261D01*
X196512790Y-85180913D01*
X196542427Y-84880000D01*
X196512790Y-84579087D01*
X196425017Y-84289739D01*
X196282481Y-84023073D01*
X196090661Y-83789339D01*
X195856927Y-83597519D01*
X195590261Y-83454983D01*
X195300913Y-83367210D01*
X195075408Y-83345000D01*
X193124592Y-83345000D01*
X192899087Y-83367210D01*
X192609739Y-83454983D01*
X192343073Y-83597519D01*
X192109339Y-83789339D01*
X191917519Y-84023073D01*
X191774983Y-84289739D01*
X191687210Y-84579087D01*
X191657573Y-84880000D01*
X189770379Y-84880000D01*
X189765099Y-84872099D01*
X189627901Y-84734901D01*
X189466572Y-84627104D01*
X189287314Y-84552853D01*
X189097014Y-84515000D01*
X188902986Y-84515000D01*
X188712686Y-84552853D01*
X188533428Y-84627104D01*
X188500000Y-84649440D01*
X188466572Y-84627104D01*
X188287314Y-84552853D01*
X188097014Y-84515000D01*
X187902986Y-84515000D01*
X187712686Y-84552853D01*
X187533428Y-84627104D01*
X187372099Y-84734901D01*
X187234901Y-84872099D01*
X187127104Y-85033428D01*
X187052853Y-85212686D01*
X187015000Y-85402986D01*
X167385000Y-85402986D01*
X167347147Y-85212686D01*
X167272896Y-85033428D01*
X167165099Y-84872099D01*
X167027901Y-84734901D01*
X166866572Y-84627104D01*
X166687314Y-84552853D01*
X166497014Y-84515000D01*
X166302986Y-84515000D01*
X166112686Y-84552853D01*
X165933428Y-84627104D01*
X165772099Y-84734901D01*
X165634901Y-84872099D01*
X165527104Y-85033428D01*
X165452853Y-85212686D01*
X165415000Y-85402986D01*
X148595986Y-85402986D01*
X148477901Y-85284901D01*
X148335000Y-85189417D01*
X148335000Y-85102986D01*
X148297147Y-84912686D01*
X148222896Y-84733428D01*
X148115099Y-84572099D01*
X148089317Y-84546317D01*
X148266572Y-84472896D01*
X148427901Y-84365099D01*
X148565099Y-84227901D01*
X148672896Y-84066572D01*
X148747147Y-83887314D01*
X148785000Y-83697014D01*
X148785000Y-83502986D01*
X148747147Y-83312686D01*
X148672896Y-83133428D01*
X148565099Y-82972099D01*
X148427901Y-82834901D01*
X148266572Y-82727104D01*
X148087314Y-82652853D01*
X147897014Y-82615000D01*
X147702986Y-82615000D01*
X147512686Y-82652853D01*
X147333428Y-82727104D01*
X147172099Y-82834901D01*
X147034901Y-82972099D01*
X146927104Y-83133428D01*
X146852853Y-83312686D01*
X146815000Y-83502986D01*
X146815000Y-83697014D01*
X146852853Y-83887314D01*
X146927104Y-84066572D01*
X147034901Y-84227901D01*
X147060683Y-84253683D01*
X146883428Y-84327104D01*
X146722099Y-84434901D01*
X146584901Y-84572099D01*
X146477104Y-84733428D01*
X146402853Y-84912686D01*
X146365000Y-85102986D01*
X144985000Y-85102986D01*
X144947147Y-84912686D01*
X144872896Y-84733428D01*
X144765099Y-84572099D01*
X144627901Y-84434901D01*
X144466572Y-84327104D01*
X144287314Y-84252853D01*
X144097014Y-84215000D01*
X143902986Y-84215000D01*
X143712686Y-84252853D01*
X143533428Y-84327104D01*
X143477358Y-84364569D01*
X143447147Y-84212686D01*
X143372896Y-84033428D01*
X143265099Y-83872099D01*
X143127901Y-83734901D01*
X142966572Y-83627104D01*
X142787314Y-83552853D01*
X142597014Y-83515000D01*
X142402986Y-83515000D01*
X142212686Y-83552853D01*
X142033428Y-83627104D01*
X141872099Y-83734901D01*
X141734901Y-83872099D01*
X141627104Y-84033428D01*
X141552853Y-84212686D01*
X141515000Y-84402986D01*
X128938072Y-84402986D01*
X128938072Y-83450000D01*
X128921008Y-83276746D01*
X128870472Y-83110150D01*
X128788405Y-82956614D01*
X128677962Y-82822038D01*
X128543386Y-82711595D01*
X128389850Y-82629528D01*
X128223254Y-82578992D01*
X128050000Y-82561928D01*
X124950000Y-82561928D01*
X124776746Y-82578992D01*
X124610150Y-82629528D01*
X124456614Y-82711595D01*
X124322038Y-82822038D01*
X124211595Y-82956614D01*
X124129528Y-83110150D01*
X124078992Y-83276746D01*
X124061928Y-83450000D01*
X119660000Y-83450000D01*
X119660000Y-82302986D01*
X136615000Y-82302986D01*
X136615000Y-82497014D01*
X136652853Y-82687314D01*
X136727104Y-82866572D01*
X136834901Y-83027901D01*
X136972099Y-83165099D01*
X137133428Y-83272896D01*
X137312686Y-83347147D01*
X137502986Y-83385000D01*
X137697014Y-83385000D01*
X137887314Y-83347147D01*
X138066572Y-83272896D01*
X138227901Y-83165099D01*
X138365099Y-83027901D01*
X138472896Y-82866572D01*
X138547147Y-82687314D01*
X138585000Y-82497014D01*
X138585000Y-82302986D01*
X138547147Y-82112686D01*
X138472896Y-81933428D01*
X138365099Y-81772099D01*
X138227901Y-81634901D01*
X138066572Y-81527104D01*
X137887314Y-81452853D01*
X137697014Y-81415000D01*
X137502986Y-81415000D01*
X137312686Y-81452853D01*
X137133428Y-81527104D01*
X136972099Y-81634901D01*
X136834901Y-81772099D01*
X136727104Y-81933428D01*
X136652853Y-82112686D01*
X136615000Y-82302986D01*
X119660000Y-82302986D01*
X119660000Y-81302986D01*
X152065000Y-81302986D01*
X152065000Y-81497014D01*
X152102853Y-81687314D01*
X152177104Y-81866572D01*
X152284901Y-82027901D01*
X152422099Y-82165099D01*
X152583428Y-82272896D01*
X152762686Y-82347147D01*
X152952986Y-82385000D01*
X153147014Y-82385000D01*
X153337314Y-82347147D01*
X153516572Y-82272896D01*
X153677901Y-82165099D01*
X153815099Y-82027901D01*
X153898564Y-81902986D01*
X164665000Y-81902986D01*
X164665000Y-82097014D01*
X164702853Y-82287314D01*
X164777104Y-82466572D01*
X164884901Y-82627901D01*
X165022099Y-82765099D01*
X165183428Y-82872896D01*
X165362686Y-82947147D01*
X165552986Y-82985000D01*
X165747014Y-82985000D01*
X165937314Y-82947147D01*
X166116572Y-82872896D01*
X166277901Y-82765099D01*
X166415099Y-82627901D01*
X166522896Y-82466572D01*
X166597147Y-82287314D01*
X166635000Y-82097014D01*
X166635000Y-81902986D01*
X166597147Y-81712686D01*
X166522896Y-81533428D01*
X166415099Y-81372099D01*
X166277901Y-81234901D01*
X166116572Y-81127104D01*
X165937314Y-81052853D01*
X165747014Y-81015000D01*
X165552986Y-81015000D01*
X165362686Y-81052853D01*
X165183428Y-81127104D01*
X165022099Y-81234901D01*
X164884901Y-81372099D01*
X164777104Y-81533428D01*
X164702853Y-81712686D01*
X164665000Y-81902986D01*
X153898564Y-81902986D01*
X153922896Y-81866572D01*
X153997147Y-81687314D01*
X154035000Y-81497014D01*
X154035000Y-81302986D01*
X153997147Y-81112686D01*
X153922896Y-80933428D01*
X153815099Y-80772099D01*
X153677901Y-80634901D01*
X153516572Y-80527104D01*
X153337314Y-80452853D01*
X153147014Y-80415000D01*
X152952986Y-80415000D01*
X152762686Y-80452853D01*
X152583428Y-80527104D01*
X152422099Y-80634901D01*
X152284901Y-80772099D01*
X152177104Y-80933428D01*
X152102853Y-81112686D01*
X152065000Y-81302986D01*
X119660000Y-81302986D01*
X119660000Y-79402986D01*
X148865000Y-79402986D01*
X148865000Y-79597014D01*
X148902853Y-79787314D01*
X148977104Y-79966572D01*
X149084901Y-80127901D01*
X149222099Y-80265099D01*
X149383428Y-80372896D01*
X149562686Y-80447147D01*
X149752986Y-80485000D01*
X149947014Y-80485000D01*
X150137314Y-80447147D01*
X150250000Y-80400471D01*
X150362686Y-80447147D01*
X150552986Y-80485000D01*
X150747014Y-80485000D01*
X150937314Y-80447147D01*
X151116572Y-80372896D01*
X151277901Y-80265099D01*
X151415099Y-80127901D01*
X151458473Y-80062986D01*
X172755000Y-80062986D01*
X172755000Y-80257014D01*
X172792853Y-80447314D01*
X172867104Y-80626572D01*
X172956258Y-80760000D01*
X172867104Y-80893428D01*
X172792853Y-81072686D01*
X172755000Y-81262986D01*
X172755000Y-81457014D01*
X172792853Y-81647314D01*
X172867104Y-81826572D01*
X172974901Y-81987901D01*
X173112099Y-82125099D01*
X173273428Y-82232896D01*
X173452686Y-82307147D01*
X173642986Y-82345000D01*
X173837014Y-82345000D01*
X174027314Y-82307147D01*
X174206572Y-82232896D01*
X174367901Y-82125099D01*
X174505099Y-81987901D01*
X174583257Y-81870930D01*
X174555000Y-82012986D01*
X174555000Y-82207014D01*
X174592853Y-82397314D01*
X174667104Y-82576572D01*
X174774901Y-82737901D01*
X174912099Y-82875099D01*
X175073428Y-82982896D01*
X175252686Y-83057147D01*
X175442986Y-83095000D01*
X175637014Y-83095000D01*
X175827314Y-83057147D01*
X176006572Y-82982896D01*
X176167901Y-82875099D01*
X176305099Y-82737901D01*
X176412896Y-82576572D01*
X176487147Y-82397314D01*
X176525000Y-82207014D01*
X176525000Y-82012986D01*
X176487147Y-81822686D01*
X176412896Y-81643428D01*
X176305099Y-81482099D01*
X176167901Y-81344901D01*
X176006572Y-81237104D01*
X175827314Y-81162853D01*
X175637014Y-81125000D01*
X175442986Y-81125000D01*
X175252686Y-81162853D01*
X175073428Y-81237104D01*
X174912099Y-81344901D01*
X174774901Y-81482099D01*
X174696743Y-81599070D01*
X174725000Y-81457014D01*
X174725000Y-81262986D01*
X174687147Y-81072686D01*
X174612896Y-80893428D01*
X174523742Y-80760000D01*
X174561837Y-80702986D01*
X179715000Y-80702986D01*
X179715000Y-80897014D01*
X179752853Y-81087314D01*
X179827104Y-81266572D01*
X179934901Y-81427901D01*
X180072099Y-81565099D01*
X180233428Y-81672896D01*
X180412686Y-81747147D01*
X180602986Y-81785000D01*
X180797014Y-81785000D01*
X180870364Y-81770410D01*
X180852853Y-81812686D01*
X180815000Y-82002986D01*
X180815000Y-82197014D01*
X180852853Y-82387314D01*
X180927104Y-82566572D01*
X181034901Y-82727901D01*
X181172099Y-82865099D01*
X181333428Y-82972896D01*
X181512686Y-83047147D01*
X181702986Y-83085000D01*
X181897014Y-83085000D01*
X182087314Y-83047147D01*
X182200000Y-83000471D01*
X182312686Y-83047147D01*
X182502986Y-83085000D01*
X182697014Y-83085000D01*
X182887314Y-83047147D01*
X183066572Y-82972896D01*
X183227901Y-82865099D01*
X183365099Y-82727901D01*
X183472896Y-82566572D01*
X183547147Y-82387314D01*
X183585000Y-82197014D01*
X183585000Y-82002986D01*
X183555164Y-81852986D01*
X197465000Y-81852986D01*
X197465000Y-82047014D01*
X197502853Y-82237314D01*
X197577104Y-82416572D01*
X197684901Y-82577901D01*
X197822099Y-82715099D01*
X197983428Y-82822896D01*
X198162686Y-82897147D01*
X198352986Y-82935000D01*
X198547014Y-82935000D01*
X198737314Y-82897147D01*
X198916572Y-82822896D01*
X199077901Y-82715099D01*
X199215099Y-82577901D01*
X199322896Y-82416572D01*
X199397147Y-82237314D01*
X199435000Y-82047014D01*
X199435000Y-81852986D01*
X199397147Y-81662686D01*
X199322896Y-81483428D01*
X199215099Y-81322099D01*
X199077901Y-81184901D01*
X198916572Y-81077104D01*
X198737314Y-81002853D01*
X198547014Y-80965000D01*
X198352986Y-80965000D01*
X198162686Y-81002853D01*
X197983428Y-81077104D01*
X197822099Y-81184901D01*
X197684901Y-81322099D01*
X197577104Y-81483428D01*
X197502853Y-81662686D01*
X197465000Y-81852986D01*
X183555164Y-81852986D01*
X183547147Y-81812686D01*
X183472896Y-81633428D01*
X183365099Y-81472099D01*
X183227901Y-81334901D01*
X183066572Y-81227104D01*
X182887314Y-81152853D01*
X182697014Y-81115000D01*
X182502986Y-81115000D01*
X182312686Y-81152853D01*
X182200000Y-81199529D01*
X182087314Y-81152853D01*
X181897014Y-81115000D01*
X181702986Y-81115000D01*
X181629636Y-81129590D01*
X181647147Y-81087314D01*
X181685000Y-80897014D01*
X181685000Y-80702986D01*
X181647147Y-80512686D01*
X181572896Y-80333428D01*
X181465099Y-80172099D01*
X181327901Y-80034901D01*
X181166572Y-79927104D01*
X180987314Y-79852853D01*
X180797014Y-79815000D01*
X180602986Y-79815000D01*
X180412686Y-79852853D01*
X180233428Y-79927104D01*
X180072099Y-80034901D01*
X179934901Y-80172099D01*
X179827104Y-80333428D01*
X179752853Y-80512686D01*
X179715000Y-80702986D01*
X174561837Y-80702986D01*
X174612896Y-80626572D01*
X174687147Y-80447314D01*
X174725000Y-80257014D01*
X174725000Y-80062986D01*
X174687147Y-79872686D01*
X174612896Y-79693428D01*
X174505099Y-79532099D01*
X174367901Y-79394901D01*
X174206572Y-79287104D01*
X174027314Y-79212853D01*
X173837014Y-79175000D01*
X173642986Y-79175000D01*
X173452686Y-79212853D01*
X173273428Y-79287104D01*
X173112099Y-79394901D01*
X172974901Y-79532099D01*
X172867104Y-79693428D01*
X172792853Y-79872686D01*
X172755000Y-80062986D01*
X151458473Y-80062986D01*
X151522896Y-79966572D01*
X151597147Y-79787314D01*
X151635000Y-79597014D01*
X151635000Y-79402986D01*
X151597147Y-79212686D01*
X151522896Y-79033428D01*
X151415099Y-78872099D01*
X151277901Y-78734901D01*
X151116572Y-78627104D01*
X150937314Y-78552853D01*
X150747014Y-78515000D01*
X150552986Y-78515000D01*
X150362686Y-78552853D01*
X150250000Y-78599529D01*
X150137314Y-78552853D01*
X149947014Y-78515000D01*
X149752986Y-78515000D01*
X149562686Y-78552853D01*
X149383428Y-78627104D01*
X149222099Y-78734901D01*
X149084901Y-78872099D01*
X148977104Y-79033428D01*
X148902853Y-79212686D01*
X148865000Y-79402986D01*
X119660000Y-79402986D01*
X119660000Y-78174740D01*
X124108964Y-78174740D01*
X124133245Y-78280087D01*
X124253138Y-78557204D01*
X124424790Y-78805606D01*
X124641604Y-79015748D01*
X124895249Y-79179554D01*
X125175977Y-79290729D01*
X125473000Y-79345000D01*
X126373000Y-79345000D01*
X126373000Y-77937000D01*
X126627000Y-77937000D01*
X126627000Y-79345000D01*
X127527000Y-79345000D01*
X127824023Y-79290729D01*
X128104751Y-79179554D01*
X128358396Y-79015748D01*
X128575210Y-78805606D01*
X128746862Y-78557204D01*
X128866755Y-78280087D01*
X128891036Y-78174740D01*
X128770378Y-77937000D01*
X126627000Y-77937000D01*
X126373000Y-77937000D01*
X124229622Y-77937000D01*
X124108964Y-78174740D01*
X119660000Y-78174740D01*
X119660000Y-77445260D01*
X124108964Y-77445260D01*
X124229622Y-77683000D01*
X126373000Y-77683000D01*
X126373000Y-77663000D01*
X126627000Y-77663000D01*
X126627000Y-77683000D01*
X128770378Y-77683000D01*
X128891036Y-77445260D01*
X128866755Y-77339913D01*
X128746862Y-77062796D01*
X128575210Y-76814394D01*
X128358396Y-76604252D01*
X128104751Y-76440446D01*
X127824023Y-76329271D01*
X127680167Y-76302986D01*
X132515000Y-76302986D01*
X132515000Y-76497014D01*
X132552853Y-76687314D01*
X132627104Y-76866572D01*
X132734901Y-77027901D01*
X132872099Y-77165099D01*
X133033428Y-77272896D01*
X133212686Y-77347147D01*
X133402986Y-77385000D01*
X133597014Y-77385000D01*
X133787314Y-77347147D01*
X133966572Y-77272896D01*
X134127901Y-77165099D01*
X134265099Y-77027901D01*
X134372896Y-76866572D01*
X134447147Y-76687314D01*
X134485000Y-76497014D01*
X134485000Y-76302986D01*
X134447147Y-76112686D01*
X134372896Y-75933428D01*
X134265099Y-75772099D01*
X134127901Y-75634901D01*
X133966572Y-75527104D01*
X133908346Y-75502986D01*
X134515000Y-75502986D01*
X134515000Y-75697014D01*
X134552853Y-75887314D01*
X134620240Y-76050000D01*
X134552853Y-76212686D01*
X134515000Y-76402986D01*
X134515000Y-76597014D01*
X134552853Y-76787314D01*
X134627104Y-76966572D01*
X134734901Y-77127901D01*
X134872099Y-77265099D01*
X135033428Y-77372896D01*
X135212686Y-77447147D01*
X135402986Y-77485000D01*
X135597014Y-77485000D01*
X135787314Y-77447147D01*
X135966572Y-77372896D01*
X136127901Y-77265099D01*
X136265099Y-77127901D01*
X136372896Y-76966572D01*
X136447147Y-76787314D01*
X136485000Y-76597014D01*
X136485000Y-76402986D01*
X136447147Y-76212686D01*
X136379760Y-76050000D01*
X136447147Y-75887314D01*
X136485000Y-75697014D01*
X136485000Y-75502986D01*
X136447147Y-75312686D01*
X136372896Y-75133428D01*
X136265099Y-74972099D01*
X136243000Y-74950000D01*
X136365099Y-74827901D01*
X136472896Y-74666572D01*
X136547147Y-74487314D01*
X136585000Y-74297014D01*
X136585000Y-74102986D01*
X136547147Y-73912686D01*
X136479760Y-73750000D01*
X136547147Y-73587314D01*
X136583812Y-73402986D01*
X152815000Y-73402986D01*
X152815000Y-73597014D01*
X152852853Y-73787314D01*
X152927104Y-73966572D01*
X153034901Y-74127901D01*
X153172099Y-74265099D01*
X153333428Y-74372896D01*
X153512686Y-74447147D01*
X153702986Y-74485000D01*
X153897014Y-74485000D01*
X154087314Y-74447147D01*
X154266572Y-74372896D01*
X154427901Y-74265099D01*
X154565099Y-74127901D01*
X154672896Y-73966572D01*
X154747147Y-73787314D01*
X154785000Y-73597014D01*
X154785000Y-73402986D01*
X155815000Y-73402986D01*
X155815000Y-73597014D01*
X155852853Y-73787314D01*
X155927104Y-73966572D01*
X156034901Y-74127901D01*
X156172099Y-74265099D01*
X156333428Y-74372896D01*
X156512686Y-74447147D01*
X156702986Y-74485000D01*
X156897014Y-74485000D01*
X157087314Y-74447147D01*
X157266572Y-74372896D01*
X157427901Y-74265099D01*
X157565099Y-74127901D01*
X157672896Y-73966572D01*
X157747147Y-73787314D01*
X157785000Y-73597014D01*
X157785000Y-73402986D01*
X160615000Y-73402986D01*
X160615000Y-73597014D01*
X160652853Y-73787314D01*
X160727104Y-73966572D01*
X160834901Y-74127901D01*
X160972099Y-74265099D01*
X161133428Y-74372896D01*
X161312686Y-74447147D01*
X161502986Y-74485000D01*
X161697014Y-74485000D01*
X161887314Y-74447147D01*
X162066572Y-74372896D01*
X162227901Y-74265099D01*
X162365099Y-74127901D01*
X162472896Y-73966572D01*
X162547147Y-73787314D01*
X162585000Y-73597014D01*
X162585000Y-73402986D01*
X163515000Y-73402986D01*
X163515000Y-73597014D01*
X163552853Y-73787314D01*
X163627104Y-73966572D01*
X163734901Y-74127901D01*
X163872099Y-74265099D01*
X164033428Y-74372896D01*
X164212686Y-74447147D01*
X164402986Y-74485000D01*
X164597014Y-74485000D01*
X164787314Y-74447147D01*
X164966572Y-74372896D01*
X165071199Y-74302986D01*
X165515000Y-74302986D01*
X165515000Y-74497014D01*
X165552853Y-74687314D01*
X165627104Y-74866572D01*
X165734901Y-75027901D01*
X165757000Y-75050000D01*
X165734901Y-75072099D01*
X165627104Y-75233428D01*
X165552853Y-75412686D01*
X165515000Y-75602986D01*
X165515000Y-75797014D01*
X165552853Y-75987314D01*
X165627104Y-76166572D01*
X165734901Y-76327901D01*
X165872099Y-76465099D01*
X166033428Y-76572896D01*
X166212686Y-76647147D01*
X166402986Y-76685000D01*
X166597014Y-76685000D01*
X166787314Y-76647147D01*
X166966572Y-76572896D01*
X167127901Y-76465099D01*
X167265099Y-76327901D01*
X167372896Y-76166572D01*
X167447147Y-75987314D01*
X167485000Y-75797014D01*
X167485000Y-75602986D01*
X167447147Y-75412686D01*
X167372896Y-75233428D01*
X167265099Y-75072099D01*
X167243000Y-75050000D01*
X167265099Y-75027901D01*
X167372896Y-74866572D01*
X167447147Y-74687314D01*
X167485000Y-74497014D01*
X167485000Y-74302986D01*
X167465109Y-74202986D01*
X186915000Y-74202986D01*
X186915000Y-74397014D01*
X186952853Y-74587314D01*
X187027104Y-74766572D01*
X187049440Y-74800000D01*
X187027104Y-74833428D01*
X186952853Y-75012686D01*
X186915000Y-75202986D01*
X186915000Y-75397014D01*
X186952853Y-75587314D01*
X187027104Y-75766572D01*
X187049440Y-75800000D01*
X187027104Y-75833428D01*
X186952853Y-76012686D01*
X186915000Y-76202986D01*
X186915000Y-76397014D01*
X186952853Y-76587314D01*
X187027104Y-76766572D01*
X187049440Y-76800000D01*
X187027104Y-76833428D01*
X186952853Y-77012686D01*
X186915000Y-77202986D01*
X186915000Y-77397014D01*
X186952853Y-77587314D01*
X187027104Y-77766572D01*
X187049440Y-77800000D01*
X187027104Y-77833428D01*
X186952853Y-78012686D01*
X186915000Y-78202986D01*
X186915000Y-78397014D01*
X186952853Y-78587314D01*
X187027104Y-78766572D01*
X187134901Y-78927901D01*
X187272099Y-79065099D01*
X187433428Y-79172896D01*
X187612686Y-79247147D01*
X187802986Y-79285000D01*
X187997014Y-79285000D01*
X188187314Y-79247147D01*
X188366572Y-79172896D01*
X188400000Y-79150560D01*
X188433428Y-79172896D01*
X188612686Y-79247147D01*
X188802986Y-79285000D01*
X188997014Y-79285000D01*
X189187314Y-79247147D01*
X189366572Y-79172896D01*
X189527901Y-79065099D01*
X189665099Y-78927901D01*
X189772896Y-78766572D01*
X189847147Y-78587314D01*
X189885000Y-78397014D01*
X189885000Y-78202986D01*
X189847147Y-78012686D01*
X189772896Y-77833428D01*
X189750560Y-77800000D01*
X189772896Y-77766572D01*
X189847147Y-77587314D01*
X189885000Y-77397014D01*
X189885000Y-77202986D01*
X189847147Y-77012686D01*
X189772896Y-76833428D01*
X189750560Y-76800000D01*
X189772896Y-76766572D01*
X189847147Y-76587314D01*
X189885000Y-76397014D01*
X189885000Y-76202986D01*
X189847147Y-76012686D01*
X189772896Y-75833428D01*
X189750560Y-75800000D01*
X189772896Y-75766572D01*
X189847147Y-75587314D01*
X189885000Y-75397014D01*
X189885000Y-75202986D01*
X189847147Y-75012686D01*
X189772896Y-74833428D01*
X189750560Y-74800000D01*
X189772896Y-74766572D01*
X189847147Y-74587314D01*
X189885000Y-74397014D01*
X189885000Y-74202986D01*
X189847147Y-74012686D01*
X189772896Y-73833428D01*
X189665099Y-73672099D01*
X189527901Y-73534901D01*
X189366572Y-73427104D01*
X189187314Y-73352853D01*
X188997014Y-73315000D01*
X188802986Y-73315000D01*
X188612686Y-73352853D01*
X188433428Y-73427104D01*
X188400000Y-73449440D01*
X188366572Y-73427104D01*
X188187314Y-73352853D01*
X187997014Y-73315000D01*
X187802986Y-73315000D01*
X187612686Y-73352853D01*
X187433428Y-73427104D01*
X187272099Y-73534901D01*
X187134901Y-73672099D01*
X187027104Y-73833428D01*
X186952853Y-74012686D01*
X186915000Y-74202986D01*
X167465109Y-74202986D01*
X167447147Y-74112686D01*
X167372896Y-73933428D01*
X167265099Y-73772099D01*
X167127901Y-73634901D01*
X166966572Y-73527104D01*
X166787314Y-73452853D01*
X166597014Y-73415000D01*
X166402986Y-73415000D01*
X166212686Y-73452853D01*
X166033428Y-73527104D01*
X165872099Y-73634901D01*
X165734901Y-73772099D01*
X165627104Y-73933428D01*
X165552853Y-74112686D01*
X165515000Y-74302986D01*
X165071199Y-74302986D01*
X165127901Y-74265099D01*
X165265099Y-74127901D01*
X165372896Y-73966572D01*
X165447147Y-73787314D01*
X165485000Y-73597014D01*
X165485000Y-73402986D01*
X165447147Y-73212686D01*
X165372896Y-73033428D01*
X165265099Y-72872099D01*
X165127901Y-72734901D01*
X164966572Y-72627104D01*
X164787314Y-72552853D01*
X164597014Y-72515000D01*
X164402986Y-72515000D01*
X164212686Y-72552853D01*
X164033428Y-72627104D01*
X163872099Y-72734901D01*
X163734901Y-72872099D01*
X163627104Y-73033428D01*
X163552853Y-73212686D01*
X163515000Y-73402986D01*
X162585000Y-73402986D01*
X162547147Y-73212686D01*
X162472896Y-73033428D01*
X162365099Y-72872099D01*
X162227901Y-72734901D01*
X162066572Y-72627104D01*
X161887314Y-72552853D01*
X161697014Y-72515000D01*
X161502986Y-72515000D01*
X161312686Y-72552853D01*
X161133428Y-72627104D01*
X160972099Y-72734901D01*
X160834901Y-72872099D01*
X160727104Y-73033428D01*
X160652853Y-73212686D01*
X160615000Y-73402986D01*
X157785000Y-73402986D01*
X157747147Y-73212686D01*
X157672896Y-73033428D01*
X157565099Y-72872099D01*
X157427901Y-72734901D01*
X157266572Y-72627104D01*
X157087314Y-72552853D01*
X156897014Y-72515000D01*
X156702986Y-72515000D01*
X156512686Y-72552853D01*
X156333428Y-72627104D01*
X156172099Y-72734901D01*
X156034901Y-72872099D01*
X155927104Y-73033428D01*
X155852853Y-73212686D01*
X155815000Y-73402986D01*
X154785000Y-73402986D01*
X154747147Y-73212686D01*
X154672896Y-73033428D01*
X154565099Y-72872099D01*
X154427901Y-72734901D01*
X154266572Y-72627104D01*
X154087314Y-72552853D01*
X153897014Y-72515000D01*
X153702986Y-72515000D01*
X153512686Y-72552853D01*
X153333428Y-72627104D01*
X153172099Y-72734901D01*
X153034901Y-72872099D01*
X152927104Y-73033428D01*
X152852853Y-73212686D01*
X152815000Y-73402986D01*
X136583812Y-73402986D01*
X136585000Y-73397014D01*
X136585000Y-73202986D01*
X136547147Y-73012686D01*
X136472896Y-72833428D01*
X136365099Y-72672099D01*
X136227901Y-72534901D01*
X136066572Y-72427104D01*
X135887314Y-72352853D01*
X135697014Y-72315000D01*
X135502986Y-72315000D01*
X135312686Y-72352853D01*
X135133428Y-72427104D01*
X134972099Y-72534901D01*
X134834901Y-72672099D01*
X134727104Y-72833428D01*
X134652853Y-73012686D01*
X134615000Y-73202986D01*
X134615000Y-73397014D01*
X134652853Y-73587314D01*
X134720240Y-73750000D01*
X134652853Y-73912686D01*
X134615000Y-74102986D01*
X134615000Y-74297014D01*
X134652853Y-74487314D01*
X134727104Y-74666572D01*
X134834901Y-74827901D01*
X134857000Y-74850000D01*
X134734901Y-74972099D01*
X134627104Y-75133428D01*
X134552853Y-75312686D01*
X134515000Y-75502986D01*
X133908346Y-75502986D01*
X133787314Y-75452853D01*
X133597014Y-75415000D01*
X133402986Y-75415000D01*
X133212686Y-75452853D01*
X133033428Y-75527104D01*
X132872099Y-75634901D01*
X132734901Y-75772099D01*
X132627104Y-75933428D01*
X132552853Y-76112686D01*
X132515000Y-76302986D01*
X127680167Y-76302986D01*
X127527000Y-76275000D01*
X125473000Y-76275000D01*
X125175977Y-76329271D01*
X124895249Y-76440446D01*
X124641604Y-76604252D01*
X124424790Y-76814394D01*
X124253138Y-77062796D01*
X124133245Y-77339913D01*
X124108964Y-77445260D01*
X119660000Y-77445260D01*
X119660000Y-73350000D01*
X124061928Y-73350000D01*
X124061928Y-74650000D01*
X124078992Y-74823254D01*
X124129528Y-74989850D01*
X124211595Y-75143386D01*
X124322038Y-75277962D01*
X124456614Y-75388405D01*
X124610150Y-75470472D01*
X124776746Y-75521008D01*
X124950000Y-75538072D01*
X128050000Y-75538072D01*
X128223254Y-75521008D01*
X128389850Y-75470472D01*
X128543386Y-75388405D01*
X128677962Y-75277962D01*
X128788405Y-75143386D01*
X128870472Y-74989850D01*
X128921008Y-74823254D01*
X128938072Y-74650000D01*
X128938072Y-73814344D01*
X129615000Y-73814344D01*
X129615000Y-74185656D01*
X129687439Y-74549834D01*
X129829534Y-74892882D01*
X130035825Y-75201618D01*
X130298382Y-75464175D01*
X130607118Y-75670466D01*
X130950166Y-75812561D01*
X131314344Y-75885000D01*
X131685656Y-75885000D01*
X132049834Y-75812561D01*
X132392882Y-75670466D01*
X132701618Y-75464175D01*
X132964175Y-75201618D01*
X133170466Y-74892882D01*
X133312561Y-74549834D01*
X133385000Y-74185656D01*
X133385000Y-73814344D01*
X133312561Y-73450166D01*
X133170466Y-73107118D01*
X132964175Y-72798382D01*
X132701618Y-72535825D01*
X132392882Y-72329534D01*
X132049834Y-72187439D01*
X131685656Y-72115000D01*
X131314344Y-72115000D01*
X130950166Y-72187439D01*
X130607118Y-72329534D01*
X130298382Y-72535825D01*
X130035825Y-72798382D01*
X129829534Y-73107118D01*
X129687439Y-73450166D01*
X129615000Y-73814344D01*
X128938072Y-73814344D01*
X128938072Y-73350000D01*
X128921008Y-73176746D01*
X128870472Y-73010150D01*
X128788405Y-72856614D01*
X128677962Y-72722038D01*
X128543386Y-72611595D01*
X128389850Y-72529528D01*
X128223254Y-72478992D01*
X128050000Y-72461928D01*
X124950000Y-72461928D01*
X124776746Y-72478992D01*
X124610150Y-72529528D01*
X124456614Y-72611595D01*
X124322038Y-72722038D01*
X124211595Y-72856614D01*
X124129528Y-73010150D01*
X124078992Y-73176746D01*
X124061928Y-73350000D01*
X119660000Y-73350000D01*
X119660000Y-72273380D01*
X120273381Y-71660000D01*
X198095432Y-71660000D01*
X197933428Y-71727104D01*
X197933428Y-71727104D01*
G37*
X197933428Y-71727104D02*
X197772099Y-71834901D01*
X197634901Y-71972099D01*
X197527104Y-72133428D01*
X197452853Y-72312686D01*
X197415000Y-72502986D01*
X197415000Y-72697014D01*
X197452853Y-72887314D01*
X197527104Y-73066572D01*
X197634901Y-73227901D01*
X197772099Y-73365099D01*
X197933428Y-73472896D01*
X198112686Y-73547147D01*
X198302986Y-73585000D01*
X198497014Y-73585000D01*
X198687314Y-73547147D01*
X198866572Y-73472896D01*
X198950000Y-73417151D01*
X199033428Y-73472896D01*
X199212686Y-73547147D01*
X199402986Y-73585000D01*
X199597014Y-73585000D01*
X199787314Y-73547147D01*
X199840001Y-73525323D01*
X199840000Y-114980394D01*
X198980394Y-115840000D01*
X123776450Y-115840000D01*
X123785000Y-115797014D01*
X123785000Y-115602986D01*
X123747147Y-115412686D01*
X123672896Y-115233428D01*
X123565099Y-115072099D01*
X123427901Y-114934901D01*
X123266572Y-114827104D01*
X123087314Y-114752853D01*
X122897014Y-114715000D01*
X122702986Y-114715000D01*
X122512686Y-114752853D01*
X122333428Y-114827104D01*
X122172099Y-114934901D01*
X122034901Y-115072099D01*
X121927104Y-115233428D01*
X121852853Y-115412686D01*
X121815000Y-115602986D01*
X121815000Y-115797014D01*
X121823550Y-115840000D01*
X120519606Y-115840000D01*
X119660000Y-114980394D01*
X119660000Y-113702986D01*
X126915000Y-113702986D01*
X126915000Y-113897014D01*
X126952853Y-114087314D01*
X127027104Y-114266572D01*
X127134901Y-114427901D01*
X127272099Y-114565099D01*
X127433428Y-114672896D01*
X127612686Y-114747147D01*
X127802986Y-114785000D01*
X127997014Y-114785000D01*
X128187314Y-114747147D01*
X128366572Y-114672896D01*
X128527901Y-114565099D01*
X128665099Y-114427901D01*
X128772896Y-114266572D01*
X128847147Y-114087314D01*
X128885000Y-113897014D01*
X128885000Y-113702986D01*
X128847147Y-113512686D01*
X128772896Y-113333428D01*
X128665099Y-113172099D01*
X128527901Y-113034901D01*
X128366572Y-112927104D01*
X128187314Y-112852853D01*
X127997014Y-112815000D01*
X127802986Y-112815000D01*
X127612686Y-112852853D01*
X127433428Y-112927104D01*
X127272099Y-113034901D01*
X127134901Y-113172099D01*
X127027104Y-113333428D01*
X126952853Y-113512686D01*
X126915000Y-113702986D01*
X119660000Y-113702986D01*
X119660000Y-111314344D01*
X128365000Y-111314344D01*
X128365000Y-111685656D01*
X128437439Y-112049834D01*
X128579534Y-112392882D01*
X128785825Y-112701618D01*
X129048382Y-112964175D01*
X129357118Y-113170466D01*
X129700166Y-113312561D01*
X130064344Y-113385000D01*
X130435656Y-113385000D01*
X130799834Y-113312561D01*
X131142882Y-113170466D01*
X131451618Y-112964175D01*
X131714175Y-112701618D01*
X131920466Y-112392882D01*
X132062561Y-112049834D01*
X132135000Y-111685656D01*
X132135000Y-111314344D01*
X132062561Y-110950166D01*
X131920466Y-110607118D01*
X131714175Y-110298382D01*
X131451618Y-110035825D01*
X131142882Y-109829534D01*
X130799834Y-109687439D01*
X130435656Y-109615000D01*
X130064344Y-109615000D01*
X129700166Y-109687439D01*
X129357118Y-109829534D01*
X129048382Y-110035825D01*
X128785825Y-110298382D01*
X128579534Y-110607118D01*
X128437439Y-110950166D01*
X128365000Y-111314344D01*
X119660000Y-111314344D01*
X119660000Y-111183902D01*
X119812686Y-111247147D01*
X120002986Y-111285000D01*
X120197014Y-111285000D01*
X120387314Y-111247147D01*
X120566572Y-111172896D01*
X120727901Y-111065099D01*
X120865099Y-110927901D01*
X120972896Y-110766572D01*
X121047147Y-110587314D01*
X121085000Y-110397014D01*
X121085000Y-110202986D01*
X121047147Y-110012686D01*
X120972896Y-109833428D01*
X120865099Y-109672099D01*
X120727901Y-109534901D01*
X120566572Y-109427104D01*
X120387314Y-109352853D01*
X120197014Y-109315000D01*
X120002986Y-109315000D01*
X119812686Y-109352853D01*
X119660000Y-109416098D01*
X119660000Y-108302986D01*
X119715000Y-108302986D01*
X119715000Y-108497014D01*
X119752853Y-108687314D01*
X119827104Y-108866572D01*
X119934901Y-109027901D01*
X120072099Y-109165099D01*
X120233428Y-109272896D01*
X120412686Y-109347147D01*
X120602986Y-109385000D01*
X120797014Y-109385000D01*
X120987314Y-109347147D01*
X121166572Y-109272896D01*
X121327901Y-109165099D01*
X121465099Y-109027901D01*
X121572896Y-108866572D01*
X121647147Y-108687314D01*
X121685000Y-108497014D01*
X121685000Y-108302986D01*
X121647147Y-108112686D01*
X121579761Y-107950000D01*
X134461928Y-107950000D01*
X134461928Y-111050000D01*
X134478992Y-111223254D01*
X134529528Y-111389850D01*
X134611595Y-111543386D01*
X134722038Y-111677962D01*
X134856614Y-111788405D01*
X135010150Y-111870472D01*
X135176746Y-111921008D01*
X135350000Y-111938072D01*
X136650000Y-111938072D01*
X136823254Y-111921008D01*
X136989850Y-111870472D01*
X137143386Y-111788405D01*
X137277962Y-111677962D01*
X137388405Y-111543386D01*
X137470472Y-111389850D01*
X137521008Y-111223254D01*
X137538072Y-111050000D01*
X137538072Y-108524593D01*
X138275000Y-108524593D01*
X138275000Y-110475408D01*
X138297211Y-110700913D01*
X138384984Y-110990261D01*
X138527520Y-111256927D01*
X138719340Y-111490661D01*
X138953074Y-111682481D01*
X139219740Y-111825017D01*
X139509088Y-111912790D01*
X139810000Y-111942427D01*
X140110913Y-111912790D01*
X140400261Y-111825017D01*
X140666927Y-111682481D01*
X140900661Y-111490661D01*
X141092481Y-111256927D01*
X141235017Y-110990261D01*
X141322790Y-110700913D01*
X141345000Y-110475408D01*
X141345000Y-108524593D01*
X142085000Y-108524593D01*
X142085000Y-110475408D01*
X142107211Y-110700913D01*
X142194984Y-110990261D01*
X142337520Y-111256927D01*
X142529340Y-111490661D01*
X142763074Y-111682481D01*
X143029740Y-111825017D01*
X143319088Y-111912790D01*
X143620000Y-111942427D01*
X143920913Y-111912790D01*
X144210261Y-111825017D01*
X144476927Y-111682481D01*
X144710661Y-111490661D01*
X144902481Y-111256927D01*
X145045017Y-110990261D01*
X145132790Y-110700913D01*
X145155000Y-110475408D01*
X145155000Y-109627000D01*
X145895000Y-109627000D01*
X145895000Y-110527000D01*
X145949271Y-110824023D01*
X146060446Y-111104751D01*
X146224252Y-111358396D01*
X146434394Y-111575210D01*
X146682796Y-111746862D01*
X146959913Y-111866755D01*
X147065260Y-111891036D01*
X147303000Y-111770378D01*
X147303000Y-109627000D01*
X147557000Y-109627000D01*
X147557000Y-111770378D01*
X147794740Y-111891036D01*
X147900087Y-111866755D01*
X148177204Y-111746862D01*
X148425606Y-111575210D01*
X148635748Y-111358396D01*
X148799554Y-111104751D01*
X148910729Y-110824023D01*
X148965000Y-110527000D01*
X148965000Y-109627000D01*
X147557000Y-109627000D01*
X147303000Y-109627000D01*
X145895000Y-109627000D01*
X145155000Y-109627000D01*
X145155000Y-108524592D01*
X145149919Y-108473000D01*
X145895000Y-108473000D01*
X145895000Y-109373000D01*
X147303000Y-109373000D01*
X147303000Y-107229622D01*
X147557000Y-107229622D01*
X147557000Y-109373000D01*
X148965000Y-109373000D01*
X148965000Y-108473000D01*
X148910729Y-108175977D01*
X148821237Y-107950000D01*
X152461928Y-107950000D01*
X152461928Y-111050000D01*
X152478992Y-111223254D01*
X152529528Y-111389850D01*
X152611595Y-111543386D01*
X152722038Y-111677962D01*
X152856614Y-111788405D01*
X153010150Y-111870472D01*
X153176746Y-111921008D01*
X153350000Y-111938072D01*
X154650000Y-111938072D01*
X154823254Y-111921008D01*
X154989850Y-111870472D01*
X155143386Y-111788405D01*
X155277962Y-111677962D01*
X155388405Y-111543386D01*
X155470472Y-111389850D01*
X155521008Y-111223254D01*
X155538072Y-111050000D01*
X155538072Y-108524593D01*
X156275000Y-108524593D01*
X156275000Y-110475408D01*
X156297211Y-110700913D01*
X156384984Y-110990261D01*
X156527520Y-111256927D01*
X156719340Y-111490661D01*
X156953074Y-111682481D01*
X157219740Y-111825017D01*
X157509088Y-111912790D01*
X157810000Y-111942427D01*
X158110913Y-111912790D01*
X158400261Y-111825017D01*
X158666927Y-111682481D01*
X158900661Y-111490661D01*
X159092481Y-111256927D01*
X159235017Y-110990261D01*
X159322790Y-110700913D01*
X159345000Y-110475408D01*
X159345000Y-108524593D01*
X160085000Y-108524593D01*
X160085000Y-110475408D01*
X160107211Y-110700913D01*
X160194984Y-110990261D01*
X160337520Y-111256927D01*
X160529340Y-111490661D01*
X160763074Y-111682481D01*
X161029740Y-111825017D01*
X161319088Y-111912790D01*
X161620000Y-111942427D01*
X161920913Y-111912790D01*
X162210261Y-111825017D01*
X162476927Y-111682481D01*
X162710661Y-111490661D01*
X162902481Y-111256927D01*
X163045017Y-110990261D01*
X163132790Y-110700913D01*
X163155000Y-110475408D01*
X163155000Y-109627000D01*
X163895000Y-109627000D01*
X163895000Y-110527000D01*
X163949271Y-110824023D01*
X164060446Y-111104751D01*
X164224252Y-111358396D01*
X164434394Y-111575210D01*
X164682796Y-111746862D01*
X164959913Y-111866755D01*
X165065260Y-111891036D01*
X165303000Y-111770378D01*
X165303000Y-109627000D01*
X165557000Y-109627000D01*
X165557000Y-111770378D01*
X165794740Y-111891036D01*
X165900087Y-111866755D01*
X166021228Y-111814344D01*
X181115000Y-111814344D01*
X181115000Y-112185656D01*
X181187439Y-112549834D01*
X181329534Y-112892882D01*
X181535825Y-113201618D01*
X181798382Y-113464175D01*
X182107118Y-113670466D01*
X182450166Y-113812561D01*
X182814344Y-113885000D01*
X183185656Y-113885000D01*
X183549834Y-113812561D01*
X183892882Y-113670466D01*
X184201618Y-113464175D01*
X184464175Y-113201618D01*
X184670466Y-112892882D01*
X184812561Y-112549834D01*
X184885000Y-112185656D01*
X184885000Y-111814344D01*
X184812561Y-111450166D01*
X184670466Y-111107118D01*
X184464175Y-110798382D01*
X184201618Y-110535825D01*
X183892882Y-110329534D01*
X183549834Y-110187439D01*
X183185656Y-110115000D01*
X182814344Y-110115000D01*
X182450166Y-110187439D01*
X182107118Y-110329534D01*
X181798382Y-110535825D01*
X181535825Y-110798382D01*
X181329534Y-111107118D01*
X181187439Y-111450166D01*
X181115000Y-111814344D01*
X166021228Y-111814344D01*
X166177204Y-111746862D01*
X166425606Y-111575210D01*
X166635748Y-111358396D01*
X166799554Y-111104751D01*
X166910729Y-110824023D01*
X166965000Y-110527000D01*
X166965000Y-109627000D01*
X165557000Y-109627000D01*
X165303000Y-109627000D01*
X163895000Y-109627000D01*
X163155000Y-109627000D01*
X163155000Y-108524592D01*
X163149919Y-108473000D01*
X163895000Y-108473000D01*
X163895000Y-109373000D01*
X165303000Y-109373000D01*
X165303000Y-107229622D01*
X165557000Y-107229622D01*
X165557000Y-109373000D01*
X166965000Y-109373000D01*
X166965000Y-108473000D01*
X166910729Y-108175977D01*
X166799554Y-107895249D01*
X166635748Y-107641604D01*
X166425606Y-107424790D01*
X166177204Y-107253138D01*
X165900087Y-107133245D01*
X165794740Y-107108964D01*
X165557000Y-107229622D01*
X165303000Y-107229622D01*
X165065260Y-107108964D01*
X164959913Y-107133245D01*
X164682796Y-107253138D01*
X164434394Y-107424790D01*
X164224252Y-107641604D01*
X164060446Y-107895249D01*
X163949271Y-108175977D01*
X163895000Y-108473000D01*
X163149919Y-108473000D01*
X163132790Y-108299087D01*
X163045017Y-108009739D01*
X162902481Y-107743073D01*
X162710661Y-107509339D01*
X162476926Y-107317519D01*
X162210260Y-107174983D01*
X161920912Y-107087210D01*
X161620000Y-107057573D01*
X161319087Y-107087210D01*
X161029739Y-107174983D01*
X160763073Y-107317519D01*
X160529339Y-107509339D01*
X160337519Y-107743074D01*
X160194983Y-108009740D01*
X160107210Y-108299088D01*
X160085000Y-108524593D01*
X159345000Y-108524593D01*
X159345000Y-108524592D01*
X159322790Y-108299087D01*
X159235017Y-108009739D01*
X159092481Y-107743073D01*
X158900661Y-107509339D01*
X158666926Y-107317519D01*
X158400260Y-107174983D01*
X158110912Y-107087210D01*
X157810000Y-107057573D01*
X157509087Y-107087210D01*
X157219739Y-107174983D01*
X156953073Y-107317519D01*
X156719339Y-107509339D01*
X156527519Y-107743074D01*
X156384983Y-108009740D01*
X156297210Y-108299088D01*
X156275000Y-108524593D01*
X155538072Y-108524593D01*
X155538072Y-107950000D01*
X155521008Y-107776746D01*
X155470472Y-107610150D01*
X155388405Y-107456614D01*
X155277962Y-107322038D01*
X155143386Y-107211595D01*
X154989850Y-107129528D01*
X154823254Y-107078992D01*
X154650000Y-107061928D01*
X153350000Y-107061928D01*
X153176746Y-107078992D01*
X153010150Y-107129528D01*
X152856614Y-107211595D01*
X152722038Y-107322038D01*
X152611595Y-107456614D01*
X152529528Y-107610150D01*
X152478992Y-107776746D01*
X152461928Y-107950000D01*
X148821237Y-107950000D01*
X148799554Y-107895249D01*
X148635748Y-107641604D01*
X148425606Y-107424790D01*
X148177204Y-107253138D01*
X147900087Y-107133245D01*
X147794740Y-107108964D01*
X147557000Y-107229622D01*
X147303000Y-107229622D01*
X147065260Y-107108964D01*
X146959913Y-107133245D01*
X146682796Y-107253138D01*
X146434394Y-107424790D01*
X146224252Y-107641604D01*
X146060446Y-107895249D01*
X145949271Y-108175977D01*
X145895000Y-108473000D01*
X145149919Y-108473000D01*
X145132790Y-108299087D01*
X145045017Y-108009739D01*
X144902481Y-107743073D01*
X144710661Y-107509339D01*
X144476926Y-107317519D01*
X144210260Y-107174983D01*
X143920912Y-107087210D01*
X143620000Y-107057573D01*
X143319087Y-107087210D01*
X143029739Y-107174983D01*
X142763073Y-107317519D01*
X142529339Y-107509339D01*
X142337519Y-107743074D01*
X142194983Y-108009740D01*
X142107210Y-108299088D01*
X142085000Y-108524593D01*
X141345000Y-108524593D01*
X141345000Y-108524592D01*
X141322790Y-108299087D01*
X141235017Y-108009739D01*
X141092481Y-107743073D01*
X140900661Y-107509339D01*
X140666926Y-107317519D01*
X140400260Y-107174983D01*
X140110912Y-107087210D01*
X139810000Y-107057573D01*
X139509087Y-107087210D01*
X139219739Y-107174983D01*
X138953073Y-107317519D01*
X138719339Y-107509339D01*
X138527519Y-107743074D01*
X138384983Y-108009740D01*
X138297210Y-108299088D01*
X138275000Y-108524593D01*
X137538072Y-108524593D01*
X137538072Y-107950000D01*
X137521008Y-107776746D01*
X137470472Y-107610150D01*
X137388405Y-107456614D01*
X137277962Y-107322038D01*
X137143386Y-107211595D01*
X136989850Y-107129528D01*
X136823254Y-107078992D01*
X136650000Y-107061928D01*
X135350000Y-107061928D01*
X135176746Y-107078992D01*
X135010150Y-107129528D01*
X134856614Y-107211595D01*
X134722038Y-107322038D01*
X134611595Y-107456614D01*
X134529528Y-107610150D01*
X134478992Y-107776746D01*
X134461928Y-107950000D01*
X121579761Y-107950000D01*
X121572896Y-107933428D01*
X121465099Y-107772099D01*
X121327901Y-107634901D01*
X121166572Y-107527104D01*
X120987314Y-107452853D01*
X120797014Y-107415000D01*
X120602986Y-107415000D01*
X120412686Y-107452853D01*
X120233428Y-107527104D01*
X120072099Y-107634901D01*
X119934901Y-107772099D01*
X119827104Y-107933428D01*
X119752853Y-108112686D01*
X119715000Y-108302986D01*
X119660000Y-108302986D01*
X119660000Y-105502986D01*
X127715000Y-105502986D01*
X127715000Y-105697014D01*
X127752853Y-105887314D01*
X127827104Y-106066572D01*
X127934901Y-106227901D01*
X128072099Y-106365099D01*
X128233428Y-106472896D01*
X128412686Y-106547147D01*
X128602986Y-106585000D01*
X128797014Y-106585000D01*
X128987314Y-106547147D01*
X129166572Y-106472896D01*
X129327901Y-106365099D01*
X129465099Y-106227901D01*
X129572896Y-106066572D01*
X129647147Y-105887314D01*
X129685000Y-105697014D01*
X129685000Y-105502986D01*
X129647147Y-105312686D01*
X129572896Y-105133428D01*
X129465099Y-104972099D01*
X129327901Y-104834901D01*
X129166572Y-104727104D01*
X129108346Y-104702986D01*
X149115000Y-104702986D01*
X149115000Y-104897014D01*
X149152853Y-105087314D01*
X149227104Y-105266572D01*
X149334901Y-105427901D01*
X149472099Y-105565099D01*
X149633428Y-105672896D01*
X149812686Y-105747147D01*
X150002986Y-105785000D01*
X150197014Y-105785000D01*
X150387314Y-105747147D01*
X150566572Y-105672896D01*
X150727901Y-105565099D01*
X150865099Y-105427901D01*
X150972896Y-105266572D01*
X151047147Y-105087314D01*
X151085000Y-104897014D01*
X151085000Y-104702986D01*
X155165000Y-104702986D01*
X155165000Y-104897014D01*
X155202853Y-105087314D01*
X155277104Y-105266572D01*
X155384901Y-105427901D01*
X155522099Y-105565099D01*
X155683428Y-105672896D01*
X155862686Y-105747147D01*
X156052986Y-105785000D01*
X156247014Y-105785000D01*
X156437314Y-105747147D01*
X156616572Y-105672896D01*
X156777901Y-105565099D01*
X156915099Y-105427901D01*
X157022896Y-105266572D01*
X157097147Y-105087314D01*
X157135000Y-104897014D01*
X157135000Y-104862986D01*
X172655000Y-104862986D01*
X172655000Y-105057014D01*
X172692853Y-105247314D01*
X172767104Y-105426572D01*
X172856258Y-105560000D01*
X172767104Y-105693428D01*
X172692853Y-105872686D01*
X172655000Y-106062986D01*
X172655000Y-106257014D01*
X172692853Y-106447314D01*
X172767104Y-106626572D01*
X172874901Y-106787901D01*
X173012099Y-106925099D01*
X173173428Y-107032896D01*
X173352686Y-107107147D01*
X173542986Y-107145000D01*
X173737014Y-107145000D01*
X173927314Y-107107147D01*
X174106572Y-107032896D01*
X174267901Y-106925099D01*
X174380014Y-106812986D01*
X174555000Y-106812986D01*
X174555000Y-107007014D01*
X174592853Y-107197314D01*
X174667104Y-107376572D01*
X174774901Y-107537901D01*
X174912099Y-107675099D01*
X175073428Y-107782896D01*
X175252686Y-107857147D01*
X175442986Y-107895000D01*
X175637014Y-107895000D01*
X175827314Y-107857147D01*
X176006572Y-107782896D01*
X176167901Y-107675099D01*
X176305099Y-107537901D01*
X176412896Y-107376572D01*
X176484797Y-107202986D01*
X178915000Y-107202986D01*
X178915000Y-107397014D01*
X178952853Y-107587314D01*
X179027104Y-107766572D01*
X179134901Y-107927901D01*
X179272099Y-108065099D01*
X179433428Y-108172896D01*
X179612686Y-108247147D01*
X179802986Y-108285000D01*
X179997014Y-108285000D01*
X180187314Y-108247147D01*
X180366572Y-108172896D01*
X180527901Y-108065099D01*
X180605014Y-107987986D01*
X194465000Y-107987986D01*
X194465000Y-108182014D01*
X194502853Y-108372314D01*
X194577104Y-108551572D01*
X194599440Y-108585000D01*
X194577104Y-108618428D01*
X194502853Y-108797686D01*
X194465000Y-108987986D01*
X194465000Y-109182014D01*
X194502853Y-109372314D01*
X194577104Y-109551572D01*
X194684901Y-109712901D01*
X194822099Y-109850099D01*
X194983428Y-109957896D01*
X195162686Y-110032147D01*
X195352986Y-110070000D01*
X195547014Y-110070000D01*
X195737314Y-110032147D01*
X195916572Y-109957896D01*
X196077901Y-109850099D01*
X196215099Y-109712901D01*
X196322896Y-109551572D01*
X196397147Y-109372314D01*
X196435000Y-109182014D01*
X196435000Y-108987986D01*
X196397147Y-108797686D01*
X196322896Y-108618428D01*
X196300560Y-108585000D01*
X196322896Y-108551572D01*
X196397147Y-108372314D01*
X196435000Y-108182014D01*
X196435000Y-107987986D01*
X196397147Y-107797686D01*
X196322896Y-107618428D01*
X196215099Y-107457099D01*
X196077901Y-107319901D01*
X195916572Y-107212104D01*
X195737314Y-107137853D01*
X195547014Y-107100000D01*
X195352986Y-107100000D01*
X195162686Y-107137853D01*
X194983428Y-107212104D01*
X194822099Y-107319901D01*
X194684901Y-107457099D01*
X194577104Y-107618428D01*
X194502853Y-107797686D01*
X194465000Y-107987986D01*
X180605014Y-107987986D01*
X180665099Y-107927901D01*
X180772896Y-107766572D01*
X180847147Y-107587314D01*
X180885000Y-107397014D01*
X180885000Y-107202986D01*
X180847147Y-107012686D01*
X180772896Y-106833428D01*
X180665099Y-106672099D01*
X180663000Y-106670000D01*
X180847014Y-106670000D01*
X180920364Y-106655410D01*
X180902853Y-106697686D01*
X180865000Y-106887986D01*
X180865000Y-107082014D01*
X180902853Y-107272314D01*
X180977104Y-107451572D01*
X181084901Y-107612901D01*
X181222099Y-107750099D01*
X181383428Y-107857896D01*
X181562686Y-107932147D01*
X181752986Y-107970000D01*
X181947014Y-107970000D01*
X182137314Y-107932147D01*
X182250000Y-107885471D01*
X182362686Y-107932147D01*
X182552986Y-107970000D01*
X182747014Y-107970000D01*
X182937314Y-107932147D01*
X183116572Y-107857896D01*
X183277901Y-107750099D01*
X183415099Y-107612901D01*
X183522896Y-107451572D01*
X183597147Y-107272314D01*
X183635000Y-107082014D01*
X183635000Y-106887986D01*
X183597147Y-106697686D01*
X183522896Y-106518428D01*
X183415099Y-106357099D01*
X183277901Y-106219901D01*
X183116572Y-106112104D01*
X182937314Y-106037853D01*
X182747014Y-106000000D01*
X182552986Y-106000000D01*
X182362686Y-106037853D01*
X182250000Y-106084529D01*
X182137314Y-106037853D01*
X181947014Y-106000000D01*
X181752986Y-106000000D01*
X181679636Y-106014590D01*
X181690655Y-105987986D01*
X188165000Y-105987986D01*
X188165000Y-106182014D01*
X188202853Y-106372314D01*
X188277104Y-106551572D01*
X188384901Y-106712901D01*
X188522099Y-106850099D01*
X188683428Y-106957896D01*
X188862686Y-107032147D01*
X189052986Y-107070000D01*
X189247014Y-107070000D01*
X189437314Y-107032147D01*
X189550000Y-106985471D01*
X189662686Y-107032147D01*
X189852986Y-107070000D01*
X190047014Y-107070000D01*
X190237314Y-107032147D01*
X190416572Y-106957896D01*
X190577901Y-106850099D01*
X190715099Y-106712901D01*
X190822896Y-106551572D01*
X190897147Y-106372314D01*
X190935000Y-106182014D01*
X190935000Y-105987986D01*
X190897147Y-105797686D01*
X190822896Y-105618428D01*
X190715099Y-105457099D01*
X190660986Y-105402986D01*
X197465000Y-105402986D01*
X197465000Y-105597014D01*
X197502853Y-105787314D01*
X197577104Y-105966572D01*
X197684901Y-106127901D01*
X197822099Y-106265099D01*
X197983428Y-106372896D01*
X198162686Y-106447147D01*
X198352986Y-106485000D01*
X198547014Y-106485000D01*
X198737314Y-106447147D01*
X198916572Y-106372896D01*
X199077901Y-106265099D01*
X199215099Y-106127901D01*
X199322896Y-105966572D01*
X199397147Y-105787314D01*
X199435000Y-105597014D01*
X199435000Y-105402986D01*
X199397147Y-105212686D01*
X199322896Y-105033428D01*
X199215099Y-104872099D01*
X199077901Y-104734901D01*
X198916572Y-104627104D01*
X198737314Y-104552853D01*
X198547014Y-104515000D01*
X198352986Y-104515000D01*
X198162686Y-104552853D01*
X197983428Y-104627104D01*
X197822099Y-104734901D01*
X197684901Y-104872099D01*
X197577104Y-105033428D01*
X197502853Y-105212686D01*
X197465000Y-105402986D01*
X190660986Y-105402986D01*
X190577901Y-105319901D01*
X190416572Y-105212104D01*
X190237314Y-105137853D01*
X190047014Y-105100000D01*
X189852986Y-105100000D01*
X189662686Y-105137853D01*
X189550000Y-105184529D01*
X189437314Y-105137853D01*
X189247014Y-105100000D01*
X189052986Y-105100000D01*
X188862686Y-105137853D01*
X188683428Y-105212104D01*
X188522099Y-105319901D01*
X188384901Y-105457099D01*
X188277104Y-105618428D01*
X188202853Y-105797686D01*
X188165000Y-105987986D01*
X181690655Y-105987986D01*
X181697147Y-105972314D01*
X181735000Y-105782014D01*
X181735000Y-105587986D01*
X181697147Y-105397686D01*
X181622896Y-105218428D01*
X181515099Y-105057099D01*
X181377901Y-104919901D01*
X181216572Y-104812104D01*
X181037314Y-104737853D01*
X180847014Y-104700000D01*
X180652986Y-104700000D01*
X180462686Y-104737853D01*
X180283428Y-104812104D01*
X180122099Y-104919901D01*
X179984901Y-105057099D01*
X179877104Y-105218428D01*
X179802853Y-105397686D01*
X179765000Y-105587986D01*
X179765000Y-105782014D01*
X179802853Y-105972314D01*
X179877104Y-106151572D01*
X179984901Y-106312901D01*
X179987000Y-106315000D01*
X179802986Y-106315000D01*
X179612686Y-106352853D01*
X179433428Y-106427104D01*
X179272099Y-106534901D01*
X179134901Y-106672099D01*
X179027104Y-106833428D01*
X178952853Y-107012686D01*
X178915000Y-107202986D01*
X176484797Y-107202986D01*
X176487147Y-107197314D01*
X176525000Y-107007014D01*
X176525000Y-106812986D01*
X176487147Y-106622686D01*
X176412896Y-106443428D01*
X176305099Y-106282099D01*
X176167901Y-106144901D01*
X176006572Y-106037104D01*
X175827314Y-105962853D01*
X175637014Y-105925000D01*
X175442986Y-105925000D01*
X175252686Y-105962853D01*
X175073428Y-106037104D01*
X174912099Y-106144901D01*
X174774901Y-106282099D01*
X174667104Y-106443428D01*
X174592853Y-106622686D01*
X174555000Y-106812986D01*
X174380014Y-106812986D01*
X174405099Y-106787901D01*
X174512896Y-106626572D01*
X174587147Y-106447314D01*
X174625000Y-106257014D01*
X174625000Y-106062986D01*
X174587147Y-105872686D01*
X174512896Y-105693428D01*
X174423742Y-105560000D01*
X174512896Y-105426572D01*
X174587147Y-105247314D01*
X174625000Y-105057014D01*
X174625000Y-104862986D01*
X174587147Y-104672686D01*
X174512896Y-104493428D01*
X174405099Y-104332099D01*
X174267901Y-104194901D01*
X174106572Y-104087104D01*
X173927314Y-104012853D01*
X173737014Y-103975000D01*
X173542986Y-103975000D01*
X173352686Y-104012853D01*
X173173428Y-104087104D01*
X173012099Y-104194901D01*
X172874901Y-104332099D01*
X172767104Y-104493428D01*
X172692853Y-104672686D01*
X172655000Y-104862986D01*
X157135000Y-104862986D01*
X157135000Y-104702986D01*
X157097147Y-104512686D01*
X157022896Y-104333428D01*
X156915099Y-104172099D01*
X156777901Y-104034901D01*
X156616572Y-103927104D01*
X156437314Y-103852853D01*
X156247014Y-103815000D01*
X156052986Y-103815000D01*
X155862686Y-103852853D01*
X155683428Y-103927104D01*
X155522099Y-104034901D01*
X155384901Y-104172099D01*
X155277104Y-104333428D01*
X155202853Y-104512686D01*
X155165000Y-104702986D01*
X151085000Y-104702986D01*
X151047147Y-104512686D01*
X150972896Y-104333428D01*
X150865099Y-104172099D01*
X150727901Y-104034901D01*
X150566572Y-103927104D01*
X150387314Y-103852853D01*
X150197014Y-103815000D01*
X150002986Y-103815000D01*
X149812686Y-103852853D01*
X149633428Y-103927104D01*
X149472099Y-104034901D01*
X149334901Y-104172099D01*
X149227104Y-104333428D01*
X149152853Y-104512686D01*
X149115000Y-104702986D01*
X129108346Y-104702986D01*
X128987314Y-104652853D01*
X128797014Y-104615000D01*
X128602986Y-104615000D01*
X128412686Y-104652853D01*
X128233428Y-104727104D01*
X128072099Y-104834901D01*
X127934901Y-104972099D01*
X127827104Y-105133428D01*
X127752853Y-105312686D01*
X127715000Y-105502986D01*
X119660000Y-105502986D01*
X119660000Y-103188212D01*
X122565000Y-103188212D01*
X122565000Y-103411788D01*
X122608617Y-103631067D01*
X122694176Y-103837624D01*
X122818388Y-104023520D01*
X122976480Y-104181612D01*
X123162376Y-104305824D01*
X123368933Y-104391383D01*
X123588212Y-104435000D01*
X123811788Y-104435000D01*
X124031067Y-104391383D01*
X124237624Y-104305824D01*
X124423520Y-104181612D01*
X124581612Y-104023520D01*
X124705824Y-103837624D01*
X124791383Y-103631067D01*
X124835000Y-103411788D01*
X124835000Y-103188212D01*
X124791383Y-102968933D01*
X124705824Y-102762376D01*
X124581612Y-102576480D01*
X124508118Y-102502986D01*
X140215000Y-102502986D01*
X140215000Y-102697014D01*
X140252853Y-102887314D01*
X140327104Y-103066572D01*
X140434901Y-103227901D01*
X140572099Y-103365099D01*
X140733428Y-103472896D01*
X140912686Y-103547147D01*
X141102986Y-103585000D01*
X141297014Y-103585000D01*
X141487314Y-103547147D01*
X141666572Y-103472896D01*
X141827901Y-103365099D01*
X141965099Y-103227901D01*
X142072896Y-103066572D01*
X142147147Y-102887314D01*
X142185000Y-102697014D01*
X142185000Y-102502986D01*
X142147147Y-102312686D01*
X142072896Y-102133428D01*
X141965099Y-101972099D01*
X141827901Y-101834901D01*
X141666572Y-101727104D01*
X141487314Y-101652853D01*
X141297014Y-101615000D01*
X141102986Y-101615000D01*
X140912686Y-101652853D01*
X140733428Y-101727104D01*
X140572099Y-101834901D01*
X140434901Y-101972099D01*
X140327104Y-102133428D01*
X140252853Y-102312686D01*
X140215000Y-102502986D01*
X124508118Y-102502986D01*
X124423520Y-102418388D01*
X124237624Y-102294176D01*
X124031067Y-102208617D01*
X123811788Y-102165000D01*
X123588212Y-102165000D01*
X123368933Y-102208617D01*
X123162376Y-102294176D01*
X122976480Y-102418388D01*
X122818388Y-102576480D01*
X122694176Y-102762376D01*
X122608617Y-102968933D01*
X122565000Y-103188212D01*
X119660000Y-103188212D01*
X119660000Y-101202986D01*
X142715000Y-101202986D01*
X142715000Y-101397014D01*
X142752853Y-101587314D01*
X142827104Y-101766572D01*
X142934901Y-101927901D01*
X143072099Y-102065099D01*
X143233428Y-102172896D01*
X143412686Y-102247147D01*
X143602986Y-102285000D01*
X143797014Y-102285000D01*
X143987314Y-102247147D01*
X144166572Y-102172896D01*
X144271199Y-102102986D01*
X145015000Y-102102986D01*
X145015000Y-102297014D01*
X145052853Y-102487314D01*
X145127104Y-102666572D01*
X145234901Y-102827901D01*
X145372099Y-102965099D01*
X145533428Y-103072896D01*
X145712686Y-103147147D01*
X145902986Y-103185000D01*
X146097014Y-103185000D01*
X146287314Y-103147147D01*
X146466572Y-103072896D01*
X146627901Y-102965099D01*
X146765099Y-102827901D01*
X146872896Y-102666572D01*
X146947147Y-102487314D01*
X146985000Y-102297014D01*
X146985000Y-102102986D01*
X146947147Y-101912686D01*
X146872896Y-101733428D01*
X146765099Y-101572099D01*
X146627901Y-101434901D01*
X146466572Y-101327104D01*
X146287314Y-101252853D01*
X146097014Y-101215000D01*
X145902986Y-101215000D01*
X145712686Y-101252853D01*
X145533428Y-101327104D01*
X145372099Y-101434901D01*
X145234901Y-101572099D01*
X145127104Y-101733428D01*
X145052853Y-101912686D01*
X145015000Y-102102986D01*
X144271199Y-102102986D01*
X144327901Y-102065099D01*
X144465099Y-101927901D01*
X144572896Y-101766572D01*
X144647147Y-101587314D01*
X144685000Y-101397014D01*
X144685000Y-101202986D01*
X162515000Y-101202986D01*
X162515000Y-101397014D01*
X162552853Y-101587314D01*
X162627104Y-101766572D01*
X162734901Y-101927901D01*
X162872099Y-102065099D01*
X163011662Y-102158352D01*
X162897099Y-102234901D01*
X162759901Y-102372099D01*
X162652104Y-102533428D01*
X162577853Y-102712686D01*
X162540000Y-102902986D01*
X162540000Y-103097014D01*
X162577853Y-103287314D01*
X162652104Y-103466572D01*
X162759901Y-103627901D01*
X162897099Y-103765099D01*
X163058428Y-103872896D01*
X163237686Y-103947147D01*
X163427986Y-103985000D01*
X163622014Y-103985000D01*
X163812314Y-103947147D01*
X163991572Y-103872896D01*
X164152901Y-103765099D01*
X164290099Y-103627901D01*
X164397896Y-103466572D01*
X164472147Y-103287314D01*
X164510000Y-103097014D01*
X164510000Y-102902986D01*
X164472147Y-102712686D01*
X164397896Y-102533428D01*
X164290099Y-102372099D01*
X164152901Y-102234901D01*
X164013338Y-102141648D01*
X164127901Y-102065099D01*
X164265099Y-101927901D01*
X164372896Y-101766572D01*
X164447147Y-101587314D01*
X164485000Y-101397014D01*
X164485000Y-101202986D01*
X164447147Y-101012686D01*
X164432736Y-100977894D01*
X164587314Y-100947147D01*
X164766572Y-100872896D01*
X164927901Y-100765099D01*
X165065099Y-100627901D01*
X165172896Y-100466572D01*
X165247147Y-100287314D01*
X165285000Y-100097014D01*
X165285000Y-99902986D01*
X165247147Y-99712686D01*
X165172896Y-99533428D01*
X165065099Y-99372099D01*
X164927901Y-99234901D01*
X164880138Y-99202986D01*
X187015000Y-99202986D01*
X187015000Y-99397014D01*
X187052853Y-99587314D01*
X187127104Y-99766572D01*
X187149440Y-99800000D01*
X187127104Y-99833428D01*
X187052853Y-100012686D01*
X187015000Y-100202986D01*
X187015000Y-100397014D01*
X187052853Y-100587314D01*
X187127104Y-100766572D01*
X187149440Y-100800000D01*
X187127104Y-100833428D01*
X187052853Y-101012686D01*
X187015000Y-101202986D01*
X187015000Y-101397014D01*
X187052853Y-101587314D01*
X187127104Y-101766572D01*
X187149440Y-101800000D01*
X187127104Y-101833428D01*
X187052853Y-102012686D01*
X187015000Y-102202986D01*
X187015000Y-102397014D01*
X187052853Y-102587314D01*
X187127104Y-102766572D01*
X187149440Y-102800000D01*
X187127104Y-102833428D01*
X187052853Y-103012686D01*
X187015000Y-103202986D01*
X187015000Y-103397014D01*
X187052853Y-103587314D01*
X187127104Y-103766572D01*
X187234901Y-103927901D01*
X187372099Y-104065099D01*
X187533428Y-104172896D01*
X187712686Y-104247147D01*
X187902986Y-104285000D01*
X188097014Y-104285000D01*
X188287314Y-104247147D01*
X188466572Y-104172896D01*
X188500000Y-104150560D01*
X188533428Y-104172896D01*
X188712686Y-104247147D01*
X188902986Y-104285000D01*
X189097014Y-104285000D01*
X189287314Y-104247147D01*
X189466572Y-104172896D01*
X189627901Y-104065099D01*
X189765099Y-103927901D01*
X189872896Y-103766572D01*
X189947147Y-103587314D01*
X189985000Y-103397014D01*
X189985000Y-103202986D01*
X189947147Y-103012686D01*
X189872896Y-102833428D01*
X189850560Y-102800000D01*
X189872896Y-102766572D01*
X189947147Y-102587314D01*
X189985000Y-102397014D01*
X189985000Y-102202986D01*
X189947147Y-102012686D01*
X189872896Y-101833428D01*
X189850560Y-101800000D01*
X189872896Y-101766572D01*
X189947147Y-101587314D01*
X189985000Y-101397014D01*
X189985000Y-101202986D01*
X189947147Y-101012686D01*
X189872896Y-100833428D01*
X189850560Y-100800000D01*
X189872896Y-100766572D01*
X189947147Y-100587314D01*
X189985000Y-100397014D01*
X189985000Y-100202986D01*
X189947147Y-100012686D01*
X189872896Y-99833428D01*
X189850560Y-99800000D01*
X189872896Y-99766572D01*
X189947147Y-99587314D01*
X189985000Y-99397014D01*
X189985000Y-99202986D01*
X189947147Y-99012686D01*
X189872896Y-98833428D01*
X189765099Y-98672099D01*
X189627901Y-98534901D01*
X189466572Y-98427104D01*
X189287314Y-98352853D01*
X189097014Y-98315000D01*
X188902986Y-98315000D01*
X188712686Y-98352853D01*
X188533428Y-98427104D01*
X188500000Y-98449440D01*
X188466572Y-98427104D01*
X188287314Y-98352853D01*
X188097014Y-98315000D01*
X187902986Y-98315000D01*
X187712686Y-98352853D01*
X187533428Y-98427104D01*
X187372099Y-98534901D01*
X187234901Y-98672099D01*
X187127104Y-98833428D01*
X187052853Y-99012686D01*
X187015000Y-99202986D01*
X164880138Y-99202986D01*
X164766572Y-99127104D01*
X164587314Y-99052853D01*
X164397014Y-99015000D01*
X164202986Y-99015000D01*
X164012686Y-99052853D01*
X163833428Y-99127104D01*
X163672099Y-99234901D01*
X163534901Y-99372099D01*
X163427104Y-99533428D01*
X163352853Y-99712686D01*
X163315000Y-99902986D01*
X163315000Y-100097014D01*
X163352853Y-100287314D01*
X163367264Y-100322106D01*
X163212686Y-100352853D01*
X163033428Y-100427104D01*
X162872099Y-100534901D01*
X162734901Y-100672099D01*
X162627104Y-100833428D01*
X162552853Y-101012686D01*
X162515000Y-101202986D01*
X144685000Y-101202986D01*
X144647147Y-101012686D01*
X144572896Y-100833428D01*
X144465099Y-100672099D01*
X144327901Y-100534901D01*
X144166572Y-100427104D01*
X143987314Y-100352853D01*
X143797014Y-100315000D01*
X143602986Y-100315000D01*
X143412686Y-100352853D01*
X143233428Y-100427104D01*
X143072099Y-100534901D01*
X142934901Y-100672099D01*
X142827104Y-100833428D01*
X142752853Y-101012686D01*
X142715000Y-101202986D01*
X119660000Y-101202986D01*
X119660000Y-98788212D01*
X122565000Y-98788212D01*
X122565000Y-99011788D01*
X122608617Y-99231067D01*
X122694176Y-99437624D01*
X122818388Y-99623520D01*
X122976480Y-99781612D01*
X123162376Y-99905824D01*
X123368933Y-99991383D01*
X123588212Y-100035000D01*
X123811788Y-100035000D01*
X124031067Y-99991383D01*
X124237624Y-99905824D01*
X124423520Y-99781612D01*
X124581612Y-99623520D01*
X124705824Y-99437624D01*
X124791383Y-99231067D01*
X124816859Y-99102986D01*
X132815000Y-99102986D01*
X132815000Y-99297014D01*
X132852853Y-99487314D01*
X132927104Y-99666572D01*
X133034901Y-99827901D01*
X133172099Y-99965099D01*
X133333428Y-100072896D01*
X133512686Y-100147147D01*
X133702986Y-100185000D01*
X133897014Y-100185000D01*
X134087314Y-100147147D01*
X134266572Y-100072896D01*
X134427901Y-99965099D01*
X134565099Y-99827901D01*
X134672896Y-99666572D01*
X134747147Y-99487314D01*
X134785000Y-99297014D01*
X134785000Y-99102986D01*
X134747147Y-98912686D01*
X134672896Y-98733428D01*
X134565099Y-98572099D01*
X134427901Y-98434901D01*
X134266572Y-98327104D01*
X134208346Y-98302986D01*
X134915000Y-98302986D01*
X134915000Y-98497014D01*
X134952853Y-98687314D01*
X135027104Y-98866572D01*
X135134901Y-99027901D01*
X135272099Y-99165099D01*
X135433428Y-99272896D01*
X135612686Y-99347147D01*
X135802986Y-99385000D01*
X135997014Y-99385000D01*
X136187314Y-99347147D01*
X136366572Y-99272896D01*
X136527901Y-99165099D01*
X136665099Y-99027901D01*
X136772896Y-98866572D01*
X136799234Y-98802986D01*
X138715000Y-98802986D01*
X138715000Y-98997014D01*
X138752853Y-99187314D01*
X138827104Y-99366572D01*
X138934901Y-99527901D01*
X139072099Y-99665099D01*
X139233428Y-99772896D01*
X139412686Y-99847147D01*
X139602986Y-99885000D01*
X139797014Y-99885000D01*
X139987314Y-99847147D01*
X140166572Y-99772896D01*
X140327901Y-99665099D01*
X140465099Y-99527901D01*
X140572896Y-99366572D01*
X140647147Y-99187314D01*
X140685000Y-98997014D01*
X140685000Y-98802986D01*
X140647147Y-98612686D01*
X140572896Y-98433428D01*
X140465099Y-98272099D01*
X140327901Y-98134901D01*
X140166572Y-98027104D01*
X139987314Y-97952853D01*
X139797014Y-97915000D01*
X139602986Y-97915000D01*
X139412686Y-97952853D01*
X139233428Y-98027104D01*
X139072099Y-98134901D01*
X138934901Y-98272099D01*
X138827104Y-98433428D01*
X138752853Y-98612686D01*
X138715000Y-98802986D01*
X136799234Y-98802986D01*
X136847147Y-98687314D01*
X136885000Y-98497014D01*
X136885000Y-98302986D01*
X136847147Y-98112686D01*
X136772896Y-97933428D01*
X136665099Y-97772099D01*
X136527901Y-97634901D01*
X136480138Y-97602986D01*
X147015000Y-97602986D01*
X147015000Y-97797014D01*
X147052853Y-97987314D01*
X147127104Y-98166572D01*
X147234901Y-98327901D01*
X147372099Y-98465099D01*
X147533428Y-98572896D01*
X147712686Y-98647147D01*
X147902986Y-98685000D01*
X148097014Y-98685000D01*
X148287314Y-98647147D01*
X148466572Y-98572896D01*
X148627901Y-98465099D01*
X148765099Y-98327901D01*
X148872896Y-98166572D01*
X148938086Y-98009190D01*
X149033428Y-98072896D01*
X149212686Y-98147147D01*
X149402986Y-98185000D01*
X149597014Y-98185000D01*
X149787314Y-98147147D01*
X149966572Y-98072896D01*
X150127901Y-97965099D01*
X150265099Y-97827901D01*
X150372896Y-97666572D01*
X150440655Y-97502986D01*
X156265000Y-97502986D01*
X156265000Y-97697014D01*
X156302853Y-97887314D01*
X156377104Y-98066572D01*
X156484901Y-98227901D01*
X156622099Y-98365099D01*
X156783428Y-98472896D01*
X156962686Y-98547147D01*
X157152986Y-98585000D01*
X157347014Y-98585000D01*
X157537314Y-98547147D01*
X157716572Y-98472896D01*
X157877901Y-98365099D01*
X158015099Y-98227901D01*
X158122896Y-98066572D01*
X158197147Y-97887314D01*
X158235000Y-97697014D01*
X158235000Y-97502986D01*
X158197147Y-97312686D01*
X158122896Y-97133428D01*
X158015099Y-96972099D01*
X157877901Y-96834901D01*
X157716572Y-96727104D01*
X157537314Y-96652853D01*
X157347014Y-96615000D01*
X157152986Y-96615000D01*
X156962686Y-96652853D01*
X156783428Y-96727104D01*
X156622099Y-96834901D01*
X156484901Y-96972099D01*
X156377104Y-97133428D01*
X156302853Y-97312686D01*
X156265000Y-97502986D01*
X150440655Y-97502986D01*
X150447147Y-97487314D01*
X150485000Y-97297014D01*
X150485000Y-97102986D01*
X150447147Y-96912686D01*
X150372896Y-96733428D01*
X150265099Y-96572099D01*
X150127901Y-96434901D01*
X149966572Y-96327104D01*
X149787314Y-96252853D01*
X149597014Y-96215000D01*
X149402986Y-96215000D01*
X149212686Y-96252853D01*
X149033428Y-96327104D01*
X148872099Y-96434901D01*
X148734901Y-96572099D01*
X148627104Y-96733428D01*
X148561914Y-96890810D01*
X148466572Y-96827104D01*
X148287314Y-96752853D01*
X148097014Y-96715000D01*
X147902986Y-96715000D01*
X147712686Y-96752853D01*
X147533428Y-96827104D01*
X147372099Y-96934901D01*
X147234901Y-97072099D01*
X147127104Y-97233428D01*
X147052853Y-97412686D01*
X147015000Y-97602986D01*
X136480138Y-97602986D01*
X136366572Y-97527104D01*
X136187314Y-97452853D01*
X135997014Y-97415000D01*
X135802986Y-97415000D01*
X135612686Y-97452853D01*
X135433428Y-97527104D01*
X135272099Y-97634901D01*
X135134901Y-97772099D01*
X135027104Y-97933428D01*
X134952853Y-98112686D01*
X134915000Y-98302986D01*
X134208346Y-98302986D01*
X134087314Y-98252853D01*
X133897014Y-98215000D01*
X133702986Y-98215000D01*
X133512686Y-98252853D01*
X133333428Y-98327104D01*
X133172099Y-98434901D01*
X133034901Y-98572099D01*
X132927104Y-98733428D01*
X132852853Y-98912686D01*
X132815000Y-99102986D01*
X124816859Y-99102986D01*
X124835000Y-99011788D01*
X124835000Y-98788212D01*
X124791383Y-98568933D01*
X124705824Y-98362376D01*
X124581612Y-98176480D01*
X124423520Y-98018388D01*
X124237624Y-97894176D01*
X124031067Y-97808617D01*
X123811788Y-97765000D01*
X123588212Y-97765000D01*
X123368933Y-97808617D01*
X123162376Y-97894176D01*
X122976480Y-98018388D01*
X122818388Y-98176480D01*
X122694176Y-98362376D01*
X122608617Y-98568933D01*
X122565000Y-98788212D01*
X119660000Y-98788212D01*
X119660000Y-96112986D01*
X129105000Y-96112986D01*
X129105000Y-96307014D01*
X129142853Y-96497314D01*
X129217104Y-96676572D01*
X129324901Y-96837901D01*
X129462099Y-96975099D01*
X129623428Y-97082896D01*
X129802686Y-97157147D01*
X129992986Y-97195000D01*
X130187014Y-97195000D01*
X130377314Y-97157147D01*
X130556572Y-97082896D01*
X130717901Y-96975099D01*
X130855099Y-96837901D01*
X130962896Y-96676572D01*
X131037147Y-96497314D01*
X131075000Y-96307014D01*
X131075000Y-96112986D01*
X131037147Y-95922686D01*
X131028988Y-95902986D01*
X161615000Y-95902986D01*
X161615000Y-96097014D01*
X161652853Y-96287314D01*
X161727104Y-96466572D01*
X161834901Y-96627901D01*
X161972099Y-96765099D01*
X162133428Y-96872896D01*
X162312686Y-96947147D01*
X162415000Y-96967499D01*
X162415000Y-96997014D01*
X162452853Y-97187314D01*
X162527104Y-97366572D01*
X162634901Y-97527901D01*
X162772099Y-97665099D01*
X162933428Y-97772896D01*
X163112686Y-97847147D01*
X163302986Y-97885000D01*
X163497014Y-97885000D01*
X163687314Y-97847147D01*
X163866572Y-97772896D01*
X164027901Y-97665099D01*
X164165099Y-97527901D01*
X164272896Y-97366572D01*
X164347147Y-97187314D01*
X164385000Y-96997014D01*
X164385000Y-96802986D01*
X164347147Y-96612686D01*
X164272896Y-96433428D01*
X164165099Y-96272099D01*
X164027901Y-96134901D01*
X163866572Y-96027104D01*
X163687314Y-95952853D01*
X163585000Y-95932501D01*
X163585000Y-95902986D01*
X163547147Y-95712686D01*
X163472896Y-95533428D01*
X163365099Y-95372099D01*
X163295986Y-95302986D01*
X176315000Y-95302986D01*
X176315000Y-95497014D01*
X176352853Y-95687314D01*
X176427104Y-95866572D01*
X176449440Y-95900000D01*
X176427104Y-95933428D01*
X176352853Y-96112686D01*
X176315000Y-96302986D01*
X176315000Y-96497014D01*
X176352853Y-96687314D01*
X176427104Y-96866572D01*
X176534901Y-97027901D01*
X176672099Y-97165099D01*
X176833428Y-97272896D01*
X177012686Y-97347147D01*
X177202986Y-97385000D01*
X177397014Y-97385000D01*
X177587314Y-97347147D01*
X177766572Y-97272896D01*
X177927901Y-97165099D01*
X178065099Y-97027901D01*
X178172896Y-96866572D01*
X178247147Y-96687314D01*
X178285000Y-96497014D01*
X178285000Y-96402986D01*
X197415000Y-96402986D01*
X197415000Y-96597014D01*
X197452853Y-96787314D01*
X197527104Y-96966572D01*
X197634901Y-97127901D01*
X197772099Y-97265099D01*
X197933428Y-97372896D01*
X198112686Y-97447147D01*
X198302986Y-97485000D01*
X198497014Y-97485000D01*
X198687314Y-97447147D01*
X198866572Y-97372896D01*
X199027901Y-97265099D01*
X199165099Y-97127901D01*
X199272896Y-96966572D01*
X199347147Y-96787314D01*
X199385000Y-96597014D01*
X199385000Y-96402986D01*
X199347147Y-96212686D01*
X199272896Y-96033428D01*
X199165099Y-95872099D01*
X199027901Y-95734901D01*
X198866572Y-95627104D01*
X198687314Y-95552853D01*
X198497014Y-95515000D01*
X198302986Y-95515000D01*
X198112686Y-95552853D01*
X197933428Y-95627104D01*
X197772099Y-95734901D01*
X197634901Y-95872099D01*
X197527104Y-96033428D01*
X197452853Y-96212686D01*
X197415000Y-96402986D01*
X178285000Y-96402986D01*
X178285000Y-96302986D01*
X178247147Y-96112686D01*
X178172896Y-95933428D01*
X178150560Y-95900000D01*
X178172896Y-95866572D01*
X178247147Y-95687314D01*
X178285000Y-95497014D01*
X178285000Y-95302986D01*
X178247147Y-95112686D01*
X178172896Y-94933428D01*
X178065099Y-94772099D01*
X177927901Y-94634901D01*
X177766572Y-94527104D01*
X177587314Y-94452853D01*
X177397014Y-94415000D01*
X177202986Y-94415000D01*
X177012686Y-94452853D01*
X176833428Y-94527104D01*
X176672099Y-94634901D01*
X176534901Y-94772099D01*
X176427104Y-94933428D01*
X176352853Y-95112686D01*
X176315000Y-95302986D01*
X163295986Y-95302986D01*
X163227901Y-95234901D01*
X163066572Y-95127104D01*
X162887314Y-95052853D01*
X162697014Y-95015000D01*
X162502986Y-95015000D01*
X162312686Y-95052853D01*
X162133428Y-95127104D01*
X161972099Y-95234901D01*
X161834901Y-95372099D01*
X161727104Y-95533428D01*
X161652853Y-95712686D01*
X161615000Y-95902986D01*
X131028988Y-95902986D01*
X130972641Y-95766954D01*
X130972896Y-95766572D01*
X131047147Y-95587314D01*
X131085000Y-95397014D01*
X131085000Y-95202986D01*
X131047147Y-95012686D01*
X130972896Y-94833428D01*
X130865099Y-94672099D01*
X130727901Y-94534901D01*
X130566572Y-94427104D01*
X130387314Y-94352853D01*
X130197014Y-94315000D01*
X130002986Y-94315000D01*
X129812686Y-94352853D01*
X129633428Y-94427104D01*
X129472099Y-94534901D01*
X129334901Y-94672099D01*
X129227104Y-94833428D01*
X129152853Y-95012686D01*
X129115000Y-95202986D01*
X129115000Y-95397014D01*
X129152853Y-95587314D01*
X129217359Y-95743046D01*
X129217104Y-95743428D01*
X129142853Y-95922686D01*
X129105000Y-96112986D01*
X119660000Y-96112986D01*
X119660000Y-94302986D01*
X135015000Y-94302986D01*
X135015000Y-94497014D01*
X135052853Y-94687314D01*
X135127104Y-94866572D01*
X135234901Y-95027901D01*
X135372099Y-95165099D01*
X135533428Y-95272896D01*
X135712686Y-95347147D01*
X135902986Y-95385000D01*
X136097014Y-95385000D01*
X136287314Y-95347147D01*
X136466572Y-95272896D01*
X136627901Y-95165099D01*
X136765099Y-95027901D01*
X136872896Y-94866572D01*
X136947147Y-94687314D01*
X136985000Y-94497014D01*
X136985000Y-94302986D01*
X138615000Y-94302986D01*
X138615000Y-94497014D01*
X138652853Y-94687314D01*
X138727104Y-94866572D01*
X138834901Y-95027901D01*
X138972099Y-95165099D01*
X139133428Y-95272896D01*
X139312686Y-95347147D01*
X139502986Y-95385000D01*
X139697014Y-95385000D01*
X139887314Y-95347147D01*
X140066572Y-95272896D01*
X140150000Y-95217151D01*
X140233428Y-95272896D01*
X140412686Y-95347147D01*
X140602986Y-95385000D01*
X140797014Y-95385000D01*
X140987314Y-95347147D01*
X141166572Y-95272896D01*
X141327901Y-95165099D01*
X141465099Y-95027901D01*
X141572896Y-94866572D01*
X141647147Y-94687314D01*
X141685000Y-94497014D01*
X141685000Y-94302986D01*
X141647147Y-94112686D01*
X141572896Y-93933428D01*
X141465099Y-93772099D01*
X141327901Y-93634901D01*
X141166572Y-93527104D01*
X140987314Y-93452853D01*
X140797014Y-93415000D01*
X140602986Y-93415000D01*
X140412686Y-93452853D01*
X140233428Y-93527104D01*
X140150000Y-93582849D01*
X140066572Y-93527104D01*
X139887314Y-93452853D01*
X139697014Y-93415000D01*
X139502986Y-93415000D01*
X139312686Y-93452853D01*
X139133428Y-93527104D01*
X138972099Y-93634901D01*
X138834901Y-93772099D01*
X138727104Y-93933428D01*
X138652853Y-94112686D01*
X138615000Y-94302986D01*
X136985000Y-94302986D01*
X136947147Y-94112686D01*
X136872896Y-93933428D01*
X136765099Y-93772099D01*
X136627901Y-93634901D01*
X136466572Y-93527104D01*
X136287314Y-93452853D01*
X136097014Y-93415000D01*
X135902986Y-93415000D01*
X135712686Y-93452853D01*
X135533428Y-93527104D01*
X135372099Y-93634901D01*
X135234901Y-93772099D01*
X135127104Y-93933428D01*
X135052853Y-94112686D01*
X135015000Y-94302986D01*
X119660000Y-94302986D01*
X119660000Y-92084740D01*
X124108964Y-92084740D01*
X124133245Y-92190087D01*
X124253138Y-92467204D01*
X124424790Y-92715606D01*
X124641604Y-92925748D01*
X124895249Y-93089554D01*
X125175977Y-93200729D01*
X125473000Y-93255000D01*
X126373000Y-93255000D01*
X126373000Y-91847000D01*
X126627000Y-91847000D01*
X126627000Y-93255000D01*
X127527000Y-93255000D01*
X127824023Y-93200729D01*
X128104751Y-93089554D01*
X128358396Y-92925748D01*
X128575210Y-92715606D01*
X128746862Y-92467204D01*
X128861174Y-92202986D01*
X134315000Y-92202986D01*
X134315000Y-92397014D01*
X134352853Y-92587314D01*
X134427104Y-92766572D01*
X134534901Y-92927901D01*
X134672099Y-93065099D01*
X134833428Y-93172896D01*
X135012686Y-93247147D01*
X135202986Y-93285000D01*
X135397014Y-93285000D01*
X135587314Y-93247147D01*
X135693928Y-93202986D01*
X161515000Y-93202986D01*
X161515000Y-93397014D01*
X161552853Y-93587314D01*
X161627104Y-93766572D01*
X161734901Y-93927901D01*
X161872099Y-94065099D01*
X162033428Y-94172896D01*
X162212686Y-94247147D01*
X162402986Y-94285000D01*
X162597014Y-94285000D01*
X162787314Y-94247147D01*
X162966572Y-94172896D01*
X163127901Y-94065099D01*
X163265099Y-93927901D01*
X163372896Y-93766572D01*
X163447147Y-93587314D01*
X163485000Y-93397014D01*
X163485000Y-93202986D01*
X163447147Y-93012686D01*
X163372896Y-92833428D01*
X163265099Y-92672099D01*
X163127901Y-92534901D01*
X162966572Y-92427104D01*
X162787314Y-92352853D01*
X162597014Y-92315000D01*
X162402986Y-92315000D01*
X162212686Y-92352853D01*
X162033428Y-92427104D01*
X161872099Y-92534901D01*
X161734901Y-92672099D01*
X161627104Y-92833428D01*
X161552853Y-93012686D01*
X161515000Y-93202986D01*
X135693928Y-93202986D01*
X135766572Y-93172896D01*
X135927901Y-93065099D01*
X136065099Y-92927901D01*
X136172896Y-92766572D01*
X136247147Y-92587314D01*
X136285000Y-92397014D01*
X136285000Y-92202986D01*
X136247147Y-92012686D01*
X136243130Y-92002986D01*
X140915000Y-92002986D01*
X140915000Y-92197014D01*
X140952853Y-92387314D01*
X141027104Y-92566572D01*
X141134901Y-92727901D01*
X141272099Y-92865099D01*
X141433428Y-92972896D01*
X141612686Y-93047147D01*
X141802986Y-93085000D01*
X141997014Y-93085000D01*
X142187314Y-93047147D01*
X142366572Y-92972896D01*
X142527901Y-92865099D01*
X142665099Y-92727901D01*
X142772896Y-92566572D01*
X142847147Y-92387314D01*
X142863920Y-92302986D01*
X164915000Y-92302986D01*
X164915000Y-92497014D01*
X164952853Y-92687314D01*
X165027104Y-92866572D01*
X165134901Y-93027901D01*
X165272099Y-93165099D01*
X165433428Y-93272896D01*
X165612686Y-93347147D01*
X165802986Y-93385000D01*
X165997014Y-93385000D01*
X166187314Y-93347147D01*
X166366572Y-93272896D01*
X166527901Y-93165099D01*
X166665099Y-93027901D01*
X166772896Y-92866572D01*
X166807552Y-92782904D01*
X166987314Y-92747147D01*
X167166572Y-92672896D01*
X167327901Y-92565099D01*
X167465099Y-92427901D01*
X167572896Y-92266572D01*
X167647147Y-92087314D01*
X167685000Y-91897014D01*
X167685000Y-91702986D01*
X167647147Y-91512686D01*
X167626561Y-91462986D01*
X172855000Y-91462986D01*
X172855000Y-91657014D01*
X172892853Y-91847314D01*
X172967104Y-92026572D01*
X173056258Y-92160000D01*
X172967104Y-92293428D01*
X172892853Y-92472686D01*
X172855000Y-92662986D01*
X172855000Y-92857014D01*
X172892853Y-93047314D01*
X172967104Y-93226572D01*
X173074901Y-93387901D01*
X173212099Y-93525099D01*
X173373428Y-93632896D01*
X173552686Y-93707147D01*
X173742986Y-93745000D01*
X173937014Y-93745000D01*
X174127314Y-93707147D01*
X174306572Y-93632896D01*
X174467901Y-93525099D01*
X174605099Y-93387901D01*
X174683257Y-93270930D01*
X174655000Y-93412986D01*
X174655000Y-93607014D01*
X174692853Y-93797314D01*
X174767104Y-93976572D01*
X174874901Y-94137901D01*
X175012099Y-94275099D01*
X175173428Y-94382896D01*
X175352686Y-94457147D01*
X175542986Y-94495000D01*
X175737014Y-94495000D01*
X175927314Y-94457147D01*
X176106572Y-94382896D01*
X176267901Y-94275099D01*
X176405099Y-94137901D01*
X176512896Y-93976572D01*
X176587147Y-93797314D01*
X176625000Y-93607014D01*
X176625000Y-93412986D01*
X176587147Y-93222686D01*
X176512896Y-93043428D01*
X176405099Y-92882099D01*
X176267901Y-92744901D01*
X176106572Y-92637104D01*
X175927314Y-92562853D01*
X175737014Y-92525000D01*
X175542986Y-92525000D01*
X175352686Y-92562853D01*
X175173428Y-92637104D01*
X175012099Y-92744901D01*
X174874901Y-92882099D01*
X174796743Y-92999070D01*
X174825000Y-92857014D01*
X174825000Y-92662986D01*
X174787147Y-92472686D01*
X174712896Y-92293428D01*
X174623742Y-92160000D01*
X174712896Y-92026572D01*
X174728878Y-91987986D01*
X179765000Y-91987986D01*
X179765000Y-92182014D01*
X179802853Y-92372314D01*
X179877104Y-92551572D01*
X179984901Y-92712901D01*
X180122099Y-92850099D01*
X180283428Y-92957896D01*
X180462686Y-93032147D01*
X180652986Y-93070000D01*
X180847014Y-93070000D01*
X180920364Y-93055410D01*
X180902853Y-93097686D01*
X180865000Y-93287986D01*
X180865000Y-93482014D01*
X180902853Y-93672314D01*
X180977104Y-93851572D01*
X181084901Y-94012901D01*
X181222099Y-94150099D01*
X181383428Y-94257896D01*
X181562686Y-94332147D01*
X181752986Y-94370000D01*
X181947014Y-94370000D01*
X182137314Y-94332147D01*
X182250000Y-94285471D01*
X182362686Y-94332147D01*
X182552986Y-94370000D01*
X182747014Y-94370000D01*
X182937314Y-94332147D01*
X183116572Y-94257896D01*
X183277901Y-94150099D01*
X183415099Y-94012901D01*
X183522896Y-93851572D01*
X183597147Y-93672314D01*
X183635000Y-93482014D01*
X183635000Y-93287986D01*
X183597147Y-93097686D01*
X183522896Y-92918428D01*
X183415099Y-92757099D01*
X183277901Y-92619901D01*
X183116572Y-92512104D01*
X182937314Y-92437853D01*
X182747014Y-92400000D01*
X182552986Y-92400000D01*
X182362686Y-92437853D01*
X182250000Y-92484529D01*
X182137314Y-92437853D01*
X181947014Y-92400000D01*
X181752986Y-92400000D01*
X181679636Y-92414590D01*
X181697147Y-92372314D01*
X181735000Y-92182014D01*
X181735000Y-92102986D01*
X186815000Y-92102986D01*
X186815000Y-92297014D01*
X186852853Y-92487314D01*
X186927104Y-92666572D01*
X187034901Y-92827901D01*
X187172099Y-92965099D01*
X187333428Y-93072896D01*
X187512686Y-93147147D01*
X187702986Y-93185000D01*
X187897014Y-93185000D01*
X188087314Y-93147147D01*
X188266572Y-93072896D01*
X188427901Y-92965099D01*
X188565099Y-92827901D01*
X188672896Y-92666572D01*
X188747147Y-92487314D01*
X188785000Y-92297014D01*
X188785000Y-92102986D01*
X188747147Y-91912686D01*
X188721182Y-91850000D01*
X191661928Y-91850000D01*
X191661928Y-93150000D01*
X191678992Y-93323254D01*
X191729528Y-93489850D01*
X191811595Y-93643386D01*
X191922038Y-93777962D01*
X192056614Y-93888405D01*
X192210150Y-93970472D01*
X192376746Y-94021008D01*
X192550000Y-94038072D01*
X195650000Y-94038072D01*
X195823254Y-94021008D01*
X195989850Y-93970472D01*
X196143386Y-93888405D01*
X196247414Y-93803032D01*
X196227104Y-93833428D01*
X196152853Y-94012686D01*
X196115000Y-94202986D01*
X196115000Y-94397014D01*
X196152853Y-94587314D01*
X196227104Y-94766572D01*
X196334901Y-94927901D01*
X196472099Y-95065099D01*
X196633428Y-95172896D01*
X196812686Y-95247147D01*
X197002986Y-95285000D01*
X197197014Y-95285000D01*
X197387314Y-95247147D01*
X197566572Y-95172896D01*
X197727901Y-95065099D01*
X197865099Y-94927901D01*
X197972896Y-94766572D01*
X198047147Y-94587314D01*
X198085000Y-94397014D01*
X198085000Y-94202986D01*
X198047147Y-94012686D01*
X197972896Y-93833428D01*
X197865099Y-93672099D01*
X197727901Y-93534901D01*
X197566572Y-93427104D01*
X197387314Y-93352853D01*
X197197014Y-93315000D01*
X197002986Y-93315000D01*
X196812686Y-93352853D01*
X196633428Y-93427104D01*
X196472099Y-93534901D01*
X196416872Y-93590128D01*
X196470472Y-93489850D01*
X196521008Y-93323254D01*
X196538072Y-93150000D01*
X196538072Y-91850000D01*
X196521008Y-91676746D01*
X196470472Y-91510150D01*
X196388405Y-91356614D01*
X196277962Y-91222038D01*
X196143386Y-91111595D01*
X195989850Y-91029528D01*
X195823254Y-90978992D01*
X195650000Y-90961928D01*
X192550000Y-90961928D01*
X192376746Y-90978992D01*
X192210150Y-91029528D01*
X192056614Y-91111595D01*
X191922038Y-91222038D01*
X191811595Y-91356614D01*
X191729528Y-91510150D01*
X191678992Y-91676746D01*
X191661928Y-91850000D01*
X188721182Y-91850000D01*
X188672896Y-91733428D01*
X188565099Y-91572099D01*
X188427901Y-91434901D01*
X188266572Y-91327104D01*
X188087314Y-91252853D01*
X187897014Y-91215000D01*
X187702986Y-91215000D01*
X187512686Y-91252853D01*
X187333428Y-91327104D01*
X187172099Y-91434901D01*
X187034901Y-91572099D01*
X186927104Y-91733428D01*
X186852853Y-91912686D01*
X186815000Y-92102986D01*
X181735000Y-92102986D01*
X181735000Y-91987986D01*
X181697147Y-91797686D01*
X181622896Y-91618428D01*
X181515099Y-91457099D01*
X181377901Y-91319901D01*
X181216572Y-91212104D01*
X181037314Y-91137853D01*
X180847014Y-91100000D01*
X180652986Y-91100000D01*
X180462686Y-91137853D01*
X180283428Y-91212104D01*
X180122099Y-91319901D01*
X179984901Y-91457099D01*
X179877104Y-91618428D01*
X179802853Y-91797686D01*
X179765000Y-91987986D01*
X174728878Y-91987986D01*
X174787147Y-91847314D01*
X174825000Y-91657014D01*
X174825000Y-91462986D01*
X174787147Y-91272686D01*
X174712896Y-91093428D01*
X174605099Y-90932099D01*
X174467901Y-90794901D01*
X174306572Y-90687104D01*
X174127314Y-90612853D01*
X173937014Y-90575000D01*
X173742986Y-90575000D01*
X173552686Y-90612853D01*
X173373428Y-90687104D01*
X173212099Y-90794901D01*
X173074901Y-90932099D01*
X172967104Y-91093428D01*
X172892853Y-91272686D01*
X172855000Y-91462986D01*
X167626561Y-91462986D01*
X167572896Y-91333428D01*
X167465099Y-91172099D01*
X167327901Y-91034901D01*
X167166572Y-90927104D01*
X166987314Y-90852853D01*
X166797014Y-90815000D01*
X166602986Y-90815000D01*
X166412686Y-90852853D01*
X166233428Y-90927104D01*
X166072099Y-91034901D01*
X165934901Y-91172099D01*
X165827104Y-91333428D01*
X165792448Y-91417096D01*
X165612686Y-91452853D01*
X165433428Y-91527104D01*
X165272099Y-91634901D01*
X165134901Y-91772099D01*
X165027104Y-91933428D01*
X164952853Y-92112686D01*
X164915000Y-92302986D01*
X142863920Y-92302986D01*
X142885000Y-92197014D01*
X142885000Y-92002986D01*
X142847147Y-91812686D01*
X142772896Y-91633428D01*
X142665099Y-91472099D01*
X142527901Y-91334901D01*
X142366572Y-91227104D01*
X142187314Y-91152853D01*
X141997014Y-91115000D01*
X141802986Y-91115000D01*
X141612686Y-91152853D01*
X141433428Y-91227104D01*
X141272099Y-91334901D01*
X141134901Y-91472099D01*
X141027104Y-91633428D01*
X140952853Y-91812686D01*
X140915000Y-92002986D01*
X136243130Y-92002986D01*
X136172896Y-91833428D01*
X136065099Y-91672099D01*
X135927901Y-91534901D01*
X135766572Y-91427104D01*
X135587314Y-91352853D01*
X135397014Y-91315000D01*
X135202986Y-91315000D01*
X135012686Y-91352853D01*
X134833428Y-91427104D01*
X134672099Y-91534901D01*
X134534901Y-91672099D01*
X134427104Y-91833428D01*
X134352853Y-92012686D01*
X134315000Y-92202986D01*
X128861174Y-92202986D01*
X128866755Y-92190087D01*
X128891036Y-92084740D01*
X128770378Y-91847000D01*
X126627000Y-91847000D01*
X126373000Y-91847000D01*
X124229622Y-91847000D01*
X124108964Y-92084740D01*
X119660000Y-92084740D01*
X119660000Y-91355260D01*
X124108964Y-91355260D01*
X124229622Y-91593000D01*
X126373000Y-91593000D01*
X126373000Y-91573000D01*
X126627000Y-91573000D01*
X126627000Y-91593000D01*
X128770378Y-91593000D01*
X128891036Y-91355260D01*
X128866755Y-91249913D01*
X128746862Y-90972796D01*
X128575210Y-90724394D01*
X128358396Y-90514252D01*
X128340952Y-90502986D01*
X147015000Y-90502986D01*
X147015000Y-90697014D01*
X147052853Y-90887314D01*
X147127104Y-91066572D01*
X147234901Y-91227901D01*
X147372099Y-91365099D01*
X147533428Y-91472896D01*
X147712686Y-91547147D01*
X147902986Y-91585000D01*
X148097014Y-91585000D01*
X148287314Y-91547147D01*
X148466572Y-91472896D01*
X148627901Y-91365099D01*
X148765099Y-91227901D01*
X148872896Y-91066572D01*
X148947147Y-90887314D01*
X148985000Y-90697014D01*
X148985000Y-90502986D01*
X148947147Y-90312686D01*
X148872896Y-90133428D01*
X148765099Y-89972099D01*
X148627901Y-89834901D01*
X148466572Y-89727104D01*
X148287314Y-89652853D01*
X148097014Y-89615000D01*
X147902986Y-89615000D01*
X147712686Y-89652853D01*
X147533428Y-89727104D01*
X147372099Y-89834901D01*
X147234901Y-89972099D01*
X147127104Y-90133428D01*
X147052853Y-90312686D01*
X147015000Y-90502986D01*
X128340952Y-90502986D01*
X128104751Y-90350446D01*
X127824023Y-90239271D01*
X127527000Y-90185000D01*
X125473000Y-90185000D01*
X125175977Y-90239271D01*
X124895249Y-90350446D01*
X124641604Y-90514252D01*
X124424790Y-90724394D01*
X124253138Y-90972796D01*
X124133245Y-91249913D01*
X124108964Y-91355260D01*
X119660000Y-91355260D01*
X119660000Y-87910000D01*
X124057573Y-87910000D01*
X124087210Y-88210913D01*
X124174983Y-88500261D01*
X124317519Y-88766927D01*
X124509339Y-89000661D01*
X124743073Y-89192481D01*
X125009739Y-89335017D01*
X125299087Y-89422790D01*
X125524592Y-89445000D01*
X127475408Y-89445000D01*
X127700913Y-89422790D01*
X127990261Y-89335017D01*
X128256927Y-89192481D01*
X128490661Y-89000661D01*
X128682481Y-88766927D01*
X128825017Y-88500261D01*
X128912790Y-88210913D01*
X128942427Y-87910000D01*
X128912790Y-87609087D01*
X128825017Y-87319739D01*
X128762612Y-87202986D01*
X131315000Y-87202986D01*
X131315000Y-87397014D01*
X131352853Y-87587314D01*
X131427104Y-87766572D01*
X131534901Y-87927901D01*
X131672099Y-88065099D01*
X131833428Y-88172896D01*
X132012686Y-88247147D01*
X132202986Y-88285000D01*
X132397014Y-88285000D01*
X132587314Y-88247147D01*
X132766572Y-88172896D01*
X132927901Y-88065099D01*
X133065099Y-87927901D01*
X133172896Y-87766572D01*
X133247147Y-87587314D01*
X133285000Y-87397014D01*
X133285000Y-87202986D01*
X133247147Y-87012686D01*
X133172896Y-86833428D01*
X133065099Y-86672099D01*
X132927901Y-86534901D01*
X132766572Y-86427104D01*
X132708346Y-86402986D01*
X137715000Y-86402986D01*
X137715000Y-86597014D01*
X137752853Y-86787314D01*
X137827104Y-86966572D01*
X137934901Y-87127901D01*
X138072099Y-87265099D01*
X138233428Y-87372896D01*
X138412686Y-87447147D01*
X138602986Y-87485000D01*
X138797014Y-87485000D01*
X138987314Y-87447147D01*
X139166572Y-87372896D01*
X139327901Y-87265099D01*
X139465099Y-87127901D01*
X139572896Y-86966572D01*
X139647147Y-86787314D01*
X139685000Y-86597014D01*
X139685000Y-86402986D01*
X139647147Y-86212686D01*
X139572896Y-86033428D01*
X139465099Y-85872099D01*
X139327901Y-85734901D01*
X139166572Y-85627104D01*
X138987314Y-85552853D01*
X138797014Y-85515000D01*
X138602986Y-85515000D01*
X138412686Y-85552853D01*
X138233428Y-85627104D01*
X138072099Y-85734901D01*
X137934901Y-85872099D01*
X137827104Y-86033428D01*
X137752853Y-86212686D01*
X137715000Y-86402986D01*
X132708346Y-86402986D01*
X132587314Y-86352853D01*
X132397014Y-86315000D01*
X132202986Y-86315000D01*
X132012686Y-86352853D01*
X131833428Y-86427104D01*
X131672099Y-86534901D01*
X131534901Y-86672099D01*
X131427104Y-86833428D01*
X131352853Y-87012686D01*
X131315000Y-87202986D01*
X128762612Y-87202986D01*
X128682481Y-87053073D01*
X128490661Y-86819339D01*
X128256927Y-86627519D01*
X127990261Y-86484983D01*
X127700913Y-86397210D01*
X127475408Y-86375000D01*
X125524592Y-86375000D01*
X125299087Y-86397210D01*
X125009739Y-86484983D01*
X124743073Y-86627519D01*
X124509339Y-86819339D01*
X124317519Y-87053073D01*
X124174983Y-87319739D01*
X124087210Y-87609087D01*
X124057573Y-87910000D01*
X119660000Y-87910000D01*
X119660000Y-83450000D01*
X124061928Y-83450000D01*
X124061928Y-84750000D01*
X124078992Y-84923254D01*
X124129528Y-85089850D01*
X124211595Y-85243386D01*
X124322038Y-85377962D01*
X124456614Y-85488405D01*
X124610150Y-85570472D01*
X124776746Y-85621008D01*
X124950000Y-85638072D01*
X128050000Y-85638072D01*
X128223254Y-85621008D01*
X128389850Y-85570472D01*
X128543386Y-85488405D01*
X128677962Y-85377962D01*
X128788405Y-85243386D01*
X128870472Y-85089850D01*
X128921008Y-84923254D01*
X128938072Y-84750000D01*
X128938072Y-84402986D01*
X141515000Y-84402986D01*
X141515000Y-84597014D01*
X141552853Y-84787314D01*
X141627104Y-84966572D01*
X141734901Y-85127901D01*
X141872099Y-85265099D01*
X142033428Y-85372896D01*
X142212686Y-85447147D01*
X142402986Y-85485000D01*
X142597014Y-85485000D01*
X142787314Y-85447147D01*
X142966572Y-85372896D01*
X143022642Y-85335431D01*
X143052853Y-85487314D01*
X143127104Y-85666572D01*
X143234901Y-85827901D01*
X143372099Y-85965099D01*
X143533428Y-86072896D01*
X143712686Y-86147147D01*
X143902986Y-86185000D01*
X144097014Y-86185000D01*
X144287314Y-86147147D01*
X144466572Y-86072896D01*
X144627901Y-85965099D01*
X144765099Y-85827901D01*
X144872896Y-85666572D01*
X144947147Y-85487314D01*
X144985000Y-85297014D01*
X144985000Y-85102986D01*
X146365000Y-85102986D01*
X146365000Y-85297014D01*
X146402853Y-85487314D01*
X146477104Y-85666572D01*
X146584901Y-85827901D01*
X146722099Y-85965099D01*
X146865000Y-86060583D01*
X146865000Y-86147014D01*
X146902853Y-86337314D01*
X146977104Y-86516572D01*
X147084901Y-86677901D01*
X147222099Y-86815099D01*
X147383428Y-86922896D01*
X147562686Y-86997147D01*
X147752986Y-87035000D01*
X147947014Y-87035000D01*
X148137314Y-86997147D01*
X148316572Y-86922896D01*
X148477901Y-86815099D01*
X148590014Y-86702986D01*
X157315000Y-86702986D01*
X157315000Y-86897014D01*
X157352853Y-87087314D01*
X157427104Y-87266572D01*
X157534901Y-87427901D01*
X157672099Y-87565099D01*
X157833428Y-87672896D01*
X158012686Y-87747147D01*
X158202986Y-87785000D01*
X158397014Y-87785000D01*
X158587314Y-87747147D01*
X158766572Y-87672896D01*
X158927901Y-87565099D01*
X159065099Y-87427901D01*
X159172896Y-87266572D01*
X159247147Y-87087314D01*
X159285000Y-86897014D01*
X159285000Y-86702986D01*
X159247147Y-86512686D01*
X159172896Y-86333428D01*
X159065099Y-86172099D01*
X158927901Y-86034901D01*
X158766572Y-85927104D01*
X158587314Y-85852853D01*
X158397014Y-85815000D01*
X158202986Y-85815000D01*
X158012686Y-85852853D01*
X157833428Y-85927104D01*
X157672099Y-86034901D01*
X157534901Y-86172099D01*
X157427104Y-86333428D01*
X157352853Y-86512686D01*
X157315000Y-86702986D01*
X148590014Y-86702986D01*
X148615099Y-86677901D01*
X148722896Y-86516572D01*
X148797147Y-86337314D01*
X148835000Y-86147014D01*
X148835000Y-85952986D01*
X148797147Y-85762686D01*
X148722896Y-85583428D01*
X148615099Y-85422099D01*
X148595986Y-85402986D01*
X165415000Y-85402986D01*
X165415000Y-85597014D01*
X165452853Y-85787314D01*
X165527104Y-85966572D01*
X165634901Y-86127901D01*
X165772099Y-86265099D01*
X165933428Y-86372896D01*
X166112686Y-86447147D01*
X166302986Y-86485000D01*
X166497014Y-86485000D01*
X166687314Y-86447147D01*
X166866572Y-86372896D01*
X167027901Y-86265099D01*
X167165099Y-86127901D01*
X167272896Y-85966572D01*
X167347147Y-85787314D01*
X167385000Y-85597014D01*
X167385000Y-85402986D01*
X187015000Y-85402986D01*
X187015000Y-85597014D01*
X187052853Y-85787314D01*
X187127104Y-85966572D01*
X187149440Y-86000000D01*
X187127104Y-86033428D01*
X187052853Y-86212686D01*
X187015000Y-86402986D01*
X187015000Y-86597014D01*
X187052853Y-86787314D01*
X187127104Y-86966572D01*
X187149440Y-87000000D01*
X187127104Y-87033428D01*
X187052853Y-87212686D01*
X187015000Y-87402986D01*
X187015000Y-87597014D01*
X187052853Y-87787314D01*
X187127104Y-87966572D01*
X187149440Y-88000000D01*
X187127104Y-88033428D01*
X187052853Y-88212686D01*
X187015000Y-88402986D01*
X187015000Y-88597014D01*
X187052853Y-88787314D01*
X187127104Y-88966572D01*
X187149440Y-89000000D01*
X187127104Y-89033428D01*
X187052853Y-89212686D01*
X187015000Y-89402986D01*
X187015000Y-89597014D01*
X187052853Y-89787314D01*
X187127104Y-89966572D01*
X187234901Y-90127901D01*
X187372099Y-90265099D01*
X187533428Y-90372896D01*
X187712686Y-90447147D01*
X187902986Y-90485000D01*
X188097014Y-90485000D01*
X188287314Y-90447147D01*
X188466572Y-90372896D01*
X188500000Y-90350560D01*
X188533428Y-90372896D01*
X188712686Y-90447147D01*
X188902986Y-90485000D01*
X189097014Y-90485000D01*
X189287314Y-90447147D01*
X189466572Y-90372896D01*
X189627901Y-90265099D01*
X189765099Y-90127901D01*
X189872896Y-89966572D01*
X189947147Y-89787314D01*
X189985000Y-89597014D01*
X189985000Y-89402986D01*
X189947147Y-89212686D01*
X189872896Y-89033428D01*
X189850560Y-89000000D01*
X189872896Y-88966572D01*
X189947147Y-88787314D01*
X189966503Y-88690000D01*
X191657573Y-88690000D01*
X191687210Y-88990913D01*
X191774983Y-89280261D01*
X191917519Y-89546927D01*
X192109339Y-89780661D01*
X192343073Y-89972481D01*
X192609739Y-90115017D01*
X192899087Y-90202790D01*
X193124592Y-90225000D01*
X195075408Y-90225000D01*
X195300913Y-90202790D01*
X195590261Y-90115017D01*
X195856927Y-89972481D01*
X196090661Y-89780661D01*
X196282481Y-89546927D01*
X196425017Y-89280261D01*
X196512790Y-88990913D01*
X196542427Y-88690000D01*
X196512790Y-88389087D01*
X196425017Y-88099739D01*
X196282481Y-87833073D01*
X196090661Y-87599339D01*
X195856927Y-87407519D01*
X195590261Y-87264983D01*
X195300913Y-87177210D01*
X195075408Y-87155000D01*
X193124592Y-87155000D01*
X192899087Y-87177210D01*
X192609739Y-87264983D01*
X192343073Y-87407519D01*
X192109339Y-87599339D01*
X191917519Y-87833073D01*
X191774983Y-88099739D01*
X191687210Y-88389087D01*
X191657573Y-88690000D01*
X189966503Y-88690000D01*
X189985000Y-88597014D01*
X189985000Y-88402986D01*
X189947147Y-88212686D01*
X189872896Y-88033428D01*
X189850560Y-88000000D01*
X189872896Y-87966572D01*
X189947147Y-87787314D01*
X189985000Y-87597014D01*
X189985000Y-87402986D01*
X189947147Y-87212686D01*
X189872896Y-87033428D01*
X189850560Y-87000000D01*
X189872896Y-86966572D01*
X189947147Y-86787314D01*
X189985000Y-86597014D01*
X189985000Y-86402986D01*
X189947147Y-86212686D01*
X189872896Y-86033428D01*
X189850560Y-86000000D01*
X189872896Y-85966572D01*
X189947147Y-85787314D01*
X189985000Y-85597014D01*
X189985000Y-85402986D01*
X189947147Y-85212686D01*
X189872896Y-85033428D01*
X189770379Y-84880000D01*
X191657573Y-84880000D01*
X191687210Y-85180913D01*
X191774983Y-85470261D01*
X191917519Y-85736927D01*
X192109339Y-85970661D01*
X192343073Y-86162481D01*
X192609739Y-86305017D01*
X192899087Y-86392790D01*
X193124592Y-86415000D01*
X195075408Y-86415000D01*
X195300913Y-86392790D01*
X195590261Y-86305017D01*
X195856927Y-86162481D01*
X196090661Y-85970661D01*
X196282481Y-85736927D01*
X196425017Y-85470261D01*
X196512790Y-85180913D01*
X196542427Y-84880000D01*
X196512790Y-84579087D01*
X196425017Y-84289739D01*
X196282481Y-84023073D01*
X196090661Y-83789339D01*
X195856927Y-83597519D01*
X195590261Y-83454983D01*
X195300913Y-83367210D01*
X195075408Y-83345000D01*
X193124592Y-83345000D01*
X192899087Y-83367210D01*
X192609739Y-83454983D01*
X192343073Y-83597519D01*
X192109339Y-83789339D01*
X191917519Y-84023073D01*
X191774983Y-84289739D01*
X191687210Y-84579087D01*
X191657573Y-84880000D01*
X189770379Y-84880000D01*
X189765099Y-84872099D01*
X189627901Y-84734901D01*
X189466572Y-84627104D01*
X189287314Y-84552853D01*
X189097014Y-84515000D01*
X188902986Y-84515000D01*
X188712686Y-84552853D01*
X188533428Y-84627104D01*
X188500000Y-84649440D01*
X188466572Y-84627104D01*
X188287314Y-84552853D01*
X188097014Y-84515000D01*
X187902986Y-84515000D01*
X187712686Y-84552853D01*
X187533428Y-84627104D01*
X187372099Y-84734901D01*
X187234901Y-84872099D01*
X187127104Y-85033428D01*
X187052853Y-85212686D01*
X187015000Y-85402986D01*
X167385000Y-85402986D01*
X167347147Y-85212686D01*
X167272896Y-85033428D01*
X167165099Y-84872099D01*
X167027901Y-84734901D01*
X166866572Y-84627104D01*
X166687314Y-84552853D01*
X166497014Y-84515000D01*
X166302986Y-84515000D01*
X166112686Y-84552853D01*
X165933428Y-84627104D01*
X165772099Y-84734901D01*
X165634901Y-84872099D01*
X165527104Y-85033428D01*
X165452853Y-85212686D01*
X165415000Y-85402986D01*
X148595986Y-85402986D01*
X148477901Y-85284901D01*
X148335000Y-85189417D01*
X148335000Y-85102986D01*
X148297147Y-84912686D01*
X148222896Y-84733428D01*
X148115099Y-84572099D01*
X148089317Y-84546317D01*
X148266572Y-84472896D01*
X148427901Y-84365099D01*
X148565099Y-84227901D01*
X148672896Y-84066572D01*
X148747147Y-83887314D01*
X148785000Y-83697014D01*
X148785000Y-83502986D01*
X148747147Y-83312686D01*
X148672896Y-83133428D01*
X148565099Y-82972099D01*
X148427901Y-82834901D01*
X148266572Y-82727104D01*
X148087314Y-82652853D01*
X147897014Y-82615000D01*
X147702986Y-82615000D01*
X147512686Y-82652853D01*
X147333428Y-82727104D01*
X147172099Y-82834901D01*
X147034901Y-82972099D01*
X146927104Y-83133428D01*
X146852853Y-83312686D01*
X146815000Y-83502986D01*
X146815000Y-83697014D01*
X146852853Y-83887314D01*
X146927104Y-84066572D01*
X147034901Y-84227901D01*
X147060683Y-84253683D01*
X146883428Y-84327104D01*
X146722099Y-84434901D01*
X146584901Y-84572099D01*
X146477104Y-84733428D01*
X146402853Y-84912686D01*
X146365000Y-85102986D01*
X144985000Y-85102986D01*
X144947147Y-84912686D01*
X144872896Y-84733428D01*
X144765099Y-84572099D01*
X144627901Y-84434901D01*
X144466572Y-84327104D01*
X144287314Y-84252853D01*
X144097014Y-84215000D01*
X143902986Y-84215000D01*
X143712686Y-84252853D01*
X143533428Y-84327104D01*
X143477358Y-84364569D01*
X143447147Y-84212686D01*
X143372896Y-84033428D01*
X143265099Y-83872099D01*
X143127901Y-83734901D01*
X142966572Y-83627104D01*
X142787314Y-83552853D01*
X142597014Y-83515000D01*
X142402986Y-83515000D01*
X142212686Y-83552853D01*
X142033428Y-83627104D01*
X141872099Y-83734901D01*
X141734901Y-83872099D01*
X141627104Y-84033428D01*
X141552853Y-84212686D01*
X141515000Y-84402986D01*
X128938072Y-84402986D01*
X128938072Y-83450000D01*
X128921008Y-83276746D01*
X128870472Y-83110150D01*
X128788405Y-82956614D01*
X128677962Y-82822038D01*
X128543386Y-82711595D01*
X128389850Y-82629528D01*
X128223254Y-82578992D01*
X128050000Y-82561928D01*
X124950000Y-82561928D01*
X124776746Y-82578992D01*
X124610150Y-82629528D01*
X124456614Y-82711595D01*
X124322038Y-82822038D01*
X124211595Y-82956614D01*
X124129528Y-83110150D01*
X124078992Y-83276746D01*
X124061928Y-83450000D01*
X119660000Y-83450000D01*
X119660000Y-82302986D01*
X136615000Y-82302986D01*
X136615000Y-82497014D01*
X136652853Y-82687314D01*
X136727104Y-82866572D01*
X136834901Y-83027901D01*
X136972099Y-83165099D01*
X137133428Y-83272896D01*
X137312686Y-83347147D01*
X137502986Y-83385000D01*
X137697014Y-83385000D01*
X137887314Y-83347147D01*
X138066572Y-83272896D01*
X138227901Y-83165099D01*
X138365099Y-83027901D01*
X138472896Y-82866572D01*
X138547147Y-82687314D01*
X138585000Y-82497014D01*
X138585000Y-82302986D01*
X138547147Y-82112686D01*
X138472896Y-81933428D01*
X138365099Y-81772099D01*
X138227901Y-81634901D01*
X138066572Y-81527104D01*
X137887314Y-81452853D01*
X137697014Y-81415000D01*
X137502986Y-81415000D01*
X137312686Y-81452853D01*
X137133428Y-81527104D01*
X136972099Y-81634901D01*
X136834901Y-81772099D01*
X136727104Y-81933428D01*
X136652853Y-82112686D01*
X136615000Y-82302986D01*
X119660000Y-82302986D01*
X119660000Y-81302986D01*
X152065000Y-81302986D01*
X152065000Y-81497014D01*
X152102853Y-81687314D01*
X152177104Y-81866572D01*
X152284901Y-82027901D01*
X152422099Y-82165099D01*
X152583428Y-82272896D01*
X152762686Y-82347147D01*
X152952986Y-82385000D01*
X153147014Y-82385000D01*
X153337314Y-82347147D01*
X153516572Y-82272896D01*
X153677901Y-82165099D01*
X153815099Y-82027901D01*
X153898564Y-81902986D01*
X164665000Y-81902986D01*
X164665000Y-82097014D01*
X164702853Y-82287314D01*
X164777104Y-82466572D01*
X164884901Y-82627901D01*
X165022099Y-82765099D01*
X165183428Y-82872896D01*
X165362686Y-82947147D01*
X165552986Y-82985000D01*
X165747014Y-82985000D01*
X165937314Y-82947147D01*
X166116572Y-82872896D01*
X166277901Y-82765099D01*
X166415099Y-82627901D01*
X166522896Y-82466572D01*
X166597147Y-82287314D01*
X166635000Y-82097014D01*
X166635000Y-81902986D01*
X166597147Y-81712686D01*
X166522896Y-81533428D01*
X166415099Y-81372099D01*
X166277901Y-81234901D01*
X166116572Y-81127104D01*
X165937314Y-81052853D01*
X165747014Y-81015000D01*
X165552986Y-81015000D01*
X165362686Y-81052853D01*
X165183428Y-81127104D01*
X165022099Y-81234901D01*
X164884901Y-81372099D01*
X164777104Y-81533428D01*
X164702853Y-81712686D01*
X164665000Y-81902986D01*
X153898564Y-81902986D01*
X153922896Y-81866572D01*
X153997147Y-81687314D01*
X154035000Y-81497014D01*
X154035000Y-81302986D01*
X153997147Y-81112686D01*
X153922896Y-80933428D01*
X153815099Y-80772099D01*
X153677901Y-80634901D01*
X153516572Y-80527104D01*
X153337314Y-80452853D01*
X153147014Y-80415000D01*
X152952986Y-80415000D01*
X152762686Y-80452853D01*
X152583428Y-80527104D01*
X152422099Y-80634901D01*
X152284901Y-80772099D01*
X152177104Y-80933428D01*
X152102853Y-81112686D01*
X152065000Y-81302986D01*
X119660000Y-81302986D01*
X119660000Y-79402986D01*
X148865000Y-79402986D01*
X148865000Y-79597014D01*
X148902853Y-79787314D01*
X148977104Y-79966572D01*
X149084901Y-80127901D01*
X149222099Y-80265099D01*
X149383428Y-80372896D01*
X149562686Y-80447147D01*
X149752986Y-80485000D01*
X149947014Y-80485000D01*
X150137314Y-80447147D01*
X150250000Y-80400471D01*
X150362686Y-80447147D01*
X150552986Y-80485000D01*
X150747014Y-80485000D01*
X150937314Y-80447147D01*
X151116572Y-80372896D01*
X151277901Y-80265099D01*
X151415099Y-80127901D01*
X151458473Y-80062986D01*
X172755000Y-80062986D01*
X172755000Y-80257014D01*
X172792853Y-80447314D01*
X172867104Y-80626572D01*
X172956258Y-80760000D01*
X172867104Y-80893428D01*
X172792853Y-81072686D01*
X172755000Y-81262986D01*
X172755000Y-81457014D01*
X172792853Y-81647314D01*
X172867104Y-81826572D01*
X172974901Y-81987901D01*
X173112099Y-82125099D01*
X173273428Y-82232896D01*
X173452686Y-82307147D01*
X173642986Y-82345000D01*
X173837014Y-82345000D01*
X174027314Y-82307147D01*
X174206572Y-82232896D01*
X174367901Y-82125099D01*
X174505099Y-81987901D01*
X174583257Y-81870930D01*
X174555000Y-82012986D01*
X174555000Y-82207014D01*
X174592853Y-82397314D01*
X174667104Y-82576572D01*
X174774901Y-82737901D01*
X174912099Y-82875099D01*
X175073428Y-82982896D01*
X175252686Y-83057147D01*
X175442986Y-83095000D01*
X175637014Y-83095000D01*
X175827314Y-83057147D01*
X176006572Y-82982896D01*
X176167901Y-82875099D01*
X176305099Y-82737901D01*
X176412896Y-82576572D01*
X176487147Y-82397314D01*
X176525000Y-82207014D01*
X176525000Y-82012986D01*
X176487147Y-81822686D01*
X176412896Y-81643428D01*
X176305099Y-81482099D01*
X176167901Y-81344901D01*
X176006572Y-81237104D01*
X175827314Y-81162853D01*
X175637014Y-81125000D01*
X175442986Y-81125000D01*
X175252686Y-81162853D01*
X175073428Y-81237104D01*
X174912099Y-81344901D01*
X174774901Y-81482099D01*
X174696743Y-81599070D01*
X174725000Y-81457014D01*
X174725000Y-81262986D01*
X174687147Y-81072686D01*
X174612896Y-80893428D01*
X174523742Y-80760000D01*
X174561837Y-80702986D01*
X179715000Y-80702986D01*
X179715000Y-80897014D01*
X179752853Y-81087314D01*
X179827104Y-81266572D01*
X179934901Y-81427901D01*
X180072099Y-81565099D01*
X180233428Y-81672896D01*
X180412686Y-81747147D01*
X180602986Y-81785000D01*
X180797014Y-81785000D01*
X180870364Y-81770410D01*
X180852853Y-81812686D01*
X180815000Y-82002986D01*
X180815000Y-82197014D01*
X180852853Y-82387314D01*
X180927104Y-82566572D01*
X181034901Y-82727901D01*
X181172099Y-82865099D01*
X181333428Y-82972896D01*
X181512686Y-83047147D01*
X181702986Y-83085000D01*
X181897014Y-83085000D01*
X182087314Y-83047147D01*
X182200000Y-83000471D01*
X182312686Y-83047147D01*
X182502986Y-83085000D01*
X182697014Y-83085000D01*
X182887314Y-83047147D01*
X183066572Y-82972896D01*
X183227901Y-82865099D01*
X183365099Y-82727901D01*
X183472896Y-82566572D01*
X183547147Y-82387314D01*
X183585000Y-82197014D01*
X183585000Y-82002986D01*
X183555164Y-81852986D01*
X197465000Y-81852986D01*
X197465000Y-82047014D01*
X197502853Y-82237314D01*
X197577104Y-82416572D01*
X197684901Y-82577901D01*
X197822099Y-82715099D01*
X197983428Y-82822896D01*
X198162686Y-82897147D01*
X198352986Y-82935000D01*
X198547014Y-82935000D01*
X198737314Y-82897147D01*
X198916572Y-82822896D01*
X199077901Y-82715099D01*
X199215099Y-82577901D01*
X199322896Y-82416572D01*
X199397147Y-82237314D01*
X199435000Y-82047014D01*
X199435000Y-81852986D01*
X199397147Y-81662686D01*
X199322896Y-81483428D01*
X199215099Y-81322099D01*
X199077901Y-81184901D01*
X198916572Y-81077104D01*
X198737314Y-81002853D01*
X198547014Y-80965000D01*
X198352986Y-80965000D01*
X198162686Y-81002853D01*
X197983428Y-81077104D01*
X197822099Y-81184901D01*
X197684901Y-81322099D01*
X197577104Y-81483428D01*
X197502853Y-81662686D01*
X197465000Y-81852986D01*
X183555164Y-81852986D01*
X183547147Y-81812686D01*
X183472896Y-81633428D01*
X183365099Y-81472099D01*
X183227901Y-81334901D01*
X183066572Y-81227104D01*
X182887314Y-81152853D01*
X182697014Y-81115000D01*
X182502986Y-81115000D01*
X182312686Y-81152853D01*
X182200000Y-81199529D01*
X182087314Y-81152853D01*
X181897014Y-81115000D01*
X181702986Y-81115000D01*
X181629636Y-81129590D01*
X181647147Y-81087314D01*
X181685000Y-80897014D01*
X181685000Y-80702986D01*
X181647147Y-80512686D01*
X181572896Y-80333428D01*
X181465099Y-80172099D01*
X181327901Y-80034901D01*
X181166572Y-79927104D01*
X180987314Y-79852853D01*
X180797014Y-79815000D01*
X180602986Y-79815000D01*
X180412686Y-79852853D01*
X180233428Y-79927104D01*
X180072099Y-80034901D01*
X179934901Y-80172099D01*
X179827104Y-80333428D01*
X179752853Y-80512686D01*
X179715000Y-80702986D01*
X174561837Y-80702986D01*
X174612896Y-80626572D01*
X174687147Y-80447314D01*
X174725000Y-80257014D01*
X174725000Y-80062986D01*
X174687147Y-79872686D01*
X174612896Y-79693428D01*
X174505099Y-79532099D01*
X174367901Y-79394901D01*
X174206572Y-79287104D01*
X174027314Y-79212853D01*
X173837014Y-79175000D01*
X173642986Y-79175000D01*
X173452686Y-79212853D01*
X173273428Y-79287104D01*
X173112099Y-79394901D01*
X172974901Y-79532099D01*
X172867104Y-79693428D01*
X172792853Y-79872686D01*
X172755000Y-80062986D01*
X151458473Y-80062986D01*
X151522896Y-79966572D01*
X151597147Y-79787314D01*
X151635000Y-79597014D01*
X151635000Y-79402986D01*
X151597147Y-79212686D01*
X151522896Y-79033428D01*
X151415099Y-78872099D01*
X151277901Y-78734901D01*
X151116572Y-78627104D01*
X150937314Y-78552853D01*
X150747014Y-78515000D01*
X150552986Y-78515000D01*
X150362686Y-78552853D01*
X150250000Y-78599529D01*
X150137314Y-78552853D01*
X149947014Y-78515000D01*
X149752986Y-78515000D01*
X149562686Y-78552853D01*
X149383428Y-78627104D01*
X149222099Y-78734901D01*
X149084901Y-78872099D01*
X148977104Y-79033428D01*
X148902853Y-79212686D01*
X148865000Y-79402986D01*
X119660000Y-79402986D01*
X119660000Y-78174740D01*
X124108964Y-78174740D01*
X124133245Y-78280087D01*
X124253138Y-78557204D01*
X124424790Y-78805606D01*
X124641604Y-79015748D01*
X124895249Y-79179554D01*
X125175977Y-79290729D01*
X125473000Y-79345000D01*
X126373000Y-79345000D01*
X126373000Y-77937000D01*
X126627000Y-77937000D01*
X126627000Y-79345000D01*
X127527000Y-79345000D01*
X127824023Y-79290729D01*
X128104751Y-79179554D01*
X128358396Y-79015748D01*
X128575210Y-78805606D01*
X128746862Y-78557204D01*
X128866755Y-78280087D01*
X128891036Y-78174740D01*
X128770378Y-77937000D01*
X126627000Y-77937000D01*
X126373000Y-77937000D01*
X124229622Y-77937000D01*
X124108964Y-78174740D01*
X119660000Y-78174740D01*
X119660000Y-77445260D01*
X124108964Y-77445260D01*
X124229622Y-77683000D01*
X126373000Y-77683000D01*
X126373000Y-77663000D01*
X126627000Y-77663000D01*
X126627000Y-77683000D01*
X128770378Y-77683000D01*
X128891036Y-77445260D01*
X128866755Y-77339913D01*
X128746862Y-77062796D01*
X128575210Y-76814394D01*
X128358396Y-76604252D01*
X128104751Y-76440446D01*
X127824023Y-76329271D01*
X127680167Y-76302986D01*
X132515000Y-76302986D01*
X132515000Y-76497014D01*
X132552853Y-76687314D01*
X132627104Y-76866572D01*
X132734901Y-77027901D01*
X132872099Y-77165099D01*
X133033428Y-77272896D01*
X133212686Y-77347147D01*
X133402986Y-77385000D01*
X133597014Y-77385000D01*
X133787314Y-77347147D01*
X133966572Y-77272896D01*
X134127901Y-77165099D01*
X134265099Y-77027901D01*
X134372896Y-76866572D01*
X134447147Y-76687314D01*
X134485000Y-76497014D01*
X134485000Y-76302986D01*
X134447147Y-76112686D01*
X134372896Y-75933428D01*
X134265099Y-75772099D01*
X134127901Y-75634901D01*
X133966572Y-75527104D01*
X133908346Y-75502986D01*
X134515000Y-75502986D01*
X134515000Y-75697014D01*
X134552853Y-75887314D01*
X134620240Y-76050000D01*
X134552853Y-76212686D01*
X134515000Y-76402986D01*
X134515000Y-76597014D01*
X134552853Y-76787314D01*
X134627104Y-76966572D01*
X134734901Y-77127901D01*
X134872099Y-77265099D01*
X135033428Y-77372896D01*
X135212686Y-77447147D01*
X135402986Y-77485000D01*
X135597014Y-77485000D01*
X135787314Y-77447147D01*
X135966572Y-77372896D01*
X136127901Y-77265099D01*
X136265099Y-77127901D01*
X136372896Y-76966572D01*
X136447147Y-76787314D01*
X136485000Y-76597014D01*
X136485000Y-76402986D01*
X136447147Y-76212686D01*
X136379760Y-76050000D01*
X136447147Y-75887314D01*
X136485000Y-75697014D01*
X136485000Y-75502986D01*
X136447147Y-75312686D01*
X136372896Y-75133428D01*
X136265099Y-74972099D01*
X136243000Y-74950000D01*
X136365099Y-74827901D01*
X136472896Y-74666572D01*
X136547147Y-74487314D01*
X136585000Y-74297014D01*
X136585000Y-74102986D01*
X136547147Y-73912686D01*
X136479760Y-73750000D01*
X136547147Y-73587314D01*
X136583812Y-73402986D01*
X152815000Y-73402986D01*
X152815000Y-73597014D01*
X152852853Y-73787314D01*
X152927104Y-73966572D01*
X153034901Y-74127901D01*
X153172099Y-74265099D01*
X153333428Y-74372896D01*
X153512686Y-74447147D01*
X153702986Y-74485000D01*
X153897014Y-74485000D01*
X154087314Y-74447147D01*
X154266572Y-74372896D01*
X154427901Y-74265099D01*
X154565099Y-74127901D01*
X154672896Y-73966572D01*
X154747147Y-73787314D01*
X154785000Y-73597014D01*
X154785000Y-73402986D01*
X155815000Y-73402986D01*
X155815000Y-73597014D01*
X155852853Y-73787314D01*
X155927104Y-73966572D01*
X156034901Y-74127901D01*
X156172099Y-74265099D01*
X156333428Y-74372896D01*
X156512686Y-74447147D01*
X156702986Y-74485000D01*
X156897014Y-74485000D01*
X157087314Y-74447147D01*
X157266572Y-74372896D01*
X157427901Y-74265099D01*
X157565099Y-74127901D01*
X157672896Y-73966572D01*
X157747147Y-73787314D01*
X157785000Y-73597014D01*
X157785000Y-73402986D01*
X160615000Y-73402986D01*
X160615000Y-73597014D01*
X160652853Y-73787314D01*
X160727104Y-73966572D01*
X160834901Y-74127901D01*
X160972099Y-74265099D01*
X161133428Y-74372896D01*
X161312686Y-74447147D01*
X161502986Y-74485000D01*
X161697014Y-74485000D01*
X161887314Y-74447147D01*
X162066572Y-74372896D01*
X162227901Y-74265099D01*
X162365099Y-74127901D01*
X162472896Y-73966572D01*
X162547147Y-73787314D01*
X162585000Y-73597014D01*
X162585000Y-73402986D01*
X163515000Y-73402986D01*
X163515000Y-73597014D01*
X163552853Y-73787314D01*
X163627104Y-73966572D01*
X163734901Y-74127901D01*
X163872099Y-74265099D01*
X164033428Y-74372896D01*
X164212686Y-74447147D01*
X164402986Y-74485000D01*
X164597014Y-74485000D01*
X164787314Y-74447147D01*
X164966572Y-74372896D01*
X165071199Y-74302986D01*
X165515000Y-74302986D01*
X165515000Y-74497014D01*
X165552853Y-74687314D01*
X165627104Y-74866572D01*
X165734901Y-75027901D01*
X165757000Y-75050000D01*
X165734901Y-75072099D01*
X165627104Y-75233428D01*
X165552853Y-75412686D01*
X165515000Y-75602986D01*
X165515000Y-75797014D01*
X165552853Y-75987314D01*
X165627104Y-76166572D01*
X165734901Y-76327901D01*
X165872099Y-76465099D01*
X166033428Y-76572896D01*
X166212686Y-76647147D01*
X166402986Y-76685000D01*
X166597014Y-76685000D01*
X166787314Y-76647147D01*
X166966572Y-76572896D01*
X167127901Y-76465099D01*
X167265099Y-76327901D01*
X167372896Y-76166572D01*
X167447147Y-75987314D01*
X167485000Y-75797014D01*
X167485000Y-75602986D01*
X167447147Y-75412686D01*
X167372896Y-75233428D01*
X167265099Y-75072099D01*
X167243000Y-75050000D01*
X167265099Y-75027901D01*
X167372896Y-74866572D01*
X167447147Y-74687314D01*
X167485000Y-74497014D01*
X167485000Y-74302986D01*
X167465109Y-74202986D01*
X186915000Y-74202986D01*
X186915000Y-74397014D01*
X186952853Y-74587314D01*
X187027104Y-74766572D01*
X187049440Y-74800000D01*
X187027104Y-74833428D01*
X186952853Y-75012686D01*
X186915000Y-75202986D01*
X186915000Y-75397014D01*
X186952853Y-75587314D01*
X187027104Y-75766572D01*
X187049440Y-75800000D01*
X187027104Y-75833428D01*
X186952853Y-76012686D01*
X186915000Y-76202986D01*
X186915000Y-76397014D01*
X186952853Y-76587314D01*
X187027104Y-76766572D01*
X187049440Y-76800000D01*
X187027104Y-76833428D01*
X186952853Y-77012686D01*
X186915000Y-77202986D01*
X186915000Y-77397014D01*
X186952853Y-77587314D01*
X187027104Y-77766572D01*
X187049440Y-77800000D01*
X187027104Y-77833428D01*
X186952853Y-78012686D01*
X186915000Y-78202986D01*
X186915000Y-78397014D01*
X186952853Y-78587314D01*
X187027104Y-78766572D01*
X187134901Y-78927901D01*
X187272099Y-79065099D01*
X187433428Y-79172896D01*
X187612686Y-79247147D01*
X187802986Y-79285000D01*
X187997014Y-79285000D01*
X188187314Y-79247147D01*
X188366572Y-79172896D01*
X188400000Y-79150560D01*
X188433428Y-79172896D01*
X188612686Y-79247147D01*
X188802986Y-79285000D01*
X188997014Y-79285000D01*
X189187314Y-79247147D01*
X189366572Y-79172896D01*
X189527901Y-79065099D01*
X189665099Y-78927901D01*
X189772896Y-78766572D01*
X189847147Y-78587314D01*
X189885000Y-78397014D01*
X189885000Y-78202986D01*
X189847147Y-78012686D01*
X189772896Y-77833428D01*
X189750560Y-77800000D01*
X189772896Y-77766572D01*
X189847147Y-77587314D01*
X189885000Y-77397014D01*
X189885000Y-77202986D01*
X189847147Y-77012686D01*
X189772896Y-76833428D01*
X189750560Y-76800000D01*
X189772896Y-76766572D01*
X189847147Y-76587314D01*
X189885000Y-76397014D01*
X189885000Y-76202986D01*
X189847147Y-76012686D01*
X189772896Y-75833428D01*
X189750560Y-75800000D01*
X189772896Y-75766572D01*
X189847147Y-75587314D01*
X189885000Y-75397014D01*
X189885000Y-75202986D01*
X189847147Y-75012686D01*
X189772896Y-74833428D01*
X189750560Y-74800000D01*
X189772896Y-74766572D01*
X189847147Y-74587314D01*
X189885000Y-74397014D01*
X189885000Y-74202986D01*
X189847147Y-74012686D01*
X189772896Y-73833428D01*
X189665099Y-73672099D01*
X189527901Y-73534901D01*
X189366572Y-73427104D01*
X189187314Y-73352853D01*
X188997014Y-73315000D01*
X188802986Y-73315000D01*
X188612686Y-73352853D01*
X188433428Y-73427104D01*
X188400000Y-73449440D01*
X188366572Y-73427104D01*
X188187314Y-73352853D01*
X187997014Y-73315000D01*
X187802986Y-73315000D01*
X187612686Y-73352853D01*
X187433428Y-73427104D01*
X187272099Y-73534901D01*
X187134901Y-73672099D01*
X187027104Y-73833428D01*
X186952853Y-74012686D01*
X186915000Y-74202986D01*
X167465109Y-74202986D01*
X167447147Y-74112686D01*
X167372896Y-73933428D01*
X167265099Y-73772099D01*
X167127901Y-73634901D01*
X166966572Y-73527104D01*
X166787314Y-73452853D01*
X166597014Y-73415000D01*
X166402986Y-73415000D01*
X166212686Y-73452853D01*
X166033428Y-73527104D01*
X165872099Y-73634901D01*
X165734901Y-73772099D01*
X165627104Y-73933428D01*
X165552853Y-74112686D01*
X165515000Y-74302986D01*
X165071199Y-74302986D01*
X165127901Y-74265099D01*
X165265099Y-74127901D01*
X165372896Y-73966572D01*
X165447147Y-73787314D01*
X165485000Y-73597014D01*
X165485000Y-73402986D01*
X165447147Y-73212686D01*
X165372896Y-73033428D01*
X165265099Y-72872099D01*
X165127901Y-72734901D01*
X164966572Y-72627104D01*
X164787314Y-72552853D01*
X164597014Y-72515000D01*
X164402986Y-72515000D01*
X164212686Y-72552853D01*
X164033428Y-72627104D01*
X163872099Y-72734901D01*
X163734901Y-72872099D01*
X163627104Y-73033428D01*
X163552853Y-73212686D01*
X163515000Y-73402986D01*
X162585000Y-73402986D01*
X162547147Y-73212686D01*
X162472896Y-73033428D01*
X162365099Y-72872099D01*
X162227901Y-72734901D01*
X162066572Y-72627104D01*
X161887314Y-72552853D01*
X161697014Y-72515000D01*
X161502986Y-72515000D01*
X161312686Y-72552853D01*
X161133428Y-72627104D01*
X160972099Y-72734901D01*
X160834901Y-72872099D01*
X160727104Y-73033428D01*
X160652853Y-73212686D01*
X160615000Y-73402986D01*
X157785000Y-73402986D01*
X157747147Y-73212686D01*
X157672896Y-73033428D01*
X157565099Y-72872099D01*
X157427901Y-72734901D01*
X157266572Y-72627104D01*
X157087314Y-72552853D01*
X156897014Y-72515000D01*
X156702986Y-72515000D01*
X156512686Y-72552853D01*
X156333428Y-72627104D01*
X156172099Y-72734901D01*
X156034901Y-72872099D01*
X155927104Y-73033428D01*
X155852853Y-73212686D01*
X155815000Y-73402986D01*
X154785000Y-73402986D01*
X154747147Y-73212686D01*
X154672896Y-73033428D01*
X154565099Y-72872099D01*
X154427901Y-72734901D01*
X154266572Y-72627104D01*
X154087314Y-72552853D01*
X153897014Y-72515000D01*
X153702986Y-72515000D01*
X153512686Y-72552853D01*
X153333428Y-72627104D01*
X153172099Y-72734901D01*
X153034901Y-72872099D01*
X152927104Y-73033428D01*
X152852853Y-73212686D01*
X152815000Y-73402986D01*
X136583812Y-73402986D01*
X136585000Y-73397014D01*
X136585000Y-73202986D01*
X136547147Y-73012686D01*
X136472896Y-72833428D01*
X136365099Y-72672099D01*
X136227901Y-72534901D01*
X136066572Y-72427104D01*
X135887314Y-72352853D01*
X135697014Y-72315000D01*
X135502986Y-72315000D01*
X135312686Y-72352853D01*
X135133428Y-72427104D01*
X134972099Y-72534901D01*
X134834901Y-72672099D01*
X134727104Y-72833428D01*
X134652853Y-73012686D01*
X134615000Y-73202986D01*
X134615000Y-73397014D01*
X134652853Y-73587314D01*
X134720240Y-73750000D01*
X134652853Y-73912686D01*
X134615000Y-74102986D01*
X134615000Y-74297014D01*
X134652853Y-74487314D01*
X134727104Y-74666572D01*
X134834901Y-74827901D01*
X134857000Y-74850000D01*
X134734901Y-74972099D01*
X134627104Y-75133428D01*
X134552853Y-75312686D01*
X134515000Y-75502986D01*
X133908346Y-75502986D01*
X133787314Y-75452853D01*
X133597014Y-75415000D01*
X133402986Y-75415000D01*
X133212686Y-75452853D01*
X133033428Y-75527104D01*
X132872099Y-75634901D01*
X132734901Y-75772099D01*
X132627104Y-75933428D01*
X132552853Y-76112686D01*
X132515000Y-76302986D01*
X127680167Y-76302986D01*
X127527000Y-76275000D01*
X125473000Y-76275000D01*
X125175977Y-76329271D01*
X124895249Y-76440446D01*
X124641604Y-76604252D01*
X124424790Y-76814394D01*
X124253138Y-77062796D01*
X124133245Y-77339913D01*
X124108964Y-77445260D01*
X119660000Y-77445260D01*
X119660000Y-73350000D01*
X124061928Y-73350000D01*
X124061928Y-74650000D01*
X124078992Y-74823254D01*
X124129528Y-74989850D01*
X124211595Y-75143386D01*
X124322038Y-75277962D01*
X124456614Y-75388405D01*
X124610150Y-75470472D01*
X124776746Y-75521008D01*
X124950000Y-75538072D01*
X128050000Y-75538072D01*
X128223254Y-75521008D01*
X128389850Y-75470472D01*
X128543386Y-75388405D01*
X128677962Y-75277962D01*
X128788405Y-75143386D01*
X128870472Y-74989850D01*
X128921008Y-74823254D01*
X128938072Y-74650000D01*
X128938072Y-73814344D01*
X129615000Y-73814344D01*
X129615000Y-74185656D01*
X129687439Y-74549834D01*
X129829534Y-74892882D01*
X130035825Y-75201618D01*
X130298382Y-75464175D01*
X130607118Y-75670466D01*
X130950166Y-75812561D01*
X131314344Y-75885000D01*
X131685656Y-75885000D01*
X132049834Y-75812561D01*
X132392882Y-75670466D01*
X132701618Y-75464175D01*
X132964175Y-75201618D01*
X133170466Y-74892882D01*
X133312561Y-74549834D01*
X133385000Y-74185656D01*
X133385000Y-73814344D01*
X133312561Y-73450166D01*
X133170466Y-73107118D01*
X132964175Y-72798382D01*
X132701618Y-72535825D01*
X132392882Y-72329534D01*
X132049834Y-72187439D01*
X131685656Y-72115000D01*
X131314344Y-72115000D01*
X130950166Y-72187439D01*
X130607118Y-72329534D01*
X130298382Y-72535825D01*
X130035825Y-72798382D01*
X129829534Y-73107118D01*
X129687439Y-73450166D01*
X129615000Y-73814344D01*
X128938072Y-73814344D01*
X128938072Y-73350000D01*
X128921008Y-73176746D01*
X128870472Y-73010150D01*
X128788405Y-72856614D01*
X128677962Y-72722038D01*
X128543386Y-72611595D01*
X128389850Y-72529528D01*
X128223254Y-72478992D01*
X128050000Y-72461928D01*
X124950000Y-72461928D01*
X124776746Y-72478992D01*
X124610150Y-72529528D01*
X124456614Y-72611595D01*
X124322038Y-72722038D01*
X124211595Y-72856614D01*
X124129528Y-73010150D01*
X124078992Y-73176746D01*
X124061928Y-73350000D01*
X119660000Y-73350000D01*
X119660000Y-72273380D01*
X120273381Y-71660000D01*
X198095432Y-71660000D01*
X197933428Y-71727104D01*
M02*
