M48
; DRILL file {KiCad (5.1.0)-1} date 29.05.2020 16:36:47
; FORMAT={-:-/ absolute / inch / decimal}
; #@! TF.CreationDate,2020-05-29T16:36:47+02:00
; #@! TF.GenerationSoftware,Kicad,Pcbnew,(5.1.0)-1
; #@! TF.FileFunction,Plated,1,4,PTH
FMAT,2
INCH
T1C0.0118
T2C0.0472
%
G90
G05
T1
X4.7283Y-4.3425
X4.752Y-4.2677
X4.7559Y-4.2283
X4.7598Y-3.7362
X4.8346Y-4.5551
X4.8819Y-4.2441
X4.9852Y-4.2677
X5.0354Y-4.4803
X5.061Y-4.061
X5.0669Y-4.1575
X5.0748Y-3.3819
X5.0797Y-4.0344
X5.1217Y-3.7878
X5.122Y-3.752
X5.2087Y-3.437
X5.2205Y-4.1614
X5.2559Y-3.0079
X5.2677Y-3.9055
X5.311Y-3.1417
X5.3268Y-3.6339
X5.3346Y-2.9764
X5.3346Y-3.0118
X5.3386Y-2.8858
X5.3386Y-2.9213
X5.3425Y-3.3346
X5.3504Y-3.874
X5.3543Y-3.7165
X5.3543Y-3.7559
X5.4173Y-3.2441
X5.4606Y-3.4055
X5.4961Y-3.7165
X5.5Y-3.8937
X5.5394Y-3.7165
X5.5591Y-4.0394
X5.5591Y-4.1575
X5.5866Y-3.626
X5.6102Y-3.3268
X5.6575Y-3.9882
X5.6693Y-3.3543
X5.748Y-4.0236
X5.7657Y-3.2264
X5.8012Y-3.3543
X5.8189Y-3.2913
X5.8209Y-3.3878
X5.8268Y-3.5669
X5.8268Y-3.8465
X5.8268Y-3.8937
X5.8701Y-4.0886
X5.8858Y-3.8268
X5.8996Y-2.8858
X5.8996Y-3.1299
X5.9094Y-4.126
X5.9134Y-3.7047
X5.9311Y-2.8858
X5.9311Y-3.1299
X6.0256Y-3.2047
X6.0551Y-2.8937
X6.0551Y-3.1575
X6.0827Y-3.5945
X6.1457Y-3.9409
X6.1476Y-4.126
X6.1535Y-3.4409
X6.1732Y-2.8937
X6.1732Y-3.1575
X6.1909Y-3.8425
X6.2323Y-3.4173
X6.3031Y-3.8425
X6.3543Y-3.9606
X6.3622Y-2.8937
X6.3622Y-3.1575
X6.3976Y-3.6732
X6.4016Y-3.7795
X6.4331Y-3.815
X6.437Y-3.9882
X6.438Y-4.0551
X6.4685Y-3.937
X6.4764Y-2.8937
X6.4764Y-3.1575
X6.5217Y-3.2283
X6.5315Y-3.6378
X6.5512Y-3.3661
X6.5551Y-2.9291
X6.5551Y-2.9803
X6.563Y-3.6142
X6.5925Y-4.1315
X6.5925Y-4.1787
X6.5984Y-3.1535
X6.5984Y-3.2008
X6.6028Y-3.6039
X6.6028Y-3.6512
X6.6969Y-4.5541
X6.7283Y-4.5541
X6.8362Y-4.1323
X6.8362Y-4.1795
X6.8402Y-3.1559
X6.8402Y-3.2031
X6.8441Y-3.6047
X6.8441Y-3.652
X6.8504Y-2.8819
X6.8524Y-3.8402
X6.8547Y-3.3126
X6.8602Y-4.2677
X6.8602Y-4.3031
X6.911Y-3.2327
X6.911Y-4.2091
X6.915Y-3.6815
X6.9803Y-3.7559
X6.9803Y-3.7953
X7.0827Y-4.2244
X7.1024Y-3.748
X7.1142Y-3.1811
X7.1161Y-3.6254
X7.1161Y-4.1608
X7.1575Y-3.2323
X7.1594Y-3.6766
X7.1594Y-4.212
X7.189Y-3.2323
X7.1909Y-3.6766
X7.1909Y-4.212
X7.2756Y-3.2323
X7.2776Y-3.6766
X7.2776Y-4.212
X7.3071Y-3.2323
X7.3091Y-3.6766
X7.3091Y-4.212
X7.3504Y-3.1811
X7.3524Y-3.6254
X7.3937Y-3.6299
X7.3976Y-2.9252
X7.3976Y-2.9646
X7.3976Y-3.0039
X7.3976Y-3.0433
X7.3976Y-3.0827
X7.4016Y-3.3661
X7.4016Y-3.4055
X7.4016Y-3.4449
X7.4016Y-3.4843
X7.4016Y-3.5236
X7.4016Y-3.9094
X7.4016Y-3.9488
X7.4016Y-3.9882
X7.4016Y-4.0276
X7.4016Y-4.0669
X7.4035Y-4.5073
X7.437Y-2.9252
X7.437Y-2.9646
X7.437Y-3.0039
X7.437Y-3.0433
X7.437Y-3.0827
X7.4409Y-3.3661
X7.4409Y-3.4055
X7.4409Y-3.4449
X7.4409Y-3.4843
X7.4409Y-3.5236
X7.4409Y-3.9094
X7.4409Y-3.9488
X7.4409Y-3.9882
X7.4409Y-4.0276
X7.4409Y-4.0669
X7.4469Y-4.1766
X7.4783Y-4.1766
X7.4803Y-3.6299
X7.5197Y-4.1575
X7.5256Y-4.5085
X7.5787Y-2.9252
X7.6949Y-4.2553
X7.6949Y-4.2947
X7.6988Y-4.5073
X7.7598Y-3.7126
X7.7618Y-3.7992
X7.7618Y-4.0118
X7.7638Y-2.8898
X7.7638Y-3.2264
X7.811Y-2.8583
X7.811Y-3.7992
X7.813Y-3.2264
X7.813Y-4.1535
X7.8209Y-4.5085
X7.8543Y-2.8583
X7.8642Y-3.2264
X7.8642Y-4.1398
T2
X4.9803Y-3.311
X4.9803Y-3.461
X4.9803Y-3.611
X7.6417Y-3.3417
X7.6417Y-3.4917
X7.6417Y-3.6417
X5.3543Y-4.311
X5.5043Y-4.311
X5.6543Y-4.311
X5.8043Y-4.311
X4.9803Y-2.9134
X4.9803Y-3.0634
X6.063Y-4.311
X6.213Y-4.311
X6.363Y-4.311
X6.513Y-4.311
T0
M30
